<svg width="500" height="500" viewBox="0 0 500 500" fill="none" xmlns="http://www.w3.org/2000/svg">
<path d="M323.478 156.927C323.485 156.934 323.488 156.936 323.495 156.942C323.508 156.952 323.522 156.962 323.535 156.971C323.514 156.953 323.491 156.933 323.466 156.913C323.47 156.919 323.474 156.923 323.478 156.927Z" fill="black"/>
<path d="M205.64 218.097C204.104 216.987 202.436 216.023 200.621 215.454C197.285 214.557 195.84 214.301 193.566 212.756C192.991 212.387 192.492 211.89 191.838 211.664C190.886 211.407 189.802 211.873 189.464 212.812C188.957 214.165 189.847 215.586 190.47 216.758C191.31 217.968 190.747 217.209 191.669 218.414C191.858 218.617 192.041 218.846 192.248 219.04C192.48 219.548 192.71 220.056 192.937 220.566C193.311 221.49 193.214 221.247 193.488 221.919C193.533 222.084 193.612 222.238 193.709 222.378C193.482 223.927 193.364 225.494 193.277 227.054C192.733 231.562 193.501 238.306 194.928 240.852C196.367 244.455 200.422 246.708 204.242 246.029C207.362 245.373 209.505 242.515 210.548 239.655C211.379 237.892 211.61 235.954 211.692 234.027C211.808 232.525 211.827 231.017 211.567 229.527C211.048 225.188 209.391 220.645 205.64 218.097Z" fill="black"/>
<path d="M259.185 246.308C263.107 248.446 267.63 246.244 269.854 242.713C274.28 236.092 274.118 227.914 271.999 220.527C270.957 216.021 270.776 215.837 272.801 213.567C272.848 213.53 272.885 213.488 272.928 213.45C273.648 213.156 274.388 212.78 274.575 211.954C274.985 210.564 273.597 209.156 272.2 209.579C267.056 211.83 264.363 212.271 260.96 214.985C254.955 220.497 252.041 229.525 252.937 237.552C253.4 241.31 255.646 244.789 259.185 246.308Z" fill="black"/>
<path d="M232.749 268.29C232.772 268.242 232.789 268.192 232.812 268.143C233.297 269.259 233.93 270.302 234.782 271.224C236.785 272.838 239.602 273.414 242.118 273.029C243.745 272.817 245.313 271.93 246.261 270.579C246.864 269.858 247.302 268.738 246.588 267.942C245.81 266.823 244.042 267.193 243.563 268.405C243.507 268.497 243.443 268.584 243.381 268.673C243.344 268.714 243.307 268.755 243.245 268.821C243.137 268.928 243.021 269.027 242.906 269.126C242.862 269.153 242.811 269.183 242.742 269.222C241.453 270.172 237.922 269.554 236.973 268.541C235.619 266.991 234.761 263.032 234.769 259.225C234.762 258.27 234.765 257.315 234.766 256.36C234.966 256.251 235.163 256.121 235.349 255.939C236.065 255.13 236.447 254.078 236.964 253.137C237.392 252.231 237.869 251.312 237.918 250.292C238.025 249.031 237.195 247.702 235.895 247.528C234.321 247.264 232.706 247.205 231.119 247.37C230.329 247.503 229.41 247.485 228.752 247.99C227.956 248.322 227.352 249.06 227.372 249.984C227.634 251.777 228.992 253.227 230.056 254.627C230.307 254.929 230.607 255.229 230.937 255.503C230.868 256.464 231.072 257.595 231.008 258.417C230.973 261.426 230.985 262.75 230.36 265.001C229.832 266.533 230.038 266.079 229.228 267.68C228.709 268.432 229.086 268.092 228.359 268.739C225.893 270.215 224.698 270.423 222.611 269.869C222.532 269.83 222.448 269.786 222.374 269.741C222.308 269.698 222.265 269.669 222.222 269.641C222.12 269.551 222.019 269.461 221.923 269.365C221.672 269.123 221.45 268.817 221.102 268.716C219.618 268.01 218.248 270.067 219.43 271.197C222.561 274.859 227.774 273.648 230.317 271.654C231.485 270.844 232.21 269.574 232.749 268.29Z" fill="black"/>
<path d="M144.983 179.969C145.059 180.001 145.137 180.029 145.213 180.059C145.172 180.04 145.096 180.009 144.976 179.966C144.979 179.967 144.981 179.968 144.983 179.969Z" fill="black"/>
<path d="M313.906 326.015C313.903 326.006 313.899 325.998 313.896 325.989C313.864 325.913 313.828 325.836 313.791 325.76C313.776 325.742 313.801 325.81 313.906 326.015Z" fill="black"/>
<path d="M413.867 380.925C413.886 380.888 413.896 380.867 413.909 380.842C413.922 380.812 413.934 380.783 413.947 380.753C413.924 380.79 413.858 380.918 413.812 381.035C413.832 380.997 413.845 380.961 413.867 380.925Z" fill="black"/>
<path d="M440.529 298.193C440.425 289.894 439.053 281.642 436.846 273.651C434.402 264.513 430.475 255.868 426.524 247.302C424.512 243.03 422.917 239.531 421.733 236.08C420.531 231.928 420.369 229.992 420.083 225.859C420.152 224.482 418.435 223.431 417.331 224.412C416.846 224.808 416.559 225.397 416.18 225.9C416.14 225.947 415.7 226.496 415.524 226.686C414.871 227.393 414.185 228.069 413.478 228.722C405.44 236.696 391.565 241.222 377.577 243.577C371.446 244.537 366.15 245.125 358.312 246.102C355.225 246.508 352.104 246.719 349.067 247.434C345.447 248.339 341.96 249.952 339.106 252.379C338.792 252.641 338.492 252.92 338.19 253.196C336.481 245.469 332.898 239.363 330.677 232.079C329.555 227.793 329.47 225.132 329.243 220.325C330.679 219.569 332.821 217.735 334.907 215.782C340.288 210.873 345.652 205.927 350.301 200.299C361.144 188.213 370.406 174.823 378.326 160.66C383.601 151.869 388.313 142.709 391.705 133.016C393.519 127.533 394.481 121.8 395.033 116.062C395.881 103.09 394.611 90.0652 395.505 77.0962C395.946 71.7122 396.375 69.0492 397.187 63.9602C398.282 58.5112 399.143 51.0352 398.334 47.1842C396.268 34.1892 392.462 34.3222 382.316 41.2412C374.884 46.3932 367.43 51.5082 359.733 56.2612C347.481 64.0772 334.975 71.4852 322.714 79.2852C317.077 82.9642 311.159 86.2412 305.892 90.4602C297.922 96.5372 290.86 103.883 285.3 112.231C282.355 116.761 279.544 121.445 277.685 126.537C277.344 127.452 277.001 128.366 276.663 129.282C274.713 128.351 272.687 127.578 270.616 126.95C258.738 123.304 246.367 120.936 233.903 121.274C223.728 121.565 213.269 122.648 203.733 126.382C203.719 126.368 203.709 126.353 203.694 126.34C200.574 122.998 197.638 119.46 194.018 116.631C189.083 112.675 183.523 109.607 177.947 106.661C168.739 101.693 159.643 96.4952 151 90.5872C141.464 83.9102 133.35 78.4122 125.084 69.8112C121.009 65.4182 117.083 60.8942 113.085 56.4332C109.286 52.5472 101.773 43.4902 95.9199 47.3752C93.9309 48.7722 93.0149 51.1402 92.1959 53.3372C90.8169 56.9652 89.8789 60.7342 89.0179 64.5132C86.4959 76.2892 84.8899 88.3382 84.7969 100.392C84.8689 108.753 86.0879 117.073 87.5599 125.29C89.7359 137.029 92.6459 148.699 96.9309 159.855C103.627 176.167 112.565 191.621 123.787 205.244C128.135 210.238 133.833 214.824 138.487 216.928C138.864 217.137 139.2 217.264 139.511 217.349C138.563 222.022 137.06 227.777 135.605 231.824C133.884 237.181 131.742 242.378 129.632 247.588C126.599 254.857 126.945 261.877 130.622 269.529C135.967 280.998 146.231 288.72 157.576 293.736C163.075 296.264 168.716 298.475 174.522 300.129C173.85 300.405 173.184 300.695 172.524 300.994C168.657 302.647 164.863 304.815 162.187 308.13C154.395 317.311 152.506 331.033 156.739 342.201C157.327 343.517 157.975 344.806 158.688 346.059C152.253 357.484 150.955 371.184 152.411 384.048C154.066 400.016 161.05 415.809 173.374 426.363C175.774 428.527 179.386 431.09 181.011 432.352C181.114 432.439 181.414 432.683 181.595 432.814C182.685 433.666 182.103 433.234 183.099 433.962C183.197 434.051 183.307 434.125 183.422 434.192C182.023 439.582 182.913 444.884 186.578 449.385C189.059 452.358 192.587 454.357 196.186 455.678C199.227 456.606 202.431 456.86 205.597 456.894C208.996 456.905 212.522 456.507 215.604 454.993C216.511 454.486 217.359 453.839 218.034 453.046C218.101 452.97 218.204 452.84 218.31 452.703C220.154 455.843 222.691 458.6 225.986 460.178C231.67 463.062 239.37 461.772 243.085 456.375C243.599 455.732 244.048 455.049 244.454 454.342C245.852 456.949 247.782 459.278 250.416 460.676C255.127 463.213 261.217 463.27 265.895 460.631C268.979 458.787 270.923 455.731 272.272 452.472C273.556 453.992 275.342 455.043 277.107 455.938C282.603 458.61 289.072 458.204 294.704 456.16C300.024 454.318 304.972 451.297 308.981 447.339C311.757 444.489 313.903 441.107 316.127 437.827C316.883 436.584 317.535 435.282 318.109 433.945C319.524 432.676 320.993 431.469 322.461 430.259C322.799 430.224 323.137 430.175 323.464 430.144C325.941 429.769 326.48 429.692 329.588 429.595C338.378 429.432 347.219 428.846 355.739 426.546C374.186 421.955 392.125 413.404 405.516 399.681C417.646 387.417 425.312 371.457 430.705 355.246C435.046 342.163 438.199 328.663 439.321 314.904C439.969 309.352 440.717 303.796 440.529 298.193ZM332.135 246.458C334.128 252.147 335.281 256.657 335.214 261.738C335.069 264.149 334.728 265.466 333.566 268.376C332.446 270.903 329.781 274.429 329.144 275.174C324.51 280.88 320.332 283.565 313.765 287.04C308.568 289.681 303.413 291.478 296.908 293.513C294.414 294.157 291.956 294.7 289.574 295.158C287.081 288.144 286.878 282.362 287.024 274.664C286.948 268.722 289.083 261.356 291.159 256.665C292.59 253.482 294.279 251.414 295.743 249.626C299.519 245.183 302.312 243.115 307.738 240.482C310.58 239.13 317.922 236.926 323.954 237.724C324.848 237.742 326.063 238.067 328.043 238.485C328.357 238.531 328.666 238.647 328.976 238.749C330.021 241.329 331.137 243.74 332.135 246.458ZM374.087 159.975C368.473 169.885 362.238 179.445 355.226 188.425C352.679 191.385 346.283 199.212 342.175 203.428C338.111 207.641 333.742 211.563 329.335 215.409C329.278 215.455 329.221 215.5 329.163 215.545C329.14 210.394 329.208 205.233 328.43 200.133C327.601 195.059 326.337 190.013 324.327 185.272C323.034 182.291 321.403 179.468 319.689 176.704C319.931 176.675 320.132 176.615 320.264 176.599C321.799 176.122 323.197 175.249 324.542 174.383C326.121 173.376 327.495 172.07 328.368 170.396C330.916 165.657 328.137 159.865 323.856 157.208C323.749 157.129 323.643 157.051 323.536 156.972C323.63 157.054 323.666 157.098 323.496 156.943C323.472 156.925 323.447 156.907 323.423 156.889C323.425 156.887 323.426 156.886 323.428 156.885C323.442 156.895 323.454 156.905 323.468 156.915C323.457 156.903 323.446 156.891 323.435 156.879C323.513 156.807 323.595 156.737 323.667 156.69C323.679 156.681 323.681 156.679 323.691 156.671C324.946 155.707 326.299 154.887 327.645 154.059C332.046 151.597 339.445 145 331.949 141.408C328.78 140.108 325.806 140.003 324.637 138.737C324.621 138.712 324.599 138.677 324.57 138.63C324.568 138.626 324.567 138.625 324.566 138.621C324.565 138.618 324.564 138.616 324.563 138.613C324.563 138.61 324.563 138.605 324.563 138.602C324.583 138.509 324.601 138.416 324.631 138.325C324.638 138.313 324.643 138.3 324.65 138.287C326.146 135.904 326.569 135.364 328.601 133.174C337.078 125.247 346.32 118.179 354.766 110.216C356.534 108.55 358.305 106.881 360.031 105.168C360.133 107.246 359.987 108.914 359.646 110.469C359.167 112.823 358.324 115.092 357.959 117.472C357.218 122.857 357.649 129.434 356.74 133.372C355.799 137.852 354.801 140.045 352.285 143.841C350.362 146.506 346.126 151.218 343.805 155.357C342.6 157.584 342.493 160.151 342.438 162.629C342.543 165.915 342.476 168.985 342.034 171.082C341.032 176.398 338.686 180.075 335.188 184.872C335.107 184.976 335.009 185.099 334.933 185.188C334.228 186.071 333.486 186.924 332.71 187.745C332.288 188.259 331.66 188.644 331.413 189.273C331.026 190.033 331.405 191.013 332.121 191.434C333.748 192.341 334.853 190.422 335.856 189.436C338.662 186.272 341.079 182.749 343.003 178.983C344.665 175.721 345.558 172.132 345.842 168.491C346.098 165.461 345.721 162.413 346.092 159.389C346.484 156.682 348.444 154.489 350.574 151.627C352.252 149.305 354.614 146.846 356.622 143.493C358.333 140.447 359.637 137.154 360.186 133.693C361.021 129.436 360.938 121.593 361.2 119.067C361.737 115.378 363.143 111.863 363.464 108.14C364.337 110.299 364.952 112.515 365.978 115.404C366.808 117.827 368.457 119.535 371.118 118.359C372.638 117.519 373.735 116.111 375.059 115.011C375.136 114.959 375.237 114.893 375.345 114.834C375.376 114.825 375.412 114.816 375.451 114.807C375.459 114.806 375.462 114.806 375.47 114.806C375.717 114.795 375.965 114.798 376.212 114.814C376.257 114.827 376.297 114.838 376.33 114.847C377.377 115.402 377.044 115.23 377.65 115.809C378.546 116.879 378.221 116.396 379.104 117.875C380.257 119.87 382.455 127.201 382.513 129.398C382.858 132.057 382.886 134.741 383.137 137.407C383.316 138.586 383.349 140.099 383.929 141.201C381.112 147.693 377.606 153.842 374.087 159.975ZM333.768 76.6612C347.191 68.4742 360.591 60.2352 373.725 51.5912C378.239 48.5222 382.603 45.2312 387.234 42.3372C389.181 41.0962 391.17 40.0692 392.064 39.9862C392.154 40.0062 392.243 40.0282 392.33 40.0572C392.344 40.0642 392.358 40.0692 392.372 40.0762C392.424 40.1012 392.468 40.1372 392.517 40.1672C393.124 40.7652 393.266 41.3412 393.81 43.1032C394.65 46.7482 394.84 47.9302 394.862 51.6232C394.882 55.8412 394.114 58.7272 393.291 63.5762C392.297 69.2282 391.479 74.9212 391.184 80.6572C390.447 93.6712 391.913 110.054 390.124 120.946C389.578 124.264 388.894 127.564 387.954 130.794C387.461 132.329 386.895 133.901 386.343 135.347C386.194 130.563 385.882 125.726 384.262 121.182C383.164 117.749 381.78 113.988 378.568 112.004C374.426 109.629 371.721 113.185 369.759 114.801C369.723 114.727 369.689 114.656 369.661 114.595C368.07 110.139 366.89 105.082 363.842 101.165C364.587 100.335 365.32 99.4952 366.021 98.6262C369.36 94.3992 372.112 89.6842 374.193 84.7182C374.912 82.8712 375.436 80.9522 375.872 79.0212C375.986 78.1192 376.517 77.1532 376.033 76.2942C375.392 75.1482 373.525 75.3642 373.206 76.6632C371.537 83.9952 368.941 88.2602 363.931 95.0842C363.476 95.6792 362.882 96.3782 362.198 97.1402C361.846 97.4012 361.436 97.6842 360.693 98.1802C359.659 98.8572 358.56 99.4232 357.482 100.025C356.786 100.202 356.169 100.758 355.506 101.04C355.245 101.291 352.901 101.852 352.802 101.759C352.493 101.731 352.58 101.827 351.779 101.584C351.743 101.563 351.703 101.537 351.657 101.508C351.61 101.463 351.552 101.406 351.492 101.341C351.472 101.314 351.455 101.29 351.429 101.255C350.341 98.9052 349.911 97.5442 345.611 98.2052C342.184 98.6822 340.463 99.0032 336.464 99.0602C334.365 99.0452 334.669 99.1312 333.046 98.6392C333.003 98.6192 332.964 98.5942 332.922 98.5712C332.97 98.4342 333.024 98.2982 333.077 98.1622C333.078 98.1602 333.078 98.1592 333.079 98.1562C333.764 96.6312 334.622 95.1052 334.781 93.4152C334.877 90.6722 333.188 90.0082 330.75 90.3362C325.203 90.4472 319.617 90.9622 314.084 90.3952C313.855 90.3512 313.128 90.2282 312.564 90.1162C319.19 85.5982 326.94 81.0872 333.768 76.6612ZM91.5279 127.547C89.7159 117.987 88.4199 110.419 88.1659 100.437C87.9899 94.4712 88.8609 85.3252 89.4149 81.0602C90.1489 75.6662 90.8469 70.2592 92.1039 64.9562C93.4969 58.4402 96.0259 49.3782 98.5159 49.4072C104.097 48.6702 115.381 64.4772 121.477 70.7362C125.34 75.2002 129.759 79.1442 134.439 82.7312C140.007 87.1922 145.824 91.3282 151.783 95.2482C155.197 97.5352 158.702 99.6662 162.248 101.726C160.808 101.269 159.368 100.81 157.923 100.371C154.509 99.4122 151.079 97.7652 147.475 97.9262C146.3 97.9522 145.436 99.1112 145.75 100.243C145.974 100.942 146.566 101.42 147.003 101.992C147.657 102.847 148.212 103.775 148.671 104.749C148.674 104.755 148.677 104.761 148.68 104.768C148.979 105.514 149.226 106.282 149.382 107.07C149.388 107.107 149.392 107.136 149.396 107.163C149.409 107.294 149.42 107.425 149.418 107.557C149.398 107.641 149.375 107.724 149.347 107.805C149.33 107.836 149.311 107.87 149.287 107.912C149.196 108.007 149.095 108.102 149.004 108.183C147.813 108.803 146.63 108.884 144.225 108.866C140.36 108.775 138.195 108.564 135.189 107.859C131.813 106.959 129.724 106.189 127.42 104.935C124.99 103.742 122.652 102.042 119.896 101.763C117.64 101.783 117.346 103.974 117.373 105.781C117.317 108.233 117.304 110.685 117.311 113.137C117.312 114.335 117.312 115.534 117.313 116.732C117.082 116.487 116.848 116.252 116.618 116.001C112.686 111.64 108.053 105.537 106.402 101.034C104.605 96.6222 102.998 92.1182 102.109 87.4262C101.824 86.0552 101.526 84.6872 101.237 83.3182C101.13 82.9302 100.874 82.6012 100.529 82.3972C99.4069 81.6972 97.8629 82.8512 98.2649 84.1382C99.0239 87.8952 99.6679 91.6852 100.827 95.3472C102.211 99.3302 103.546 103.379 105.596 107.08C108.216 111.343 111.281 115.363 114.639 119.079C113.713 119.42 112.772 120.182 111.915 120.433C111.145 120.744 110.378 121.174 108.642 121.537C108.561 121.552 108.478 121.562 108.397 121.574C108.369 121.577 108.344 121.58 108.302 121.584C105.516 121.755 105.081 121.305 102.121 120.952C99.3159 120.893 98.6129 124.772 97.8559 126.859C97.1009 129.125 96.9989 129.285 95.8789 131.707C95.2479 133.115 94.0209 134.891 93.3459 135.804C92.6749 132.994 92.0639 130.213 91.5279 127.547ZM127.463 203.806C122.839 198.734 119.551 193.678 115.307 187.373C109.842 178.898 105.076 169.997 101.149 160.706C98.6779 155.002 96.3639 147.637 94.4309 140.172C94.5079 140.115 94.5819 140.05 94.6509 139.975C97.0619 137.269 99.0869 134.235 100.368 130.831C101.215 128.946 101.631 126.909 102.386 124.992C102.43 124.9 102.491 124.792 102.558 124.681C103.906 124.921 105.253 125.194 106.624 125.258C109.178 125.426 111.562 124.471 113.782 123.301C110.224 134.102 111.682 144.843 118.406 154.582C119.838 157.321 120.571 159.923 120.676 162.627C120.767 166.025 120.613 169.431 121.003 172.817C121.295 175.517 122.045 178.153 122.974 180.7C123.883 183.028 124.83 185.365 126.158 187.491C128.05 190.315 130.257 192.918 132.416 195.539C133.913 197.237 134.827 198.461 135.623 199.563C136.518 200.725 137.061 202.207 138.918 200.931C139.921 199.914 139.093 198.774 138.431 197.85C136.861 195.37 134.867 193.205 133.074 190.891C130.896 188.032 129.86 187.161 128.184 184.064C125.993 179.77 124.349 175.074 124.17 170.074C123.919 165.451 124.507 160.67 122.784 156.254C121.743 153.253 119.827 150.722 118.28 147.985C116.331 144.46 115.37 140.365 115.058 136.506C114.821 131.798 115.283 129.088 116.623 124.49C116.874 123.658 117.159 122.837 117.475 122.027C120.797 125.241 124.474 128.068 128.116 130.911C132.617 134.522 137.078 138.186 141.445 141.959C144.596 144.704 147.786 147.778 149.406 150.344C149.636 150.679 149.853 151.023 150.076 151.363C147.475 150.273 144.744 149.515 141.914 149.262C138.457 148.829 134.874 149.04 131.632 150.397C130.145 151.044 128.344 151.743 127.736 153.381C127.122 155.863 128.975 158.099 130.663 159.701C134.08 162.869 139.48 165.296 142.833 166.692C141.54 168.76 140.293 170.87 139.579 173.219C138.981 175.02 138.604 177.052 139.299 178.88C139.87 180.381 141.155 181.526 142.527 182.304C143.256 182.667 144.681 183.294 146.038 183.607C145.577 184.69 145.151 185.788 144.774 186.906C142.045 195.331 141.483 204.333 140.421 211.74C140.351 212.478 140.227 213.37 140.066 214.354C137.75 213.386 131.601 208.398 127.463 203.806ZM169.387 292.046C169.245 292.374 169.102 292.7 168.944 293.02C168.837 293.265 168.69 293.488 168.537 293.706C168.524 293.722 168.511 293.737 168.499 293.753C164.894 292.433 161.45 290.962 158.072 289.441C145.859 283.691 137.542 276.536 133.003 265.759C129.752 257.838 131.134 252.559 134.145 245.678C134.264 245.406 134.371 245.128 134.488 244.855C142.004 241.645 152.6 241.193 159.743 246.041C165.765 250.183 170.426 257.077 171.772 265.558C172.8 273.191 172.985 283.358 169.482 291.823C169.155 292.585 169.769 291.161 169.387 292.046ZM166.346 308.694C168.591 306.311 173.916 303.676 176.94 302.484C177.913 302.111 178.895 301.755 179.905 301.492C180.961 301.72 182.022 301.93 183.089 302.115C193.774 304.283 204.841 305.122 215.674 303.631C218.376 303.306 221.017 302.641 223.669 302.053C224.612 301.874 225.546 301.655 226.486 301.461C226.849 301.384 227.233 301.313 227.503 301.037C229.194 299.799 227.825 297.031 225.796 297.612C224.029 297.549 216.47 299.39 214.535 299.458C202.999 300.77 192.7 299.81 182.519 297.639C178.819 296.967 175.366 296.051 172.068 294.987C172.208 294.675 172.605 293.73 172.713 293.479C173.866 290.752 174.758 287.924 175.33 285.018C176.755 278.156 176.659 271.068 175.675 264.152C174.67 257.976 171.721 252.128 167.531 247.5C164.003 243.589 159.422 240.594 154.244 239.445C148.392 238.142 142.237 238.653 136.569 240.529C136.457 240.564 136.347 240.607 136.235 240.643C138.128 235.869 139.8 231.004 141.254 226.081C145.231 212.771 144.157 200.371 147.973 187.746C149.729 182.199 153.289 176.175 156.84 170.26C157.885 168.618 158.957 166.991 160.162 165.462C160.149 165.479 160.146 165.483 160.134 165.497C160.292 165.299 160.531 164.994 160.632 164.856C160.913 164.572 161.076 164.19 161.074 163.789C161.119 162.517 159.387 161.755 158.498 162.722C155.388 166.503 152.851 170.702 150.447 174.956C149.381 176.821 148.344 178.709 147.396 180.638C147.314 180.632 147.24 180.627 147.177 180.622C146.505 180.503 145.848 180.31 145.213 180.06C145.303 180.102 145.213 180.079 144.983 179.97C144.973 179.966 144.962 179.962 144.952 179.958C144.962 179.961 144.968 179.964 144.977 179.967C144.958 179.958 144.943 179.951 144.923 179.941C142.615 178.803 142.049 177.947 142.191 176.095C142.389 174.579 143.168 172.391 144.556 170.079C145.871 167.984 148.185 165.339 144.666 163.99C141.889 162.766 139.128 161.485 136.52 159.928C133.44 158.218 130.889 155.457 130.944 154.607C132.707 153.402 136.493 152.233 139.926 152.486C144.259 152.63 147.729 153.491 151.41 155.444C152.214 155.856 152.998 156.303 153.786 156.744C154.14 156.95 154.574 157.008 154.97 156.899C156.243 156.595 156.495 154.717 155.337 154.092C155.271 154.051 155.203 154.014 155.137 153.974C155.067 153.835 154.993 153.69 154.939 153.521C154.753 153.115 154.704 152.988 154.894 153.448C154.679 152.914 154.446 152.387 154.169 151.883C152.281 148.291 149.851 145.01 146.933 142.188C141.732 137.205 136.107 132.675 130.499 128.161C127.247 125.657 123.809 123.005 120.428 119.841C120.722 119.535 120.908 119.125 120.894 118.648C120.902 115.03 120.89 108.465 120.865 105.571C122.277 106.136 123.99 107.183 125.857 108.162C127.849 109.26 129.981 110.071 132.136 110.782C136.039 112.02 140.182 112.424 144.264 112.405C151.964 112.512 154.342 108.963 151.439 103.104C151.273 102.701 151.073 102.297 150.861 101.906C153.087 102.525 155.251 103.372 157.451 104.073C162.319 105.538 167.191 107.188 172.231 107.928C172.541 108.089 172.886 108.189 173.232 108.23C173.231 108.234 173.225 108.237 173.232 108.242C173.446 108.309 173.659 108.318 173.873 108.271C173.891 108.269 173.906 108.264 173.924 108.262C177.631 110.286 181.343 112.304 185.015 114.387C190.945 117.885 194.829 121.098 199.542 126.39C199.94 126.816 200.345 127.236 200.748 127.658C199.462 128.311 198.172 128.967 197.008 129.824C196.394 130.256 195.681 130.663 195.5 131.449C194.989 133.127 196.98 134.675 198.479 133.739C210.095 125.796 233.931 124.721 249.434 126.716C254.514 127.487 265.773 129.762 272.783 132.202C274.476 132.785 275.562 133.309 278.102 134.555C278.761 134.87 279.395 135.236 280.075 135.507C279.926 135.444 279.776 135.381 279.627 135.318C280.075 135.598 280.628 135.685 281.137 135.544C282.686 135.167 283.005 132.881 281.585 132.114C280.85 131.607 280.093 131.136 279.323 130.689C281.366 124.974 283.937 120.066 287.738 114.49C292.307 107.805 298.431 101.121 305.545 95.3262C306.588 94.4632 307.707 93.5982 308.876 92.7342C315.299 95.2122 322.373 94.1052 329.099 94.1582C329.592 94.1482 330.085 94.1212 330.578 94.0962C330.309 94.7512 330.104 95.2022 329.485 96.6622C328.92 97.9382 328.862 99.4912 329.758 100.632C332.52 104.587 342.805 102.227 347.025 101.565C347.29 101.533 347.556 101.51 347.822 101.5C348.964 104.627 351.546 105.578 354.647 104.783C352.927 106.422 351.234 107.989 349.784 109.295C343.711 115.011 337.238 120.277 331.111 125.933C328.657 128.207 326.052 130.357 324.019 133.035C321.28 136.426 319.031 139.803 323.939 142.569C326.669 143.807 330.495 144.396 331.253 145.163C331.254 145.164 331.257 145.169 331.259 145.17C331.306 145.219 331.343 145.269 331.364 145.32C331.396 145.368 331.428 145.416 331.457 145.465C331.414 145.61 331.368 145.753 331.311 145.893C331.213 146.103 331.076 146.38 330.975 146.516C330.442 147.273 330.731 146.933 329.625 148.065C329.371 148.388 328.235 149.332 327.814 149.681C325.992 150.988 324.037 152.101 322.27 153.484C321.095 154.349 319.663 155.519 319.933 157.147C320.062 158.606 321.27 159.506 322.38 160.3C322.415 160.329 322.468 160.368 322.544 160.418C322.553 160.425 322.563 160.431 322.572 160.438C323.128 160.922 323.122 160.805 323.887 161.721C325.95 164.607 325.959 167.042 324.779 168.938C324.272 169.719 323.926 170.095 323.089 170.684C321.9 171.572 320.609 172.311 319.292 172.99C318.7 173.074 318.208 173.425 317.911 173.896C315.781 170.701 313.294 167.764 311.009 164.681C308.508 161.484 306.735 158.812 302.674 155.174C301.274 154.556 299.976 156.408 301.096 157.515C306.436 163.041 309.865 168.321 314.539 174.849C317.022 178.825 319.402 182.91 321.234 187.23C322.231 189.584 324.233 196.904 324.792 201.194C325.905 208.991 324.582 221.662 326.501 231.207C326.792 232.425 327.116 233.557 327.463 234.634C325.179 234.097 322.825 233.856 320.482 233.795C311.987 233.811 303.513 236.838 297.051 242.377C293.157 245.977 289.62 250.228 287.511 255.13C285.44 260.01 283.949 265.17 283.506 270.467C283.109 276.792 283.261 283.212 284.524 289.437C284.967 291.578 285.484 293.709 286.29 295.744C283.966 296.123 281.741 296.418 279.677 296.624C270.906 297.536 262.075 298.168 253.255 297.715C248.719 297.512 247.716 297.097 244.681 296.85C243.123 296.94 242.41 299.114 243.554 300.167C244.103 300.74 244.927 300.759 245.659 300.908C247.012 301.143 248.377 301.3 249.743 301.434C253.95 301.855 258.181 301.869 262.404 301.791C274.329 301.41 286.336 300.311 297.922 297.359C299.188 296.976 300.454 296.58 301.716 296.166C301.943 296.297 302.196 296.382 302.459 296.403C302.688 296.44 302.916 296.478 303.145 296.515C303.189 296.532 303.218 296.544 303.215 296.541C307.936 297.835 310.217 298.622 314.413 301.391C321.487 306.246 328.105 314.331 329.979 323.306C330.36 325.088 330.508 325.755 330.567 329.544C330.608 332.101 330.379 334.648 330.038 337.18C329.202 342.081 327.767 346.716 326.12 350.024C323.428 354.825 320.744 357.626 317.103 360.285C315.655 361.348 314.165 362.358 312.599 363.231C314.973 359.386 316.83 355.244 317.919 350.838C319.224 344.545 319.847 338.031 318.978 331.636C318.444 328.049 316.683 322.115 314.166 323.459C313.018 324.397 313.458 325.086 313.79 325.763C313.803 325.779 313.846 325.865 313.895 325.992C313.901 326.006 313.908 326.021 313.914 326.035C313.91 326.028 313.909 326.025 313.906 326.018C313.924 326.067 313.942 326.12 313.959 326.178C314.244 326.98 314.422 327.815 314.624 328.642C315.113 330.806 315.285 331.922 315.348 335.694C315.448 342.466 314.44 348.691 312.715 353.702C308.148 365.153 299.491 373.768 290.464 380.407C286.82 382.864 283.207 385.376 279.421 387.611C276.796 389.083 274.166 390.547 271.533 392.005C272.488 390.988 273.433 389.962 274.375 388.935C281.323 381.404 286.89 372.377 289.315 362.352C289.964 359.564 290.373 356.727 290.633 353.878C290.64 352.863 291.008 351.624 290.244 350.81C289.55 350.087 288.266 350.26 287.772 351.129C287.607 351.399 287.56 351.703 287.552 352.014C287.547 352.058 287.536 352.101 287.533 352.146C287.455 352.456 287.481 352.448 287.514 352.341C287.498 352.456 287.483 352.571 287.467 352.686C287.227 353.642 287.194 355.487 286.546 358.356C283.777 372.667 275.814 382.669 265.43 393.068C261.08 397.553 255.973 401.218 251.586 405.663C249.071 408.371 246.163 410.919 244.456 414.239C241.355 411.209 237.602 408.957 233.958 406.638C226.884 401.925 218.255 397.75 213.075 392.875C209.968 389.977 207.858 385.917 205.468 381.273C203.434 376.709 201.9 373.968 200.619 369.501C199.748 366.345 199.758 362.288 199.844 358.086C199.863 357.132 199.913 356.178 199.967 355.225C199.966 354.898 199.837 354.584 199.606 354.353C198.894 353.587 197.457 354.156 197.501 355.225C197.137 360.971 196.595 366.936 198.409 372.501C200.646 378.677 203.055 384.976 206.619 390.532C202.004 388.438 197.284 386.551 192.85 384.089C182.823 378.075 174.394 372.452 168.85 363.084C163.769 355.647 162.805 346.807 164.214 338.762C165.307 331.383 168.385 326.622 172.567 320.263C173.02 319.41 174.023 318.559 174.207 317.655C174.473 316.342 172.652 315.429 171.74 316.428C168.381 320.862 165.093 325.474 162.874 330.598C161.581 333.826 160.685 337.23 160.219 340.69C159.934 339.983 159.677 339.22 159.429 338.27C156.775 327.815 158.863 316.595 166.346 308.694ZM184.759 430.44C183.714 429.553 182.643 428.697 181.552 427.868C179.041 426.016 177.26 424.631 174.398 421.916C160.61 408.833 155.1 390.435 155.608 371.197C155.853 364.167 157.271 356.784 160.095 350.507C160.333 352.646 160.745 354.766 161.358 356.836C163.522 363.009 167.191 368.675 171.631 373.456C177.812 379.48 185.037 384.414 192.614 388.513C197.969 391.151 202.04 392.731 206.035 394.461C207.242 394.921 208.437 395.425 209.672 395.808C209.666 395.803 209.641 395.791 209.609 395.778C209.891 395.895 210.178 396.002 210.463 396.111C210.73 396.233 211.023 396.284 211.313 396.267C215.495 400.125 220.555 402.992 225.426 405.881C230.739 409.197 237.774 413.415 240.822 415.863C240.747 416.138 240.739 416.436 240.833 416.741C241.626 418.697 242.415 420.655 243.028 422.676C238.099 419.845 232.172 419.012 226.591 419.946C222.551 420.305 218.663 421.563 215.123 423.529C214.372 420.446 213.386 417.421 212.363 414.419C211.369 411.64 210.253 408.891 208.82 406.306C207.263 403.605 205.4 401.102 203.641 398.533C202.61 396.813 199.942 398.293 200.951 400.105C202.961 403.193 205.177 406.179 206.718 409.541C207.943 412.226 209.29 416.221 210.387 420.288C208.531 418.467 206.362 416.63 205.9 415.752C204.503 413.667 204.735 413.624 203.95 411.44C203.303 409.395 202.426 407.439 201.546 405.487C200.745 403.719 199.627 402.118 198.544 400.514C198.442 400.365 198.369 400.268 198.295 400.184C196.895 398.284 195.379 396.465 193.721 394.786C191.066 392.037 188.239 389.457 184.891 387.572C180.934 385.464 176.749 383.607 172.369 382.592C171.728 382.493 171.035 382.208 170.434 382.584C169.355 383.177 169.573 384.928 170.779 385.223C174.106 385.927 176.067 386.851 178.476 387.982C181.207 389.27 183.826 390.774 186.192 392.66C186.778 393.083 190.991 397.241 192.556 399.139C193.961 400.849 193.822 400.617 195.139 402.493L195.14 402.496C197.898 406.337 199.12 409.676 199.959 411.861C200.81 414.199 201.618 416.614 203.247 418.545C204.221 419.89 205.489 420.96 206.708 422.074C206.344 422.095 205.976 422.119 205.612 422.134C200.417 422.356 196.078 425.311 193.214 427.968C191.169 429.789 189.154 431.669 187.388 433.764C187.574 433.221 187.794 432.626 188.057 431.935C188.202 431.619 188.481 431.01 188.591 430.8C189.055 429.664 190.032 428.718 190.306 427.528C190.654 425.653 187.923 424.717 187.002 426.386C186.117 427.726 185.374 429.081 184.759 430.44ZM216.049 449.769C216.084 449.721 215.691 450.229 215.487 450.439C214.486 451.407 214.905 451.096 213.347 451.911C212.832 452.13 212.198 452.307 211.493 452.451C211.461 452.397 211.429 452.342 211.398 452.287C210.971 451.294 210.281 450.408 209.66 449.528C208.131 447.661 206.683 445.634 204.658 444.271C203.888 443.731 203.047 443.31 202.204 442.896C201.815 442.667 201.334 442.606 200.899 442.725C199.493 443.065 199.221 445.127 200.495 445.819C202.477 446.941 202.601 446.892 203.941 448.315C205.521 450.287 206.593 451.548 207.594 452.883C203.691 453.04 199.236 452.574 197 451.726C191.835 449.287 189.648 447.778 187.529 443.186C187.472 443.041 187.388 442.823 187.331 442.649C187.067 441.779 186.899 441.251 186.787 440.822C187.986 437.823 190.149 435.513 193.374 432.486C196.125 429.869 199.466 427.346 201.843 426.521C204.517 425.647 205 425.751 207.868 425.643C208.576 425.679 209.388 425.777 209.995 425.379C210.501 425.935 210.846 426.324 211.002 426.429C211.269 426.664 211.582 426.785 211.901 426.816C212.613 430.538 213.117 434.321 213.771 438.067C213.337 437.736 212.899 437.411 212.458 437.09C211.962 436.767 211.529 436.225 210.901 436.199C209.346 435.891 208.309 438.017 209.465 439.086C211.157 440.438 211.258 440.431 212.532 441.539C213.239 442.094 213.979 443.076 214.858 443.422C215.317 445.345 215.862 447.245 216.546 449.109C216.368 449.315 216.211 449.545 216.049 449.769ZM245.497 436.52C245.395 438.98 244.895 441.218 243.59 445.511C242.094 450.098 241.298 452.561 238.084 455.651C237.807 455.85 237.524 456.028 237.239 456.196C237.14 455.858 237.004 455.523 236.951 455.18C236.551 453.472 236.535 453.221 236.478 450.943C236.409 450.124 236.698 449.229 236.381 448.456C235.76 446.784 233.143 447.326 233.182 449.1C233.067 451.64 233.077 454.268 233.894 456.703C233.984 456.914 234.061 457.144 234.152 457.366C232.204 457.738 230.184 457.494 228.271 456.671C228.326 456.34 228.262 456.012 228.191 455.683C228.177 455.609 228.166 455.534 228.155 455.459C228.122 455.181 228.061 454.69 228.035 454.482C227.83 452.727 227.655 450.965 227.347 449.224C227.246 448.495 227.114 447.677 226.397 447.299C225.136 446.505 223.429 447.815 223.87 449.241C224.225 451.281 224.265 451.906 224.5 454.135C223.026 452.727 221.73 450.903 220.738 448.685C218.564 444.028 217.294 434.878 215.992 427.695C216.037 427.672 216.086 427.661 216.13 427.634C220.193 425.388 223.205 424.508 227.511 424.137C231.539 423.74 233.384 423.913 236.415 424.744C239.451 425.645 240.318 426.092 243.417 428.118C243.459 428.148 243.5 428.18 243.541 428.21C243.909 428.527 244.268 428.906 244.684 429.159C245.273 431.603 245.612 433.644 245.497 436.52ZM273.637 431.255C272.818 436.916 271.705 442.552 269.763 447.945C268.671 450.914 268.461 451.966 266.852 454.368C266.844 454.259 266.837 454.15 266.835 454.043C266.682 452.415 266.465 450.79 266.097 449.195C265.904 448.582 265.93 447.846 265.508 447.335C264.513 445.927 262.208 447.092 262.698 448.735C263.242 451.262 263.335 451.693 263.525 453.891C263.685 454.898 263.352 456.328 264.133 457.056C262.174 458.25 259.655 458.789 257.184 458.659C257.197 458.431 257.211 458.176 257.274 457.876C257.432 455.836 257.293 453.791 257.007 451.769C256.792 450.743 256.844 449.544 256.282 448.645C255.333 447.304 253.138 448.413 253.604 449.979C253.997 452.249 254.284 454.4 254.044 457.537C254.044 457.72 254.024 457.909 254.006 458.098C253.651 457.987 253.301 457.865 252.963 457.721C250.409 456.764 247.905 454.467 246.226 450.414C246.664 449.192 247.04 447.946 247.397 446.711C248.527 442.826 249.413 438.794 249.215 434.726C249.049 432.596 248.645 430.505 248.159 428.43C250.052 426.864 252.573 425.451 255.592 424.41C259.214 423.194 260.708 422.949 264.664 423.35C264.703 423.356 264.739 423.362 264.79 423.37C265.646 423.514 266.479 423.77 267.301 424.047C267.72 424.069 271.242 425.941 271.346 426.261C272.071 426.896 272.593 427.722 273.276 428.398C273.349 428.507 273.553 428.636 273.767 428.746C273.834 428.793 273.9 428.838 273.972 428.877C273.861 429.691 273.749 430.489 273.637 431.255ZM298.963 449.877C295.426 451.792 295.674 451.579 292.058 452.849C288.611 453.905 287.373 454.103 283.514 453.978C283.506 453.978 283.498 453.977 283.489 453.977C284.732 451.572 285.892 450.468 288.092 448.121C288.761 447.336 289.949 446.776 289.925 445.611C289.952 444.455 288.757 443.563 287.652 443.88C286.835 444.142 286.297 444.891 285.7 445.468C284.134 447.115 282.694 448.886 281.435 450.779C280.933 451.569 280.497 452.396 280.161 453.271C280.149 453.301 280.135 453.331 280.123 453.361C278.053 452.72 276.045 451.679 274.923 450.688C274.959 450.556 274.98 450.416 274.975 450.268C275.029 447.209 276.821 444.061 279.374 441.494C279.812 440.976 280.52 440.646 280.764 439.992C281.383 438.753 280.057 437.294 278.754 437.693C277.651 438.217 276.78 439.144 275.995 440.105C276.722 436.725 277.266 433.303 277.719 429.876C277.764 429.526 277.81 429.17 277.855 428.818C278.925 428.763 278.987 428.101 279.528 427.379C280.59 425.801 280.526 425.851 281.262 424.974C281.81 424.408 282.398 423.88 282.999 423.363C288.196 425.204 294.62 427.749 297.644 430.485C301.622 433.611 304.918 436.303 306.938 439.91C307.077 440.166 307.217 440.421 307.347 440.681C307.438 441.34 307.484 442.054 307.89 442.584C305.476 445.405 302.866 447.638 298.963 449.877ZM322.146 425.967C321.708 425.99 321.273 426.023 320.879 426.204C320.415 426.357 320.076 426.695 319.855 427.104C319.554 426.612 318.983 426.285 318.397 426.28C316.502 426.422 316.668 428.271 315.667 430.283C315.067 431.885 314.027 434.227 312.379 436.579C311.743 437.505 311.138 438.366 310.544 439.186C309.417 436.789 307.792 434.625 305.924 432.757C302.88 429.96 299.684 427.254 296.086 425.195C292.992 423.516 290.934 422.875 287.099 421.57C286.619 421.41 286.137 421.254 285.655 421.098C286.7 420.162 287.68 419.165 288.449 417.969C289.417 416.485 289.888 414.768 290.146 413.032C290.541 410.926 290.913 408.815 291.371 406.722C292.17 402.464 293.415 398.224 294.861 395.542C297.314 390.954 299.293 388.78 302.577 385.072C306.32 380.788 311.715 377.453 316.219 375.515C318.037 375 317.316 372.217 315.443 372.699C311.407 374.163 307.675 376.422 304.17 378.877C301.756 380.699 299.722 382.957 297.697 385.189C295.836 387.399 294.035 389.677 292.473 392.11C290.891 394.912 289.559 397.889 288.7 400.994C287.473 405.352 286.701 409.82 285.631 414.212C285.242 415.284 284.659 416.344 282.59 418.184C281.29 419.418 279.911 420.592 278.771 421.98C279.453 417.244 280.327 412.336 281.788 407.204C282.433 405.106 283.119 403.02 283.745 400.916C283.875 400.305 284.215 399.697 284.097 399.066C284.059 398.382 283.491 397.791 282.846 397.614C281.223 397.243 280.688 398.638 280.309 399.917C279.75 401.427 279.247 402.957 278.751 404.488C276.676 410.741 275.549 417.65 274.67 423.879C274.081 423.241 273.435 422.662 272.703 422.178C268.269 419.165 262.489 418.324 257.332 419.696C253.747 420.799 250.215 422.312 247.2 424.568C247.053 423.998 246.907 423.428 246.765 422.858C246.366 421.455 245.892 420.076 245.362 418.718C245.941 418.548 246.458 418.125 246.699 417.559C247.058 416.242 248.913 413.286 250.226 412.049C253.96 407.808 258.274 404.158 262.617 400.564C262.678 400.514 262.736 400.461 262.797 400.411C267.524 398.171 272.063 395.551 276.718 393.166C280.799 391.144 284.715 388.813 288.501 386.283C293.286 383.301 297.841 379.943 301.9 376.019C304.377 373.727 306.722 371.234 308.844 368.565C312.355 367.459 315.653 365.751 318.649 363.614C322.443 361.11 325.71 357.875 328.195 354.067C329.974 351.514 331.131 348.587 332.096 345.645C333.25 342.277 333.991 338.773 334.363 335.229C334.576 335.626 334.792 336.02 335.001 336.419C337.342 341.071 338.461 343.472 340.058 348.31C342.855 356.748 344.604 363.08 344.355 371.441C344.518 385.137 341.324 398.333 334.881 410.028C331.384 416.466 327.305 421.125 322.146 425.967ZM332.406 317.42C337.201 318.535 342.157 317.469 346.078 316.927C347.453 316.734 348.819 316.488 350.174 316.195C349.202 319.675 348.555 323.263 347.311 326.667C346.151 330.343 344.248 333.61 341.575 337.808C341.29 338.322 340.945 338.805 340.604 339.289C339.382 336.657 338.037 334.081 336.621 331.548C335.986 330.583 335.482 328.908 334.603 328.06C334.576 327.29 334.535 326.521 334.474 325.754C334.173 322.886 333.455 320.095 332.406 317.42ZM417.055 371.886C416.339 375.186 415.405 377.351 413.947 380.752C413.962 380.727 413.953 380.753 413.909 380.841C413.861 380.952 413.818 381.053 413.769 381.167C413.776 381.13 413.793 381.082 413.812 381.033C413.741 381.166 413.688 381.3 413.653 381.434C399.096 405.507 373.641 419.139 344.879 424.207C341.655 424.554 333.455 425.274 328.141 425.322C328.124 425.323 328.109 425.324 328.093 425.325C331.293 422.228 334.107 418.738 336.561 415.026C345.959 399.833 349.781 381.446 347.968 363.728C347.299 357.312 345.157 351.183 343.051 345.123C342.957 344.87 342.857 344.62 342.76 344.369C343.019 344.415 343.271 344.45 343.507 344.477C349.35 345.568 355.364 345.368 361.196 344.302C368.82 342.72 376.285 339.807 382.683 335.339C381.395 339.465 379.732 344.44 378.318 347.821C376.873 351.625 373.175 359.013 369.995 363.993C366.873 369 363.389 373.768 360.021 378.609C359.262 379.686 358.501 380.761 357.787 381.868C357.19 382.729 356.732 383.76 356.985 384.822C358.678 390.228 373.554 386.516 377.75 385.522C395.278 381.091 409.454 373.958 420.465 360.521C419.54 364.369 418.448 368.185 417.055 371.886ZM435.864 302.459C435.727 306.688 435.063 310.871 434.595 315.07C433.802 324.692 431.482 336.089 428.276 346.986C427.595 349.22 426.93 351.344 426.259 353.392C426.269 353.214 426.282 353.037 426.289 352.859C426.473 351.501 425.849 349.817 424.297 349.713C422.384 349.369 421.866 351.374 420.99 352.599C419.354 354.957 419.197 355.039 417.253 357.436C411.373 364.381 406.221 368.581 398.962 372.832C389.29 378.124 370.136 384.388 361.617 383.391C362.991 381.221 364.592 379.191 366.044 377.073C371.568 369.379 376.878 361.475 380.734 352.79C383.969 345.348 386.843 337.313 388.604 329.396C388.6 327.356 385.901 326.573 384.799 328.244C383.566 329.497 383.838 329.143 382.704 330.056C372.462 337.752 358.8 342.105 346.265 340.637C345.799 340.568 345.331 340.505 344.863 340.439C347.167 336.944 349.434 333.397 350.832 329.437C352.405 325.154 353.376 320.79 354.037 317.755C354.269 316.589 354.743 315.463 354.926 314.294C354.866 314.723 355.138 313.862 355.104 313.457C355.109 312.762 354.724 312.095 354.123 311.747C353.399 311.294 352.543 311.489 351.832 311.87C351.307 312.055 349.889 312.558 349.513 312.593C345.396 313.631 341.944 314.089 338.73 314.543C335.348 314.82 332.571 314.354 330.71 313.568C330.674 313.548 330.639 313.538 330.603 313.52C327.285 307.307 322.221 301.92 316.557 297.987C313.99 296.284 311.187 294.785 308.23 293.827C314.852 291.234 321.196 287.97 326.745 283.477C334.072 276.874 340.899 267.53 338.871 257.147C338.868 257.122 338.864 257.098 338.861 257.073C344.932 250.609 351.579 250.55 360.977 249.539C371.44 248.361 382.011 247.365 392.107 244.214C401.279 241.502 410.396 237.355 416.876 230.162C417.331 237.4 420.626 244.148 424.002 251.571C428.226 260.92 432.178 270.847 434.329 282.15C435.577 288.417 436.1 294.816 435.864 302.459Z" fill="black"/>
<path d="M202.889 224.207C202.889 225.688 201.688 226.889 200.207 226.889C198.726 226.889 197.525 225.688 197.525 224.207C197.525 222.726 198.726 221.525 200.207 221.525C201.688 221.525 202.889 222.726 202.889 224.207Z" fill="white"/>
<path d="M264.772 223.689C264.772 225.17 263.571 226.371 262.09 226.371C260.608 226.371 259.408 225.17 259.408 223.689C259.408 222.208 260.609 221.007 262.09 221.007C263.571 221.007 264.772 222.208 264.772 223.689Z" fill="white"/>
<path d="M117.371 308.267C118.653 299.302 115.065 290.341 109.379 283.511C108.372 282.286 107.417 281.019 106.532 279.703C106.035 279.082 105.76 278.193 105.021 277.824C103.753 277.071 102.239 278.235 102.333 279.556C101.794 280.24 102.083 280.186 101.835 281.122C101.838 281.138 101.841 281.144 101.843 281.149C101.672 281.949 101.593 282.776 101.407 283.574C101.285 286.189 97.94 289.726 95.306 291.021C90.697 293.802 84.546 293.012 81.353 291.356C76.495 288.485 75.891 284.36 77.449 279.163C78.433 276.229 78.903 275.605 81.023 272.995C83.116 270.542 84.579 269.343 87.688 267.707C88.433 267.329 89.189 266.974 89.968 266.668C90.716 266.398 91.535 266.067 91.81 265.248C91.935 264.953 91.972 264.654 91.94 264.368C92.567 263.515 92.626 262.243 91.497 261.399C82.515 253.973 72.85 247.416 63.113 241.03C60.621 239.357 58.11 237.71 55.608 236.052C54.828 235.594 54.105 234.766 53.122 234.946C52.844 234.983 52.602 235.088 52.399 235.239C52.108 235.355 51.848 235.55 51.659 235.834C51.311 236.284 51.326 236.858 51.273 237.397C51.151 238.491 50.989 239.58 50.798 240.664C48.603 251.547 43.088 265.248 37.762 276.697C33.964 284.797 30.282 293.387 30.124 302.465C30.156 311.012 33.348 319.513 38.715 326.138C43.736 332.304 50.532 336.665 57.688 339.975C64.407 343.208 71.634 343.264 73.674 343.459C77.43 343.818 84.333 342.109 85.303 341.976C90.018 347.353 95.741 351.819 102.153 355.028C105.555 356.874 109.188 358.211 112.751 359.702C113.893 360.09 114.974 360.925 116.202 360.914C117.136 360.96 118.017 360.27 118.341 359.416C118.632 358.614 118.486 357.728 117.952 357.062C117.544 356.539 116.908 356.348 116.341 356.054C114.867 355.343 113.343 354.74 111.83 354.117C109.003 353.017 106.22 351.812 103.534 350.4C98.235 347.507 94.273 344.635 90.665 340.984C91.201 340.838 112.974 332.759 117.371 308.267ZM84.935 334.214C77.365 324.635 71.914 312.921 67.603 300.164C66.273 295.871 64.218 288.735 63.128 282.706C62.048 276.735 61.765 271.896 61.756 267.805C61.745 266.035 61.852 264.267 62.036 262.507C62.065 261.737 62.356 260.871 61.794 260.227C61.006 259.22 59.213 259.731 59.122 261.036C57.719 271.692 58.885 282.563 61.581 292.928C63.34 299.994 64.639 304.334 67.218 310.912C70.816 320.215 75.387 329.159 81.468 337.094C81.872 337.673 82.29 338.242 82.716 338.805C82.458 338.84 82.209 338.875 81.941 338.912C81.886 338.921 74.265 340.371 67.46 339.194C63.04 338.43 58.144 336.546 54.222 334.212C41.387 327.406 33.838 315.29 33.672 302.636C33.867 292.154 38.669 283.285 43.257 273.241C47.362 263.753 51.197 254.093 53.722 244.051C54.084 242.564 54.362 241.058 54.588 239.545C65.777 247.171 77.09 254.67 87.394 263.475C84.868 264.571 82.45 265.961 80.389 267.783C78.003 270.159 75.679 272.727 74.335 275.854C69.702 286.438 74.69 296.102 86.419 297.27C93.755 298.042 101.421 294.147 104.615 287.406C104.996 286.453 105.189 285.447 105.327 284.431C106.966 286.721 108.587 288.848 109.435 290.427C113.591 297.833 115.027 305.161 112.731 312.081C109.688 327.936 90.456 337.445 87.908 337.975C86.915 336.805 85.932 335.559 84.935 334.214Z" fill="black"/>
<path d="M463.483 139.214C461.439 133.927 459.067 128.778 456.854 123.562C456.261 122.084 455.686 120.598 455.027 119.148C454.963 119.019 454.898 118.887 454.819 118.765C454.437 118.053 453.917 117.321 453.066 117.208C452.212 117.037 451.46 117.529 450.806 118.02C449.563 118.864 448.32 119.709 447.083 120.563C443.521 123.081 439.92 125.547 436.218 127.856C427.555 133.478 418.343 138.673 411.572 146.641C402.805 156.187 400.621 170.247 403.209 182.64C404.355 187.682 406.045 192.915 409.823 196.621C411.712 198.803 414.711 200.971 418.607 201.631C415.035 205.362 411.651 208.572 409.939 210.411C409.105 211.633 410.297 213.395 411.747 213.153C412.565 213.055 413.072 212.334 413.685 211.861C415.013 210.709 416.271 209.479 417.545 208.269C418.777 207.088 420.351 205.534 422.034 203.775C422.323 203.901 422.62 204.013 422.894 204.144C424.428 204.802 425.951 205.498 427.538 206.022C436.069 209.008 445.697 207.098 453.126 202.179C455.352 200.544 457.501 198.753 459.293 196.642C462.26 192.889 464.63 188.666 466.535 184.285C472.402 169.754 469.282 153.273 463.483 139.214ZM463.786 179.54C461.914 184.862 459.953 188.42 457.316 192.234C452.869 198.488 445.604 202.645 437.578 203.423C434.757 203.763 430.731 203.164 428.348 202.317C427.114 201.894 425.908 201.394 424.695 200.915C427.251 198.075 429.794 194.962 431.6 192.083C438.023 182.106 443.684 169.695 446.196 156.661C446.868 153.251 447.549 149.83 447.782 146.356C447.852 145.497 447.877 144.634 447.891 143.772C447.943 143.417 447.841 143.056 447.628 142.772C446.953 141.833 445.335 142.242 445.213 143.407C445.075 147.327 444.265 151.171 443.376 154.978C442.123 160.541 440.705 165.19 438.187 171.082C434.843 178.808 431.976 184.514 427.633 190.888C425.865 193.5 423.605 196.205 421.27 198.778C416.616 198.591 414.322 196.819 411.693 193.883C407.053 188.91 405.604 178.947 405.457 172.96C405.653 159.1 410.802 150.376 420.707 142.19C426.232 137.735 432.335 134.075 438.264 130.195C442.997 127.245 447.495 123.946 452.097 120.802C452.225 121.113 452.364 121.422 452.45 121.732C455.14 129.947 458.795 137.798 461.651 145.955C463.707 152.416 465.31 158.646 465.455 166.44C465.439 168.581 465.344 170.722 465.132 172.853C464.818 175.596 464.157 178.334 463.786 179.54Z" fill="black"/>
</svg>
