<?xml version="1.0" encoding="utf-8"?>
<!-- Generator: Adobe Illustrator 27.5.0, SVG Export Plug-In . SVG Version: 6.00 Build 0)  -->
<svg xmlns="http://www.w3.org/2000/svg" xmlns:xlink="http://www.w3.org/1999/xlink" version="1.1" x="0px" y="0px" viewBox="0 0 500 500" style="background-color:transparent;" xml:space="preserve">
<g id="BACKGROUND">
	<rect width="500" height="500" fill="none"/>
</g>
<g id="OBJECTS">

		<g>
			<path d="M343.176,162.591c-0.001-0.016-0.001-0.023-0.002-0.037c-0.008-0.058-0.016-0.115-0.025-0.173     c-0.002,0.073,0.007,0.234,0.041,0.367C343.185,162.695,343.181,162.643,343.176,162.591z"/>
			<path d="M465.02,227.354c0.204-4.101-2.402-9.117-7.083-8.65c-1.058,0.059-2.032,0.505-2.932,1.04     c-2.158,1.469-0.63,0.402-2.466,1.821c-1.771,1.468-3.298,3.206-5.049,4.696c-2.176,1.802-4.857,3.647-8.189,5.641     c-3.277,1.87-6.328,2.955-8.925,4.152c-0.155-0.266-0.329-0.557-0.545-0.907c-1.042-1.46-2.547-2.666-4.179-3.398     c0.12,0.034,0.565,0.264,0.368,0.138c-0.088-0.054-0.176-0.107-0.265-0.161c-2.031-1.15-3.652-1.186-4.929-0.52     c-0.019-0.17-0.043-0.334-0.069-0.45c-0.402-3.029-1.183-5.989-1.934-8.946c-1.59-5.663-4.496-10.875-7.375-15.97     c-4.763-7.308-10.583-13.874-16.566-20.198c-4.124-4.343-8.012-8.928-12.366-13.044c-5.539-5.062-11.627-9.476-17.727-13.83     c-7.901-5.427-15.824-10.862-24.336-15.301c-6.729-3.602-13.473-7.236-20.605-9.988c-15.076-5.614-31.022-8.957-47.076-9.966     c-6.865-0.273-13.759-0.075-20.598,0.567c-7.613,0.928-15.147,2.491-22.518,4.606c-10.405,3.085-20.681,6.881-30.133,12.262     c-8.313,4.842-16.437,10.389-22.833,17.645c-1.719,2.107-3.38,4.301-4.715,6.675c-0.308-1.446-0.659-2.881-1.084-4.298     c-1.745-5.211-4.417-10.057-7.235-14.755c-3.338-5.107-7.509-9.704-12.186-13.617c-6.548-5.428-14.248-9.488-22.897-9.796     c-10.81-1.153-22.842,6.68-29.292,14.913c-11.236,13.475-15.389,31.853-14,49.099c0.56,6.403,2.23,12.637,4.217,18.73     c1.604,4.719,3.097,9.526,5.544,13.892c6.934,13.186,17.65,23.751,28.252,34.01c3.034,3.124,6.191,6.123,9.27,9.203     c0.136,0.146,0.272,0.292,0.408,0.438c0.324,2.19,0.869,4.321,1.551,6.411c-12.194-0.852-23.868-9.857-32.958-19.641     c-4.437-5.145-7.196-9.178-11.545-14.399c-2.943-3.461-6.112-7.095-10.313-9.015c-4.602-2.243-9.404-0.705-13.242,2.305     c-5.999,5.216-8.477,17.273-8.226,24.969c0.128,6.649,2.434,12.938,5.176,18.915c4.116,8.774,9.143,17.455,16.598,23.811     c2.629,2.341,5.726,4.026,8.828,5.649c4.809,2.491,9.942,4.307,15.249,5.389c10.024,2.241,20.869,2.179,30.418-1.912     c2.748-1.084,7.036-3.195,8.265-3.722c2.796-1.115,5.717-1.908,8.679-2.432c0.333-0.029,0.687-0.021,1.037-0.021     c3.362,3.026,7.023,5.743,10.894,8.064c4.87,2.757,10.033,5.031,15.461,6.432c7.602,2.062,15.455,2.955,23.226,4.14     c5.551,0.698,14.03,2.213,18.893,2.792c2.225,0.316,2.712,0.427,4.177,0.619c-0.588-0.077-0.483-0.067,0.018,0.012     c0.167,0.023,0.334,0.049,0.501,0.073c0.091,0.023,0.183,0.04,0.274,0.053c1.131,7.265-0.493,14.204-3.544,20.997     c-3.527,8.59-10.463,21.705-11.747,32.842c-1.469,12.132,5.182,22.804,15.936,28.167c6.616,3.56,14.165,5.256,21.666,4.891     c4.809-0.443,9.418-2.159,13.64-4.453c11.128-5.992,14.692-18.335,12.034-30.165c-1.203-5.433-3.914-10.364-6.72-15.115     c-2.467-4.395-4.888-8.814-7.319-13.23c-2.79-5.389-4.125-8.446-5.656-12.632c3.239,0.88,6.507,1.658,9.767,2.402     c9.155,2.011,18.255,4.286,27.541,5.63c8.795,1.425,20.669,2.057,31.155,0.874c7.93-0.936,15.745-2.585,23.509-4.424     c5.588-1.255,11.207-2.406,16.681-4.109c6.553-2.144,13.197-4.117,19.503-6.927c0.259-0.119,0.513-0.248,0.77-0.37     c-1.103,4.865-1.705,9.843-1.884,14.825c-0.276,8.539,0.372,14.806,3.42,22.574c2.616,5.566,6.22,11.193,11.875,14.029     c9.042,4.566,17.998,3.564,26.893-0.77c3.372-1.455,6.379-3.609,8.948-6.226c2.89-2.758,5.361-5.975,6.977-9.643     c1.63-3.45,3.028-7.165,2.797-11.043c-0.197-3.33-1.64-6.372-3.354-9.176c-1.984-3.399-4.326-6.598-6.788-9.665     c-3.863-4.683-7.714-9.411-12.495-13.202c-2.429-2.052-5.478-5.238-6.38-6.783c-0.773-1.454-0.953-1.873-1.355-4.158     c-0.068-0.667,0.086-0.446-0.175-1.147c-0.018-0.053-0.048-0.102-0.073-0.153c4.255-4.725,7.924-9.973,10.853-15.629     c0.838-1.52,1.624-3.067,2.377-4.628c0.994-0.172,1.916-0.81,2.707-1.41c1.432-1.05,2.778-2.212,4.116-3.378     c6.493-5.695,11.806-12.531,16.946-19.432c5.252-7.112,10.299-14.481,13.728-22.67     C463.715,234.799,465.174,231.176,465.02,227.354z M398.262,196.482c0.268,0.099,0.366,0.151,0.546,0.241     c2.434,2.887,4.709,5.791,5.869,7.293c2.993,3.902,5.241,8.299,7.365,12.716c2.17,4.637,3.606,10.056,4.427,14.145     c-0.046,0.023-0.093,0.047-0.14,0.068c-0.935,0.483-1.885,1.003-2.694,1.678c-1.195,0.975-1.822,2.493-2.054,3.988     c-0.621,4.111-0.471,5.911-1.347,9.324c-1.003,4.405-3.147,7.865-4.338,7.842c-0.036-0.008-0.07-0.021-0.105-0.031     c-0.047-0.024-0.093-0.049-0.139-0.076c-0.005-0.005-0.01-0.009-0.015-0.015c-0.183-0.285-0.533-0.822-0.632-1.047     c-0.428-0.874-0.887-1.9-1.486-3.932c-0.584-2.039-1.023-4.157-2.065-6.026c-2.373-4.033-6.645-3.565-10.604-2.699     c-4.592,0.784-6.069,1.158-7.076-0.686c-0.721-0.837,3.088-7.503,5.705-12.489c0.375-0.703,0.724-1.422,1.155-2.093     c0.097-0.166,0.215-0.327,0.323-0.492c0.734-0.549,1.098-1.608,0.552-2.482c-1.163-2.289-2.7-7.745-3.317-11.831     c-0.364-2.426-0.985-5.674-0.603-9.441C388.016,196.832,391.827,193.801,398.262,196.482z M385.699,182.417     c2.757,2.98,5.454,6.019,8.273,8.935c0.046,0.046,0.094,0.097,0.14,0.143c-4.059-0.155-8.063,1.515-9.801,5.573     c-1.561,3.471-0.93,7.441-0.484,11.095c0.599,4.532,1.685,9.003,3.407,13.243c0.219,0.425,0.392,0.925,0.598,1.402     c-1.596,2.549-2.863,5.296-4.365,7.902c-1.175,2.363-2.682,4.65-3.2,7.271c-0.486,2.444,1.176,4.942,3.407,5.871     c2.181,0.903,4.619,0.473,6.896,0.257c0.03-0.004,0.052-0.007,0.078-0.01c1.735-0.192,3.468-0.53,5.219-0.376     c0.14,0.029,0.278,0.063,0.415,0.102c0.145,0.041,0.289,0.084,0.433,0.131c0.118,0.065,0.234,0.138,0.335,0.206     c0.138,0.121,0.27,0.248,0.395,0.383c0.822,1.317,0.505,0.832,1.206,2.759c0.61,2.043,1.254,4.076,2.158,6.012     c0.557,1.246,1.23,2.531,2.29,3.417c2.421,1.83,5.247,0.807,7.095-1.305c2.845-3.507,4.081-8.094,4.671-12.503     c0.508-4.023,0.374-6.68,1.462-7.44c0.042-0.036,0.072-0.061,0.098-0.084c0.02-0.015,0.04-0.03,0.062-0.048     c0.103-0.069,0.376-0.262,0.663-0.459c0.158,1.202,0.206,1.994,0.153,2.19c-0.722,2.656-1.313,5.346-1.895,8.036     c-1.167,6.393-3.44,14.196-5.477,18.594c-6.079,13.732-15.629,22.848-27.975,30.378c-1.097-9.098-4.539-17.709-7.564-26.312     c-2.037-5.501-4.641-11.837-6.356-15.949c-1.898-4.827-3.827-9.643-6.281-14.221c-1.625-3.243-3.429-6.398-5.479-9.392     c-1.525-2.244-3.226-4.386-4.453-6.817c-0.049-0.119-0.091-0.212-0.122-0.275c-0.023-0.064-0.042-0.13-0.06-0.195     c0.199-0.472,1.686-1.402,4.185-3.552c4.908-4.548,10.037-8.854,14.69-13.672c5.185-5.341,9.857-11.26,13.382-17.834     C384.584,184.636,385.204,183.461,385.699,182.417z M379.008,175.606c1.378,1.285,2.711,2.616,4.018,3.972     c-1.319,2.852-3.794,7.03-5.954,10.29c-4.674,6.97-11.76,14.365-18.988,20.85c-2.142,1.981-4.143,4.112-6.405,5.962     c-1.172,1.044-2.738,1.885-3.116,3.53c-0.43,1.663,0.687,3.192,1.437,4.59c1.344,2.25,2.945,4.333,4.312,6.569     c3.535,5.724,6.63,12.347,8.635,17.35c4.507,11.025,9.013,21.931,12.984,34.175c1.451,4.229,2.515,9.209,2.797,12.376     c0.035,0.221,0.053,0.451,0.079,0.678c-0.322,0.183-0.637,0.37-0.963,0.552c-1.232,0.679-2.453,1.319-3.667,1.934     c-0.204-3.898-0.171-5.59-1.343-9.369c-2.747-8.021-5.291-16.135-8.708-23.904c-5.025-11.401-11.035-22.488-17.964-32.846     c-2.726-4.186-6.434-8.434-10.901-12.253c0.671-0.347,1.324-0.733,1.972-1.097c3.217-1.909,6.4-3.897,9.357-6.193     c7.273-5.645,14.223-11.751,20.444-18.546c2.459-2.773,4.918-5.565,7.041-8.609c1.273-2.056,2.215-4.295,3.274-6.464     C377.625,178.402,378.449,177.139,379.008,175.606z M363.399,289.231c-2.504-6.411-5.433-13.632-7.604-18.549     c-2.142-5.183-5.483-12.921-8.804-19.291c-3.289-6.549-6.202-13.476-10.992-19.104c-1.88-2.084-4.406-3.36-6.976-4.384     c-1.155-0.495-5.276-2.223-8.903-3.553c-5.273-2.059-10.557-4.106-15.938-5.868c-4.848-1.412-9.682-2.889-14.574-4.144     c-3.678-1.078-9.686-2.033-11.843-2.239c-4.054-0.498-8.122-0.956-12.207-1.088c-1.771-0.052-3.543-0.025-5.315-0.037     c-1.608-0.04-3.553-0.086-4.471,1.492c-6.091,10.295-11.746,20.87-18.549,30.732c-5.292,7.669-10.811,15.176-16.348,22.668     c-2.078,2.817-3.79,4.753-6.303,7.664c-1.069-1.342-2.11-2.697-3.132-4.076c4.659-4.632,8.54-9.937,12.189-15.39     c4.503-6.448,8.622-13.137,12.439-20.012c4.566-7.581,9.207-15.148,12.466-23.41c0.919-2.417,2.005-4.855,2.803-7.352     c0.771,0.696,1.64,1.27,2.651,1.616c3.839,1.467,7.94,2.115,11.977,2.794c7.64,1.236,15.276,2.494,22.917,3.729     c13.146,2.169,25.942,5.957,38.89,9.023c1.247,0.23,2.514,0.595,3.787,0.64c8.051,6.699,12.816,14.44,18.077,23.931     c7.869,13.442,13.088,25.582,17.97,39.912c1.095,3.057,2.336,6.103,2.843,9.326c0.224,1.897,0.156,3.827,0.6,5.692     c-1.377,0.644-2.753,1.249-4.133,1.827c0.008-0.11,0.007-0.221-0.003-0.33c0.018-0.155-0.293-1.723-0.417-2.22     C365.818,295.797,364.743,292.459,363.399,289.231z M364.018,302.948c-6.073,2.35-12.345,4.195-19.45,5.956     c-11.805,2.622-21.329,3.657-32.709,4.668c-5.071,0.474-10.162,0.58-15.252,0.586c-4.858,0.088-10.987-0.057-14.067-0.646     c-6.545-1.114-12.877-3.148-19.098-5.429c-6.912-2.457-11.223-4.033-17.757-7.454c-8.885-4.704-14.664-9.582-21.89-16.74     c-2.812-2.822-5.303-5.591-7.628-8.398c0.097-0.058,0.192-0.125,0.281-0.215c4.91-4.962,8.803-10.802,13.1-16.279     c6.461-8.734,12.84-17.559,18.397-26.905c3.13-5.461,7.932-13.498,10.243-17.681c0.05-0.065,0.101-0.129,0.152-0.193     c3.515-0.291,10.633,0.223,15.46,0.906c3.154,0.426,7.803,0.953,12.117,2.108c5.893,1.491,11.682,3.355,17.51,5.076     c4.943,1.643,9.784,3.575,14.665,5.391c3.023,1.09,8.46,3.17,9.81,3.788c2.654,1.188,3.85,1.723,5.304,3.346     c3.22,3.798,7.125,11.812,9.938,17.783c7.016,13.733,12.264,27.038,17.477,39.46c0.991,2.465,1.795,5.003,2.371,7.597     c0.155,0.664,0.31,1.329,0.459,1.995c0.005,0.327,0.089,0.538,0.239,0.86C363.778,302.693,363.89,302.832,364.018,302.948z      M306.814,133.979c12.299,3.301,21.619,8.11,33.214,14.456c2.907,1.559,5.739,3.244,8.529,4.998     c-0.069,0.031-0.138,0.062-0.207,0.092c-2.631,1.419-3.236,1.67-4.814,3.653c-0.99,1.52-0.697,3.348-0.412,5.031     c0.009,0.057,0.016,0.115,0.024,0.172c0.002-0.071,0.014-0.05,0.025,0.173c0.013,0.09,0.026,0.18,0.038,0.27     c-0.009-0.023-0.015-0.05-0.022-0.076c0.148,1.42,0.195,2.848,0.227,4.274c0.15,6.602-0.956,13.641-3.734,16.956     c-1.489,1.61-3.148,2.068-5.277,1.21c-2.82-1.122-8.13-5.752-12.351-9.328c-3.741-3.216-9.809-6.364-13-6.898     c-4.316-1.142-7.457,2.512-9.809,5.582c-2.937,3.429-7.375,9.016-9.739,10.688c-3.541,2.307-5.176,3.541-8.115,3.294     c-2.303-0.565-4.557-3.158-5.943-8.612c-0.89-3.949-0.487-10.93-0.937-16.47c-0.441-5.647-1.979-9.92-6.583-13.476     c-4.449-4.018-7.986-7.885-10.738-12.108c-1.934-3.067-3.914-6.106-6.108-8.995C269.383,126.629,287.327,128.498,306.814,133.979     z M247.303,129.385c2.76,3.469,5.972,9.086,9.051,13.423c3.193,4.199,6.939,7.916,10.876,11.41     c1.071,0.94,1.944,2.622,2.312,3.426c0.621,1.489,1.006,4.154,0.999,4.203c0.896,4.463-0.186,14.103,1.754,20.256     c1.729,5.839,5.911,11.688,12.756,9.612c3.815-1.316,7.22-3.714,9.996-6.62c3.445-3.694,6.465-7.785,9.95-11.439     c0.486-0.452,1.403-0.899,1.601-0.931c0.153-0.04,0.31-0.064,0.466-0.093c0.074-0.001,0.173-0.003,0.299-0.002     c0.077,0.004,0.154,0.014,0.231,0.021c0.238,0.049,0.72,0.145,0.946,0.222c2.165,0.299,9.312,4.313,11.989,6.942     c2.721,2.337,5.48,4.635,8.37,6.762c3.29,2.417,7.178,4.139,11.128,2.128c7.878-4.21,8.097-20.125,6.941-28.118     c-0.025-0.234-0.089-0.826-0.092-1.124c0.018-0.077,0.048-0.151,0.072-0.226c0.029-0.054,0.062-0.104,0.096-0.155     c1.02-1.117,0.802-0.863,2.461-1.912c1.525-0.822,1.862-1.064,2.799-1.33c2.441,1.604,4.857,3.247,7.265,4.897     c2.945,2.035,5.589,3.883,8.096,5.714c-0.121,0.361-0.205,0.743-0.311,1.11c-0.718,2.226-0.588,2.209-1.401,3.56     c-3.422,5.188-9.523,11.2-14.905,16.869c-7.111,6.928-15.846,14.628-22.639,17.529c-5.33,2.172-8.456-0.126-16.072-2.199     c-8.595-2.196-17.365-3.709-26.086-5.313c-4.432-0.568-8.889-0.938-13.328-1.448c-3.361-0.415-5.121-0.386-8.856-1.799     c-11.685-3.903-16.695-21.773-23.418-34.671c-3.179-6.283-7.328-11.977-11.721-17.455c-2.021-2.389-4.197-4.838-6.493-7.042     C230.928,132.676,239.163,130.627,247.303,129.385z M219.098,136.766c0.11-0.04,0.219-0.077,0.329-0.117     c3.974,4.034,6.951,7.518,9.873,11.794c3.25,4.332,6.044,8.974,8.471,13.813c4.747,9.163,7.794,19.31,14.213,27.536     c3.573,4.887,8.926,8.32,14.82,9.659c6.507,1.333,13.99,1.768,19.665,2.744c7.627,1.473,15.26,2.939,22.837,4.649     c4.029,0.974,7.907,2.536,11.974,3.356c3.799,0.826,7.693-0.064,11.051-1.928c3.42-1.703,6.563-3.869,9.535-6.262     c6.957-5.372,13.281-11.503,19.242-17.951c3.332-3.954,7.43-7.592,9.349-12.492c0.261-0.821,0.497-1.652,0.719-2.486     c1.573,1.211,3.12,2.445,4.675,3.756c-0.223,0.393-0.323,0.853-0.481,1.282c-0.118,0.235-0.439,0.9-0.57,1.133     c-0.95,1.698-1.861,3.416-2.786,5.127c-1.842,3.27-2.333,3.832-4.594,6.479c-2.626,3.089-5.35,6.09-8.229,8.945     c-8.285,8.197-18.604,16.424-26.577,20.633c-0.319,0.126-0.642,0.253-0.975,0.341c-0.016,0-0.023,0-0.04,0     c-1.266,0.004-3.718-0.624-6.33-1.255c-6.633-1.646-13.254-3.345-19.907-4.913c-13.497-3.182-27.282-4.811-40.959-7.005     c-4-0.646-9.792-1.754-10.864-2.935c-0.412-0.393-4.673-6.707-6.661-11.378c-6.899-13.172-14.071-26.206-21.801-38.911     c-2.854-4.237-5.601-8.786-9.226-12.426C216.921,137.548,218.001,137.152,219.098,136.766z M212.389,139.331     c6.681,6.497,10.838,14.904,16.075,23.49c3.589,6.362,7.078,12.781,10.616,19.172c3.017,5.551,5.802,11.234,8.909,16.735     c-0.067,0.466-0.117,0.937-0.237,1.371c-3.091,11.116-7.726,19.791-13.932,30.153c-3.051,5.343-5.893,10.812-9.218,15.994     c-5.001,7.706-8.94,14.573-14.963,20.658c-0.009,0.012-0.02,0.022-0.029,0.034c-1.125-1.573-2.244-3.187-3.376-4.846     c0.101-0.036,0.202-0.079,0.297-0.139c0.678-0.41,0.898-1.246,1.308-1.882c0.879-1.495,1.755-2.992,2.631-4.489     c2.295-3.892,5.01-7.513,7.474-11.297c4.712-6.569,8.928-13.501,12.928-20.522c4.158-8.005,8.515-16.485,8.28-25.742     c0.008-5.477-2.522-10.456-5.073-15.161c-3.105-6.005-6.448-11.875-9.792-17.748c-2.036-3.73-4.26-7.35-6.474-10.976     c-2.247-3.987-4.419-8.033-7.114-11.742c-0.417-0.598-0.842-1.19-1.273-1.778C210.407,140.176,211.393,139.745,212.389,139.331z      M192.104,150.276c4.96-3.311,9.668-6.005,14.444-8.315c3.243,4.52,5.921,9.399,8.53,14.308     c4.37,7.339,8.663,14.728,12.784,22.211c2.99,5.839,6.289,10.619,7.632,16.16c1.266,5.844-1.003,14.322-4.045,20.273     c-4.027,8.495-9.044,16.472-14.129,24.364c-2.868,4.026-5.586,8.157-8.326,12.271c-1.319,2.106-2.49,4.301-3.738,6.45     c-0.223,0.492-0.568,0.944-0.831,1.424c-0.692-1.031-1.391-2.078-2.106-3.154c-3.862-5.74-7.227-11.772-10.6-17.803     c-2.2-3.302-4.089-6.783-5.944-10.283c0.921-0.389,1.682-1.2,2.706-2.348c2.961-3.332,4.726-7.454,6.685-11.405     c1.054-1.865,1.111-2.627,1.809-3.52c0.083,0.042,0.168,0.079,0.251,0.122c3.049,1.416,5.612,4.022,8.96,4.705     c5.157,0.474,6.141-5.273,6.305-9.893c0.077-3.107-0.762-6.136-1.264-9.18c-0.598-3.049-0.431-6.461,1.074-7.969     c1.367-1.543,3.126-2.67,4.565-4.141c1.999-2.104,3.784-4.577,4.565-7.404c1.35-5.642-4.659-8.073-9.054-9.329     c-2.86-0.821-5.854-1.108-8.823-0.989c-0.329,0.043-0.682,0.048-1.034,0.062c-1.33-2.056-2.911-3.946-4.489-5.813     c-1.649-1.822-3.504-3.72-5.866-4.552c-3.32-0.83-5.779,1.768-6.769,4.684c-0.741,1.782-1.056,3.703-1.709,5.514     c-0.098,0.211-0.214,0.413-0.34,0.609c-0.054,0.003-0.109,0.01-0.163,0.013c-1.936,0.036-1.503-0.206-3.368-0.436     c-1.88-0.315-3.392-0.376-4.629-0.271C179.108,160.214,185.673,154.532,192.104,150.276z M173.349,170.199     c0.235,0.068,0.482,0.083,0.73,0.041c2.119-0.209,1.961-0.211,4.715,0.375c2.351,0.634,5.291,1.639,7.326-0.249     c1.827-1.937,1.769-4.801,2.493-7.225c0.679-2.076,0.614-2.156,1.49-3.099c0.094-0.061,0.192-0.117,0.293-0.166     c0.11-0.036,0.214-0.064,0.297-0.084c0.157-0.012,0.314-0.013,0.471-0.005c0.115,0.027,0.227,0.063,0.337,0.104     c0.064,0.032,0.149,0.077,0.246,0.134c3.013,1.868,6.074,6.157,8.391,9.201c0.215,0.723,0.848,1.327,1.691,1.302     c5.961-0.408,12.179,1.518,15.169,4.003c0.062,0.068,0.111,0.122,0.151,0.166c0.091,0.135,0.172,0.276,0.244,0.422     c0.021,0.067,0.043,0.148,0.066,0.243c0.011,0.155,0.023,0.31,0.012,0.465c-0.003,0.058-0.011,0.115-0.017,0.172     c-0.057,0.26-0.181,0.621-0.268,0.857c-1.416,2.829-1.937,3.364-3.913,5.307c-1.384,1.3-2.956,2.418-4.144,3.913     c-1.242,1.458-1.939,3.295-2.237,5.172c-0.648,5.201,1.209,10.681,1.192,12.71c0.214,4.429-0.513,6.472-1.238,7.665     c-0.065,0.019-0.131,0.034-0.196,0.051c-0.061,0.001-0.122,0.005-0.183,0.001c-0.16-0.037-0.316-0.086-0.471-0.141     c-1.253-0.296-4.486-2.489-7.026-3.682c-0.861-0.435-2.84-1.581-4.645,0.424c-2.8,3.523-4.458,8.891-7.711,13.605     c-1.006,1.284-1.506,2.156-2.364,2.885c-0.008-0.001-0.017-0.002-0.024-0.002c-0.089-0.011-0.177-0.014-0.266-0.012     c-0.511-0.959-1.024-1.917-1.549-2.868c-1.232-2.073-2.607-4.062-4.112-5.947c-0.369-0.463-0.745-0.921-1.161-1.342     c-0.174-0.163-0.362-0.31-0.552-0.453c-0.043-0.057-0.35-0.327-0.606-0.462c-0.343-5.563-0.354-11.481-0.554-17.101     c-0.347-7.284-0.936-14.559-1.892-21.79c-0.173-1.254-0.347-2.51-0.535-3.765C173.104,170.746,173.231,170.473,173.349,170.199z      M127.864,252.75c-10.74-10.609-21.235-20.116-28.298-32.606c-3.001-4.91-4.209-8.33-6.137-13.976     c-1.785-5.296-3.411-10.671-4.286-16.201c-2.123-14.576,0.545-32.464,9.451-45.771c2.05-3.05,4.93-6.718,8.535-9.854     c3.692-3.063,9.323-6.563,14.369-7.753c5.158-1.393,13.438,0.095,17.693,2.061c7.699,3.534,15.09,10.513,19.412,16.177     c2.867,3.776,5.021,8.036,7.17,12.247c1.907,3.918,3.063,8.644,3.881,13.54c-0.03,0.186-0.049,0.373-0.037,0.563     c0.031,0.262,0.119,0.485,0.238,0.675c0.602,3.883,1.016,7.839,1.437,11.561c0.431,5.102,0.894,10.207,1.037,15.327     c0.197,7.947,0.154,15.947,1.352,23.824c1.424,8.743,5.489,19.222,8.461,25.847c2.436,6.132,4.612,12.385,7.663,18.252     c4.034,7.54,5.993,13.904,9.462,22.052c0.498,1.282,0.992,2.567,1.521,3.837c0.043,0.154,0.113,0.296,0.196,0.43     c-0.162,0.162-0.292,0.358-0.365,0.596c-0.027,0.039-0.065,0.068-0.088,0.111c-0.462,0.898-1.18,0.595-5.425-0.166     c-5.891-1.044-11.588-2.863-17.252-4.752c-10.124-3.4-21.628-9.043-29.442-15.473c-4.645-4.156-8.914-8.722-13.158-13.282     C132.837,257.548,130.257,255.243,127.864,252.75z M81.976,231.417c-0.139,0.039-0.278,0.074-0.418,0.097     c-2.398,0.209-3.107-0.038-3.654-0.11c-1.429-0.221-4.162-1.869-4.715-2.375c-0.112-0.072-0.216-0.158-0.318-0.249     C75.889,227.921,78.738,228.817,81.976,231.417z M68.126,231.396c0.499-0.395,0.985-0.735,1.465-1.05     c0.088,0.104,0.191,0.194,0.283,0.295c-0.283,0.91-0.01,0.525-0.223,1.442c-0.135,0.676-0.96,1.985-1.353,2.389     c-1.164,1.109-1.427,1.169-3.302,1.788c-0.053,0.02-0.108,0.035-0.162,0.052C65.724,234.441,66.8,232.77,68.126,231.396z      M144.682,297.211c-2.555,0.72-4.937,1.892-7.325,3.027c-6.599,3.157-12.429,4.891-20.199,4.911     c-12.23,0.046-25.065-4.253-33.818-10.599c-6.996-5.655-11-11.913-15.343-20.148c-3.229-6.383-6.191-13-6.543-19.874     c-0.227-4.219,0.06-6.509,0.848-10.211c0.319-1.614,0.72-3.158,1.198-4.629c0.218,0.042,0.452,0.039,0.7-0.035     c3.433-0.567,6.551-2.137,8.023-5.451c0.141-0.35,0.32-0.775,0.478-1.228c0.392,0.253,0.792,0.493,1.194,0.723     c2.097,1.226,4.532,1.765,6.95,1.536c1.606-0.196,3.194-0.344,3.752-1.443c5.676,6.052,9.312,11.751,14.931,18.218     c2.509,2.816,5.276,5.377,8.172,7.788c4.096,3.588,8.602,6.708,13.56,8.983c4.415,2.309,9.34,3.539,14.316,3.663     c1.285,3.321,2.832,6.558,4.313,9.784c2.374,5.048,5.48,9.782,9.259,13.894C147.431,296.448,145.722,296.943,144.682,297.211z      M218.62,316.602c-3.34-0.413-12.058-1.929-15.278-2.233c-9.76-1.451-19.7-2.475-29.036-5.837     c-11.011-4.099-22.614-12.528-28.797-23.034c-1.782-2.91-3.216-6.008-4.63-9.108c-1.408-2.897-2.565-5.543-3.463-8.545     c2.89,3.053,5.848,6.041,9.033,8.78c6.71,5.39,14.387,9.485,22.29,12.835c9.164,3.776,18.72,6.793,28.551,8.196     c3.192,0.635,5.595-0.78,6.165-2.71c0.012-0.027,0.019-0.055,0.03-0.082c2.78,4.112,5.338,8.375,8.377,12.303     c1.694,2.478,5.863,6.706,9.535,9.812C220.246,316.811,219.272,316.686,218.62,316.602z M223.993,397.276     c0.958-0.561,2.039-0.793,2.803-0.872c2.916-0.275,4.049,0.883,5.812,3.552c0.421,0.762,0.805,1.543,1.179,2.329     C230.228,401.07,226.892,399.437,223.993,397.276z M249.289,404.228c-1.801,0.261-3.622,0.167-5.432,0.046     c-1.737-0.085-3.009-0.2-4.26-0.418c0.001-0.03,0.006-0.059,0.005-0.09c-0.438-6.118,2.685-8.507,6.723-7.455     c1.633,1.001,1.172,0.62,2.485,1.927c0.647,0.62,2.341,3.164,2.51,4.166c0.038,0.237,0.26,0.869,0.414,1.293     C250.938,403.894,250.126,404.074,249.289,404.228z M255.807,402.438c0.891-3.162,2.141-5.2,4.814-7.508     c0.419-0.279,1.163-0.963,2.427-1.208c0.023-0.004,0.033-0.006,0.052-0.01c1.499-0.119,1.651-0.028,2.511,0.116     c0.82,0.173,0.486,0.162,1.346,0.57C264.366,397.948,260.565,400.645,255.807,402.438z M263.583,360.211     c2.797,4.944,4.607,7.965,6.085,12.822c1.913,7.275,1.464,13.406-0.88,18.296c-1.55-1.186-4.896-1.722-7.057-1.121     c-3.744,1.211-6.471,4.524-8.05,8.246c-0.555-0.956-1.205-1.861-1.902-2.712c-2.112-2.62-5.424-4.188-8.783-3.323     c-3.449,0.524-5.805,3.372-6.595,6.613c-1.171-2.268-2.698-4.389-5.024-5.544c-3.073-1.545-7.328-0.617-10.007,1.572     c-1.575-1.52-2.965-3.245-4.118-5.205c-4.486-7.407-3.453-15.949-0.061-25.505c2.684-7.359,4.403-10.837,7.693-18.662     c1.084-2.689,2.473-5.669,3.402-9.516c0.529-2.675,1.313-8.267,0.777-12.421c-0.063-0.481-0.147-0.958-0.228-1.436     c2.548,1.516,5.205,2.856,7.882,4.123c4.32,2.186,8.847,3.875,13.469,5.286c0.023,0.092,0.047,0.183,0.081,0.271     c0.687,2.578,1.715,5.06,2.74,7.523C255.951,346.7,259.884,353.405,263.583,360.211z M411.004,376.124     c-3.934,0.31-5.803,0.047-9.418-1.136c0.978-1.883,1.844-2.138,4.79-3.528c0.13-0.04,0.359-0.109,0.583-0.157     c0.28-0.027,0.931-0.09,1.219-0.083c0.25-0.022,0.699,0.01,0.953,0.031c3.814,0.644,4.237,1.626,7.16,3.707     c-0.019-0.015-0.087-0.07-0.167-0.134c0.059,0.049,0.132,0.083,0.196,0.127C414.164,375.612,412.073,376.078,411.004,376.124z      M426.137,370.37c-2.326,1.542-4.094,2.368-5.842,3.118c-0.061-1.799,0.041-2.596,0.733-4.64     c0.717-1.943,0.995-2.513,3.214-4.525c0.243-0.176,0.59-0.418,0.777-0.499c0.519-0.247,0.306-0.145-0.092,0.02     c0.178-0.075,0.357-0.148,0.534-0.226c0.08-0.035,0.16-0.071,0.24-0.106c0.044-0.018,0.094-0.038,0.154-0.061     c0.471-0.168,0.955-0.298,1.447-0.387c1.931-0.074,1.652,0.056,3.133,0.241c0.419,0.072,0.838,0.148,1.259,0.2     c0.226,0.334,0.504,0.555,0.804,0.674C430.611,366.463,428.473,368.551,426.137,370.37z M436.695,345.134     c1.139,2.225,1.701,4.082,1.4,6.777c-0.275,2.131-1.57,5.883-3.599,9.354c-0.073-0.166-0.18-0.32-0.318-0.457     c-0.755-1.227-0.899-1.717-1.358-3.773c-0.472-2.913-0.579-4.108,0.526-7.643C433.884,348.061,435.175,346.029,436.695,345.134z      M421.554,324.28c5.266,5.893,8.676,10.309,12.711,16.52c0.269,0.477,0.524,0.922,0.77,1.351     c-1.03,0.594-1.941,1.403-2.706,2.307c-3.391,3.922-4.157,9.887-2.611,14.905c-1.368-0.217-1.936-0.397-4.152,0.017     c-4.507,0.965-7.781,5.155-8.29,9.641c-0.068,0.375-0.112,0.752-0.145,1.131c-3.332-2.744-7.834-4.23-12.033-2.911     c-2.537,1.083-5.132,2.434-6.632,4.846c-0.268,0.409-0.472,0.852-0.661,1.302c-0.454-0.261-0.963-0.57-1.589-0.97     c-1.566-1.257-2.948-2.739-4.216-4.294c-2.68-4.016-4.205-6.669-5.326-10.662c-2.786-8.765-2.458-19.825-1.216-28.333     c0.271-1.551,0.559-3.1,0.915-4.633c0.01-0.049,0.022-0.098,0.034-0.148c6.293-3.244,12.245-7.141,17.682-11.683     c1.57-1.33,3.082-2.726,4.54-4.176c0.286,1.593,0.836,3.136,1.708,4.505C413.363,317.422,417.739,320.596,421.554,324.28z      M415.219,293.112c-4.289,7.285-12.571,15.424-19.04,19.973c-9.157,6.44-16.849,10.127-26.89,13.386     c-7.048,2.529-14.238,4.608-21.562,6.171c-9.233,2.219-19.227,4.555-27.12,5.298c-15.662,1.317-28.799-0.399-43.732-3.688     c-10.166-2.256-20.424-4.2-30.315-7.52c-4.813-1.688-9.505-3.937-14.927-6.74c-6.783-3.764-12.339-8.582-17.698-15.155     c-3.234-3.926-6.774-9.616-10.468-14.591c-2.553-6.275-4.917-12.626-7.547-18.869c-1.883-4.329-5.141-10.128-6.259-13.171     c-1.742-4.16-3.217-8.428-5.04-12.554c-3.019-6.536-5.576-13.455-7.332-21.399c-0.297-1.374-0.534-2.818-0.73-4.309     c0.367,0.508,0.774,1.11,1.33,1.962c2.594,4.122,4.455,8.648,6.887,12.862c1.357,2.454,2.949,4.769,4.315,7.218     c1.673,3.01,3.214,6.096,5.025,9.028c6.388,10.316,13.042,20.561,21.005,29.745c7.815,8.87,16.718,17.046,27.109,22.794     c6.333,3.526,13.094,6.198,19.927,8.583c6.723,2.443,13.572,4.685,20.679,5.679c4.657,0.71,9.371,0.604,14.067,0.588     c5.858,0.025,11.706-0.254,17.538-0.799c10.476-1.046,20.979-2.266,31.252-4.621c10.813-2.652,21.465-6.075,31.344-11.277     c13.181-6.746,24.827-15.619,32.789-28.774c3.397-5.82,5.807-12.169,7.521-18.674c1.288-5.059,1.982-10.253,3.375-15.288     c0.728-2.554,1.044-3.802,1.826-4.345c0.051,0,0.102-0.004,0.153-0.001c0.19,0.044,0.43,0.106,0.585,0.172     c6.632,2.796,6.131,16.287,4.388,26.969C425.312,273.914,421.612,282.622,415.219,293.112z M460.655,229.466     c-1.55,7.732-9.253,20.378-16.09,29.275c-4.181,5.698-10.02,12.96-16.546,18.853c1.371-3.676,2.5-7.441,3.328-11.29     c1.824-7.389,2.407-17.556,1.484-23.098c-0.201-1.366-0.588-2.693-1.061-3.988c6.57-2.512,12.843-5.803,18.239-10.357     c3.984-3.74,7.048-6.581,8.601-6.239C460.135,223.105,461.15,224.536,460.655,229.466z"/>
		</g>
		<path d="M71.396,185.734c-0.104-0.348-6.705-19.313-11.266-27.913c-4.107-7.891-9.631-16.049-18.266-19.338    c-3.606-1.386-7.505-1.94-11.357-1.803c-3.62-0.096-7.386,1.165-9.479,4.275c-5.727,8.518,3.415,18.124,10.038,22.997    c4.372,3.237,9.299,5.597,14.074,8.166c5.53,2.953,10.946,6.109,16.191,9.544c2.922,1.685,6.189,4.814,7.399,5.701    C70.161,188.679,71.904,188.078,71.396,185.734z M60.574,177.115c-3.045-1.92-6.14-3.763-9.309-5.471    c-5.536-3.126-11.368-5.734-16.716-9.186c-6.042-3.951-13.956-11.748-11.782-18.041c0.772-1.942,2.185-3.814,5.276-4.407    c4.317-0.646,11.249,0.066,15.713,2.756c8.488,4.665,14.364,16.442,18.256,25.502c1.785,4.326,3.333,8.743,4.901,13.152    C64.926,179.81,62.73,178.485,60.574,177.115z"/>
		<path d="M73.501,145.518c0.088-0.353,4.065-20.035,4.518-29.76c0.484-8.883-0.116-18.716-5.873-25.945    c-2.398-3.029-5.471-5.491-8.856-7.335c-3.067-1.926-6.95-2.759-10.335-1.148c-9.266,4.414-6.29,17.337-3.072,24.903    c2.115,5.012,5.153,9.552,7.954,14.195c3.256,5.358,6.31,10.831,9.075,16.459c1.657,2.938,2.875,7.295,3.464,8.674    C70.939,147.424,72.745,147.794,73.501,145.518z M68.577,132.589c-1.644-3.203-3.368-6.365-5.226-9.449    c-3.173-5.509-6.864-10.724-9.708-16.418c-3.188-6.477-6.028-17.218-0.953-21.526c1.654-1.278,3.822-2.17,6.785-1.106    c4.045,1.642,9.647,5.785,12.119,10.373c4.93,8.338,3.99,21.465,2.725,31.244c-0.666,4.632-1.584,9.222-2.479,13.814    C70.95,137.125,69.735,134.866,68.577,132.589z"/>
		<path d="M107.105,345.934c-0.362,0.03-20.279,2.591-29.633,5.287c-8.567,2.397-17.686,6.126-22.68,13.901    c-2.097,3.244-3.441,6.946-4.099,10.744c-0.838,3.523-0.379,7.468,2.235,10.155c7.159,7.355,18.439,0.384,24.569-5.096    c4.066-3.614,7.389-7.95,10.884-12.095c4.027-4.805,8.228-9.456,12.668-13.883c2.249-2.513,5.984-5.067,7.1-6.069    C109.732,347.747,109.503,345.919,107.105,345.934z M96.445,354.752c-2.505,2.586-4.944,5.236-7.268,7.986    c-4.197,4.776-7.948,9.947-12.426,14.471c-5.109,5.101-14.366,11.243-20.077,7.821c-1.742-1.155-3.283-2.922-3.229-6.069    c0.255-4.358,2.377-10.995,5.927-14.811c6.311-7.348,19.043-10.677,28.71-12.623c4.601-0.858,9.242-1.465,13.878-2.093    C99.977,351.047,98.228,352.924,96.445,354.752z"/>
		<path d="M125.454,379.913c-0.241,0.273-12.854,15.897-17.746,24.314c-4.53,7.656-8.537,16.656-6.767,25.726    c0.729,3.794,2.318,7.397,4.47,10.595c1.832,3.124,4.891,5.655,8.638,5.789c10.258,0.362,13.583-12.475,14.221-20.673    c0.438-5.422-0.161-10.852-0.504-16.264c-0.415-6.255-0.597-12.521-0.452-18.789c-0.113-3.371,0.817-7.798,0.931-9.294    C128.606,379.405,127.176,378.243,125.454,379.913z M123.854,393.655c-0.021,3.6,0.05,7.201,0.274,10.795    c0.271,6.352,1.138,12.682,1.033,19.046c-0.162,7.217-2.6,18.056-9.092,19.535c-2.057,0.371-4.392,0.16-6.529-2.151    c-2.83-3.324-5.888-9.586-5.963-14.796c-0.524-9.672,6.37-20.883,12.006-28.974c2.73-3.802,5.662-7.45,8.576-11.11    C123.843,388.536,123.878,391.101,123.854,393.655z"/>
		<path d="M426.234,162.224c0.352-0.091,19.56-5.947,28.331-10.169c8.045-3.797,16.412-8.998,20.035-17.499    c1.525-3.549,2.231-7.424,2.244-11.278c0.237-3.614-0.876-7.426-3.902-9.638c-8.288-6.055-18.243,2.706-23.37,9.134    c-3.405,4.243-5.955,9.074-8.708,13.745c-3.167,5.411-6.531,10.699-10.168,15.807c-1.797,2.854-5.052,5.997-5.985,7.171    C423.34,160.876,423.873,162.64,426.234,162.224z M435.269,151.747c2.037-2.968,3.999-5.989,5.83-9.089    c3.339-5.41,6.173-11.136,9.83-16.345c4.184-5.883,12.283-13.488,18.486-11.069c1.911,0.847,3.726,2.332,4.198,5.444    c0.478,4.339-0.505,11.238-3.366,15.593c-4.992,8.3-16.989,13.712-26.194,17.248c-4.393,1.615-8.867,2.99-13.333,4.385    C432.406,155.99,433.817,153.847,435.269,151.747z"/>
		<path d="M404.397,132.945c0.255-0.259,13.68-15.192,19.011-23.338c4.93-7.405,9.409-16.18,8.122-25.331    c-0.526-3.827-1.922-7.509-3.902-10.817c-1.663-3.217-4.585-5.907-8.319-6.239c-10.224-0.905-14.226,11.737-15.298,19.89    c-0.725,5.392-0.414,10.846-0.36,16.267c0.082,6.269-0.068,12.535-0.545,18.787c-0.066,3.372-1.23,7.744-1.423,9.231    C401.222,133.284,402.589,134.52,404.397,132.945z M406.724,119.307c0.212-3.594,0.332-7.193,0.299-10.794    c0.066-6.357-0.464-12.724-0.022-19.074c0.545-7.199,3.555-17.893,10.115-19.025c2.074-0.261,4.395,0.073,6.406,2.494    c2.65,3.469,5.37,9.885,5.169,15.092c0.01,9.686-7.469,20.516-13.526,28.296c-2.928,3.652-6.049,7.139-9.154,10.639    C406.463,124.419,406.564,121.856,406.724,119.307z"/>
		<path d="M103.241,164.51c-0.549-1.554-1.238-3.207-2.556-4.261c-1.283-1.034-3.241-1.057-4.572-0.098    c-1.044,0.669-1.874,1.917-2.466,3.452c-0.515,0.919-0.874,1.938-1.118,2.943c-1.053,4.719,0.915,15.125,7.711,11.975    C104.666,175.753,104.604,168.977,103.241,164.51z"/>
		<path d="M143.367,164.529c-0.135-3.443-1.309-7.833-3.811-9.88c-0.059-0.061-0.112-0.127-0.173-0.186    c-0.818-0.738-1.68-1.018-2.494-0.961c-1.469-0.061-2.964,0.736-3.923,1.861c-2.832,3.546-2.314,8.576-1.043,12.652    c1.201,4.067,4.249,7.234,7.256,6.114c1.889-0.363,3.479-2.52,3.882-4.522C143.553,167.932,143.578,166.224,143.367,164.529z"/>
		<g>
			<path d="M130.147,177.152c-2.082,0.712-3.897,1.658-4.636,1.917c-2.831,1.061-5.782,1.794-8.758,2.319     c-0.044,0.008-0.078,0.014-0.116,0.02c-0.184,0.023-0.368,0.047-0.553,0.06c-1.731,0.051-1.551-0.014-2.302-0.081     c-1.171-0.124-2.315-0.748-3.489-0.643c-2.281,0.226-2.497,3.593-0.285,4.176c1.8,0.482,3.635,0.901,5.509,0.896     c2.814-0.156,5.584-0.796,8.274-1.638c1.193,1.251,2.552,2.431,4.256,2.879c1.47,0.407,4.133,0.848,5.164-0.46     c-0.193,0.821-0.466,1.61-0.792,2.341c-1.846,3.269-5.122,5.259-8.779,5.158c-4.097-0.032-6.235-2.077-9.422-6.574     c0.076,0.095,0.168,0.202,0.206,0.249c-1.091-1.88-4.097-1.052-4.076,1.134c0.08,1.325,1.162,2.339,1.834,3.417     c3.362,5.026,9.06,7.335,14.962,5.968c4.128-1.119,7.966-4.014,9.611-8.032C139.033,185.131,138.11,174.863,130.147,177.152z      M131.378,183.773c-0.083,0.015-0.162,0.043-0.243,0.063c-0.082,0.017-0.13,0.028-0.165,0.035     c-1.097-0.005-1.147,0.021-2.755-0.452c-0.164-0.085-0.41-0.213-0.549-0.307c-0.125-0.057-0.232-0.134-0.336-0.219     c1.771-0.77,3.026-1.498,4.516-1.863c0.129-0.028,0.26-0.047,0.39-0.071c0.112,0.003,0.202,0.007,0.271,0.01     c0.069,0.015,0.138,0.03,0.205,0.049c0.018,0.017,0.031,0.029,0.052,0.049c0.048,0.045,0.089,0.096,0.133,0.144     c0.04,0.066,0.08,0.131,0.115,0.2c0.402,1.14,0.52,2.273,0.46,3.37C133.125,184.016,132.223,183.518,131.378,183.773z"/>
			<path d="M114.424,187.772c0.005,0.009,0.012,0.016,0.017,0.025C114.444,187.798,114.437,187.789,114.424,187.772z"/>
		</g>
		<g>
			<path d="M334.332,252.61c-3.384-3.343-7.844-5.344-12.552-5.887c-3.027-0.502-6.112-0.87-9.152-0.293     c-1.424-1.901-3.505-3.964-4.792-5.559c-3.931-4.366-7.953-9.069-13.479-11.413c-9.148-3.934-16.473,4.366-20.041,10.885     c-2.247,3.752-4.292,7.691-6.143,11.629c-2.681,0.466-5.205,1.601-7.719,2.612c-2.585,1.13-5.323,2.091-7.416,4.054     c-2.196,1.811-2.345,4.931-1.357,7.431c1.619,4.74,6.095,7.647,9.754,10.756c1.95,1.529,3.883,3.113,5.516,4.987     c-0.03-0.039-0.059-0.079-0.082-0.118c0.029,0.034,0.062,0.081,0.097,0.134c0.26,0.273,0.143,0.18,0.013,0.02     c0.114,0.179,0.243,0.429,0.327,0.596c0.036,0.1,0.073,0.2,0.099,0.303c0.107,0.506,0.102,0.28,0.045,1.376     c-0.054,0.438-0.824,5.233-0.683,7.415c0.025,2.262,0.451,4.502,1.007,6.689c2.635,10.664,10.126,13.343,19.607,8.328     c6.469-3.136,11.451-8.596,16.738-7.675c0.978-0.04,6.061,2.075,8.699,2.929c3.9,1.277,8.613,2.202,12.034-0.688     c3.077-2.497,2.029-7.014,1.857-10.475c-0.262-3.406-0.514-5.781,0.313-8.057c0.375-1.167,3.56-5.259,5.139-7.658     c1.599-2.364,2.992-4.865,4.287-7.406C339.155,262.08,338.882,256.948,334.332,252.61z M334.268,261.454     c-0.139,4.354-5.898,12.226-9.917,18.104c-3.69,5.516,0.278,15.446-1.604,18.448c-0.035,0.036-0.079,0.078-0.131,0.128     c-0.355,0.247-0.726,0.475-1.108,0.677c-0.349,0.287-2.468,0.486-3.476,0.238c-3.881-0.734-7.487-2.418-11.233-3.605     c-6.834-2.19-12.349,2.547-17.704,6.048c-6.91,4.448-13.336,6.288-16.422,0.204c-2.104-3.771-2.855-10.46-2.141-14.178     c0.969-5.204,0.922-6.981-4.155-11.022c-4.812-3.936-12.628-8.609-12.308-13.759c0.222-2.214,3.107-3.483,6.754-5.119     c1.882-0.78,5.25-2.356,8.367-2.863c1.948-0.317,4.449-7.066,8.592-13.514c2.446-3.807,4.272-6.141,8.212-8.174     c5.715-2.816,11.971,2.682,18.296,10.2c2.152,2.558,5.214,6.274,6.785,7.808c0.928,0.906,8.798-3.234,17.271,1.973     C331.83,255.292,334.607,258.104,334.268,261.454z"/>
			<path d="M266.954,281.815c-0.001-0.001-0.001-0.001-0.002-0.002c0.009,0.012,0.018,0.024,0.028,0.036     c-0.005-0.007-0.009-0.013-0.013-0.02C266.961,281.823,266.959,281.82,266.954,281.815z"/>
		</g>
		<path d="M210.75,84.824c-1.726-3.513-3.981-6.757-6.751-9.529c-0.275-0.237-0.529-0.493-0.771-0.748    c0.007-0.031,0.014-0.063,0.021-0.094c0.293-1.362,0.536-2.734,0.865-4.088c0.665-3.436,2.951-10.118,0.655-13.069    c-1.314-1.734-3.702-1.492-5.598-1.103c-2.432,0.462-4.825,1.11-7.179,1.869c-1.46,0.467-2.914,0.954-4.351,1.489    c-1.219-1.284-2.427-2.579-3.621-3.887c-2.282-2.289-7.21-8.795-10.648-7.973c-2.479,0.651-2.699,3.588-3.205,5.684    c-0.556,2.964-1.158,5.921-1.61,8.903c-0.26,1.657-0.483,3.32-0.691,4.984c-0.02,0.488-0.153,1.003-0.196,1.506    c-4.184,2.119-8.212,4.989-10.964,7.25c-1.22,1.103-2.876,2.012-3.45,3.628c-0.627,3.828,4.782,4.766,7.484,5.699    c2.063,0.608,4.132,1.2,6.203,1.78c0.255,0.069,0.531,0.141,0.81,0.196c0.595,5.115,1.616,10.18,2.906,15.163    c0.299,1.105,0.593,2.213,0.996,3.285c0.294,0.819,0.731,1.639,1.507,2.088c4.239,1.877,7.868-3.649,10.239-6.423    c2.152-2.706,4.095-5.573,5.743-8.614c0.085-0.174,0.177-0.344,0.268-0.512c2.13,0.757,11.071,1.458,14.472,1.531    c1.663,0.035,3.335,0.157,4.993-0.036c0.857-0.093,1.746-0.2,2.487-0.68C214.028,90.982,211.915,87.254,210.75,84.824z     M208.934,90.234c-0.105,0.015-0.17,0.025-0.216,0.033c-0.525,0.064-1.053,0.112-1.581,0.133    c-3.064,0.092-6.129,0.015-9.194-0.003c-3.39-0.08-2.464-0.202-7.81-0.93c-0.946-0.061-2.775-1.361-4.135,1.552    c-0.847,1.44-1.662,2.899-2.584,4.294c-2.444,3.578-5.217,7.399-7.811,9.322c-0.146,0.091-0.302,0.164-0.459,0.236    c-0.091,0.028-0.183,0.051-0.26,0.07c-0.433-0.964-1.473-5.14-1.967-7.341c-1.038-4.263-1.567-8.337-2.091-11.568    c-0.173-1.431-1.44-2.087-2.471-2.337c-1.019-0.281-2.038-0.564-3.055-0.853c-3.019-0.809-6.95-1.915-8.323-2.653    c1.123-1.168,2.381-2.201,3.626-3.235c1.331-1.075,3.651-2.739,6.061-4.128c1.029-0.606,2.058-1.214,3.12-1.76    c0.485-0.281,1.125-0.387,1.452-0.873c0.539-0.639,1.663-13.22,2.996-18.379c0.037-0.12,0.076-0.24,0.117-0.359    c1.342,0.726,3.555,2.965,5.517,5.12c1.79,1.962,3.579,3.925,5.412,5.847c0.619,0.561,1.089,1.377,1.872,1.711    c1.297,0.648,9.443-4.127,13.014-4.697c0.076-0.011,0.152-0.023,0.228-0.034c0.31-0.033,0.89-0.086,1.212-0.072    c0.094,0.017,0.189,0.036,0.281,0.062c0.01,0.012,0.023,0.022,0.034,0.034c0.609,0.966-0.192,5.406-1.165,9.196    c-1.531,6.519-0.982,6.813-0.35,7.832c0.845,1.026,1.99,2.289,2.827,3.321c1.434,1.593,3.973,5.779,5.409,9.106    c0.093,0.262,0.304,0.866,0.396,1.267c0.001,0.02,0.002,0.043,0.004,0.068C209.003,90.223,208.968,90.23,208.934,90.234z"/>
		<path d="M353.31,447.25c0.929-3.802,1.28-7.737,0.934-11.64c-0.059-0.358-0.09-0.718-0.112-1.069    c0.026-0.02,0.052-0.039,0.077-0.059c1.098-0.857,2.165-1.754,3.286-2.581c2.715-2.21,8.754-5.87,8.885-9.605    c0.104-2.173-1.883-3.519-3.587-4.437c-2.162-1.205-4.413-2.243-6.707-3.171c-1.42-0.578-2.848-1.137-4.293-1.649    c-0.111-1.767-0.208-3.535-0.285-5.304c-0.282-3.22,0.111-11.372-3.054-12.947c-2.319-1.091-4.372,1.021-6.105,2.305    c-2.328,1.918-4.687,3.799-6.947,5.797c-1.262,1.105-2.5,2.237-3.727,3.381c-0.328,0.362-0.761,0.671-1.116,1.03    c-4.569-1.059-9.5-1.441-13.062-1.471c-1.643,0.064-3.497-0.301-4.974,0.571c-2.937,2.534,0.612,6.724,2.086,9.172    c1.193,1.79,2.4,3.571,3.617,5.345c0.152,0.217,0.316,0.448,0.495,0.67c-2.825,4.306-5.29,8.846-7.498,13.496    c-0.479,1.039-0.965,2.078-1.343,3.159c-0.299,0.817-0.491,1.726-0.184,2.569c2.048,4.159,8.376,2.248,11.975,1.641    c3.387-0.695,6.717-1.648,9.931-2.925c0.177-0.079,0.357-0.15,0.534-0.22c1.149,1.947,7.558,8.22,10.121,10.458    c1.253,1.094,2.458,2.26,3.853,3.175c0.717,0.478,1.467,0.966,2.344,1.073C351.875,454.077,352.645,449.861,353.31,447.25z     M348.447,450.236c-0.09-0.056-0.146-0.09-0.187-0.114c-0.444-0.288-0.879-0.589-1.299-0.912c-2.409-1.895-4.712-3.92-7.051-5.9    c-2.549-2.236-1.76-1.736-5.395-5.723c-0.687-0.654-1.256-2.824-4.168-1.461c-1.573,0.561-3.135,1.158-4.736,1.636    c-4.17,1.177-8.748,2.33-11.972,2.141c-0.171-0.024-0.337-0.068-0.503-0.113c-0.088-0.037-0.173-0.078-0.245-0.113    c0.286-1.017,2.167-4.888,3.199-6.893c1.938-3.937,4.146-7.401,5.816-10.216c0.785-1.209,0.235-2.525-0.397-3.378    c-0.602-0.87-1.202-1.74-1.797-2.614c-1.797-2.558-4.104-5.927-4.683-7.375c1.61-0.176,3.239-0.161,4.857-0.156    c1.711,0.03,4.557,0.241,7.298,0.721c1.178,0.195,2.357,0.389,3.522,0.651c0.552,0.096,1.111,0.424,1.674,0.262    c0.824-0.145,9.756-9.075,14.088-12.178c0.105-0.069,0.212-0.135,0.32-0.201c0.564,1.417,0.826,4.555,0.948,7.467    c0.115,2.653,0.228,5.307,0.401,7.957c0.115,0.828-0.048,1.755,0.339,2.514c0.579,1.33,9.891,2.891,12.997,4.744    c0.066,0.04,0.131,0.08,0.197,0.12c0.259,0.174,0.738,0.504,0.976,0.723c0.062,0.074,0.121,0.149,0.176,0.228    c0,0.016,0.004,0.032,0.004,0.048c-0.152,1.132-3.615,4.024-6.793,6.308c-5.356,4.019-5.123,4.597-5.293,5.784    c-0.009,1.329,0.058,3.032,0.038,4.361c0.078,2.142-0.659,6.982-1.691,10.456c-0.097,0.261-0.322,0.859-0.509,1.225    c-0.012,0.016-0.026,0.034-0.041,0.055C348.507,450.271,348.476,450.254,348.447,450.236z"/>
		<path d="M346.606,96.973c0.929-3.803,1.28-7.737,0.934-11.64c-0.059-0.358-0.09-0.718-0.112-1.069    c0.026-0.02,0.052-0.039,0.077-0.059c1.098-0.857,2.165-1.754,3.286-2.581c2.715-2.21,8.754-5.87,8.885-9.605    c0.104-2.173-1.883-3.519-3.587-4.437c-2.162-1.205-4.413-2.243-6.707-3.171c-1.42-0.578-2.848-1.137-4.293-1.649    c-0.111-1.767-0.208-3.535-0.285-5.304c-0.282-3.22,0.111-11.372-3.054-12.947c-2.319-1.091-4.372,1.021-6.105,2.305    c-2.328,1.918-4.687,3.799-6.947,5.798c-1.262,1.105-2.5,2.237-3.727,3.381c-0.328,0.362-0.761,0.671-1.116,1.03    c-4.569-1.059-9.5-1.441-13.062-1.472c-1.644,0.064-3.497-0.301-4.974,0.571c-2.937,2.534,0.612,6.724,2.086,9.172    c1.193,1.79,2.4,3.571,3.617,5.345c0.152,0.217,0.316,0.449,0.495,0.67c-2.825,4.306-5.29,8.846-7.497,13.496    c-0.479,1.039-0.965,2.078-1.344,3.159c-0.299,0.817-0.49,1.726-0.184,2.569c2.048,4.159,8.376,2.248,11.975,1.641    c3.387-0.695,6.717-1.648,9.931-2.925c0.177-0.078,0.357-0.15,0.534-0.22c1.149,1.947,7.557,8.22,10.121,10.458    c1.253,1.094,2.458,2.26,3.853,3.175c0.717,0.478,1.468,0.966,2.344,1.073C345.171,103.8,345.941,99.584,346.606,96.973z     M341.743,99.958c-0.09-0.056-0.146-0.09-0.187-0.114c-0.444-0.288-0.879-0.589-1.299-0.912c-2.409-1.895-4.712-3.92-7.051-5.9    c-2.549-2.235-1.76-1.735-5.395-5.723c-0.687-0.654-1.256-2.824-4.168-1.461c-1.573,0.561-3.135,1.158-4.736,1.636    c-4.17,1.177-8.748,2.33-11.972,2.141c-0.17-0.024-0.337-0.068-0.503-0.113c-0.088-0.037-0.173-0.078-0.244-0.113    c0.286-1.017,2.167-4.888,3.199-6.894c1.938-3.937,4.146-7.401,5.816-10.216c0.786-1.209,0.235-2.525-0.397-3.378    c-0.602-0.87-1.202-1.74-1.797-2.614c-1.797-2.558-4.103-5.927-4.683-7.374c1.61-0.176,3.239-0.162,4.857-0.156    c1.711,0.03,4.558,0.241,7.298,0.721c1.178,0.195,2.357,0.389,3.522,0.651c0.552,0.096,1.111,0.424,1.674,0.262    c0.823-0.145,9.756-9.075,14.088-12.178c0.106-0.069,0.212-0.135,0.32-0.201c0.564,1.417,0.826,4.555,0.948,7.467    c0.115,2.653,0.228,5.306,0.401,7.957c0.115,0.828-0.048,1.755,0.339,2.514c0.579,1.33,9.891,2.891,12.997,4.745    c0.066,0.04,0.131,0.08,0.197,0.12c0.259,0.174,0.738,0.504,0.976,0.723c0.061,0.074,0.121,0.149,0.176,0.228    c0,0.016,0.004,0.032,0.004,0.048c-0.152,1.132-3.615,4.024-6.793,6.308c-5.356,4.018-5.123,4.596-5.293,5.784    c-0.009,1.329,0.058,3.032,0.038,4.361c0.078,2.142-0.659,6.981-1.691,10.456c-0.097,0.261-0.322,0.859-0.509,1.225    c-0.012,0.016-0.026,0.034-0.041,0.055C341.803,99.994,341.772,99.977,341.743,99.958z"/>
		<path fill="#000" d="M98.278,164.207c0,0.78-0.632,1.412-1.412,1.412c-0.78,0-1.412-0.632-1.412-1.412    s0.632-1.412,1.412-1.412C97.646,162.795,98.278,163.428,98.278,164.207z"/>
		<path fill="#000;" d="M136.537,158.419c0,0.78-0.632,1.412-1.412,1.412c-0.78,0-1.412-0.632-1.412-1.412    c0-0.78,0.632-1.412,1.412-1.412C135.905,157.007,136.537,157.639,136.537,158.419z"/>
	</g>

</svg>
