<?xml version="1.0" encoding="utf-8"?>
<!-- Generator: Adobe Illustrator 27.5.0, SVG Export Plug-In . SVG Version: 6.00 Build 0)  -->
<svg xmlns="http://www.w3.org/2000/svg" xmlns:xlink="http://www.w3.org/1999/xlink" version="1.1" x="0px" y="0px" viewBox="0 0 500 500" style="background-color:transparent;" xml:space="preserve">
<g id="BACKGROUND">
	<rect style="fill:none;" width="500" height="500" fill="none"/>
</g>
<g id="OBJECTS">
	<g>
		<g>
			<path d="M152.602,164.259c0.822-0.305,1.341-1.091,1.961-1.678c2.091-1.914,2.049-1.793,3.939-3.265     c4.208-2.846,11.615-6.865,17.32-8.488c4.707-1.529,8.512-2.315,12.496-2.56c1.717,0.137,3.191-0.984,2.328-2.769     c-0.948-1.367-2.128-3.651-8.737-4.278c-4.496-0.427-8.895,0.897-12.935,2.772c-5.474,2.441-10.458,6.056-14.231,10.733     C152.627,157.349,148.061,165.943,152.602,164.259z"/>
			<path d="M135.471,33.456C135.409,33.291,135.375,33.256,135.471,33.456L135.471,33.456z"/>
			<path d="M463.212,217.025c-1.958-2.878-4.197-5.585-6.812-7.892c-1.343-1.237-3.482-3.285-5.316-1.853     c-1.256,1.313-1.625,3.234-2.242,4.896c-0.056,0.175-0.116,0.349-0.175,0.523c-0.008,0.019-0.018,0.04-0.028,0.062     c-0.79-2.848-1.778-6.862-2.605-9.392c-5.129-15.105-12.505-29.451-21.363-42.702c-11.74-18.344-28.594-33.664-48.795-42.092     c-5.81-2.534-11.978-4.097-18.224-5.1c-8.689-1.698-9.256,1.857-6.35,9.261c1.991,5.082,4.789,9.8,7.449,14.552     c4.314,7.719,8.768,15.373,12.443,23.426c6.586,13.811,12.354,28.789,16.368,44.673c2.417,8.79,4.685,17.648,5.922,26.692     c0.913,6.289,1.934,17.705,1.633,25.812c-0.041,11.858-1.338,23.407-3.104,34.014c-1.704,10.683-4.541,21.128-7.462,31.532     c-2.07,7.776-5.119,15.263-6.877,23.125c-0.238,0.982-0.402,1.978-0.533,2.979c-1.16-3.128-2.442-6.21-3.875-9.228     c-4.294-8.928-9.537-17.407-15.471-25.336c-2.693-3.624-5.318-7.307-8.394-10.623c-10.691-12.154-22.864-22.829-35.087-33.395     c-10.545-9.03-21.8-17.22-31.983-26.672c-6.748-6.685-12.68-12.692-17.333-20.204c-5.016-8.195-8.238-15.778-11.471-24.186     c-1.651-3.944-2.717-8.133-4.14-12.14c1.656-3.492,2.682-7.267,3.673-10.999c1.374-5.528,2.057-11.217,2.122-16.911     c-0.052-6.067-0.549-9.507,0.715-13.826c1.111-4.297,4.097-7.209,8.002-11.278c4.612-5.049,9.442-10.193,11.93-16.676     c3.662-9.497,6.183-19.982,3.904-30.109c-1.193-5.709-3.866-10.958-5.285-16.603c-1.491-6.578-0.116-13.426,1.879-21.014     c0.931-3.897,6.887-19.15-2.398-14.009c-6.564,3.404-12.182,8.259-18.317,12.335c-10.805,7.481-21.76,15.285-29.562,26.035     c-2.396,3.293-4.456,6.838-6.124,10.553c-1.019,2.238-1.897,4.549-2.387,6.953c-0.822-0.883-1.73-1.684-2.692-2.412     c-12.571-9.431-29.512-13.395-45.013-11.139c-1.948,0.297-3.906,0.685-5.835,1.191c-1.775-4.422-4.161-8.61-7.163-12.314     c-3.661-4.5-6.152-7.626-9.523-12.716c-3.499-5.606-4.835-9.013-6.769-14.243c-1.084-2.842-1.587-5.88-2.752-8.684     c-2.022-3.799-5.607-0.145-7.251,2.051c-1.679,2.135-3.274,4.342-4.815,6.579c-4.315,6.344-7.832,13.199-10.268,20.481     c-2.053,5.659-3.793,11.513-4.022,17.566c-0.305,11.373,3.778,25.303,10.252,34.662c2.157,2.803,2.907,4.399,3.387,6.609     c0.068,0.257,0.201,0.461,0.372,0.617c-3.239,5.571-7.671,13.143-10.327,16.456c-5.707,6.95-10.874,11.819-18.72,15.419     c-2.957,1.42-5.819,3.18-8.076,5.581c-0.426,0.207-0.846,0.426-1.25,0.667c-0.727,0.578-0.89,0.754-1.031,0.963     c-0.252,0.177-0.451,0.428-0.555,0.748c-0.046,0.059-0.097,0.129-0.153,0.21c-0.233,0.393-0.298,0.875-0.202,1.321     c-1.119,5.058-1.876,9.454-0.421,15.189c0.939,2.889,2.065,5.862,4.146,8.132c0.099,0.086,0.199,0.162,0.299,0.243     c1.406,13.16,18.764,22.495,30.211,25.707c3.116,0.762,6.263,1.557,9.47,1.788c3.452,0.2,6.927-0.134,10.29-0.94     c0.996,0.13,1.995,0.22,2.995,0.276c-4.399,5.202-11.206,9.065-17.524,13.965c-5.974,4.344-11.074,9.952-14.898,16.268     c-3.705,6.398-6.237,13.475-7.937,20.655c-0.402,1.855-0.435,2.277-0.645,4.575c-0.019,0.938-0.165,1.964,0.253,2.839     c1.235,1.997,3.152,0.386,3.862-1.147c1.703-3.117,3.216-5.707,4.801-8.092c-3.047,7.546-4.95,15.52-5.794,23.632     c-1.32,13.634,2.132,27.562,9.597,39.043c0.724,1.169,1.545,2.274,2.403,3.349c0.499,0.586,0.965,1.264,1.679,1.598     c3.342,1.309,3.905-3.226,4.466-5.479c0.114-0.467,0.212-0.938,0.307-1.41c1.067,1.729,2.377,4.151,3.508,5.767     c0.771,1.116,1.542,2.238,2.317,3.359c0.46,3.902,0.486,9.529,0.664,14.103c0.29,9.349-0.315,18.708-1.169,28.015     c-0.93,9.001-4.06,20.297-7.58,30.085c-2.016,5.587-5.702,12.729-9.399,18.858c-2.627,4.278-5.699,8.272-8.17,12.647     c-2.006,3.618-3.816,7.472-4.133,11.651c-0.516,6.234,1.932,12.986,7.175,16.629c1.298,1.501,3.025,2.652,4.998,2.708     c0.456-0.031,0.8-0.303,1.005-0.663c4.319,3.927,12.896,3.43,18.411,2.016c5.026-1.286,9.371-4.302,13.215-7.693     c2.583-2.157,5.044-4.505,6.898-7.333c1.986-2.949,3.451-6.287,4.008-9.81c0.67-4.784,0.884-8.202,3.211-12.092     c2.392-4.125,5.506-7.784,7.953-11.881c2.663-4.495,4.801-9.289,6.787-14.115c2.141-5.661,4.309-11.359,6.163-17.145     c2.228,3.295,4.724,6.407,7.487,9.272c2.216,2.336,4.778,4.298,7.15,6.467c2.281,2.122,4.638,4.159,6.994,6.196     c0.757,0.735,1.708,1.591,2.495,2.203c-4.023,1.712-7.983,3.564-11.978,5.339c-4.797,2.161-9.678,4.313-13.764,7.694     c-1.643,1.321-3.355,2.613-4.627,4.315c-1.106,1.426-1.766,3.189-2.213,4.924c-0.381,1.839-0.168,3.728,0.188,5.554     c0.308,1.546,0.741,3.094,1.517,4.473c0.517,0.806,1.057,1.776,1.934,2.216c0.226,0.114,0.466,0.149,0.701,0.132     c1.494,3.504,5.348,5.807,9.207,5.746c0.588-0.042,1.239-0.045,1.774-0.205c1.414,1.75,3.45,3.016,5.818,3.506     c2.819,0.476,5.785,0.667,8.552-0.182c2.147-0.733,4.085-1.961,6.149-2.891c1.188-0.55,2.28-1.281,3.454-1.858     c0.297-0.149,0.596-0.302,0.875-0.485c1.107,1.455,2.553,2.623,4.339,3.213c0.861,0.219,1.854,0.576,2.671,0.584     c3.357,3.565,7.718,4.199,10.618,1.964c3.616,3.066,9.332,4.509,13.63,2.147c1.282-0.68,2.362-1.799,3.114-3.059     c0.036,0.107,0.064,0.214,0.103,0.321c0.343,0.961,0.858,1.852,1.457,2.675c0.121,0.277,0.69,0.975,1.455,1.078     c0.045,0.201,0.096,0.403,0.159,0.608c1.001,2.797,3.013,5.364,5.725,6.658c0.118,0.046,0.233,0.097,0.346,0.148     c0.675,2.681,2.115,5.181,4.293,6.893c6.145,4.875,14.995,3.62,21.464,0.032c6.48-3.566,12.249-8.336,18.974-11.473     c7.087-3.401,16.57-6.041,24.951-9.559c8.028-3.235,15.991-6.64,23.723-10.536c6.464-3.088,12.782-6.582,18.479-10.93     c0.326,0.018,8.739,0.619,15.215-1.463c5.974-1.921,11.513-4.97,16.894-8.104c7.351-4.582,14.209-9.899,20.855-15.443     c4.622-3.872,9.243-7.759,13.457-12.08c6.903-7.35,16.569-19.239,13.925-29.998c-0.358-1.249-0.959-2.399-1.773-3.396     c1.588-2.021,2.982-4.182,4.381-6.336c4.807-7.514,9.78-14.978,13.381-23.169c2.054-4.627,3.967-9.449,4.314-14.548     c0.097-1.266,0.121-2.617-0.421-3.792c-0.044-0.12-0.083-0.241-0.114-0.365c-0.033-0.436-0.007-0.875,0.02-1.311     c0.698-8.802,1.513-17.696,2.756-25.082c1.473-8.897,3.098-17.804,3.571-26.823C472.831,244.166,470.946,229.271,463.212,217.025     z M87.64,174.062c-0.477-1.749-0.247-7.395,0.251-9.451c0.121-0.634,0.252-1.266,0.386-1.897     c0.261-0.189,0.566-0.549,0.921-0.986c0.18-0.114,0.357-0.234,0.541-0.339c0.461-0.409,4.202-1.435,4.506-1.313     c2.239-0.008,4.211,0.455,7.26,1.554c2.542,0.886,5.349,4.021,5.503,6.944c0.004,1.817,0.12,1.416-0.51,3.28     c-0.026,0.065-0.052,0.13-0.078,0.195c-0.115,0.265-0.107,0.259-0.064,0.165l-0.006,0.013c-0.459,1.064-0.951,2.117-1.553,3.109     c-3.43,5.663-8.929,10.865-13.271,7.542C90.424,181.994,88.308,177.876,87.64,174.062z M140.166,207.524     c-4.309,1.297-6.267,1.576-10.854,1.528c-4.088-0.244-9.337-1.408-14.424-3.245c-3.443-1.16-10.821-5.15-13.354-7.231     c-3.805-2.76-7.994-7.306-9.132-11.485c4.759,1.289,9.62-2.225,12.795-6.219c1.627-2.017,3.015-4.235,4.032-6.622     c0.771-1.692,1.378-3.491,1.311-5.373c0.023-3.438-1.88-6.639-4.422-8.849c-1.574-1.225-3.385-2.08-5.288-2.677     c2.539-0.649,4.968-1.685,7.279-2.921c7.801-4.402,14.455-10.642,19.734-17.851c8.206-10.75,15.57-23.522,27.501-27.593     c5.296-1.764,9.153-2.202,14.134-2.518c6.611-0.256,11.083,0.175,17.252,1.891c8.844,2.489,16.993,7.861,23.903,13.897     c7.673,6.996,12.427,13.639,14.509,23.675c1.587,8.616-1.709,19.266-4.651,29.247c-0.423,1.411-0.397,1.317-1.319,2.771     c-0.288,0.354-0.581,0.715-0.556,1.2c-0.012,0.244,0.046,0.466,0.151,0.661c-0.225,0.759,0.398,1.421,0.569,2.09     c0.078,0.825-0.058,0.95-0.07,1.176c-0.302,1.592-0.975,2.43-2.237,4.205c-0.873,1.077-1.834,2.079-2.857,3.015     c-1.014,0.94-2.057,1.848-3.154,2.69c-2.135,1.475-4.656,3.055-7.094,4.451c-0.053,0.025-0.104,0.056-0.154,0.089     c-2.482,1.414-4.869,2.629-6.663,3.335c-5.868,2.337-12.086,3.611-18.258,4.865c-6.111,1.101-12.996,1.182-20.21,1.967     c-4.549,0.424-8.042,1.258-11.968,1.558c0.034-0.016,0.069-0.032,0.103-0.048c4.679-2.634,9.246-5.647,13.077-9.433     c0.431-0.436,0.838-0.892,1.234-1.357c0.389,0.706,1.319,0.761,2.172,1.2c1.612,0.748,4.154,1.228,5.046-0.761     c0.666-1.983-0.038-6.179-0.3-8.038c-0.43-1.538-0.316-3.834-2.087-4.472c-2.342-0.47-2.928,2.869-3.936,4.366     c-1.467,2.515-2.015,3.147-2.705,3.997c-4.013,4.576-7.188,6.452-12.37,9.792C143.932,206.257,142.859,206.639,140.166,207.524z      M162.851,196.096c0.78-1.136,1.486-2.323,2.13-3.545c0.17,0.893,0.281,1.613,0.287,1.783c0.081,0.934,0.22,1.875,0.234,2.814     c-0.912-0.296-1.083-0.374-1.35-0.489c-0.012-0.007-0.062-0.03-0.188-0.08C163.587,196.442,163.238,196.194,162.851,196.096z      M127.886,325.568c-1.166-1.73-2.14-3.579-3.28-5.325c-0.726-0.996-1.711-3-3.211-2.182c-0.945,0.617-0.756,1.935-1.088,2.897     c-0.401,1.685-0.997,4.241-1.453,5.285c-1.601-1.935-6.162-9.798-7.295-12.999c-1.862-4.539-3.076-9.305-3.88-14.138     c-1.358-10.076-0.195-19.331,2.708-30.139c1.678-6.026,3.924-10.032,6.321-15.994c0.657-1.478-1.13-2.883-2.284-1.554     c-3.076,3.747-6.208,7.469-8.668,11.665c-0.396,0.613-0.846,1.415-1.296,2.231c0.534-2.499,1.403-5.39,2.387-8.186     c3.323-9.879,7.714-17.341,15.703-24.836c5.254-4.819,13.197-9.35,19.382-15.057c1.239-1.229,2.415-2.524,3.461-3.923     c0.229-0.38,0.563-0.715,0.821-1.083c1.207-0.061,2.413-0.177,3.614-0.361c4.4-0.593,8.804-1.165,13.237-1.451     c7.411-0.466,14.86-0.804,22.094-2.622c4.712-0.943,9.354-2.254,13.772-4.101c-1.772,2.186-3.63,4.461-5.408,6.944     c-3.524,5.528-5.633,9.605-6.734,15.773c-1.038,5.289,2.608,9.934,5.975,13.598c3.792,3.808,6.331,7.64,6.543,12.176     c0.264,3.133-0.989,5.236-1.211,9.049c-0.078,2.606,0.774,5.12,1.651,7.54c1.37,4.092,3.803,7.659,6.615,10.894     c3.717,4.551,8.509,8.954,11.057,12.905c0.9,1.29,1.784,2.592,2.607,3.933c0.358,0.486,0.57,1.113,1.062,1.477     c0.232,0.208,0.532,0.317,0.842,0.34c-1.729,7.005-4.377,13.787-6.986,20.501c-2.345,6.158-6.236,13.022-9.25,20.193     c-2.226,5.427-4.101,10.675-5.51,15.942c-1.093,0.976-0.999,0.86-2.045,1.642c-0.996,0.789-4.131,2.116-4.601,2.238     c-5.459,1.53-10.401,0.409-16.52-1.76c-2.115-0.799-5.643-2.523-8.696-4.074c-2.529-1.317-4.963-2.828-7.594-3.941     c-2.959-1.011-2.662,1.992-2.792,2.631c-0.492,1.749-0.917,1.885-2.198,1.618c-3.578-0.917-7.169-3.771-10.309-6.35     c-5.995-5.226-10.074-10.69-14.343-16.793c-0.05-0.332-0.099-0.664-0.157-0.995c-0.194-0.632-0.692-0.93-1.204-0.958     C129.122,327.347,128.512,326.466,127.886,325.568z M176.422,381.901c-0.248,0.283-0.386,0.656-0.332,1.07     c-0.943,3.029-1.96,6.038-2.966,9.047c-2.975,8.395-5.192,14.562-9.219,22.336c-3.541,7.013-9.656,12.741-11.543,20.534     c-0.743,3.175-0.811,6.487-1.81,9.606c-1.468,4.349-4.215,8.227-8.65,11.876c-3.269,2.766-5.352,4.538-9.701,6.491     c-4.598,1.976-14.458,3.04-18.258-0.066c-2.761-2.186-1.893-8.293,0.072-12.282c0.539-1,0.497-0.78,0.785-1.196     c0.257-0.258,0.415-0.624,0.41-0.991c0.051-1.211-1.574-1.868-2.392-0.991c-1.389,1.58-2.169,3.579-2.722,5.585     c-0.504,1.876-0.887,3.809-0.869,5.759c0.015,1.52,0.307,2.812,0.806,3.917c-0.209-0.121-0.459-0.288-0.784-0.54     c-3.307-2.307-4.216-8.909-1.746-14.763c0.115-0.267,0.295-0.68,0.372-0.841c0.311-0.823,1.071-1.6,0.815-2.53     c-0.31-1.288-2.203-1.541-2.837-0.371c-1.877,3.407-3.037,7.425-2.88,11.347c-1.406-3.321-1.815-7.221-0.954-10.703     c1.551-6.36,6.36-12.548,10.478-18.737c4.486-7.04,8.499-14.466,11.357-22.322c2.961-8.214,5.424-16.642,6.818-25.272     c1.115-8.061,1.418-16.221,1.59-24.35c0.025-4.382-0.202-8.759-0.398-13.135c-0.08-1.61-0.146-3.223-0.244-4.833     c3.976,5.506,8.276,10.773,13.636,14.987c3.095,2.38,8.407,6.599,12.444,5.515c1.681-0.608,2.578-2.155,2.959-3.819     c1.177,0.597,2.322,1.257,3.459,1.924c5.112,2.947,10.427,5.655,16.092,7.362c-0.052,0.795-0.092,1.591-0.124,2.388     c-0.22,3.45-0.449,4.648-1.102,8.078C178.31,375.337,177.416,378.633,176.422,381.901z M194.068,399.203     c-2.829-2.426-5.645-4.876-8.098-7.693c-2.706-2.998-4.242-5.002-6.286-8.084c1.414-4.835,2.565-9.738,3.245-14.74     c0.205-1.918,0.453-4.489,0.451-6.36c10.397,2.139,14.718-2.31,15.763-3.027c-1.635,7.574-2.251,15.299-1.465,23.762     c0.645,7.749,2.946,15.182,5.171,22.589c0.202,0.652,0.383,1.306,0.549,1.961C200.308,404.789,197.149,402.039,194.068,399.203z      M205.416,448.323c-0.134,0.031-4.554,1.925-5.966,2.462c-2.127,0.604-1.746,0.481-4.091,0.538     c-6.711,0.094-9.546-3.622-8.111-9.155c0.767-2.206,1.141-3.04,1.888-4.626c0.267-0.658,0.802-1.233,0.924-1.936     c0.266-1.443-1.83-2.159-2.54-0.877c-1.802,3.132-3.842,6.391-4.163,10.068c-0.092,1.182,0.04,2.318,0.349,3.379     c-0.07-0.003-0.14-0.006-0.208-0.01c-0.076-0.012-0.152-0.023-0.228-0.037c-3.816-0.743-5.308-2.081-6.057-5.309     c-0.304-1.868,0.559-5.493,2.61-8.606c0.938-1.372,0.782-1.168,1.807-2.407c0.266-0.266,0.421-0.636,0.419-1.012     c0.042-1.229-1.601-1.914-2.444-1.012c-2.63,2.932-4.992,6.585-5.645,10.532c-0.257-0.815-0.476-1.77-0.688-2.906     c-0.534-3.194,0.34-6.415,4.147-9.402c4.377-4.003,10.578-6.751,16.912-9.459c2.345-1.006,4.637-2.127,6.984-3.129     c1.003-0.432,1.996-0.887,2.995-1.328c0.07-0.034,0.145-0.065,0.219-0.096c0.884,7.566,0.459,15.393,1.791,23.677     c0.366,2.864,0.889,5.722,2.08,8.372c0.1,0.282,0.213,0.56,0.331,0.836C207.907,447.154,206.836,447.694,205.416,448.323z      M244.411,445.545c-0.122-0.385-0.249-0.766-0.38-1.142c-0.531-1.687-0.393-1.781-0.326-2.379     c0.696-2.748,1.378-3.597,2.538-6.373c0.109-0.232,0.209-0.459,0.314-0.689c0.043,0.015,0.083,0.034,0.13,0.046     c0.768,0.31,1.581,0.53,2.408,0.655c-0.574,0.775-1.114,1.581-1.605,2.431C246.162,440.395,245.037,442.93,244.411,445.545z      M249.3,392.889c-0.319-1.619-0.655-5.813,0.062-7.642c0.538-1.975,1.979-4.111,3.443-6.709c1.891-3.385,3.868-6.72,5.862-10.045     c1.981,6.344,5.104,12.304,9.461,17.357c0.857,0.997,1.677,2.025,2.522,3.032c0.375,0.477,0.857,0.942,1.506,0.921     c0.528,5.615,1.777,11.146,3.893,16.392c0.798,2.044,2.947,7.26,5.198,9.901c-4.406,1.919-9.391,3.788-14.487,6.531     c-5.392,2.655-10.858,5.728-15.083,10.03c-0.189-0.022-0.389-0.025-0.606,0.011c-1.697-0.016-1.276,0.067-2.77-0.289     c-0.183-0.043-0.364-0.118-0.546-0.185C253.335,418.462,252.316,407.885,249.3,392.889z M430.713,384.805     c-3.136,6.176-10.129,15.061-14.639,18.197c-9.724,8.272-22.045,17.155-33.377,21.728c-5.53,1.634-7.867,2.088-12.182,1.705     c-0.045,0.003-0.091,0.005-0.136,0.007c9.648-9.192,14.238-23.227,15.188-36.26c0.2-2.711,0.153-5.436,0.026-8.15     c-0.025-0.465-0.066-0.928-0.105-1.392c-0.077-0.31-0.111-1.161-0.044-0.386c0.006-0.461-0.113-0.929-0.454-1.256     c-0.656-0.694-1.901-0.524-2.367,0.305c-0.367,0.654-0.131,1.449-0.176,2.166c0.011,2.355,0.104,4.711,0.02,7.065     c-0.401,11.283-4.389,23.174-10.18,31.137c-2.023,2.751-4.601,5.154-6.987,7.064c-0.637,0.58-2.14,1.637-2.65,1.997     c-3.442,2.479-7.009,4.767-10.8,6.679c-6.466,3.346-13.016,6.538-19.718,9.384c-5.248,2.269-11.502,4.822-17.88,7.139     c-7.207,2.554-14.582,4.855-21.272,8.625c-6.75,3.705-13.034,8.982-19.269,10.92c-7.047,2.084-14.106,0.503-16.389-5.869     c0.425-0.984,0.089-1.626-0.548-2.126c-0.019-0.115-0.042-0.226-0.059-0.343c-0.101-1.117,0.91-5.73,3.027-7.6     c0.555-0.566,1.124-1.118,1.724-1.636c0.292-0.284,0.703-0.513,0.824-0.926c0.679-1.409-1.29-2.69-2.345-1.58     c-1.465,1.202-2.934,2.453-3.988,4.046c-1.193,1.829-1.928,3.923-2.316,6.068c-1.525-1.494-2.021-2.358-2.49-3.706     c-0.942-3.098,1.665-6.251,5.447-8.777c1.683-1.019,0.206-3.556-1.516-2.594c-2.742,1.784-5.694,4.218-6.973,7.227     c-0.037-0.107-0.072-0.218-0.094-0.309c-0.522-2.123-0.465-1.874-0.516-4.094c0.017-1.432-0.014-1.066,0.46-2.908     c0.857-3.129,1.676-4.983,3.844-8.21c1.599-2.513,5.724-6.082,8.099-7.708c6.378-3.89,13.916-7.746,19.627-10.067     c3.523-1.492,6.92-3.249,10.324-4.989c2.293-1.168,4.663-2.203,6.816-3.624c1.57-0.94,0.219-3.375-1.435-2.455     c-2.03,1.272-4.24,2.205-6.401,3.224c-1.452,0.68-2.891,1.386-4.338,2.077c-0.127-0.14-0.262-0.277-0.4-0.413     c-0.058-0.069-0.079-0.093-0.08-0.091c-0.025-0.033-0.05-0.066-0.075-0.098c-0.001-0.001-0.001-0.001-0.002-0.002     c-0.421-0.582-0.848-1.16-1.223-1.773c-2.097-3.638-2.784-5.434-4.128-9.101c-2.997-8.419-3.474-15.534-3.275-24.764     c0.344-6.894,0.959-11.643,2.767-18.52c1.819-5.922,2.819-7.999,5.271-13.14c4.832-9.279,10.146-15.963,17.345-23.407     c0.925-0.96,1.895-1.877,2.877-2.778c0.493-0.495,1.218-0.905,1.194-1.689c0.034-1.142-1.5-1.809-2.297-0.952     c-12.825,11.43-23.581,25.883-28.124,42.635c-2.001,8.118-2.873,16.533-2.473,24.888c-0.375-0.486-0.841-1.081-1.476-1.871     c-0.099-0.145-2.979-3.825-3.866-5.326c-1.395-2.278-2.603-4.664-3.62-7.134c-0.603-1.476-1.101-2.993-1.592-4.509     c-0.213-0.531-0.295-1.132-0.482-1.678c2.105-3.498,4.204-7,6.217-10.55c1.458-2.941,2.453-6.058,3.215-9.239     c0.09-0.055,0.179-0.113,0.257-0.196c7.276-7.371,9.216-13.469,11.161-23.989c1.822-3.358,4.318-6.298,6.021-9.725     c2.573-5.19,4.247-10.904,4.343-16.72c-0.003-6.554-1.343-13.044-2.807-19.407c-0.348-1.449-0.696-2.899-1.068-4.342     c-0.15-1.219-1.122-2.176-2.366-1.527c-1.233,0.723-0.539,2.207-0.351,3.303c0.543,2.54,1.173,5.06,1.682,7.607     c1.67,8.817,2.791,15.886-0.071,24.387c-1.016,3.064-2.295,5.759-4.14,8.713c1.042-8.057,1.131-16.257-1.43-24.05     c-0.526-1.715-1.098-3.416-1.646-5.124c-0.194-0.93-0.774-1.82-1.867-1.537c-1.654,0.544-0.754,2.282-0.451,3.454     c0.671,2.21,1.396,4.405,1.928,6.654c1.562,6.2,1.554,12.321,0.706,19.361c-0.274,2.274-0.64,4.806-1.108,7.449     c-0.017,0.031-0.035,0.061-0.052,0.092c-0.192,0.327-0.246,0.72-0.165,1.089c-0.404,2.163-0.874,4.382-1.425,6.587     c-0.545,2.3-1.9,6.095-2.377,7.098c-1.28,2.323-2.416,4.021-3.715,5.65c0.15-0.857,0.294-1.715,0.43-2.572     c0.639-4.995,1.416-10.154,0.713-15.158c-0.426-1.187-2.232-1.312-2.84-0.191c-0.262,0.408-0.222,0.898-0.189,1.36     c0.032,0.914,0.044,1.83,0.031,2.745c0.007,3.169-0.3,6.327-0.705,9.467c-0.331,3.268-2.307,12.947-4.013,16.063     c-1.553,3.367-3.712,6.41-5.561,9.616c-3.128,5.132-6.107,10.353-9.052,15.591c-3.608,6.075-5.04,8.864-3.928,16.105     c2.69,14.337,4.408,24.794-1.645,38.893c-0.676,1.963-2.974,6.117-3.795,9.382c-0.46,1.878,0.189,3.746,0.727,5.534     c0.667,2.102,0.667,4.34,0.564,5.004c-0.009,0.174-0.106,0.518-0.159,0.712c-0.021,0.034-0.036,0.072-0.059,0.105     c-0.02,0.032-0.044,0.06-0.066,0.091c-0.125,0.15-0.251,0.299-0.376,0.449c-1.036,1.141-0.572,0.825-1.807,1.491     c-2.827,1.658-8.59-0.118-10.572-2.523c-1.317-1.542-2.473-7.226-2.419-7.8c-0.108-0.869-0.141-1.745-0.186-2.619     c0-0.347-0.141-0.693-0.388-0.937c-0.771-0.845-2.306-0.196-2.263,0.937c0.035,2.897,0.314,5.819,1.2,8.589     c0.251,0.904,0.555,1.809,0.98,2.642c-1.385,0.39-0.914,0.372-2.409,0.329c-2.181-0.429-5.968-3.273-6.619-8.016     c-0.402-2.344-0.373-2.595-0.73-5.065c-0.122-0.564-0.074-1.232-0.474-1.685c-0.975-1.38-3.242-0.242-2.76,1.375     c0.35,1.771,0.38,6.017,1.559,9.219c-0.039-0.027-0.075-0.052-0.116-0.081c-0.351-0.326-1.12-1.041-1.244-1.2     c-0.027-0.029-0.046-0.051-0.068-0.074c-0.09-0.129-0.178-0.258-0.259-0.392c-1.095-1.875-1.785-3.515-2.464-6.405     c-0.65-3.355-0.849-6.109-1.287-10.303c-0.375-4.854-0.159-9.735-0.623-14.584c-0.34-4.996-1.435-9.892-2.94-14.659     c-5.003-15.085-5.93-29.139-2.199-43.984c1.629-6.153,4.403-13.96,6.308-18.344c2.144-4.972,4.68-9.766,6.802-14.749     c2.336-5.505,4.377-11.133,6.184-16.833c1.604-5.02,2.991-10.122,3.598-15.369c0.483-1.781-2.257-2.794-2.896-0.798     c-0.162,1.143-0.357,2.278-0.578,3.408c-0.612-0.993-1.26-1.963-1.922-2.924c-3.469-5.35-8.273-9.589-12.298-14.488     c-1.319-1.338-4.435-5.94-4.742-7.107c-1.272-3.064-2.382-6.161-2.412-8.375c-0.092-2.133,1.064-4.936,1.267-8.136     c0.347-6.247-3.19-11.793-7.484-16.026c-2.529-2.486-4.879-6.503-5.068-8.188c-0.372-5.585,3.12-12.689,6.981-18.355     c1.973-2.731,3.578-4.606,5.991-7.773c0.659-0.85,1.305-1.711,1.926-2.59c0.656-0.376,1.307-0.762,1.948-1.17     c5.52-3.213,10.946-7.096,14.246-12.694c1.102-1.99,1.826-4.546,0.791-6.702c-0.083-0.222-0.202-0.435-0.342-0.632     c0.956-1.325,1.52-2.885,1.964-4.456c0.688-2.207,1.285-4.441,1.933-6.66c2.359-7.937,4.178-16.46,2.267-24.68     c-0.927-3.296-1.898-6.613-3.548-9.631c-3.24-5.91-7.824-11.029-12.966-15.354c-6.437-5.411-13.603-10.104-21.61-12.813     c-7.392-2.55-15.327-3.207-23.084-2.439c-5.065,0.492-10.138,1.445-14.766,3.633c-9.561,4.413-15.81,13.233-21.876,21.475     c-3.927,5.193-6.422,8.983-10.992,13.66c-3.516,3.693-6.265,5.637-10.16,8.296c-2.767,1.761-4.647,2.659-7.193,3.5     c-0.825,0.277-1.607,0.464-2.335,0.607c1.667-0.812,3.346-1.649,4.859-2.592c5.377-3.422,10.037-7.974,14-12.945     c6.639-8.984,11.635-19.065,16.77-28.951c1.878-3.551,4.221-6.818,6.694-9.974c0.132-0.226,0.19-0.454,0.2-0.675     c0.846,0.003,1.724-0.142,2.392-0.577c0.891-0.595,0.765-2.064-0.158-2.568c-0.406-0.216-0.862-0.277-1.303-0.131     c-0.188,0.052-0.56,0.123-0.719,0.156c-0.255,0.011-0.58-0.007-0.727-0.013c-0.265-0.055-0.53-0.118-0.788-0.201     c-0.126-0.063-0.246-0.136-0.362-0.216c-1.168-1.157-0.888-1.775-0.783-2.152c0.179-0.643,1.367-1.748,1.423-1.741     c1.119-0.676,2.548-1.84,1.94-3.303c-0.441-1.008-1.445-1.617-2.234-2.336c-1.937-1.717-2.604-2.54-3.036-4.019     c-0.006-0.101-0.004-0.201,0.003-0.302c0.007-0.033,0.015-0.071,0.026-0.119c0.008-0.03,0.017-0.059,0.027-0.089     c0.012-0.022,0.02-0.046,0.033-0.068c0.017-0.024,0.027-0.039,0.041-0.058c0.025-0.03,0.049-0.061,0.075-0.09     c0.641-0.676,0.785-0.693,1.952-1.276c1.878-0.619,4.225-1.218,4.668-3.449c0.603-2.982-1.306-5.668-2.886-8.022     c-1.907-2.755-4.001-5.402-6.483-7.664c-1.163-1.118-2.444-2.109-3.837-2.925c-0.485-0.281-0.993-0.689-1.584-0.505     c-1.003,0.249-1.201,1.712-0.289,2.211c4.703,2.895,7.736,7.177,11.002,12.333c0.784,1.432,1.157,2.202,1.239,3.11     c0.005,0.263-0.008,0.527-0.028,0.79c-0.011,0.045-0.024,0.096-0.041,0.156c-0.005,0.009-0.009,0.018-0.015,0.027     c-0.378,0.64-1.996,0.671-4.02,1.82c-3.588,1.876-3.458,5.164-1.081,8.037c0.832,1.142,1.94,2.011,2.982,2.947     c-0.396,0.28-0.785,0.567-1.137,0.902c-1.549,1.481-2.626,3.893-1.589,5.949c0.49,1.128,1.337,2.103,2.396,2.704     c-2.129,2.692-4.245,5.403-6.01,8.353c-1.033,1.732-1.997,3.502-2.955,5.276c-0.616-3.819-2.164-7.532-2.763-11.356     c-1.587-7.576-0.661-17.535,2.421-24.267c0.271-0.565,0.572-1.116,0.901-1.649c0.177-0.27,0.4-0.538,0.401-0.875     c0.271-1.475-1.874-2.219-2.605-0.9c-4.06,6.661-5.165,15.947-4.639,23.635c0.32,2.955,0.844,5.893,1.675,8.749     c0.68,2.367,1.642,4.653,2.184,7.059c0.317,1.619,0.357,1.807,0.389,3.157c0.005,0.053,0.005,0.108,0.006,0.162     c-0.208,0.374-0.412,0.751-0.625,1.124c-0.088-0.279-0.181-0.569-0.282-0.878c-0.244-0.728-0.376-0.924-0.973-2.201     c-0.556-0.974-1.258-1.854-1.884-2.783c-5.988-9.27-9.913-22.45-9.496-33.233c0.181-4.989,1.673-10.238,3.65-15.837     c2.65-8.065,6.317-15.043,11.473-22.604c2.015-2.696,3.518-5.225,5.585-6.646c0.026,0.05,0.052,0.101,0.074,0.154     c0.055,0.128,0.05,0.112,0.024,0.05c0.032,0.076,0.064,0.153,0.097,0.229c-0.022-0.044-0.039-0.079-0.054-0.111     c0.023,0.062,0.05,0.141,0.076,0.233c2.27,9.406,5.505,18.767,11.405,26.556c2.679,4.011,7.723,9.224,10.48,13.469     c1.176,1.938,2.313,3.906,3.322,5.937c0.191,0.312,0.32,0.671,0.452,1.028c-3.39,1.128-6.624,2.685-9.465,4.849     c-1.828,1.013-0.698,3.636,1.256,2.719c9.652-6.948,25.499-7.867,37.683-5.287c6.749,1.413,11.389,3.139,17.009,6.146     c3.557,2.042,5.834,3.375,8.204,5.971c0.39,0.352,0.715,0.816,1.148,1.116c-0.072,1.415,0.022,2.836,0.331,4.224     c0.244,0.822,0.527,2.021,1.171,2.599c0.988,0.847,2.553-0.235,2.176-1.457c-2.467-5.843,0.587-12.999,3.91-19.031     c7.675-14.052,21.191-23.452,34.422-32.677c3.803-2.614,7.403-5.507,11.237-8.077c1.695-1.115,4.336-2.593,5.827-3.281     c0.001,0.253-0.001,0.506-0.024,0.757c-0.055,1.554-1.358,5.636-2.209,8.343c-1.078,3.594-2.021,7.231-2.682,10.926     c-0.832,4.724-1.085,9.628,0.103,14.314c0.975,3.962,2.559,7.731,3.788,11.614c1.436,5.239,2.15,8.277,1.755,13.735     c-0.1,4.778-2.775,15.601-5.444,20.971c-2.359,4.717-4.507,6.861-7.872,10.896c-4.989,5.778-10.084,9.502-11.301,17.281     c-0.993,4.552-0.07,11.048-0.623,16.914c-0.367,6.003-2.125,13.869-4.798,20.715c-0.467,1.055-0.992,2.082-1.573,3.079     c-1.307,2.3-3.473,5.305-4.275,6.242c-0.914,1.089-1.963,2.05-2.993,3.026c-0.356,0.376-0.843,0.661-1,1.177     c-0.415,0.807-0.009,1.87,0.759,2.316c1.288,0.722,2.336-0.267,3.177-1.19c2.629-2.405,4.686-5.338,6.55-8.358     c3.965,12.598,8.944,24.999,16.035,36.165c9.321,13.651,22.112,24.428,34.946,34.65c7.945,6.444,15.743,13.052,23.389,19.849     c8.546,7.609,16.829,15.503,24.423,24.073c3.725,4.039,5.587,6.701,8.811,11.033c5.332,7.129,10.056,14.727,14.201,22.604     c3.387,6.573,5.514,12.126,7.833,19.633c0.746,2.361,1.464,4.731,2.211,7.091c0.421,1.011,0.429,2.548,1.769,2.692     c0.716,0.139,1.457-0.379,1.648-1.076c0.187-0.906-0.372-1.801-0.543-2.681c-0.616-2.075-1.255-4.143-1.888-6.213     c-0.268-0.911-0.547-1.82-0.831-2.726c0.043-0.13,0.067-0.27,0.063-0.421c-0.238-5.134,0.741-8.579,2.193-13.683     c2.031-6.621,4.51-13.101,6.317-19.793c4.447-14.834,7.856-30.949,9.284-45.027c1.287-12.594,1.748-25.36,0.438-37.97     c-0.523-6.011-1.44-11.965-2.64-17.865c2.157,1.678,4.416,3.218,6.923,4.343c6.045,2.783,15.519,6.743,19.436,9.855     c5.277,3.992,8.946,7.602,11.865,12.642c4.063,6.224,5.774,12.486,7.211,20.416c0.959,6.767,2.254,13.405,1.223,20.979     c-0.105,0.991-1.375,6.059-0.739,8.407c0.791,2.731,2.973,4.689,4.303,7.136c2.235,3.979,2.542,8.593,1.977,14.258     c-0.257,3.741-2.491,10.693-4.268,14.213c-2.779,5.435-6.03,10.682-7.984,16.497c-0.607,1.849-0.503,3.823-0.166,5.715     c0.399,2.716,0.523,3.353,0.778,5.908C436.805,370.537,434.391,377.561,430.713,384.805z M465.195,283.36     c-1.109,5.995-1.667,12.063-2.162,18.134c-0.184,2.352-0.399,4.705-0.467,7.063c0.016,1.559-0.257,3.22,0.456,4.668     c0.946,1.557-0.444,7.477-2.204,11.89c-3.407,8.951-12.224,23.154-19.601,33.189c-0.49,0.617-0.784,1.425-0.546,2.205     c0.23,0.729,0.869,1.189,1.362,1.745c0.904,1.358,0.8,1.234,1.213,3.173c0.065,0.818,0.04,1.641-0.022,2.458     c-0.108,1.835-0.48,3.109-1.391,5.687c-0.385,0.913-0.798,1.814-1.266,2.688c-0.92,1.777-1.978,3.477-3.079,5.146     c-1.359,2.056-2.971,4.095-4.748,6.107c0.639-1.153,1.238-2.33,1.812-3.517c2.035-4.358,3.658-8.964,4.3-13.747     c0.66-4.956-0.233-9.954-0.907-14.863c-0.052-0.437-0.154-1.34-0.143-1.587c-0.036-0.192,0.021-0.951,0.052-1.339     c0.644-2.784,1.154-3.395,2.28-5.917c1.729-3.758,3.922-7.27,5.8-10.951c3.1-6.355,5.066-13.342,4.932-20.451     c-0.067-4.332-0.988-8.793-3.561-12.36c-1.509-2.129-2.388-2.787-3.353-4.702c-0.517-0.644-0.452-2.764-0.229-4.08     c0.483-2.945,1.114-5.875,1.259-8.863c0.132-4.9-0.41-9.799-0.945-14.664c-0.741-5.561-1.691-11.161-3.77-16.397     c-2.869-7.139-7.344-13.823-13.445-18.583c-8.097-6.926-16.204-9.057-24.504-12.894c-3.581-1.64-5.425-3.555-8.168-5.468     c-0.938-4.12-2-8.213-3.158-12.279c-5.206-20.419-13.25-40.102-23.359-58.576c-5.24-9.55-15.376-24.979-15.045-30.213     c0.017-0.012,0.033-0.024,0.049-0.037c-0.022,0.01-0.03,0.014-0.049,0.022c0-0.002,0-0.004,0-0.006     c0.128-0.051,0.282-0.103,0.389-0.112c1.502-0.357,3.454,0.249,5.975,0.676c6.647,1.293,12.549,3.183,17.784,5.786     c13.829,6.443,24.593,14.867,34.75,26.492c4.708,5.179,7.914,10.307,12.149,16.679c8.154,13.108,14.723,26.143,19.228,39.863     c0.732,2.545,1.455,5.092,2.188,7.636c0.719,1.82,0.985,5.294,3.597,5.134c1.579-0.269,2.009-2.201,2.51-3.485     c0.269-0.976,0.575-1.937,0.944-2.882c0.205-0.637,0.459-1.112,0.447-1.13c0.078-0.17,0.16-0.338,0.244-0.505     c1.294,1.079,2.486,2.28,3.634,3.511c5.023,5.776,7.446,11.441,9.599,18.623C470.709,249.042,468.233,266.333,465.195,283.36z"/>
			<path d="M241.292,117.585c2.141,2.069,3.149,3.582,3.931,4.566c1.316,1.722,2.546,3.526,3.41,5.522     c0.018,0.033,0.033,0.064,0.048,0.095c0.063,0.165,0.125,0.329,0.188,0.494c0.285,0.767,0.527,1.549,0.7,2.348     c0.355,0.943-0.242,1.995,1.494,2.778c1.466,0.279,2.757-0.834,3.93-1.56c2.665-1.783,4.917-4.199,6.436-7.028     c2.003-3.826,3.024-8.095,3.858-12.308c0.999-5.423,1.506-10.97,0.956-16.473c-0.279-3.164-0.924-6.287-1.954-9.292     c-0.369-0.844-0.421-1.981-1.249-2.515c-1.179-0.725-2.659,0.606-2.09,1.861c1.21,3.73,2.049,7.007,2.243,9.987     c0.574,7.654-0.124,13.337-1.942,20.531c-1.344,5.536-3.774,10.024-7.738,12.64c-0.394,0.243-0.683,0.441-0.926,0.606     c-0.14-0.836-0.335-1.661-0.624-2.458c-1.627-4.507-4.766-8.329-8.115-11.687c-1.747-1.579-3.998-3.28-5.669-4.621     c0.28-0.083,0.561-0.167,0.84-0.254c1.811-0.587,3.593-1.29,5.272-2.189c1.434-0.746,2.851-1.669,3.679-3.1     c1.968-3.432-1.136-5.959-4.321-6.543c2.835-1.061,5.737-1.979,8.328-3.551c4.302-2.876,2.359-5.826-0.302-9.01     c-1.795-2.302-3.9-4.975-5.548-7.158c-0.776-1.302-0.723-1.032-1.129-2.536c-0.002-0.068-0.003-0.146-0.002-0.225     c0.003-0.013,0.007-0.025,0.011-0.044c0.371-0.776,0.442-0.674,1.446-1.722c2.886-2.481,7.557-5.292,11.755-7.76     c1.372-0.823,2.736-1.661,4.124-2.457c0.278-0.166,0.487-0.431,0.572-0.744c0.318-1.019-0.912-1.989-1.829-1.406     c-4.512,2.756-19.056,9.747-19.184,13.934c-0.118,1.108,0.37,2.148,0.792,3.142c1.16,2.198,1.835,2.64,3.529,4.726     c1.076,1.397,2.913,3.78,4.046,5.282c0.443,0.636,0.867,1.296,1.198,1.998c0.003,0.009,0.004,0.015,0.007,0.025     c0,0.025,0,0.058,0.001,0.088c-0.211,0.727-0.848,1.247-2.874,2.278c-1.719,0.833-5.216,2.068-8.018,3.29     c-1.298,0.792-4.446,1.112-3.729,3.223c0.691,1.469,2.694,0.982,4.017,1.141c2.24,0.077,2.792,0.062,4.046,0.708     c0.96,0.569,0.712,0.538,0.928,0.876c0.041,0.109,0.074,0.221,0.1,0.335c0.002,0.047,0.003,0.09,0.002,0.127     c-0.019,0.088-0.042,0.174-0.073,0.259c-0.051,0.102-0.133,0.262-0.205,0.372c-1.251,1.879-5.372,3.471-9.22,4.586     c-1.102,0.234-2.387,1.092-1.944,2.376c0.488,1.127,1.604,1.828,2.467,2.656C238.416,115.046,239.899,116.264,241.292,117.585z"/>
		</g>
		<path d="M321.685,146.107c-1.012-0.426-1.801-0.219-3.565-0.892c-0.249,0.019-4.22-2.018-4.149-2.162    c-3-2.695-4.093-6.627-5.085-11.709c-0.189-0.751-0.29-1.548-0.632-2.247c-0.552-1.007-2.118-0.994-2.677,0.002    c-0.264,0.421-0.205,0.923-0.229,1.397c-0.022,0.746-0.071,1.491-0.13,2.235c-0.357,4.36-0.601,6.154-2.28,9.013    c-0.726,1.126-0.724,1.214-1.979,2.274c-1.447,1.04-1.621,1.035-3.506,1.522c-1.209,0.243-0.93,0.184-1.614,0.272    c-0.378-0.003-0.747,0.155-1.014,0.42c-0.804,0.754-0.346,2.148,0.646,2.404c0.026,0.03,0.044,0.064,0.073,0.092    c0.408,0.436,1.037,0.399,1.58,0.514c1.127,0.209,2.186,0.674,3.277,1.013c0.195,0.061,1.24,0.706,1.75,1.256    c0.711,0.52,2.547,4.038,2.738,4.704c1.009,2.444,1.505,5.051,2.118,7.612c0.47,2.235,0.699,3.32,0.812,4.413    c0.004,0.24,0.005,0.481,0.012,0.721c0.039,0.636,0.193,1.303,0.787,1.643c0.73,0.423,1.77,0.117,2.064-0.696    c0.333-0.966,0.008-2.053-0.072-3.048c-0.001-0.009-0.003-0.018-0.004-0.027c0.004-0.096,0.008-0.197,0.012-0.311    c0.186-3.277,0.351-4.569,0.871-7.477c0.837-4.196,2.486-7.166,4.676-8.768c1.41-0.942,2.577-1.205,3.005-1.255    c0.713-0.106,1.438,0.081,2.143-0.057C322.611,148.609,322.87,146.779,321.685,146.107z M308.95,156.435    c-0.113,0.458-0.212,0.918-0.306,1.379c-0.4-1.285-0.856-2.548-1.404-3.766c-1.213-2.48-2.728-5.037-5.316-6.267    c-0.277-0.116-0.56-0.217-0.845-0.312c2.657-1.255,4.572-3.484,5.855-6.788c0.253-0.687,0.451-1.387,0.616-2.095    c1.184,3.304,2.998,6.291,6.193,7.999c0.436,0.242,0.88,0.471,1.329,0.69c-0.082,0.047-0.167,0.091-0.248,0.14    C311.677,149.427,309.895,152.92,308.95,156.435z"/>
		<path d="M71.083,227.606c-1.012-0.426-1.801-0.219-3.564-0.892c-0.249,0.019-4.22-2.018-4.149-2.162    c-3-2.695-4.093-6.627-5.085-11.709c-0.189-0.751-0.29-1.548-0.632-2.247c-0.552-1.007-2.118-0.994-2.677,0.002    c-0.264,0.421-0.205,0.923-0.229,1.397c-0.022,0.746-0.071,1.491-0.13,2.235c-0.357,4.36-0.601,6.154-2.28,9.013    c-0.726,1.126-0.724,1.214-1.979,2.274c-1.447,1.04-1.621,1.035-3.506,1.522c-1.209,0.243-0.93,0.184-1.614,0.272    c-0.378-0.003-0.747,0.154-1.014,0.42c-0.804,0.754-0.346,2.147,0.646,2.404c0.025,0.03,0.044,0.064,0.073,0.092    c0.408,0.436,1.037,0.399,1.58,0.514c1.127,0.209,2.186,0.674,3.277,1.013c0.195,0.061,1.24,0.706,1.75,1.256    c0.711,0.52,2.547,4.038,2.738,4.704c1.009,2.444,1.505,5.051,2.118,7.612c0.47,2.235,0.699,3.32,0.812,4.413    c0.004,0.24,0.005,0.481,0.012,0.721c0.039,0.636,0.193,1.302,0.787,1.643c0.73,0.423,1.77,0.117,2.064-0.696    c0.333-0.966,0.008-2.053-0.072-3.048c-0.001-0.009-0.003-0.018-0.004-0.026c0.004-0.096,0.008-0.197,0.012-0.311    c0.186-3.277,0.351-4.569,0.871-7.477c0.837-4.196,2.486-7.166,4.676-8.768c1.41-0.942,2.577-1.205,3.005-1.255    c0.713-0.106,1.438,0.081,2.143-0.057C72.01,230.108,72.268,228.277,71.083,227.606z M58.349,237.934    c-0.113,0.458-0.213,0.918-0.306,1.379c-0.4-1.285-0.856-2.548-1.404-3.766c-1.213-2.48-2.728-5.037-5.316-6.267    c-0.277-0.116-0.56-0.217-0.845-0.312c2.657-1.255,4.572-3.484,5.855-6.788c0.253-0.687,0.451-1.387,0.616-2.095    c1.184,3.304,2.998,6.291,6.193,7.999c0.436,0.242,0.88,0.471,1.328,0.69c-0.082,0.047-0.167,0.091-0.248,0.14    C61.075,230.925,59.294,234.418,58.349,237.934z"/>
	</g>
</g>
</svg>
