<?xml version="1.0" encoding="utf-8"?>
<!-- Generator: Adobe Illustrator 27.5.0, SVG Export Plug-In . SVG Version: 6.00 Build 0)  -->
<svg xmlns="http://www.w3.org/2000/svg" xmlns:xlink="http://www.w3.org/1999/xlink" version="1.1" x="0px" y="0px" viewBox="0 0 500 500" style="background-color:transparent;" xml:space="preserve">
<g id="BACKGROUND">
	<rect style="fill:none;" width="500" height="500" fill="none"/>
</g>
<g id="OBJECTS">
	<g>
		<g>
			<path d="M187.336,121.911c0.131,0.191,0.24,0.397,0.343,0.605c0.14,0.361,0.395,0.672,0.729,0.869     c0.146,0.089,0.304,0.143,0.467,0.18c-0.109,2.473-0.136,4.946,0.086,7.414c0.223,2.312,0.61,4.615,1.225,6.856     c0.486,1.286,0.795,2.784,1.765,3.79c1.14,0.943,2.834-0.507,2.049-1.799c-2.781-5.452-2.173-13.954-1.588-21.669     c0.63-8.465,0.921-16.99-0.262-25.422c-1.593-10.304-4.194-29.971-13.593-35.73c-1.762-1.016-3.579-2.138-5.645-2.345     c-2.576-0.26-5.095,1.247-6.24,3.545c-1.539,3.13-1.633,6.732-1.961,10.145c-0.308,3.724,0.015,7.455,0.401,11.16     c0.362,3.112,0.836,6.227,1.842,9.204c1.486,4.309,3.206,8.574,5.392,12.578c3.315,5.534,7.174,10.743,11.12,15.841     C184.727,118.752,185.976,120.379,187.336,121.911z M170.338,88.095c-2.85-8.111-3.657-24.413-0.373-29.009     c1.553-1.532,2.566-1.468,5.277-0.03c3.351,1.793,4.234,2.959,6.051,6.007c2.083,3.672,2.987,6.651,4.234,11.325     c2.398,9.171,3.513,16.553,4.082,25.506c0.082,4.96-0.059,9.924-0.349,14.877c-0.031,0.591-0.065,1.183-0.1,1.774     c-0.62-0.742-1.299-1.511-1.869-2.323c-3.579-4.548-8.14-10.678-11.869-16.723C173.002,95.115,171.901,92.29,170.338,88.095z"/>
			<path d="M299.829,141.592c2.507-1.496,3.993-4.14,5.484-6.558c0.935-1.511,1.806-3.058,2.633-4.629     c0.029,0,1.685-1.022,3.557-2.854c2.637-2.581,5.324-5.112,7.879-7.776c6.309-6.59,12.099-13.66,17.397-21.085     c4.289-6.002,8.459-12.153,11.387-18.953c2.708-6.511,6.279-17.465-0.069-22.824c-1.353-1.142-3.199-1.465-4.918-1.204     c-5.397,0.657-9.29,5.183-12.388,9.278c-7.292,9.888-10.458,21.999-14.009,33.579c-2.532,7.86-5.552,17.407-8.34,23.734     c-2.168,4.881-4.309,9.483-7.66,14.606c-0.125,0.177-0.258,0.354-0.391,0.527c-0.164,0.19-0.602,0.704-0.776,0.864     c-0.218,0.221-0.44,0.438-0.674,0.642c-0.016,0.014-0.033,0.026-0.049,0.04c-0.44,0.272-0.928,0.539-1.053,1.083     C297.496,141.169,298.828,142.227,299.829,141.592z M312.361,120.876c3.465-8.7,6.185-17.687,8.944-26.632     c3.22-10.305,5.901-18.939,12.147-27.521c3.865-5.524,11.799-11.732,14.26-4.799c2.411,8.156-4.529,21.777-11.504,31.49     c-7.327,10.649-14.832,19.784-24.332,29.455c-0.216,0.219-0.43,0.441-0.645,0.66     C311.615,122.648,311.994,121.764,312.361,120.876z"/>
			<path d="M197.996,213.876c-0.004,0-0.008-0.002-0.011-0.002c-0.006-0.001-0.012-0.001-0.018-0.003     C197.974,213.872,197.986,213.874,197.996,213.876z"/>
			<path d="M191.828,206.813c-1.245,0.331-1.701,2.01-0.756,2.902c1.253,1.147,2.53,2.294,4.004,3.156     c0.904,0.494,1.886,0.858,2.909,1.002c0.074,0.011,0.147,0.021,0.221,0.03c-0.051-0.006-0.1-0.012-0.144-0.018     c0.088,0.011,0.174,0.031,0.263,0.038c-2.344,6.998-4.396,15.695-2.924,21.219c2.398,9.311,11.772,13.017,20.092,8.41     c4.443-2.571,7.222-7.193,9.052-11.86c1.897-5.291,3.341-12.835,0.476-18.331c-2.641-4.304-7.005-8.163-12.288-8.232     c-5.764-0.47-10.763,3.227-15.247,2.936c-0.437-0.031-1.525-0.103-3.006-0.648C193.597,207.205,192.761,206.592,191.828,206.813z     "/>
			<path d="M284.649,246.301c8.739-1.108,14.16-10.184,14.326-18.447c0.133-4.746-1.614-10.724-4.662-15.188     c1.258-1.062,2.43-2.422,3.075-3.031c0.967-1.051,1.908-2.132,2.719-3.309c0.367-0.588,0.852-1.173,0.897-1.89     c0.046-1.274-1.684-1.907-2.472-0.9c-0.74,0.693-0.307,0.371-1.388,0.963c-2.305,1.109-3.419,1.526-5.912,1.549     c-2.05-0.011-4.099-0.047-6.149-0.062c-0.573-0.004-9.611-2.556-16.533,12.316c-1.426,3.064-2.588,6.306-2.679,9.717     c-0.392,4.497,1.302,9.011,3.904,12.625C273.065,245.218,279.205,247.156,284.649,246.301z"/>
			<path d="M229.305,278.296c4.931,0.454,9.346-2.637,12.349-6.291c0.799-0.97,1.573-1.99,2.195-3.086     c0.801,1.538,1.779,2.993,2.833,4.355c1.865,2.041,4.275,3.623,6.85,4.621c1.466,0.542,3.029,0.701,4.578,0.816     c0.479,0.103,2.695-0.1,1.63-0.002c0.449,0.008,0.892-0.179,1.208-0.495c0.78-0.745,0.591-2.123-0.342-2.655     c-0.22-0.298-3.588-0.485-3.435-0.53c-3.401-0.482-5.398-1.984-7.386-3.77c-1.103-1.273-2.41-3.092-3.546-5.557     c-0.293-0.766-0.547-1.547-0.732-2.345c-0.033-0.138-0.058-0.282-0.084-0.427c0.929-0.507,1.695-1.351,2.285-2.188     c1.606-2.653,3.967-6.965,1.23-9.602c-2.451-1.966-4.261-1.672-7.777-0.903c-3.329,0.814-4.687,2.582-4.218,4.862     c0.026,1.351,0.642,2.76,1.596,3.902c0.58,0.734,1.092,1.554,1.671,2.309c0.396,0.562,0.769,1.203,1.401,1.476     c0.021,0.01,0.041,0.013,0.061,0.022c0.074,0.055,0.143,0.116,0.221,0.168c0.016,0.008,0.031,0.012,0.047,0.019     c-0.001,0.16,0.014,0.325,0.066,0.497c0.043,0.285,0.108,0.564,0.167,0.845c-0.059,0.401-0.439,1.601-0.554,1.99     c-2.04,3.95-5.932,7.574-9.535,8.577c-1.404,0.317-0.701,0.215-2.031,0.284c-0.449,0.014-0.937-0.105-1.348,0.118     C227.143,275.884,227.646,278.334,229.305,278.296z M241.52,257.555c-0.696-1.241-1.321-2.493-1.323-2.797     c0.005-0.018,0.008-0.035,0.013-0.053c0.029-0.045,0.06-0.095,0.091-0.148c0.048-0.022,0.097-0.039,0.144-0.063     c1.901-0.653,3.65-1.142,5.497-1.046c0.085,0.002,0.169,0.008,0.253,0.014c0.154,0.032,0.333,0.087,0.455,0.127     c0.121,0.061,0.238,0.129,0.35,0.205c0.026,0.025,0.056,0.055,0.095,0.093c0.007,0.008,0.01,0.011,0.016,0.018     c0.007,0.01,0.01,0.015,0.018,0.027c0.002,0.005,0.002,0.005,0.004,0.009c0.004,0.016,0.006,0.027,0.009,0.04     c0.002,0.154-0.005,0.309-0.017,0.462c0.102,0.498-1.638,4.438-2.666,5.224c-0.765,0.585-0.47,0.366-0.849,0.53     c-0.022,0.005-0.045,0.009-0.067,0.014c-0.007,0-0.016,0-0.023,0c-0.021-0.011-0.042-0.023-0.063-0.035     c-0.104-0.1-0.204-0.204-0.298-0.314C242.618,259.092,242.057,258.331,241.52,257.555z"/>
			<path d="M188.177,332.276c-0.038-0.069-0.067-0.145-0.095-0.223C188.111,332.137,188.145,332.233,188.177,332.276z"/>
			<path d="M188.082,332.054c-0.024-0.068-0.044-0.127-0.057-0.134C188.037,331.97,188.066,332.007,188.082,332.054z"/>
			<path d="M296.014,371.436c0.002,0.012,0.005,0.027,0.008,0.039c-0.01-0.078-0.018-0.132-0.024-0.173     C296.002,371.347,296.008,371.391,296.014,371.436z"/>
			<polygon points="188.178,332.278 188.177,332.277 188.177,332.276    "/>
			<path d="M352.918,428.762c0.004,0.001,0.009,0.001,0.013,0.002c0,0-0.001,0,0,0C352.926,428.763,352.922,428.762,352.918,428.762     z"/>
			<path d="M399.121,383.421c-0.707-3.591-1.124-7.26-2.438-10.701c-1.684-4.536-4.025-8.763-6.351-12.986     c-0.704-1.356-1.33-4.701-1.224-5.39c0.003-0.152,0.01-0.304,0.02-0.456c0.066-0.43,0.146-0.859,0.048-1.29     c-0.395-1.271-1.676-1.306-2.72-0.815c-0.803,0.295-1.653,0.409-2.488,0.575c-2.29,0.346-5.739,0.779-9.076,1.063     c-6.89,0.587-18.081,0.992-22.455,7.203c-2.924-7.467-6.567-14.66-11.095-21.284c-3.212-4.607-6.936-8.816-10.586-13.073     c-2.219-2.873-6.718-8.77-9.91-13.686c-2.479-3.731-4.365-7.276-5.497-10.579c-0.438-1.338-0.853-2.683-1.233-4.038     c6.839-3.948,12.568-9.757,16.336-16.727c4.123-7.668,6.042-16.281,6.943-24.885c0.51-4.604,0.84-9.236,0.809-13.87     c-0.31-5.478-0.952-10.939-1.874-16.348c-0.757-4.677-1.141-12.9-1.4-19.263c-0.069-6.375-0.8-12.713-1.696-19.019     c-1.004-7.181-3.248-14.132-6.875-20.424c-2.148-3.78-4.796-7.289-7.6-10.604c-1.203-1.258-2.569-2.341-3.83-3.538     c0.06-0.212,0.083-0.446,0.061-0.702c0.997-5.415,7.729-12.788,13.121-18.956c16.404-18.026,35.301-35.146,35.598-61.502     c0.167-6.51-1.074-12.957-2.585-19.262c-1.582-7.557-4.774-16.3-12.929-18.694c-3.278-0.946-6.797-1.175-10.182-0.781     c-4.159,0.741-8.015,2.674-11.567,4.903c-18.149,10.723-29.896,36.551-36.468,55.926c-3.888,11.608-6.729,23.57-8.783,35.633     c-0.187,1.143-0.346,2.291-0.49,3.441c-0.969-0.282-2.113-0.313-3.017-0.588c-3.076-0.604-6.164-1.142-9.282-1.478     c-12.457-1.343-25.159-1.322-37.49,1.057c-6.236,1.167-12.454,2.646-18.33,5.057c0.757-6.81,0.65-13.682,1.302-20.505     c0.837-11.564,1.812-23.304-0.167-34.802c-1.073-6.57-2.793-13.009-4.822-19.344c-1.605-5.127-3.223-10.262-5.493-15.142     c-2.893-6.245-6.442-12.339-11.586-17.003c-7.001-5.795-14.266-8.608-23.396-6.75c-10.29,2.903-18.337,10.615-20.995,21.058     c-1.631,7.248-2.393,14.767-2.039,22.195c0.416,9.024,3.257,17.647,6.599,25.967c4.562,11.207,10.116,21.982,14.891,33.101     c3.029,6.231,5.342,14.231,8.444,21.87c-2.747,2.774-5.114,5.915-7.124,9.262c-1.485,2.635-2.334,5.07-3.067,6.718     c-6.993,14.434-8.089,30.675-9.863,46.376c-0.696,7.291-1.199,12.638-2.287,19.09c-1.181,7.146-2.783,14.267-2.991,21.532     c-0.324,18.659,8.136,36.544,24.284,46.405c4.637,3.089,9.623,5.628,14.883,7.472c1.635,0.499,3.699,1.429,5.347,1.668     c-0.802,0.795-1.537,1.648-2.182,2.529c-2.261,3.002-3.835,6.491-4.532,10.186c-0.234,1.199-0.438,2.422-0.576,3.653     c-0.003,0.003-0.006,0.005-0.009,0.008c-2.333,3.008-4.647,6.082-6.178,9.591c-1.412,3.163-2.146,6.641-2.25,10.099     c0.088,5.942,1.7,8.81,2.191,9.95c0.73,1.603,1.591,3.131,2.577,4.579c-0.038,0.052-0.077,0.105-0.109,0.166     c-3.081,5.125-4.422,10.792-5.187,17.414c-2.272,12.495-1.17,25.444,2.974,37.44c5.432,15.852,18.481,25.309,33.939,30.323     c4.566,1.561,9.333,2.582,14.143,2.99c-0.862,3.103-0.158,7.24-0.125,7.468c-0.017,0.01-0.033,0.024-0.051,0.034     c-1.376,0.932-2.821,1.757-4.247,2.609c-2.559,1.415-3.677,1.663-6.921,2.333c-3.012,0.506-5.954,0.845-10.034,0.867     c-7.988-0.43-15.95,0.182-23.896,0.968c-0.842,0.052-1.685,0.112-2.529,0.084c-0.591-0.046-1.229,0.007-1.657,0.466     c-0.284,0.267-0.425,0.606-0.455,0.954c-0.637,0.313-1.088,0.944-1.647,1.376c-1.922,1.739-2.186,1.885-4.249,3.319     c-2.082,1.407-4.687,2.663-5.863,3.046c-2.774,0.934-6.897,1.605-8.339,1.793c-5.844,0.785-8.359-0.624-8.579-3.97     c-0.025-2.235,0.919-5.968,1.824-7.746c0.97-1.849,1.941-3.198,2.759-4.141c0.34-0.415,0.887-0.693,1.078-1.211     c0.641-1.343-1.227-2.592-2.252-1.517c-4.016,3.724-6.243,9.121-6.631,14.539c-0.028,1.143,0.183,2.165,0.565,3.07     c-0.123-0.014-0.239-0.042-0.742-0.13c-4.352-0.754-7.043-3.618-7.618-5.249c-1.484-4.406-0.603-8.186,2.482-12.491     c0.639-0.877,0.484-0.738,1.514-1.924c0.408-0.451,0.927-0.899,0.897-1.563c0.044-1.283-1.672-1.999-2.552-1.057     c-3.026,3.147-5.587,6.952-6.302,11.332c-0.288,1.751-0.251,3.385,0.039,4.891c-0.053-0.084-0.109-0.165-0.16-0.25     c-0.014-0.022-0.029-0.043-0.044-0.065c0.002,0.008,0.004,0.016,0.006,0.024c-0.202-0.385-0.478-0.745-0.648-1.141     c-0.02-0.041-0.037-0.083-0.055-0.124c-0.352-0.855-0.602-1.748-0.802-2.651c-1.397-4.34,1.218-11.602,4.22-14.883     c3.438-4.266,5.581-6.213,10.207-8.654c2.75-1.495,6.655-2.449,9.8-2.434c2.482-0.028,2.504-3.76,0-3.805     c-0.224,0.003-0.448,0.014-0.672,0.022c-0.168-0.674-0.407-1.361-0.462-1.929c-0.506-2.782-0.633-4.366-1.035-7.725     c-1.023-9.821,0.198-18.722,1.575-27.512c3.964-25.307,32.516-43.624,22.787-42.507c-9.995,6.371-20.577,20.168-23.743,32.113     c-3.299,12.136-5.528,21.087-3.945,37.374c0.309,3.18,0.706,6.362,1.303,9.502c0.078,0.295,0.148,0.638,0.228,0.989     c-4.72,0.711-9.257,2.58-13.014,5.558c-8.291,6.435-14.775,17.737-10.021,28.137c0.317,0.578,0.699,1.301,1.183,1.823     c0.793,1.166,2.122,2.054,3.362,0.893c0.231-0.231,0.386-0.517,0.464-0.823c1.626,4.292,5.69,7.149,11.028,7.757     c1.079,0.034,2.368,0.209,3.311-0.401c1.611,1.088,3.673,1.638,5.804,1.575c4.005-0.142,7.984-0.913,11.834-2.003     c3.286-1.139,6.322-2.89,9.062-5.022c1.264-0.949,2.447-2.002,3.562-3.121c0.388-0.347,0.758-0.763,0.848-1.278     c6.913-0.04,13.812-1.127,20.739-0.765c5.196,0.324,10.419,0.317,15.554-0.653c3.924-0.617,7.595-2.18,10.763-4.573     c0.399-0.259,0.785-0.538,1.17-0.817c0.943,2.681,2.608,5.162,5.265,7.319c1.942,1.878,7.791,4.237,10.072,3     c1.784,1.088,3.92,1.618,5.997,1.534c1.417-0.027,3.689-0.485,3.622-2.092c1.06,0.981,2.362,1.702,3.766,1.869     c4.058-0.042,6.093-0.584,10.316-1.477c3.028-0.733,5.822-2.163,8.72-3.271c6.672-2.458,11.042-4.382,17.931-6.509     c9.016-2.404,18.335-2.21,28.613-2.721c4.129-0.279,8.058-1.755,11.479-4.056c3.419-1.91,6.298-4.609,8.771-7.625     c3.227-4.076,5.577-8.701,7.492-13.52c0.124,0.032,0.505,0.061,0.79,0.08c0.034,0.006,0.068,0.009,0.102,0.014     c-0.014-0.003-0.027-0.005-0.041-0.007c0.025,0.003,0.049,0.006,0.074,0.009c-0.01-0.001-0.018-0.001-0.02,0.001     c0.06,0.009,0.119,0.017,0.179,0.024c-0.051-0.003-0.115-0.013-0.178-0.023c-0.014,0.019,0.82,0.205,1.137,0.349     c2.784,0.45,5.629,0.534,8.447,0.573c13.276-0.069,26.71-6.67,33.763-18.11C400.817,403.026,401.024,392.741,399.121,383.421z      M332.542,263.704c-2.514,13.757-9.08,24.939-20.587,31.152c-6.005,3.069-11.551,5.125-18.677,7.67     c-0.855,0.317-1.888,0.638-2.998,0.952c-0.314-0.329-0.663-0.625-0.962-0.969c-0.135-0.14-0.259-0.289-0.39-0.433     c-1.543-1.884-2.774-4.171-3.432-5.967c-2.023-4.933-2.967-8.914-2.992-13.249c-0.079-7.247,1.075-12.934,3.935-18.584     c2.297-4.475,3.898-6.994,7.385-10.145c4.112-3.921,12.56-8.07,17.287-8.742c3.551-0.485,6.299-0.454,8.83,0.247     c3.284,0.884,4.713,1.304,7.243,2.744c3.471,1.936,4.405,3.676,6.448,7.869C333.319,258.785,332.944,261.269,332.542,263.704z      M158.35,218.172c2.006-17.147,2.562-32.02,8.308-48.276c0.604-1.636,2.994-6.973,3.309-8.018c1.065-2.6,2.644-4.936,4.282-7.205     c1.238-1.853,2.475-3.038,4.654-5.241c0.663-0.733,1.762-1.253,1.733-2.372c0.039-1.173-1.2-1.964-2.238-1.702     c-0.193-0.433-0.382-0.892-0.51-1.389c-1.56-4.344-2.966-8.745-4.666-13.038c-4.716-11.335-11.667-25.977-16.03-35.369     c-2.448-5.889-4.835-11.838-6.542-17.989c-1.667-6.829-2.15-11.946-1.712-19.338c0.803-13.624,3.466-25.028,17.258-30.398     c2.73-1.478,9.208-1.811,12.949-0.596c4.959,1.33,11.129,6.205,13.515,9.44c5.903,7.685,8.679,14.712,11.447,23.483     c1.791,5.663,3.542,11.354,4.711,17.183c2.112,9.421,2.22,18.799,1.682,29.463c-0.553,9.034-0.962,18.073-1.238,27.118     c-0.085,1.162-0.164,2.325-0.29,3.484c-0.014,0.526-0.189,1.078-0.12,1.596c-0.845,0.424-1.663,0.897-2.424,1.468     c-0.379,0.22-0.657,0.587-0.774,1.007c-0.425,1.393,1.23,2.681,2.475,1.903c5.071-3.247,11.666-4.877,18.518-6.408     c9.458-2.03,17.82-2.991,28.223-2.645c6.566,0.028,13.643,0.639,18.659,1.51c1.847,0.303,3.689,0.634,5.527,0.982     c0.434,0.09,0.916,0.192,1.378,0.202c0.021,0.081,0.044,0.162,0.078,0.24c0.646,1.66,3.237,1.155,3.214-0.647     c4.137-28.789,16.423-70.862,38.379-90.875c4.189-3.36,10.583-7.689,16.583-8.686c4.332-0.27,10.198,0.138,13.431,4.278     c2.827,3.128,4.219,8.862,5.461,14.9c2.227,9.843,2.456,19.163-0.152,28.825c-6.076,21.944-26.284,37.123-40.68,56.585     c-2.309,3.284-5.346,7.998-5.235,11.121c-0.367,0.565-0.406,1.335,0.226,2.011c1.602,1.767,3.556,3.176,5.083,5.01     c0.79,1.009,0.175,0.149,1.397,1.853c1.388,1.954,2.808,3.892,4.019,5.963c1.908,3.452,3.435,6.476,4.362,9.078     c2.561,7.249,3.143,12.922,3.929,19.785c0.776,6.19,0.61,12.444,1.132,18.655c0.253,9.311,2.088,16.377,2.645,24.967     c0.198,3.646,0.117,7.135-0.124,10.513c-0.554-0.958-1.185-1.864-1.95-2.668c-4.282-3.837-10.064-5.768-15.726-6.265     c-8.309-0.398-16.136,3.401-22.752,8.122c-8.49,6.375-13.696,16.884-14.73,27.353c-1.025,8.345,0.587,17.013,4.887,24.268     c0.807,1.265,1.694,2.262,2.509,3.048c-3.136,0.734-6.169,1.302-7.454,1.453c-2.99,0.396-6.008,0.485-9.019,0.601     c-0.997,0.113-2.069-0.106-3.03,0.17c-1.448-1.735-2.993-3.386-4.701-4.882c-2.644-2.399-5.692-4.281-8.767-6.071     c-3.422-1.986-7.015-3.837-10.924-4.623c-3.118-0.564-6.302-0.416-9.451-0.25c-2.58,0.059-5.154,0.301-7.672,0.88     c-0.91,0.204-1.815,0.434-2.715,0.678c4.502-8.262,6.239-19.157,0.107-26.953c-5.918-7.892-12.46-0.957-14.67,5.878     c-0.013,0.041-0.021,0.083-0.034,0.125c-0.838-2.71-2.319-5.141-4.751-6.712c-1.568-0.895-3.179-0.909-4.633-0.369     c-0.928-4.14-3.006-7.977-5.674-11.253c-3.626-5.023-9.045-8.612-14.844-10.666c-7.809-2.855-16.759-1.738-23.925,2.376     C155.221,236.199,157.506,227.661,158.35,218.172z M176.396,293.587c-14.106-8.356-22.383-24.466-22.563-41.04     c-0.01-1.156,0.026-2.303,0.084-3.446c4.1-2.898,9.691-4.582,15.924-4.361c4.887,0.392,7.871,1.574,11.978,3.883     c3.516,2.159,5.754,3.928,8.722,7.815c0.803,0.924,2.823,3.908,3.827,6.479c0.08,0.202,0.276,0.684,0.492,1.178     c0.442,1.142,0.544,1.881,0.781,2.478c-0.427,0.49-0.806,1.028-1.12,1.596c-1.385,2.726-1.619,5.884-1.502,8.895     c0.127,1.821,0.488,3.619,1.048,5.354c-1.548-0.543-3.154-0.889-4.782-1.092c-1.923-0.268-3.944-0.417-5.812,0.22     c-4.033,1.219-4.373,5.857-2.921,9.217c1.255,3.025,3.114,5.792,5.39,8.161C182.953,297.558,179.542,295.669,176.396,293.587z      M188.946,296.583c-2.796-2.933-5.451-6.961-5.493-9.748c0.11-1.411,0.301-1.499,1.394-1.918c1.744-0.41,5.399,0.055,8.97,1.589     c0.12,0.048,0.239,0.099,0.358,0.148c0.051,0.02,0.173,0.07,0.34,0.141c0.001,0,0.002,0.001,0.004,0.001     c0.017,0.007,0.027,0.011,0.045,0.019c0.191,0.07,0.585,0.23,0.849,0.338c1.586,0.65,3.971-0.979,3.226-2.287     c-3.613-6.342-2.276-16.883,1.973-16.815c1.298,0.048,4.045,4.056,4.084,8.896c0.048,0.827,0.09,1.653,0.105,2.481     c-0.028,0.661,0.127,1.348,0.62,1.818c0.849,0.908,3.363,1.518,4.346-1.592c0.358-2.996,1.471-7.538,2.791-9.622     c1.333-2.159,1.976-2.95,3.92-4.11c0.115-0.036,0.231-0.066,0.349-0.089c0.022,0,0.052,0,0.079,0     c0.29,0.061,0.576,0.143,0.849,0.256c3.894,3.015,6.393,10.311,3.717,18.628c-0.952,2.902-1.1,3.16-2.434,5.799     c-0.38,0.886-1.024,1.715-1.197,2.664c-0.045,0.277-0.034,0.533,0.02,0.766c-2.085,0.756-4.13,1.623-6.114,2.615     c-2.35,1.155-4.473,2.706-6.783,3.935c-1.659,0.958-2.774,1.476-3.9,1.952c-0.196-0.081-0.415-0.128-0.659-0.123     C195.457,302.211,192.869,300.335,188.946,296.583z M191.753,318.831c0.993-4.217,2.836-12.482,25.177-20.47     c8.21-2.935,11.865-3.427,19.528-3.564c6.188-0.173,9.283,1.272,14.921,4.496c2.24,1.338,4.522,2.633,6.6,4.218     c3.167,2.483,6.296,6.054,7.731,8.093c5.749,7.233,10.392,15.251,14.584,23.466c-4.931,1.671-9.229,5.182-12.264,10.188     c-3.999,6.849-4.611,15.575-1.191,22.781c3.751,7.215,12.112,12.045,20.073,8.708c1.763-0.657,3.767-1.95,5.45-3.303     c0.29,4.426,1.322,6.299,1.021,11.555c-0.845,5.726-4.2,12.589-10.547,15.923c-2.185,1.333-4.852,1.751-7.324,2.147     c-2.596,0.297-6.022-0.178-7.125-0.405c-2.25-0.477-4.208-0.992-6.043-1.576c1.212-2.925,3.931-5.862,7.017-8.886     c2.034-1.847,3.66-3.239,5.216-4.193c0.434-0.284,1-0.436,1.3-0.88c0.829-0.943,0.015-2.536-1.222-2.5     c-0.954,0.007-2.957,1.362-4.509,2.638c-3.115,2.543-5.962,5.437-8.347,8.678c-0.874,1.26-1.881,2.628-2.393,4.111     c-2.393-0.92-4.72-2.004-7.398-3.345c-4.156-2.086-8.267-4.267-12.133-6.861c-0.599-0.391-1.184-0.78-1.763-1.168     c2.397-8.712,11.298-18.419,18.965-23.088c0.874-0.63,2.047-0.898,2.783-1.681c1.093-1.298-0.596-3.216-2.044-2.328     c0.04-0.009,0.262-0.114,0.363-0.152c-6.912,2.969-12.183,8.745-16.803,14.516c-1.997,2.727-3.718,5.655-5.03,8.773     c-0.288,0.709-0.606,1.435-0.853,2.177c-6.079-4.219-11.237-8.357-16.883-13.247c2.846-11.09,9.154-20.031,17.847-27.826     c4.069-3.508,11.366-8.26,16.699-9.984c0.662-0.283,1.455-0.323,2.038-0.75c0.875-0.581,0.756-2.037-0.155-2.529     c-1.135-0.562-2.373,0.301-3.496,0.563c-14.829,5.85-27.168,18.027-33.305,32.732c-0.735,1.882-1.473,3.772-2.022,5.718     c-0.968-0.807-1.916-1.638-2.892-2.436c4.814-3.103,5.834-9.528,6.8-14.993c0.687-3.764,0.898-7.655,0.025-11.406     c-1.227-5.206-4.092-10.13-8.447-13.118c2.445-3.536,6.884-7.839,9.981-10.002c1.198-0.855,2.434-1.655,3.693-2.417     c0.43-0.298,0.997-0.456,1.299-0.903c0.844-0.96,0.016-2.581-1.244-2.544c-1.136,0.148-2.087,0.978-3.1,1.476     c-5.331,3.254-9.918,7.703-13.467,12.836c-0.62-0.267-1.255-0.51-1.921-0.702c-2.533-0.77-5.199-1.3-7.857-1.156     c-3.899,0.212-6.478,1.521-8.307,3.173C190.353,325.074,190.76,323.047,191.753,318.831z M197.006,330.086     c3.016-0.787,5.753-0.378,9.749,0.951c5.69,1.818,9.596,8.525,10.347,14.348c0.45,4.512-0.116,6.846-0.82,10.872     c-0.614,3.592-1.747,7.211-2.949,8.501c-3.448,3.957-8.02,3.487-12.685,1.194c-2.139-1.126-3.665-2.015-5.098-3.149     c-0.241-0.508-0.759-0.87-1.321-1.139c-0.605-0.566-1.221-1.202-1.89-1.948c-2.685-2.698-5.204-8.409-5.328-12.158     c-0.106-3.549,0.41-5.927,1.736-9.787C190.572,332.242,196.114,330.305,197.006,330.086z M182.962,343.805     c-0.004-0.033-0.007-0.066-0.011-0.1c-0.385-4.677,0.754-8.777,2.548-12.476c0.497-1.013,1.065-1.987,1.669-2.939     c0.163,1.358,0.481,2.695,1.01,3.987c0.029,0.053,0.059,0.103,0.094,0.15c-0.661,1.048-1.177,2.069-1.645,2.914     c-1.104,1.993-1.73,4.21-2.214,6.425c-0.539,2.022-0.688,4.298-0.454,6.635c-0.139-0.5-0.268-1.004-0.385-1.509     C183.343,345.869,183.12,344.843,182.962,343.805z M230.11,441.379c-1.915-0.196-2.217-0.131-3.653-0.389     c-4.463-0.732-8.852-1.881-13.093-3.452c-12.278-4.218-22.283-12.255-27.304-23.276c-3.771-9.343-5.21-17.524-5.496-26.884     c-0.055-4.819,0.682-9.594,1.24-14.368c0.092-1.08,1.221-8.211,2.419-10.901c0.103-0.186,0.109-0.25,0.079-0.215     c0.32-0.793,0.729-1.556,1.105-2.326c1.171,1.468,2.496,2.821,4.025,3.914c0.863,0.549,1.882,0.79,2.822,1.177     c0.418,0.166,0.895,0.396,1.374,0.493c4.852,3.926,11.268,6.873,16.703,5.315c4.058,3.379,7.814,7.108,11.857,10.505     c8.067,6.551,15.023,11.929,24.57,17.011c5.449,2.953,11.477,5.814,17.53,7.476c-2.356,0.572-4.642,1.431-6.815,2.507     c-3.765,2.012-7.298,4.794-9.742,6.707c-5.024,3.945-9.192,8.86-12.753,14.14c-2.071,3.283-3.306,6.979-4.383,10.685     C230.423,440.124,230.262,440.751,230.11,441.379z M348.858,426.207c-2.276,6.166-5.568,12.877-11.124,17.706     c-1.292,1.268-2.176,1.563-4.339,2.947c-2.642,1.526-3.156,1.942-5.795,2.613c-3.639,1.027-7.913,0.607-12.808,0.944     c-8.677,0.482-17.487,1.107-25.617,4.435c-4.726,1.785-7.433,2.794-12.4,4.746c-4.767,1.945-6.423,3.068-12.517,4.184     c-2.136,0.397-4.339,0.739-5.57,0.526c-0.635-0.3-2.502-1.52-2.627-2.879c-0.459-1.929,0.139-6.052,1.316-8.055     c0.705-1.57,1.229-2.505,1.701-2.96c0.395-0.407,0.813-0.793,1.249-1.155c0.01-0.008,0.014-0.011,0.023-0.018     c0.612-0.442,1.454-0.709,1.63-1.534c0.26-0.87-0.308-1.859-1.185-2.086c-0.926-0.239-1.771,0.376-2.493,0.884     c-1.415,1.003-2.64,2.283-3.376,3.868c-2.172,4.009-3.568,9.038-1.72,13.413c0.094,0.168,0.203,0.331,0.309,0.496     c-0.322-0.063-0.664-0.066-0.984-0.029c-0.803-0.039-1.611-0.001-2.411-0.105c-1.814-0.412-4.031-0.943-5.502-4.817     c-1.014-2.62-1.721-6.405-0.461-10.736c0.616-1.718,0.481-1.533,1.225-3.001c0.208-0.402,0.588-0.747,0.602-1.221     c0.284-1.551-1.965-2.32-2.728-0.943c-2.305,3.363-3.563,7.521-3.451,11.602c0.117,2.517,0.743,5.051,1.896,7.306     c-3.037-1.03-5.246-2.985-7.085-6.118c-2.422-4.366-1.704-9.567-0.106-16.268c1.179-4.178,1.661-6.065,3.71-9.576     c2.972-4.437,4.949-7.044,8.939-10.81c6.092-5.355,11.22-9.725,19.005-11.457c0.62-0.213,3.49-0.83,5.833-1.272     c6.344,0.462,12.453-0.957,17.666-5.604c5.986-5.685,9.348-14.4,7.711-22.606c-0.106-0.455-0.194-0.88-0.274-1.291     c0.152-0.17,0.277-0.384,0.357-0.652c2.097-7.276,11.036-13.472,18.285-16.064c2.927-1.02,5.983-1.772,7.996-1.907     c0.47-0.03,0.941-0.042,1.411,0c0.203,0.013-0.363-0.05-0.29-0.044c0.543,0.15,1.201-0.038,1.519-0.518     c1.6-3.171-3.71-2.499-5.428-2.222c-7.593,1.353-14.9,4.819-20.485,10.174c-1.651,1.736-3.18,3.637-4.358,5.726     c-0.022-0.084-0.041-0.17-0.065-0.254c-0.008-0.04-0.013-0.071-0.02-0.104c0.006,0.048,0.012,0.103,0.018,0.165     c-0.009-0.068-0.017-0.136-0.026-0.204c-0.039-0.214-0.036-0.249-0.017-0.133c-0.003-0.021-0.006-0.041-0.008-0.062     c-0.013-0.112-0.03-0.224-0.043-0.336c0-0.011,0-0.022,0.001-0.047c0.003-0.292-0.073-0.587-0.207-0.853     c0.011-0.018,0.026-0.038,0.036-0.055c0.606-1.223-0.693-2.647-1.974-2.259c-1.03,0.409-1.775,1.565-2.683,2.232     c-12.978,11.721-28.209-3.99-21.266-20.687c2.191-5.464,7.136-10.062,13.004-11.539c0.231-0.014,0.459-0.063,0.672-0.154     c0.748-0.156,1.507-0.271,2.279-0.32c3.527-0.129,4.953,0.341,8.448,1.374c3.121,1.102,4.622,1.619,7.696,3.575     c3.092,2,4.415,2.948,6.915,5.789c0.466,0.326,0.46,1.176,1.672,1.692c1.299,0.41,2.517-1.161,1.783-2.319     c-4.057-5.959-10.656-9.746-17.391-11.959c-3.72-1.332-7.411-1.695-10.889-1.199c-0.073-0.141-0.107-0.191-0.056-0.067     c-0.584-1.37-1.268-2.696-1.976-4.005c-1.521-2.782-2.968-5.604-4.542-8.357c-2.189-3.798-4.635-7.44-7.33-10.897     c-0.121-0.166-0.244-0.33-0.365-0.496c0.619-0.031,1.238-0.055,1.857-0.092c13.145-0.13,25.657-4.647,37.56-9.86     c0.622-0.259,1.235-0.536,1.843-0.824c2.743,10.052,9.118,18.584,15.292,26.823c4.427,5.971,8.659,10.004,12.246,15.577     c2.89,4.261,5.177,8.899,7.506,13.482c1.431,2.882,2.572,6.366,4.164,10.419c2.243,6.616,4.155,15.762,4.708,20.948     c0.661,6.105,0.013,14.726-0.668,18.995C353.388,412.836,351.352,419.608,348.858,426.207z M395.772,398.838     c-0.285,1.952-0.703,3.881-1.248,5.777c-0.798,2.466-0.726,2.412-2.061,4.882c-7.739,12.336-23.257,17.771-37.23,15.795     c-0.245-0.115-1.086-0.366-1.754-0.54c0.866-2.476,1.653-4.978,2.414-7.46c1.239-4.237,1.89-8.626,2.463-12.995     c0.749-5.405,0.942-10.86,0.58-16.304c-0.655-7.52-2.408-14.951-4.579-22.168c-0.132-0.385-0.276-0.765-0.411-1.148     c0.693-6.029,11.051-7.501,18.193-8.124c5.133-0.37,8.357-0.828,13.142-1.457c0.203-0.021,0.404-0.055,0.604-0.09     c-0.077,1.787,0.349,3.784,1.214,6.013c1.065,2.58,2.128,4.011,2.855,5.634c2.555,5.161,4.228,9.352,5.022,15.757     C396.054,388.189,396.541,392.43,395.772,398.838z"/>
			<path style="fill:none;" d="M213.337,217.007c0,2.183-1.77,3.953-3.953,3.953c-2.183,0-3.953-1.77-3.953-3.953     c0-2.183,1.77-3.953,3.953-3.953C211.567,213.054,213.337,214.824,213.337,217.007z"/>
			<path style="fill:none;" d="M283.36,217.854c0,2.183-1.77,3.953-3.953,3.953c-2.183,0-3.953-1.77-3.953-3.953     c0-2.183,1.77-3.953,3.953-3.953C281.59,213.901,283.36,215.671,283.36,217.854z"/>
		</g>
		<g>
			<g>
				<path d="M445.294,193.697c0.018-0.014,0.035-0.028,0.053-0.042c-0.023,0.018-0.048,0.037-0.074,0.057      c0.003-0.002,0.005-0.004,0.009-0.006C445.287,193.702,445.289,193.7,445.294,193.697z"/>
				<g>
					<path d="M464.434,194.547c-3.932-1.293-8.176-1.165-12.235-0.63c-0.661,0.082-1.319,0.184-1.975,0.298       c5.118-4.259,12.197-12.021,8.331-16.298c-2.487-2.108-6.181-1.045-8.912,0.031c-4.029,1.639-7.618,4.303-10.538,7.516       c-0.247-5.149-0.52-10.4-3.015-14.978c-1.437-2.826-4.251-5.08-7.559-4.738c-2.056,0.126-3.282,2.023-4.343,3.565       c-3.596,5.533-3.917,12.447-4.282,18.854c-0.03,3.169,0.272,6.337,0.828,9.458c-8.674-3.749-19.002-2.864-25.288,4.787       c-2.411,2.935-24.735,36.143-29.962,59.102c-1.435,6.305-0.972,13.774,3.522,18.777c3.271,3.46,7.792,3.753,12.232,2.97       c3.064-0.356,5.977-1.433,8.843-2.529c3.305-1.278,6.54-2.723,9.639-4.444c15.24-8.053,29.304-18.952,39.262-33.153       c6.473-9.019,8.248-19.393,2.908-28.307c7.565,0.978,19.877-0.028,26.093-4.098       C475.016,205.564,472.127,197.013,464.434,194.547z M432.211,245.107c-2.765,3.452-5.866,6.613-9.151,9.571       c-6.405,5.917-11.569,9.767-19.482,14.349c-7.722,4.612-17.217,9.302-23.822,10.042c-5.218,0.573-6.544-0.415-8.422-2.905       c-3.585-5.998-2.186-12.921,0.81-21.581c0.415-1.153,0.856-2.306,1.311-3.46c6.45,2.678,13.113,7.344,18.449,12.718       c1.47,1.911,4.078,0.027,2.539-1.818c-3.486-3.792-7.668-6.883-12.096-9.489c-2.289-1.322-4.655-2.512-7.089-3.546       c-0.266-0.074-0.536-0.199-0.81-0.328c2.455-5.884,5.397-11.8,8.698-17.871c3.497,1.606,6.494,2.379,9.378,3.88       c8.371,4.34,14.421,8.756,20.71,15.305c0.535,0.467,0.898,1.192,1.569,1.467c1.538,0.728,2.969-1.399,1.737-2.578       c-0.004,0,0.169,0.219,0.23,0.3c-4.765-6.057-11.153-10.673-17.734-14.583c-3.085-1.739-6.266-3.326-9.599-4.533       c-1.964-0.651-3.49-1.251-4.887-1.809c0.305-0.549,0.603-1.095,0.914-1.647c1.171-2.082,4.116-7.464,7.141-12.642       c8.587,2.991,15.587,6.401,23.466,11.855c4.992,3.496,8.345,5.511,12.298,10.201c0.001,0.001,0.001,0.001,0.001,0.002       c0.281,0.405,0.998,1.367,0.532,0.758c0.219,0.374,0.582,0.654,1,0.769c1.03,0.308,2.131-0.541,2.118-1.613       c0-0.196-0.045-0.38-0.109-0.559c0.004-0.006-0.024-0.078-0.103-0.246c-0.007-0.013-0.009-0.027-0.017-0.04       c0,0.003,0.002,0.007,0.002,0.01c-0.014-0.03-0.025-0.052-0.042-0.089c-2.011-3.76-5.498-6.449-8.861-8.948       c-3.749-2.656-7.622-5.135-11.614-7.409c-4.354-2.392-8.886-4.455-13.593-6.049c-1.175-0.427-2.355-0.842-3.54-1.239       c2.507-4.178,4.871-7.801,6.107-8.827c-0.075,0.043-0.068,0.013,0.148-0.122c0.038-0.031,0.072-0.06,0.111-0.092       c-0.017,0.019-0.034,0.034-0.052,0.051c1.837-1.304,3.195-2.073,4.411-2.476c2.515-0.794,2.951-0.802,5.173-0.956       c4.957,0.022,9.312,1.721,14.107,4.944c4.402,2.962,6.703,4.584,10.55,8.334C445.02,222.813,441.282,234.257,432.211,245.107z        M467.908,204.273c0.006-0.049,0.02-0.152,0.047-0.344c-0.01,0.119-0.027,0.236-0.048,0.351c-0.004,0.03-0.004,0.033,0,0.004       c-0.741,4.213-8.238,5.841-13.035,6.66c-1.852,0.354-6.958,0.744-11.507,0.535c-2.591-0.141-1.433-0.122-3.7-0.373       c-0.161-0.022-0.327-0.035-0.49-0.022c-2.345-2.739-5.205-5.012-8.104-7.142c-2.345-1.683-4.739-3.321-7.254-4.744       c-1.226-5.05-1.478-9.773-0.967-15.54c0.316-3.725,1.129-8.479,2.651-11.378c0.976-1.702,1.579-2.682,2.535-3.574       c0.032-0.025,0.055-0.043,0.074-0.058c0.096-0.064,0.199-0.126,0.278-0.174c3.439-0.883,6.481,3.424,7.239,9.187       c0.588,2.934,0.415,7.175,0.902,11.122c-0.487,0.75-0.923,1.531-1.268,2.36c-0.226,0.653-0.693,1.319-0.574,2.029       c0.157,1.703,2.707,1.863,3.126,0.214c2.921-7.624,14.298-14.182,18.211-12.988c0.026,0.028,0.043,0.047,0.063,0.068       c0.012,0.02,0.024,0.038,0.035,0.058c0.009,0.031,0.022,0.06,0.03,0.091c0.092,0.157-0.046,1.472-1.189,3.288       c-1.293,2.082-3.202,4.084-5.722,6.439c-1.525,1.414-2.9,2.521-3.664,3.132c-0.077,0.061-0.153,0.121-0.23,0.182       c0.14-0.108,0.204-0.15-0.053,0.042c-0.04,0.032-0.081,0.064-0.121,0.096c0.034-0.027,0.067-0.054,0.1-0.08       c-0.078,0.057-0.14,0.104-0.192,0.143c-3.858,3.38-2.462,5.301-0.711,4.866c7.277-2.536,17.035-2.821,20.976,0.036       c0.647,0.503,1.254,1.057,1.794,1.674c0.05,0.077,0.101,0.154,0.151,0.231c0.312,0.6,0.352,0.477,0.664,1.908       c0.001,0.012,0.002,0.02,0.004,0.035c0.005,0.016,0.008,0.039,0.012,0.059c0.009,0.072,0.016,0.124,0.02,0.154       C468.023,203.277,467.929,204.099,467.908,204.273z"/>
					<polygon points="467.907,204.279 467.908,204.273 467.906,204.284      "/>
				</g>
			</g>
			<path d="M400.415,202.392c-0.006,0.004-0.009,0.006-0.015,0.01c-0.051,0.042-0.1,0.082-0.148,0.122     c0.048-0.027,0.126-0.084,0.208-0.163C400.444,202.372,400.43,202.381,400.415,202.392z"/>
		</g>
		<g>
			<g>
				<path d="M60.816,270.009c-0.015-0.012-0.03-0.024-0.045-0.036c0.019,0.015,0.04,0.032,0.062,0.049      c-0.003-0.002-0.005-0.003-0.007-0.005C60.822,270.013,60.82,270.012,60.816,270.009z"/>
				<g>
					<path d="M41.519,284.236c5.223,3.484,15.62,4.424,22.02,3.653c-4.578,7.494-3.153,16.273,2.25,23.942       c8.312,12.072,20.117,21.385,32.937,28.302c2.606,1.477,5.33,2.722,8.113,3.826c2.413,0.947,4.867,1.878,7.454,2.201       c3.747,0.694,7.569,0.48,10.358-2.421c3.834-4.195,4.28-10.504,3.113-15.842c-4.249-19.439-22.872-47.664-24.888-50.162       c-5.256-6.511-13.977-7.334-21.334-4.229c0.492-2.633,0.77-5.308,0.768-7.986c-0.262-5.417-0.483-11.261-3.481-15.963       c-0.885-1.31-1.907-2.923-3.644-3.044c-2.793-0.313-5.188,1.572-6.422,3.949c-2.142,3.851-2.411,8.286-2.658,12.635       c-2.444-2.736-5.458-5.013-8.85-6.428c-2.3-0.929-5.414-1.854-7.531-0.091c-3.298,3.586,2.627,10.197,6.921,13.833       c-0.553-0.101-1.109-0.192-1.667-0.266c-3.426-0.481-7.011-0.62-10.344,0.444C38.117,272.615,35.613,279.82,41.519,284.236z        M69.633,285.728c3.279-3.141,5.234-4.495,8.976-6.965c4.075-2.688,7.768-4.092,11.957-4.075       c1.877,0.146,2.245,0.157,4.365,0.846c1.025,0.349,2.167,1.009,3.71,2.124c-0.014-0.014-0.029-0.028-0.043-0.044       c0.033,0.027,0.062,0.052,0.093,0.078c0.181,0.116,0.188,0.141,0.124,0.104c1.037,0.876,3.008,3.955,5.096,7.504       c-1.005,0.327-2.005,0.669-3.001,1.021c-3.989,1.313-7.834,3.023-11.53,5.013c-3.39,1.893-6.681,3.96-9.868,6.176       c-2.86,2.087-5.826,4.334-7.553,7.497c-0.016,0.031-0.024,0.049-0.037,0.075c0.001-0.003,0.002-0.006,0.002-0.008       c-0.006,0.011-0.008,0.023-0.014,0.034c-0.068,0.141-0.092,0.202-0.089,0.207c-0.055,0.15-0.094,0.306-0.096,0.471       c-0.019,0.906,0.905,1.631,1.778,1.379c0.354-0.094,0.663-0.328,0.851-0.643c-0.398,0.511,0.215-0.296,0.455-0.636       c0-0.001,0.001-0.001,0.001-0.001c3.375-3.935,6.223-5.613,10.466-8.531c6.697-4.552,12.637-7.382,19.916-9.847       c2.519,4.397,4.967,8.967,5.942,10.735c0.258,0.469,0.506,0.932,0.76,1.398c-1.185,0.461-2.478,0.957-4.143,1.493       c-2.826,0.996-5.525,2.313-8.145,3.76c-5.589,3.257-11.021,7.11-15.092,12.194c0.052-0.068,0.2-0.252,0.197-0.252       c-1.049,0.987,0.144,2.796,1.45,2.191c0.57-0.228,0.881-0.838,1.337-1.228c5.362-5.488,10.507-9.176,17.613-12.782       c2.449-1.247,4.986-1.879,7.953-3.211c2.745,5.154,5.188,10.175,7.22,15.165c-0.232,0.107-0.462,0.211-0.687,0.271       c-2.064,0.855-4.072,1.844-6.016,2.944c-3.761,2.17-7.317,4.751-10.29,7.931c-1.314,1.548,0.875,3.159,2.132,1.555       c4.549-4.503,10.213-8.396,15.683-10.613c0.376,0.978,0.74,1.956,1.082,2.933c2.469,7.34,3.6,13.2,0.527,18.242       c-1.606,2.091-2.733,2.916-7.138,2.394c-5.576-0.673-13.565-4.706-20.057-8.659c-6.653-3.93-10.989-7.221-16.358-12.268       c-2.754-2.523-5.352-5.217-7.663-8.154C63.911,304.312,60.835,294.615,69.633,285.728z M41.57,277.551       c0.004-0.025,0.01-0.069,0.018-0.13c0.003-0.017,0.006-0.036,0.011-0.05c0.001-0.013,0.002-0.02,0.003-0.03       c0.274-1.207,0.307-1.103,0.575-1.608c0.043-0.065,0.086-0.129,0.129-0.194c0.461-0.518,0.978-0.981,1.528-1.402       c3.351-2.386,11.594-2.073,17.725,0.122c1.476,0.381,2.67-1.232-0.566-4.117c-0.044-0.034-0.096-0.074-0.161-0.123       c0.028,0.022,0.056,0.045,0.084,0.068c-0.034-0.027-0.068-0.054-0.101-0.082c-0.216-0.164-0.162-0.128-0.045-0.036       c-0.064-0.052-0.129-0.103-0.193-0.155c-0.642-0.522-1.796-1.467-3.074-2.673c-2.112-2.008-3.711-3.714-4.788-5.483       c-0.953-1.543-1.06-2.655-0.981-2.787c0.007-0.026,0.018-0.051,0.026-0.076c0.009-0.017,0.02-0.033,0.03-0.049       c0.017-0.018,0.032-0.034,0.054-0.057c3.315-0.98,12.881,4.644,15.294,11.108c0.342,1.397,2.498,1.281,2.643-0.158       c0.106-0.599-0.284-1.165-0.47-1.719c-0.286-0.704-0.649-1.367-1.055-2.004c0.441-3.332,0.326-6.916,0.844-9.392       c0.683-4.864,3.285-8.482,6.184-7.71c0.067,0.041,0.153,0.094,0.234,0.149c0.016,0.013,0.035,0.028,0.062,0.049       c0.802,0.761,1.304,1.593,2.117,3.039c1.265,2.461,1.917,6.484,2.157,9.634c0.39,4.877,0.142,8.866-0.931,13.124       c-2.135,1.184-4.17,2.551-6.164,3.956c-2.465,1.778-4.899,3.678-6.9,5.976c-0.137-0.012-0.278-0.003-0.414,0.015       c-1.918,0.195-0.939,0.188-3.13,0.288c-3.846,0.143-8.158-0.224-9.72-0.536c-4.048-0.727-10.371-2.157-10.966-5.723       c0.003,0.025,0.002,0.022,0-0.004c-0.016-0.098-0.03-0.196-0.038-0.297c0.021,0.163,0.032,0.25,0.037,0.291       C41.613,278.634,41.539,277.938,41.57,277.551z"/>
					<polygon points="41.63,278.786 41.63,278.78 41.631,278.79      "/>
				</g>
			</g>
			<path d="M98.677,277.683c0.005,0.003,0.008,0.005,0.013,0.008c0.042,0.035,0.083,0.07,0.124,0.104     c-0.04-0.023-0.106-0.072-0.174-0.139C98.653,277.666,98.664,277.674,98.677,277.683z"/>
		</g>
	</g>
</g>
</svg>
