<?xml version="1.0" encoding="utf-8"?>
<!-- Generator: Adobe Illustrator 27.5.0, SVG Export Plug-In . SVG Version: 6.00 Build 0)  -->
<svg xmlns="http://www.w3.org/2000/svg" xmlns:xlink="http://www.w3.org/1999/xlink" version="1.1" x="0px" y="0px" viewBox="0 0 500 500" style="background-color:transparent;" xml:space="preserve">
<g id="BACKGROUND">
	<rect style="fill:none;" width="500" height="500" fill="none"/>
</g>
<g id="OBJECTS">
	<g>
		<g>
			<path d="M361.225,340.156c0.004,0.003,0.008,0.005,0.012,0.008c-0.005-0.004-0.013-0.009-0.018-0.013     C361.221,340.153,361.223,340.155,361.225,340.156z"/>
			<path d="M424.798,220.264c-0.247-4.935-0.491-9.939-1.654-14.757c-1.717-7.198-6.156-7.915-11.928-3.926     c-0.303,0.204-0.595,0.421-0.89,0.635c0.018-3.12-0.008-6.24-0.287-9.348c-0.558-6.046-1.914-11.972-3.725-17.759     c-2.111-6.646-4.318-13.269-7.145-19.651c-2.649-5.956-5.859-11.638-9.129-17.271c-4.985-8.17-9.971-16.415-16.318-23.62     c-0.683-0.755-1.38-1.497-2.083-2.233c0.346-0.425,0.783-0.969,0.921-1.136c4.379-5.301,7.838-11.359,10.117-17.85     c0.513-1.692,1.215-3.492,0.898-5.279c-0.3-1.237-1.775-1.989-2.905-1.314c-1.361,0.949-3.344,2.73-6.354,4.589     c-4.198,2.478-6.589,3.474-11.024,4.907c-2.838,0.805-4.909,1.234-6.876,1.387c-0.579,0.108-1.195-0.083-1.772-0.035     c-4.348-3.121-8.891-5.969-13.583-8.522c-8.183-4.217-16.776-7.651-25.641-10.142c-8.268-2.07-16.644-3.846-25.12-4.8     c-12.295-1.187-24.684-1.709-36.974-0.195c-13.03,1.302-25.705,4.809-38.022,9.16c-4.496,1.723-8.837,3.809-13.008,6.215     c-1.595,0.955-3.312,1.784-4.882,2.792c-0.035-0.011-0.064-0.032-0.101-0.041c-3.166-0.339-6.212-1.3-9.254-2.2     c-5.212-1.646-7.917-2.749-12.506-5.273c-9.988-5.997-18.151-12.584-26.531-19.148c-3.787-2.802-6.171-5.799-9.527-7.436     c-5.69-0.94-5.103,7.873-5.086,11.531c0.046,3.437,0.229,6.878,0.696,10.286c1.016,6.51,2.374,13.077,5.347,19.006     c0.463,0.784,0.859,1.647,1.336,2.445c-2.674,0.57-5.606,1.364-6.533,1.376c-2.157,0.237-4.335,0.304-6.501,0.158     c-1.102-0.052-2.201-0.383-3.3-0.149c-3.135,0.822-2.197,4.644-0.863,6.681c1.569,2.564,3.686,4.75,6.138,6.482     c2.574,1.901,5.495,3.38,8.583,4.231c1.372,0.367,2.776,0.606,4.189,0.738c-0.288,0.324-0.574,0.654-0.864,0.966     c-8.065,7.866-17.685,13.916-28.241,20.169c-4.51,2.607-9.114,5.048-13.621,7.66c-1.085,0.612-2.161,1.24-3.231,1.878     c-0.744,0.407-1.447,0.95-1.668,1.811c-1.179,6.233,14.144,7.311,18.319,7.02c1.009-0.029,2.018-0.121,3.019-0.255     c-8.592,14.053-14.288,29.796-18.04,45.788c-1.705,7.721-2.371,15.624-2.731,23.51c-0.339,7.962-0.192,15.961,0.937,23.86     c0.201,1.532,0.42,3.067,0.776,4.571c0.182,0.609,0.193,1.318,0.627,1.811c0.098,0.146,0.216,0.266,0.347,0.369     c-0.004,0.015-0.011,0.028-0.015,0.043c-1.995,5.188-2.458,10.857-2.401,16.375c0.051,8.336,1.706,16.514,3.828,24.543     c3.087,11.438,7.951,22.323,13.644,32.688c6.832,12.575,15.579,24.035,25.438,34.385c3.631,3.782,7.6,7.227,11.677,10.518     c1.036,0.895,0.907,0.673,2.568,1.967c0.071,0.051,0.142,0.102,0.212,0.153c0.38,0.333,0.916,0.492,1.41,0.402     c7.617,7.223,16.787,12.795,26.811,16c0.867,0.224,1.81,0.726,2.672,0.299c2.603,2.449,5.383,4.684,8.479,6.473     c2.56,1.234,5.711,1.465,8.341,0.319c0.46-0.254,0.886-0.564,1.282-0.909c2.734,1.261,5.427,2.637,8.28,3.613     c4.407,1.358,8.87,2.532,13.226,4.057c2.61,0.821,5.2,1.711,7.796,2.579c-1.535,8.727-0.08,18.946,4.183,26.63     c1.233,2.183,2.61,4.303,4.278,6.18c0.937,1.003,1.913,2.163,3.276,2.552c2.462,0.34,3.41-1.994,3.698-4.382     c0.374,0.746,0.76,1.497,1.164,2.258c1.483,2.362,3.008,4.953,5.472,6.4c2,1.091,4.311,0.031,4.984-2.107     c0.427-1.348,0.543-2.734,0.494-4.13c0.279,0.268,0.589,0.5,0.941,0.676c3.637,1.373,5.087-3.359,5.159-6.152     c0.322-7.073-1.652-13.975-3.94-20.597c-0.1-0.32-0.418-1.082-0.716-1.763c5.761,0.349,11.543,0.224,17.293-0.411     c8.159-0.729,16.324-2.068,24.164-4.473c2.033-0.73,4.021-1.566,5.981-2.466c-0.723,2.776-1.307,5.59-1.842,8.406     c-0.705,4.325-1.236,8.738-0.659,13.11c0.271,1.99,0.489,4.066,1.464,5.856c2.258,3.028,5.318,1.058,7.031-1.408     c1.85-2.663,2.868-5.813,3.869-8.87c0.063-0.206,0.122-0.414,0.183-0.621c-0.011,2.34,0.079,4.676,0.419,6.996     c0.708,5.136,4.31,12.111,9.617,6.318c2.637-3.41,3.612-7.739,4.373-11.898c0.274-1.332,0.459-2.672,0.6-4.015     c0.392,1.703,0.889,3.376,1.589,4.985c0.734,1.831,3.194,4.294,5.843,1.98c2.833-3.332,3.214-8.006,3.689-12.189     c0.596-7.511,0.358-15.125-1.742-22.402c-0.549-2.109-1.097-4.223-1.824-6.279c-0.172-0.411-0.258-0.869-0.414-1.29     c1.423-1.349,2.806-2.742,4.136-4.19c4.564-4.916,8.866-10.071,12.957-15.387c3.346-4.159,6.53-8.448,9.272-13.034     c3.639-5.642,6.994-11.498,9.085-17.909c0.576-1.761,0.501-1.636,1.131-2.863c0.231-0.517,0.703-0.93,0.718-1.52     c0.05-0.249,0.032-0.498-0.031-0.735c0.724-0.692,1.427-1.404,2.114-2.125c5.407-5.177,9.97-11.127,14.283-17.223     c8.176-11.585,14.268-24.492,19.278-37.72c4.524-12.409,8.186-25.215,9.614-38.377     C424.26,232.966,425.021,226.62,424.798,220.264z M360.347,100.52c2.072-0.398,4.14-0.862,6.119-1.606     c4.556-1.604,8.815-3.883,12.735-6.678c-1.059,2.988-1.659,4.246-3.323,7.408c-1.752,3.313-4.04,6.796-5.602,8.689     c-0.348,0.486-0.688,0.902-1.124,1.479c-3.256-3.208-6.698-6.229-10.299-9.051C359.353,100.683,359.851,100.598,360.347,100.52z      M201.891,397.429c-1.05,2.998-2.256,3.669-5.753,2.865c-5.005-1.829-16.462-14.235-20.476-19.457     c-3.016-3.791-7.385-10.538-10.781-16.098c-2.755-4.181-4.711-7.238-7.701-12.038c-3.798-5.74-7.443-11.581-10.902-17.533     c-0.761-1.313-1.512-2.631-2.23-3.968c-0.409-0.677-0.645-1.615-1.507-1.829c-1.234-0.384-2.391,1.099-1.694,2.203     c5.751,10.814,12.238,21.22,18.524,31.724c5.237,8.294,9.988,16.966,16.502,24.365c1.344,1.5,2.694,3.02,4.072,4.521     c-1.49-0.617-2.83-1.265-4.994-2.332c-11.485-5.771-20.518-14.465-27.223-24.231c-5.432-8.353-11.099-16.549-16.686-24.798     c-0.78-0.927-1.438-2.374-2.483-2.936c-1.393-0.679-2.94,1.063-2.098,2.383c4.479,6.247,8.363,12.904,12.704,19.248     c1.309,2.03,2.552,4.107,3.842,6.152c-0.318-0.33-0.645-0.651-0.958-0.987c-11.315-12.193-19.667-23.988-27.318-39.167     c-7.14-13.972-13.137-31.303-14.065-46.735c-0.32-5.432-0.186-9.274,0.728-13.824c0.148-0.774,0.364-1.532,0.603-2.283     c0.611,0.154,1.221,0.312,1.823,0.495c1.78,0.501,3.319,1.227,3.621,1.345c2.94,1.39,5.669,3.177,8.356,4.998     c6.709,4.298,13.048,9.112,19.392,13.922c3.807,2.821,7.039,4.883,9.717,7.118c4.732,3.947,9.03,8.39,13.2,12.918     c7.712,8.817,13.393,15.947,19.785,25.388c5.158,7.889,9.334,16.332,13.258,24.887c4.569,10.03,8.607,17.892,10.338,29.238     C202.107,386.053,202.667,394.536,201.891,397.429z M244.282,444.833c-6.281-6.844-9.052-16.052-8.856-25.841     c0.035-1.939,0.067-3.272,0.258-4.107c0.01-0.109,0.027-0.217,0.047-0.326c1.022,0.326,2.047,0.641,3.076,0.943     c-0.001,0.016-0.004,0.031-0.004,0.047c-0.001,0.011-0.002,0.021-0.003,0.032c0,0.011-0.003,0.021-0.003,0.032     c-0.001,0.012,0.001,0.023,0,0.035c-0.003,0.019-0.004,0.034-0.001,0.033c-0.002,0.065-0.002,0.13,0.001,0.195     c0.001,0.026,0.003,0.053,0.005,0.079c0.02,0.247,0.07,0.495,0.122,0.729c0.797,3.322,1.595,6.643,2.405,9.962     c0.297,1.208,0.604,2.362,0.922,3.483c0.441,1.909,0.88,3.818,1.333,5.723c0.685,2.957,0.851,3.917,0.949,6.458     C244.534,443.813,244.591,443.817,244.282,444.833z M256.205,450.075c-0.011,0.014-0.016,0.023-0.026,0.036     c-0.174-0.101-0.493-0.286-0.638-0.424c-3.727-3.772-6.776-11.514-9.119-18.295c-1.412-4.525-2.48-9.148-3.684-13.731     c-0.076-0.229-0.205-0.763-0.318-1.233c1.887,0.431,3.787,0.799,5.697,1.107c-0.039,0.686,0.369,1.38,0.622,2.004     c-0.346-0.899,1.28,3.164,1.513,3.864c0.814,2.256,1.671,4.497,2.518,6.741c0.106,0.36,0.209,0.713,0.304,1.049     c1.602,5.492,3.269,10.876,3.484,15.481C256.758,448.557,256.417,449.628,256.205,450.075z M262.473,436.178     c0.361,3.425,0.339,6.658-0.438,8.057c-1.75-2.217-2.747-5.903-4.074-9.746c-0.762-2.06-1.699-4.57-2.636-7.037     c-0.801-2.504-1.685-4.981-2.802-7.362c-0.163-0.345-0.641-1.393-0.943-2.057c0.776,0.098,1.551,0.2,2.328,0.283     c1.216,0.162,2.435,0.296,3.655,0.415c0.071,0.166,0.158,0.326,0.249,0.484c0.677,1.281,0.584,1.085,0.875,1.82     C260.566,426.418,262.235,433.053,262.473,436.178z M317.904,417.106c-1.181,6.56-2.911,13.144-5.54,17.996     c-0.668,1.084-1.18,1.549-1.712,1.924c-0.38-0.98-0.83-3.134-0.916-4.617c-0.516-6.337,0.261-10.413,1.472-16.297     c0.382-1.811,0.771-3.623,1.273-5.405c0.062-0.315,0.172-0.629,0.282-0.942c2.336-1.199,4.631-2.479,6.903-3.793     C318.697,409.935,318.37,414.294,317.904,417.106z M329.285,430.874c-0.677,3.945-2.513,8.077-3.881,8.939     c-0.078,0.053-0.159,0.102-0.241,0.151c-0.052,0-0.103-0.003-0.155-0.005c-2.64-2.417-2.793-10.381-2.412-17.779     c0.214-5.946,0.394-11.897,0.85-17.83c0.006-0.21-0.025-0.405-0.084-0.584c2.073-1.286,4.111-2.629,6.107-4.032     c-0.001,0.15,0.007,0.301,0.029,0.451c0.128,1.484,0.152,1.18,0.209,1.869c0.363,2.938,0.431,5.9,0.594,8.853     C330.796,418.323,330.788,424.552,329.285,430.874z M340.551,424.362c-0.417,2.208-0.93,3.86-1.523,4.848     c-0.992-1.728-1.861-5.539-2.444-8.655c-1.192-7.05-2.221-12.443-2.812-18.815c-0.129-1.474-0.26-2.947-0.436-4.416     c0.001-0.132-0.019-0.262-0.05-0.39c1.54-1.182,3.045-2.408,4.514-3.676c0.106,0.22,0.21,0.436,0.308,0.645     c1.003,2.556,1.685,5.229,2.337,7.892C341.952,408.204,341.612,417.992,340.551,424.362z M372.009,339.666     c-1.683,4.692-4.995,10.454-8.475,15.901c-3.457,5.711-6.069,9.008-9.734,13.669c-4.247,5.462-8.722,10.758-13.518,15.747     c-6.558,6.723-11.973,10.71-19.989,15.748c-6.199,3.788-12.758,7.474-18.27,9.516c-8.2,2.684-15.823,3.858-23.306,4.556     c-8.272,0.935-16.615,0.837-24.867-0.248c-4.744-0.454-10.812-1.456-16.61-3.342c-8.138-2.652-16.264-5.336-24.559-7.46     c-2.803-0.828-3.872-1.49-6.952-2.813c-0.211-0.073-0.418-0.172-0.625-0.276c0.072-0.132,0.146-0.264,0.212-0.398     c1.001-1.965,1.042-4.197,1.196-6.351c0.084-3.916-0.264-7.824-0.852-11.694c-1.713-11.841-6.171-20.049-10.964-30.496     c-3.715-7.91-7.496-15.793-12.215-23.167c-5.098-8.126-11.171-15.573-17.136-23.067c-6.154-7.271-12.673-14.367-20.257-20.173     c-8.161-5.721-15.84-12.106-24.182-17.567c-3.429-2.276-6.778-4.702-10.456-6.568c-2.541-1.271-5.254-2.151-7.9-3.167     c-0.154-0.067-0.04-0.008,0.11,0.064c-0.159-0.061-0.322-0.106-0.491-0.138c-0.023-0.084-0.043-0.182-0.045-0.327     c-0.02-0.141-0.035-0.242-0.044-0.309c-0.101-0.775-0.197-1.551-0.328-2.322c-0.23-1.306-0.666-5.658-0.87-8.671     c-0.667-17.937,0.24-33.557,5.447-50.09c3.465-11.378,6.648-19.881,12.286-30.305c0.802-1.382,1.601-2.767,2.443-4.126     c0.456-0.667,0.872-1.444,0.612-2.27c-0.029-0.119-0.071-0.23-0.119-0.336c3.596-0.929,6.904-2.281,9.478-3.454     c1.902-0.92,4.297-2.267,4.718-2.863c0.881-0.992,0.265-2.718-1.001-3.026c-1.335-0.159-1.237,0.127-1.613,0.26     c-0.857,0.442-1.722,0.867-2.597,1.273c-2.894,1.341-5.131,2.192-9.107,3.341c-6.138,2.079-16.017,1.176-20.118-0.53     c1.402-0.799,2.826-1.56,4.23-2.355c14.148-7.632,28.288-15.905,39.696-27.382c3.918-4.349,7.135-9.318,9.904-14.464     c0.585-1.124,1.114-2.276,1.652-3.424c0.337-0.571,0.314-1.369-0.132-1.872c-0.651-0.95-2.231-0.836-2.779,0.171     c-2.431,5.004-4.994,9.15-7.69,12.676c-0.707-0.067-1.434-0.034-2.134-0.137c-0.224-0.018-0.448-0.039-0.671-0.064     c-6.147-0.927-11.826-4.758-14.519-8.439c-0.701-1.072-1.111-1.671-1.338-2.138c3.283,0.421,8.288,0.432,12.539-0.697     c1.313-0.342,2.638-0.633,3.978-0.846c0.686-0.155,1.494-0.086,2.036-0.597c1.347-0.97,0.948-2.799-0.2-3.541     c-0.045-0.461-0.23-0.923-0.509-1.308c-0.503-0.931-0.973-1.879-1.455-2.821c-0.802-1.567-1.425-3.383-2.317-6.105     c-2.234-7.836-3.004-13.249-3.112-21.106c-0.001-1.867-0.101-3.746,0.086-5.606c0.056-0.323,0.153-0.869,0.226-1.099     c0.031-0.194,0.155-0.569,0.255-0.858c1.602,1.027,2.506,2.103,4.624,3.837c4.178,3.427,8.403,6.799,12.726,10.041     c9.321,7.082,18.946,14.216,30.381,17.411c2.733,0.781,5.455,1.676,8.276,2.079c0.602,0.058,1.261,0.231,1.871,0.202     c0.288,0.023,0.596-0.034,0.905-0.208c9.252-5.644,17.125-9.352,27.51-12.165c14.327-4.553,26.983-6.437,41.673-6.893     c13.038,0.094,24.699,0.857,36.592,3.476c16.906,3.329,31.142,8.724,45.474,18.268c9.075,6.273,16.793,12.646,24.279,21.712     c3.884,4.755,8.054,11.445,11.957,17.815c7.09,11.64,12.029,21.696,15.964,34.424c3.422,10.143,5.417,18.658,5.178,28.738     c0.001,1.526,0.014,3.052,0.015,4.578c-0.219,0.218-0.443,0.43-0.656,0.655c-0.181,0.166-1.051,1.229-1.394,1.653     c-0.178,0.191-0.56,0.688-0.85,1.075c-4.351,4.612-8.414,9.545-11.393,13.674c-3.35,4.997-6.255,10.279-9.08,15.585     c-3.072,5.351-5.785,10.893-8.421,16.47c-6.814,15.077-12.3,30.753-15.99,46.89c-1.326,6.23-1.906,12.592-2.227,18.946     c-0.237,6.474-0.242,13.048,1.145,19.405c0.5,2.24,2.551,4.07,4.931,3.406c1.226-0.371,2.281-1.113,3.254-1.947     c0.359,0.335,0.861,0.507,1.44,0.329c1.718-0.489,3.318-1.209,4.825-2.089C372.045,339.584,372.028,339.623,372.009,339.666z      M419.91,239.423c-1.062,10.039-4.619,23.754-8.6,34.823c-5.707,16-13.362,31.464-24.327,45.772     c-2.703,3.873-10.545,12.137-14.09,15.086c-1.253,0.976-2.347,1.626-3.415,2.158c1.775-2.402,3.236-5.031,4.591-7.697     c5.926-12.455,11.349-25.152,16.791-37.826c1.546-3.834,3.144-7.649,4.593-11.522c0.256-0.947,0.953-1.861,0.881-2.854     c-0.068-1.084-1.435-1.717-2.339-1.149c-1.076,0.871-1.211,2.508-2.142,4.455c-1.393,3.493-2.832,6.968-4.265,10.445     c-2.208,5.219-6.946,16.178-10.396,23.902c-2.752,6.174-5.367,12.425-8.779,18.274c-1.97,3.183-5.279,7.017-7.028,6.959     c-0.005-0.001-0.009-0.002-0.015-0.004c-0.041-0.024-0.085-0.051-0.132-0.082c0.045,0.033,0.077,0.057,0.097,0.073     c-0.005-0.001-0.011-0.003-0.016-0.004c-0.024-0.018-0.057-0.045-0.094-0.077c-0.027-0.018-0.054-0.038-0.081-0.058c0,0,0,0,0,0     c0.029,0.02,0.053,0.038,0.075,0.054c-0.03-0.026-0.062-0.056-0.095-0.089c-0.069-0.117-0.221-0.365-0.326-0.576     c-0.048-0.218-0.275-1.03-0.295-1.262c-0.033-0.234-0.194-1.186-0.261-1.564c-1.122-8.081-0.127-19.931,0.612-26.116     c1.176-8.893,3.902-17.476,6.579-26.008c6.382-20.014,14.639-37.163,25.297-55.782c4.118-7.085,7.031-10.365,11.902-16.228     c0.18-0.21,0.367-0.413,0.547-0.622c0.769-0.405,1.17-1.318,1.826-1.883c1.343-1.404,2.714-2.783,4.223-4.01     c-0.122,0.094-0.243,0.188-0.365,0.282c2.341-1.957,5.766-3.717,6.452-3.537c0.746-0.072,1.715,0.79,2.559,4.544     c0.969,4.516,1.367,10.528,1.392,16.412C421.08,228.964,420.545,234.206,419.91,239.423z"/>
			<path d="M237.271,313.419c-2.938-3.45-6.156,2.619-7.32,4.956c-1.379,2.925-2.631,5.908-3.997,8.839     c-0.814,1.805-1.64,3.634-2.155,5.546c-4.133-3.871-8.161-7.896-12.771-11.178c-1.265-0.826-2.999-0.085-3.269,1.407     c-0.295,1.578,0.305,3.148,0.917,4.58c3.49,7.319,9.026,13.507,14.74,19.178c1.219,1.228,2.498,2.39,3.799,3.529     c0.845,0.728,1.619,1.728,2.824,1.765c2.895,0.05,3.81-6.561,4.659-9.538c1.017-4.433,2.063-8.874,2.663-13.387     c0.423-3.291,0.452-6.617,0.415-9.931C237.656,317.277,237.968,315.228,237.271,313.419z M231.809,336.429     c-0.843,3.6-1.393,7.283-2.412,10.838c-2.049-1.867-4.054-3.783-5.993-5.765c-3.273-3.385-6.083-6.731-8.206-9.629     c-1.278-1.815-2.554-3.844-3.357-5.516c2.188,1.842,5.208,4.553,7.596,6.753c1.414,1.281,2.841,2.549,4.24,3.846     c0.419,0.421,0.89,0.872,1.527,0.845c0.871,0.029,1.49-0.698,1.57-1.472c0.069-0.127,0.129-0.263,0.168-0.417     c0.811-4.294,1.907-5.916,3.614-9.886c0.947-2.203,2.384-5.531,3.532-7.616C233.956,325.31,233.335,329.625,231.809,336.429z"/>
			<path d="M266.436,361.862c-0.051-0.513-0.131-1.019-0.375-1.48c-0.62-1.212-2.22-1.496-3.34-0.807     c-1.596,0.976-2.236,2.843-2.789,4.534c-1.159,4.075-2.417,8.127-3.248,12.287c-0.018,0.131-0.047,0.269-0.078,0.407     c-2.174-2.047-4.329-4.118-6.629-6.022c-1.276-0.893-2.461-2.146-3.993-2.549c-2.425-0.155-2.552,2.534-1.654,4.197     c2.052,4.143,5.191,7.653,8.034,11.268c2.08,2.522,4.181,5.028,6.249,7.561c1.117,1.309,2.605,3.685,4.476,2.053     c1.115-1.143,1.19-2.879,1.503-4.367c0.424-2.573,0.762-5.159,1.085-7.745c0.749-6.499,1.458-13.096,0.717-19.626     C266.421,361.69,266.467,362.207,266.436,361.862z M263.296,369.536c-0.034,0.686-0.085,1.372-0.122,2.058     c-0.462,6.208-1.099,11.48-1.863,16.677c-0.013,0.089-0.025,0.178-0.035,0.268c0.07-0.48,0.013-0.013-0.095,0.649     c-2.307-2.824-4.623-5.641-6.931-8.464c-1.254-1.527-3.104-3.884-4.607-6.012c0.9,0.788,1.843,1.661,3.024,2.712     c0.99,0.887,1.938,1.819,2.933,2.7c0.169,0.17,3.282,2.679,3.686,0.058c0.375-2.429,1.826-8.615,3.052-12.454     c0.4-1.409,0.701-2.57,1.034-3.474C263.442,365.858,263.395,367.88,263.296,369.536z"/>
			<path d="M290.126,319.235c-0.072-0.175,0.334-0.992,0.099-2.565c-0.291-1.262-1.78-1.98-2.963-1.484     c-1.454,0.528-2.458,1.808-3.19,3.117c-1.285,2.535-2.716,4.995-3.922,7.569c-0.824,1.828-1.547,3.709-2.16,5.258     c-3.003-3.914-7.779-10.612-11.097-13.178c0.64,0.498-0.091-0.088-0.364-0.283c-1.685-1.102-3.182,0.71-2.829,2.408     c0.628,4.051,2.976,7.615,4.586,11.333c3.222,6.277,6.79,12.429,10.887,18.175c4.22,3.051,5.987-5.233,6.781-7.994     c1.147-4.457,2.151-8.955,2.908-13.496C289.427,324.342,289.703,322.535,290.126,319.235z M286.627,321.302     c-0.632,4.084-1.529,8.12-2.437,12.15c-0.969,3.858-2.231,9.784-3.371,12.383c-4.156-6.446-8.208-12.985-11.443-19.951     c-0.443-0.968-0.855-1.806-1.214-2.574c0.443,0.486,0.908,1.02,1.392,1.594c2.03,2.308,2.886,3.353,4.511,5.561     c0.969,1.193,4.331,5.957,5.447,4.819c0.798-0.813,2.594-5.809,4.665-9.661c0.874-1.626,1.654-3.307,2.532-4.931     C286.673,320.955,286.642,321.168,286.627,321.302z"/>
			<path d="M334.918,305.8c-3.114,1.883-5.032,5.213-7.391,7.903c-1.906,2.327-3.626,4.8-5.116,7.409     c-0.168-1.84-0.379-3.676-0.674-5.501c-0.334-2.115-0.55-4.304-1.44-6.274c-0.988-2.316-3.557-2.981-4.909-0.573     c-0.912,2.153-1.094,4.55-1.47,6.841c-0.51,3.802-0.845,7.625-0.894,11.462c0.009,4.151,0.01,8.307,0.227,12.452     c0.203,2.212-0.155,6.698,3.237,6.025c1.478-0.507,2.33-1.885,3.235-3.067c1.648-2.239,3.151-4.578,4.696-6.888     c4.927-7.289,9.5-14.88,12.771-23.07c0.56-1.638,1.262-3.375,1.028-5.132C338.04,305.859,336.226,305.036,334.918,305.8z      M333.758,312.082c-1.856,4.21-3.941,8.319-6.224,12.313c-3.449,5.87-7.17,11.591-11.01,17.212     c-0.285-6.287-0.375-12.599-0.14-18.887c0.325-4.529,0.576-7.101,1.385-11.142c0.313,0.92,0.609,2.167,0.834,3.478     c0.651,3.799,1.372,11.208,1.438,11.487c0.321,1.348,2.337,1.564,2.923,0.301c1.951-3.663,3.991-7.298,6.579-10.555     c0.325-0.396,3.114-3.973,4.872-5.911C334.213,310.954,333.989,311.521,333.758,312.082z"/>
			<path d="M301.421,356.793c-2.324,1.899-3.906,4.577-5.461,7.107c-0.37,0.632-0.732,1.269-1.074,1.916     c-0.469-2.192-0.861-4.405-1.609-6.521c-0.496-1.302-0.98-2.782-2.207-3.574c-1.421-0.85-3.006,0.326-3.329,1.787     c-0.64,2.179-0.573,4.496-0.625,6.747c-0.034,3.637,0.231,7.271,0.765,10.869c0.528,3.374,0.857,6.873,2.271,10.018     c0.483,1.076,1.858,1.404,2.853,0.842c1.117-0.895,0.703-0.66,1.385-1.52c1.79-3,3.063-6.286,4.626-9.408     c1.628-3.606,7.52-14.49,5.869-17.898C304.174,355.951,302.443,356.041,301.421,356.793z M296.172,374.017     c-1.158,2.273-2.558,5.77-3.753,7.921c-1.556-6.389-2.38-15.376-1.912-20.973c0.384,1.118,0.762,2.452,1.029,3.704     c0.369,1.549,0.74,3.097,1.168,4.631c0.21,0.611,0.346,1.351,0.955,1.692c0.689,0.434,1.531,0.121,1.941-0.478     c0.308-0.097,4.126-7.105,6.123-9.698C300.408,365.614,298.469,369.056,296.172,374.017z"/>
			<path d="M383.552,165.262c-1.341-23.827-17.833-39.41-38.048-49.602c-19.996-10.618-43.201-10.906-63.272-0.305     c-7.134,3.769-20.843,15.174-20.963,15.276c-4.053-1.567-7.864-3.428-12.622-5.199c-4.707-1.592-9.566-2.676-14.459-3.52     c-10.955-1.715-22.222-2.131-33.194-0.34c-6.082,1.183-11.92,3.426-17.569,5.934c-11.616,5.238-21.673,13.327-30.123,22.795     c-10.874,11.631-18.877,25.73-20.69,41.742c-1.093,11.053-0.066,22.456,3.466,33.008c4.265,11.043,11.434,20.93,20.24,28.804     c9.942,8.684,22.265,14.018,34.393,18.908c12.119,4.696,24.266,9.329,36.46,13.831c9.536,3.321,19.208,6.232,28.757,9.516     c4.581,1.509,9.268,2.711,13.732,4.556c1.405,0.408,8.909,4.379,11.644,6.178c1.838,1.007,3.894,3.423,5.114,0.807     c0.006-0.022,0.003-0.039,0.008-0.061c0.231-0.132,0.43-0.318,0.563-0.55c9.121-14.947,24.431-24.432,38.867-35.239     c9.189-7.288,18.179-14.973,25.622-24.081c10.099-11.945,18.43-25.401,23.987-40.047     C381.079,194.316,384.531,179.813,383.552,165.262z M366.828,218.434c-2.872,5.439-6.08,10.697-9.518,15.796     c-6.282,8.903-12.624,16.706-21.315,24.454c-4.626,4.207-9.836,8.605-13.82,11.604c-8.573,6.405-17.449,12.466-25.216,19.868     c-4.636,4.482-9.184,9.367-12.311,15.014c-0.032-0.02-0.066-0.041-0.098-0.061c-1.643-1.073-3.32-2.092-5.024-3.064     c-6.055-3.552-12.611-6.074-19.348-7.997c-10.588-3.533-21.2-7.004-31.762-10.616c-11.776-4.329-23.482-8.85-35.195-13.344     c-11.854-4.68-24.657-10.244-34.043-18.207c-8.613-7.264-15.77-17.637-19.555-26.586c-3.909-10.74-4.773-20.539-4.011-32.133     c1.516-15.295,9.012-29.202,19.87-40.83c7.982-8.812,15.705-15.352,26.23-20.683c6.467-3.232,12.412-5.562,20.038-7.197     c7.906-1.399,18.81-1.328,28.07-0.223c5.222,0.697,13.008,2.134,19.152,4.452c3.441,1.301,5.094,2.113,8.58,3.63     c0.991,0.417,4.32,2.033,5.138,1.179c1.162-1.212,14.388-11.478,20.907-15.078c11.932-6.21,24.206-8.528,38.283-6.924     c7.143,0.89,17.182,4.431,24.348,8.515c19.984,10.842,33.357,25.49,33.874,47.947c0.258,13.444-2.703,25.615-8.103,38.65     C370.528,210.333,368.965,213.932,366.828,218.434z"/>
			<polygon points="276.257,222.456 276.253,222.461 276.261,222.451    "/>
			<g>
				<path d="M227.423,178.935c-2.936-0.933-6.012-1.364-9.056-1.786c-7.094-1.216-16.355-1.318-24.242-3.846      c-1.863-0.563-2.863-1.188-5.147-2.299c-1.192-0.347-2.197,0.97-1.723,2.074c1.009,2.133,2.371,4.131,3.962,5.875      c1.797,1.847,3.968,3.39,6.355,4.399c-1.411,1.935-2.809,4.093-3.95,6.573c-13.287,28.89,23.335,46.889,41.309,26.975      c3.326-3.608,8.423-16.064,2.472-29.062C235.567,183.575,231.722,180.5,227.423,178.935z"/>
				<path style="fill:none;" d="M212.714,191.15c0,2.928-2.374,5.302-5.302,5.302c-2.928,0-5.302-2.374-5.302-5.302      c0-2.928,2.374-5.302,5.302-5.302C210.34,185.848,212.714,188.221,212.714,191.15z"/>
			</g>
			<g>
				<path d="M342.384,173.106c-2.536-5.601-7.592-9.509-12.431-13.06c-0.209-0.197-0.404-0.339-0.619-0.501      c2.458-2.165,4.602-4.744,6.546-7.309c1.178-1.579,2.096-3.328,2.894-5.125c0.297-0.84,0.998-1.765,0.46-2.645      c-0.279-0.497-0.812-0.736-1.337-0.723c-0.386-0.118-0.823-0.053-1.161,0.301c-1.53,1.727-2.111,2.066-4.076,3.198      c-3.108,1.795-6.255,2.614-10.992,3.885c-3.705,1.133-7.313,2.667-10.658,4.626c-5.883,3.476-11.6,8.588-13.408,15.398      c-7.589,28.584,22.333,35.498,30.353,31.189c7.713-2.607,12.861-9.308,15.309-17.089c0.736-2.253,0.938-4.679,0.571-7.021      C343.813,177.626,343.271,174.861,342.384,173.106z"/>
				<path style="fill:none;" d="M317.735,171.308c0,2.928-2.374,5.302-5.302,5.302c-2.928,0-5.302-2.374-5.302-5.302      c0-2.928,2.374-5.302,5.302-5.302C315.361,166.006,317.735,168.38,317.735,171.308z"/>
			</g>
			<path d="M309.822,229.254c0.003-0.556-0.385-0.988-0.713-1.416c-0.449-0.852-1.166-1.575-1.742-2.338     c-2.389-2.714-5.008-5.289-8.017-7.313c-3.587-2.268-7.584-3.981-11.732-4.898c-1.986-0.415-4-0.662-6.027-0.74     c-2.222-0.185-4.144,0.186-5.271,2.31c-1.949,3.794-3.774,7.827-4.285,12.099c-0.114,1.69,0.117,3.456,0.869,4.986     c0.638,1.299,3.745,5.542,4.606,5.558c0,0,16.958,2.027,28.913-6.754c0.541,0.087,1.035,0.39,1.585,0.412     C309.02,231.233,309.984,230.276,309.822,229.254z M277.29,220.437c0.901-2.013,0.468-1.09,1.042-2.217     c0.373-0.675,0.777-1.337,1.267-1.935c-0.106,0.118-0.17,0.168,0.004-0.005c0.022-0.026,0.042-0.053,0.064-0.08     c0.001,0,0.003,0,0.004,0c-0.022,0.027-0.043,0.051-0.063,0.075c0.016-0.016,0.027-0.027,0.048-0.047     c0.014-0.011,0.021-0.017,0.034-0.027c5.888-0.162,13.946,2.122,19.918,7.007c1.255,1.118,2.473,2.276,3.654,3.471     c-0.966-0.12-1.935-0.223-2.901-0.319c-1.897-0.162-3.799-0.479-5.705-0.276c-3.849,0.226-7.414,1.883-10.848,3.513     c-1.769,0.889-3.046,2.438-4.612,3.608c-0.151,0.081-0.574,0.324-0.778,0.395c-0.128,0.065-0.397,0.185-0.664,0.303     C274.116,229.551,274.493,227.151,277.29,220.437z M281.641,234.987c1.37-0.982,2.715-1.923,2.871-1.936     c1.471-0.878,4.344-1.837,4.835-2.039c0.428-0.15,1.376-0.479,1.653-0.534c2.13-0.591,3.729-0.766,4.782-0.766     c1.721,0.072,3.886,0.212,5.862,0.391C296.233,231.522,286.94,233.908,281.641,234.987z"/>
		</g>
		<path d="M111.966,89.512c-0.577-0.145-1.11-0.007-1.61,0.288c-0.919,0.447-1.796,0.972-2.717,1.415    c-0.153,0.099-0.567,0.282-0.85,0.403c-10.56,3.871-20.582,4.105-30.768,1.542c-4.609-1.068-7.769-2.122-11.178-3.989    c-3.931-2.093-6.627-3.836-9.208-6.351c-6.588-6.516-9.694-15.666-9.594-25.269c0.322-8.006,1.151-13.569,4.27-22.061    c0.277-0.88,0.775-1.553,1.289-3.112c0.186-0.951-0.778-1.582-1.581-1.416c-0.288-0.062-0.596-0.026-0.875,0.153    c-8.978,5.105-15.259,13.762-19.987,22.75c-5.762,10.046-7.245,22.281-4.409,33.479c1.133,4.838,3.601,9.216,6.371,13.295    c2.136,3.246,4.791,6.105,7.747,8.616c3.797,3.26,7.995,6.06,12.62,8.005c6.519,2.821,13.706,3.791,20.77,3.696    c5.695-0.285,11.239-2.048,16.427-4.337c4.954-2.366,9.443-5.73,13.404-9.511C107.945,101.515,115.354,90.4,111.966,89.512z     M95.354,108.78c-2.308,1.685-4.659,3.35-7.229,4.615c-3.067,1.664-10.844,4.02-14.229,4.25    c-7.309,0.606-15.653-1.003-20.967-3.266c-7.415-3.16-14.085-8.598-18.119-13.958c-2.382-3.253-5.005-7.561-5.936-10.214    c-2.66-6.898-2.975-14.691-2.05-20.8c1.065-7.383,3.755-12.408,7.489-18.882C38,44.387,42.243,39.13,47.608,35.201    c-2.233,5.48-3.733,11.266-4.379,17.146c-1.18,9.65-0.083,17.589,4.641,26.259c4.076,7.093,10.828,11.831,18.153,15.155    c4.226,1.884,8.783,2.884,13.301,3.799c5.575,0.929,11.304,1.235,16.911,0.411c3.764-0.589,7.545-1.407,11.122-2.749    c-0.028,0.044-0.066,0.084-0.082,0.134c-0.251,0.785-2.458,3.936-4.346,6.231C100.535,104.522,97.535,107.23,95.354,108.78z"/>
		<path d="M75.058,203.466c-1.475-3.003-3.402-5.775-5.77-8.144c-0.235-0.202-0.452-0.421-0.659-0.639    c0.006-0.027,0.012-0.054,0.018-0.081c0.25-1.164,0.458-2.337,0.74-3.494c0.569-2.937,2.522-8.648,0.56-11.169    c-1.123-1.482-3.164-1.275-4.785-0.943c-2.078,0.395-4.123,0.948-6.136,1.598c-1.248,0.399-2.491,0.816-3.719,1.272    c-1.042-1.098-2.074-2.204-3.095-3.322c-1.95-1.957-6.162-7.517-9.101-6.814c-2.119,0.556-2.307,3.066-2.739,4.858    c-0.475,2.533-0.99,5.061-1.376,7.61c-0.222,1.416-0.413,2.838-0.59,4.26c-0.017,0.417-0.131,0.857-0.167,1.287    c-3.576,1.811-7.019,4.264-9.371,6.196c-1.043,0.943-2.458,1.72-2.948,3.101c-0.536,3.272,4.087,4.074,6.396,4.87    c1.764,0.52,3.531,1.025,5.302,1.522c0.218,0.059,0.453,0.121,0.692,0.168c0.508,4.372,1.381,8.7,2.483,12.96    c0.255,0.944,0.506,1.892,0.851,2.808c0.252,0.7,0.625,1.401,1.288,1.785c3.623,1.604,6.724-3.118,8.751-5.489    c1.84-2.312,3.5-4.763,4.908-7.362c0.073-0.149,0.152-0.294,0.229-0.437c1.821,0.647,9.462,1.246,12.369,1.308    c1.421,0.03,2.851,0.134,4.267-0.031c0.732-0.08,1.492-0.171,2.125-0.581C77.86,208.73,76.054,205.543,75.058,203.466z     M73.506,208.09c-0.09,0.013-0.145,0.021-0.185,0.028c-0.449,0.054-0.899,0.096-1.351,0.114c-2.618,0.078-5.239,0.013-7.858-0.003    c-2.897-0.068-2.106-0.173-6.675-0.795c-0.809-0.052-2.372-1.163-3.534,1.327c-0.724,1.231-1.42,2.478-2.208,3.67    c-2.089,3.058-4.459,6.324-6.676,7.967c-0.125,0.077-0.258,0.14-0.392,0.202c-0.078,0.024-0.156,0.044-0.222,0.06    c-0.37-0.824-1.259-4.393-1.682-6.274c-0.887-3.644-1.34-7.126-1.787-9.887c-0.148-1.223-1.23-1.784-2.112-1.998    c-0.871-0.24-1.742-0.482-2.611-0.729c-2.58-0.692-5.94-1.637-7.114-2.268c0.959-0.998,2.035-1.882,3.099-2.765    c1.138-0.919,3.12-2.341,5.181-3.528c0.879-0.518,1.759-1.037,2.666-1.504c0.414-0.24,0.961-0.331,1.241-0.746    c0.461-0.547,1.422-11.299,2.561-15.708c0.032-0.103,0.065-0.205,0.1-0.307c1.147,0.62,3.038,2.534,4.715,4.376    c1.53,1.677,3.059,3.355,4.625,4.997c0.529,0.48,0.931,1.177,1.6,1.462c1.109,0.554,8.07-3.527,11.123-4.014    c0.065-0.01,0.13-0.019,0.195-0.029c0.265-0.028,0.761-0.074,1.036-0.061c0.081,0.015,0.161,0.031,0.24,0.053    c0.009,0.01,0.02,0.019,0.029,0.029c0.521,0.825-0.164,4.62-0.995,7.86c-1.309,5.571-0.839,5.823-0.299,6.694    c0.722,0.876,1.701,1.956,2.416,2.839c1.226,1.362,3.395,4.939,4.623,7.783c0.079,0.224,0.26,0.74,0.338,1.082    c0.001,0.017,0.002,0.037,0.003,0.058C73.565,208.081,73.535,208.087,73.506,208.09z"/>
		<path d="M452.194,120.679c1.192-3.126,1.908-6.426,2.028-9.772c-0.012-0.31,0-0.618,0.019-0.918    c0.024-0.014,0.048-0.028,0.072-0.041c1.022-0.61,2.022-1.257,3.061-1.84c2.537-1.585,8.048-4.048,8.556-7.202    c0.319-1.831-1.223-3.184-2.571-4.144c-1.705-1.252-3.504-2.371-5.351-3.402c-1.143-0.641-2.294-1.267-3.465-1.854    c0.093-1.511,0.199-3.02,0.322-4.529c0.103-2.761,1.302-9.632-1.215-11.304c-1.851-1.172-3.816,0.401-5.422,1.306    c-2.178,1.379-4.378,2.724-6.507,4.179c-1.188,0.803-2.358,1.632-3.52,2.471c-0.316,0.272-0.717,0.488-1.056,0.755    c-3.763-1.383-7.903-2.231-10.921-2.636c-1.401-0.12-2.934-0.626-4.279-0.044c-2.76,1.837-0.196,5.767,0.794,8    c0.822,1.645,1.656,3.283,2.5,4.917c0.106,0.2,0.221,0.414,0.349,0.621c-2.853,3.352-5.426,6.94-7.792,10.649    c-0.517,0.83-1.039,1.66-1.475,2.537c-0.341,0.661-0.599,1.412-0.429,2.159c1.295,3.744,6.865,2.796,9.981,2.664    c2.946-0.23,5.871-0.684,8.733-1.425c0.159-0.048,0.318-0.089,0.476-0.13c0.767,1.773,5.536,7.774,7.472,9.944    c0.947,1.061,1.845,2.178,2.93,3.102c0.558,0.482,1.142,0.975,1.874,1.159C450.252,126.316,451.353,122.823,452.194,120.679z     M447.753,122.694c-0.071-0.057-0.115-0.092-0.146-0.116c-0.346-0.291-0.683-0.593-1.004-0.911    c-1.842-1.863-3.579-3.825-5.353-5.752c-1.924-2.167-1.309-1.659-3.967-5.427c-0.513-0.627-0.765-2.529-3.379-1.682    c-1.394,0.309-2.782,0.649-4.191,0.885c-3.661,0.555-7.667,1.046-10.38,0.544c-0.142-0.039-0.279-0.094-0.415-0.149    c-0.07-0.041-0.139-0.084-0.195-0.122c0.351-0.832,2.357-3.915,3.446-5.506c2.062-3.132,4.302-5.836,6.018-8.046    c0.795-0.942,0.467-2.116,0.022-2.907c-0.418-0.801-0.835-1.603-1.246-2.408c-1.252-2.36-2.85-5.463-3.188-6.751    c1.384,0.022,2.764,0.207,4.135,0.383c1.448,0.207,3.839,0.688,6.112,1.387c0.978,0.29,1.958,0.58,2.918,0.926    c0.458,0.14,0.897,0.478,1.392,0.399c0.714-0.035,9.238-6.659,13.241-8.831c0.097-0.047,0.194-0.092,0.293-0.136    c0.327,1.262,0.216,3.95,0.01,6.433c-0.184,2.262-0.371,4.524-0.505,6.79c0.01,0.714-0.227,1.483,0.02,2.168    c0.35,1.189,8.081,3.503,10.518,5.404c0.051,0.041,0.103,0.082,0.154,0.123c0.201,0.175,0.572,0.506,0.751,0.717    c0.044,0.069,0.087,0.139,0.125,0.212c-0.001,0.013,0,0.027-0.001,0.041c-0.249,0.944-3.493,3.029-6.431,4.628    c-4.969,2.839-4.833,3.354-5.103,4.343c-0.149,1.126-0.273,2.578-0.431,3.703c-0.161,1.825-1.301,5.851-2.545,8.687    c-0.11,0.211-0.364,0.695-0.562,0.985c-0.012,0.012-0.025,0.027-0.041,0.042C447.8,122.731,447.775,122.713,447.753,122.694z"/>
		<path d="M76.951,352.711c0.265-3.335,0.025-6.703-0.8-9.949c-0.099-0.294-0.174-0.593-0.24-0.886    c0.019-0.02,0.038-0.04,0.057-0.06c0.81-0.873,1.588-1.775,2.421-2.626c1.989-2.235,6.585-6.147,6.187-9.316    c-0.208-1.847-2.069-2.712-3.632-3.255c-1.988-0.722-4.029-1.291-6.091-1.761c-1.277-0.294-2.558-0.571-3.847-0.806    c-0.335-1.476-0.658-2.954-0.964-4.436c-0.677-2.678-1.458-9.61-4.343-10.507c-2.106-0.604-3.55,1.458-4.837,2.777    c-1.702,1.936-3.436,3.845-5.07,5.839c-0.914,1.104-1.804,2.229-2.683,3.361c-0.227,0.35-0.551,0.67-0.802,1.021    c-4-0.27-8.212,0.08-11.221,0.54c-1.378,0.278-2.991,0.223-4.119,1.16c-2.132,2.539,1.433,5.59,3.011,7.454    c1.251,1.348,2.512,2.685,3.781,4.016c0.158,0.162,0.328,0.335,0.509,0.498c-1.796,4.018-3.257,8.185-4.485,12.41    c-0.263,0.942-0.531,1.885-0.702,2.849c-0.141,0.73-0.178,1.523,0.195,2.192c2.295,3.23,7.374,0.754,10.327-0.249    c2.763-1.048,5.442-2.307,7.98-3.822c0.139-0.09,0.281-0.175,0.421-0.259c1.235,1.486,7.498,5.905,9.966,7.443    c1.207,0.752,2.382,1.572,3.684,2.153c0.67,0.305,1.37,0.615,2.124,0.586C76.671,358.668,76.746,355.006,76.951,352.711z     M73.255,355.894c-0.084-0.035-0.136-0.056-0.173-0.07c-0.414-0.183-0.822-0.377-1.22-0.592c-2.291-1.27-4.51-2.665-6.754-4.016    c-2.456-1.539-1.722-1.224-5.333-4.093c-0.668-0.458-1.445-2.212-3.716-0.664c-1.251,0.688-2.487,1.405-3.773,2.027    c-3.358,1.562-7.063,3.159-9.809,3.44c-0.147,0.003-0.294-0.012-0.44-0.027c-0.079-0.02-0.157-0.042-0.222-0.062    c0.103-0.897,1.162-4.42,1.759-6.253c1.098-3.586,2.488-6.81,3.514-9.413c0.498-1.127-0.146-2.162-0.795-2.796    c-0.626-0.652-1.252-1.304-1.873-1.96c-1.865-1.913-4.271-4.441-4.957-5.583c1.335-0.368,2.711-0.578,4.076-0.794    c1.448-0.208,3.878-0.419,6.256-0.387c1.02,0.004,2.042,0.007,3.061,0.069c0.479,0.005,0.996,0.206,1.448-0.008    c0.675-0.235,6.993-8.987,10.225-12.197c0.08-0.072,0.161-0.143,0.243-0.213c0.669,1.119,1.318,3.73,1.818,6.171    c0.459,2.223,0.916,4.446,1.424,6.658c0.21,0.683,0.199,1.487,0.629,2.074c0.67,1.043,8.74,1.09,11.613,2.23    c0.061,0.025,0.122,0.05,0.183,0.075c0.242,0.111,0.691,0.325,0.922,0.477c0.062,0.054,0.123,0.109,0.179,0.168    c0.003,0.013,0.008,0.026,0.01,0.039c0.026,0.976-2.501,3.888-4.871,6.249c-3.971,4.121-3.696,4.577-3.676,5.602    c0.173,1.123,0.463,2.55,0.627,3.674c0.358,1.797,0.396,5.98-0.001,9.053c-0.046,0.233-0.154,0.769-0.262,1.103    c-0.008,0.015-0.017,0.033-0.027,0.052C73.31,355.916,73.282,355.906,73.255,355.894z"/>
		<path d="M466.202,326.457c-1.01-3.189-2.5-6.219-4.486-8.916c-0.202-0.235-0.384-0.484-0.556-0.731    c0.01-0.026,0.02-0.052,0.03-0.077c0.422-1.113,0.803-2.242,1.254-3.344c1.001-2.819,3.787-8.173,2.224-10.96    c-0.889-1.633-2.938-1.734-4.59-1.648c-2.114,0.08-4.219,0.321-6.306,0.662c-1.294,0.208-2.585,0.434-3.867,0.702    c-0.866-1.241-1.721-2.49-2.563-3.747c-1.636-2.226-4.968-8.354-7.979-8.099c-2.178,0.233-2.74,2.687-3.435,4.394    c-0.849,2.434-1.736,4.856-2.499,7.318c-0.431,1.367-0.833,2.744-1.221,4.124c-0.079,0.41-0.258,0.828-0.358,1.248    c-3.807,1.255-7.578,3.166-10.192,4.725c-1.172,0.776-2.687,1.333-3.379,2.625c-1.019,3.155,3.432,4.639,5.596,5.772    c1.666,0.778,3.339,1.542,5.015,2.298c0.207,0.091,0.43,0.187,0.659,0.269c-0.151,4.399,0.064,8.809,0.517,13.186    c0.111,0.972,0.218,1.946,0.421,2.904c0.144,0.729,0.408,1.479,1.006,1.957c3.342,2.128,7.115-2.077,9.474-4.118    c2.165-2.011,4.173-4.186,5.954-6.545c0.094-0.136,0.194-0.268,0.292-0.398c1.703,0.912,9.169,2.648,12.034,3.144    c1.401,0.242,2.799,0.559,4.224,0.608c0.736,0.031,1.501,0.054,2.188-0.257C468.185,332.08,466.876,328.659,466.202,326.457z     M463.976,330.797c-0.091-0.001-0.147,0-0.187,0c-0.452-0.013-0.904-0.04-1.353-0.089c-2.601-0.314-5.182-0.771-7.769-1.178    c-2.854-0.501-2.056-0.486-6.481-1.784c-0.792-0.173-2.171-1.505-3.693,0.783c-0.9,1.108-1.775,2.238-2.732,3.298    c-2.523,2.711-5.355,5.586-7.793,6.879c-0.135,0.058-0.276,0.1-0.418,0.141c-0.081,0.012-0.161,0.02-0.229,0.026    c-0.242-0.87-0.588-4.532-0.724-6.455c-0.332-3.735-0.259-7.246-0.288-10.043c0.037-1.232-0.95-1.948-1.789-2.291    c-0.825-0.368-1.651-0.737-2.473-1.111c-2.448-1.07-5.629-2.507-6.694-3.306c1.098-0.843,2.293-1.556,3.477-2.27    c1.263-0.738,3.435-1.848,5.65-2.713c0.947-0.381,1.894-0.762,2.861-1.089c0.445-0.175,1-0.184,1.339-0.552    c0.537-0.471,3.096-10.959,4.882-15.149c0.047-0.097,0.095-0.193,0.145-0.288c1.041,0.785,2.625,2.96,4.007,5.032    c1.262,1.887,2.522,3.774,3.826,5.633c0.451,0.553,0.744,1.303,1.363,1.685c1.013,0.714,8.507-2.28,11.598-2.306    c0.066,0,0.132,0,0.197,0c0.266,0.012,0.763,0.041,1.034,0.095c0.078,0.027,0.155,0.055,0.229,0.088    c0.007,0.011,0.017,0.021,0.024,0.033c0.391,0.894-0.853,4.544-2.16,7.623c-2.127,5.313-1.701,5.632-1.297,6.574    c0.583,0.975,1.389,2.188,1.964,3.168c1.008,1.53,2.618,5.391,3.407,8.387c0.045,0.234,0.147,0.771,0.173,1.121    c-0.001,0.017-0.003,0.037-0.006,0.058C464.035,330.796,464.005,330.797,463.976,330.797z"/>
		<path d="M153.98,457.737c0.449-3.315,0.395-6.691-0.249-9.978c-0.083-0.299-0.141-0.602-0.191-0.898    c0.02-0.019,0.04-0.038,0.06-0.057c0.857-0.827,1.683-1.684,2.562-2.488c2.11-2.121,6.915-5.773,6.693-8.96    c-0.106-1.856-1.916-2.822-3.447-3.451c-1.945-0.831-3.952-1.512-5.984-2.095c-1.258-0.364-2.522-0.711-3.796-1.017    c-0.253-1.492-0.493-2.986-0.717-4.483c-0.528-2.712-0.924-9.676-3.755-10.731c-2.069-0.72-3.625,1.259-4.983,2.506    c-1.807,1.839-3.644,3.649-5.385,5.55c-0.974,1.052-1.925,2.125-2.865,3.207c-0.246,0.337-0.587,0.638-0.857,0.975    c-3.979-0.491-8.204-0.374-11.234-0.081c-1.391,0.201-2.999,0.058-4.177,0.93c-2.269,2.417,1.122,5.661,2.594,7.609    c1.174,1.415,2.36,2.82,3.553,4.219c0.148,0.171,0.309,0.353,0.481,0.525c-2.016,3.913-3.704,7.993-5.164,12.143    c-0.315,0.926-0.634,1.853-0.859,2.806c-0.181,0.721-0.262,1.511,0.074,2.2c2.113,3.352,7.321,1.161,10.325,0.323    c2.816-0.894,5.562-2.003,8.18-3.375c0.143-0.082,0.29-0.159,0.434-0.235c1.151,1.552,7.16,6.31,9.539,7.983    c1.163,0.818,2.292,1.701,3.559,2.354c0.653,0.342,1.334,0.69,2.088,0.702C153.371,463.668,153.648,460.016,153.98,457.737z     M150.113,460.71c-0.082-0.039-0.133-0.063-0.169-0.08c-0.403-0.205-0.8-0.422-1.186-0.659c-2.217-1.395-4.356-2.91-6.521-4.383    c-2.367-1.672-1.652-1.318-5.098-4.382c-0.642-0.494-1.32-2.288-3.674-0.869c-1.287,0.618-2.561,1.265-3.879,1.815    c-3.439,1.374-7.227,2.764-9.984,2.892c-0.147-0.005-0.293-0.028-0.438-0.051c-0.078-0.024-0.154-0.051-0.218-0.074    c0.152-0.89,1.404-4.349,2.102-6.146c1.295-3.52,2.861-6.662,4.029-9.204c0.559-1.098-0.027-2.167-0.64-2.836    c-0.589-0.685-1.178-1.371-1.762-2.061c-1.756-2.013-4.019-4.671-4.641-5.849c1.353-0.294,2.738-0.427,4.114-0.568    c1.457-0.128,3.895-0.203,6.268-0.04c1.019,0.06,2.038,0.12,3.052,0.238c0.478,0.032,0.983,0.261,1.446,0.072    c0.687-0.197,7.48-8.587,10.884-11.612c0.084-0.068,0.168-0.134,0.254-0.199c0.606,1.154,1.109,3.798,1.474,6.262    c0.335,2.245,0.669,4.49,1.053,6.727c0.172,0.693,0.116,1.496,0.513,2.106c0.611,1.078,8.666,1.572,11.472,2.869    c0.059,0.028,0.119,0.056,0.178,0.085c0.236,0.125,0.673,0.363,0.894,0.527c0.059,0.057,0.117,0.116,0.17,0.178    c0.002,0.013,0.006,0.026,0.008,0.04c-0.028,0.976-2.712,3.744-5.209,5.97c-4.193,3.895-3.943,4.366-3.981,5.39    c0.111,1.13,0.321,2.572,0.423,3.704c0.258,1.814,0.065,5.993-0.502,9.039c-0.059,0.23-0.197,0.759-0.323,1.087    c-0.009,0.015-0.019,0.032-0.03,0.05C150.167,460.735,150.139,460.723,150.113,460.71z"/>
	</g>
</g>
</svg>
