<?xml version="1.0" encoding="utf-8"?>
<!-- Generator: Adobe Illustrator 27.5.0, SVG Export Plug-In . SVG Version: 6.00 Build 0)  -->
<svg xmlns="http://www.w3.org/2000/svg" xmlns:xlink="http://www.w3.org/1999/xlink" version="1.1" x="0px" y="0px" viewBox="0 0 500 500" style="background-color:transparent;" xml:space="preserve">
<g id="BACKGROUND">
	<rect style="fill:none;" width="500" height="500" fill="none"/>
</g>
<g id="OBJECTS">
	<g>
		<g>
			<path d="M158.15,240.983c0.014,0.03,0.054,0.087,0.122,0.16c-0.011-0.019-0.019-0.031-0.028-0.047     C158.212,241.058,158.18,241.021,158.15,240.983z"/>
			<path d="M370.268,368.607c0.004-0.013,0.007-0.023,0.011-0.035c-0.011,0.028-0.028,0.07-0.051,0.13     C370.243,368.666,370.257,368.634,370.268,368.607z"/>
			<path d="M427,200.787c-7.785-11.599-21.385-16.947-35.071-15.188c-1.886,0.216-3.755,0.559-5.599,1.007     c-0.018-0.232-0.07-0.464-0.143-0.677c-1.866-4.224-5.176-7.707-8.688-10.633c-1.416-1.135-2.94-2.125-4.547-2.968     c-0.255-0.12-0.512-0.27-0.776-0.398c0.575-3.588,0.986-7.204,1.22-10.835c0.79-10.66,0.443-21.492-2.388-31.851     c-1.593-5.867-3.797-11.549-6.641-16.924c-2.916-6.071-6.543-11.783-10.837-16.974c-4.507-5.373-10.004-9.871-15.714-13.909     c-4.051-2.904-8.27-5.557-12.656-7.926c-1.672-0.903-6.212-3.305-7.648-3.628c0.298-4.117,0.423-7.934-0.801-11.91     c-3.435-10.576-13.639-15.483-24.127-16.18c-5.112-0.418-10.452,0.131-15.025,2.592c-2.774,1.462-5.431,3.536-6.893,6.364     c-2.532,5.397-0.383,10.359,3.443,14.176c-0.539-0.022-1.078-0.043-1.617-0.063c-11.233-0.4-22.529,1.109-33.365,4.054     c-4.77,1.355-9.413,3.102-14.062,4.817c-3.913,1.483-7.852,2.951-11.53,4.966c-1.077,0.608-2.142,1.246-3.138,1.982     c-0.096,0.072-0.197,0.142-0.296,0.214c-2.353-5.134-5.299-14.867-8.543-21.756c-3.415-6.453-11.694-7.515-18.243-6.388     c-4.297,0.626-8.597,1.575-12.605,3.278c-6.818,2.765-11.526,7.975-14.769,14.467c-1.105,2.487-1.714,5.393-1.026,8.072     c1.184,3.87,4.4,7.031,8.171,8.42c5.347,1.787,11.24,0.888,16.6-0.423c5.467-1.741,12.229-4.508,17.094-7.413     c1.383,2.607,3.093,5.002,4.815,7.39c-0.21,0.189-1.046,0.816-1.26,1.033c-7.224,6.542-13.563,14.018-19.517,21.715     c-4.765,5.658-8.577,12.002-12.127,18.471c-3.806,6.836-6.32,14.292-8.358,21.822c-1.109,4.512-1.924,9.107-2.41,13.733     c-0.994-3.202-2.161-6.416-3.343-9.11c-1.872-4.483-3.64-9.052-6.254-13.168c-4.446-6.863-10.066-12.866-15.745-18.715     c-2.367-2.16-3.156-2.839-5.93-4.497c-1.72-0.997-3.607-1.801-5.626-1.791c-6.418-0.499-8.617,12.464-9.699,17.225     c-1.245,7.951-2.554,15.975-2.357,24.047c0.757,15.071,4.242,30.461,12.627,43.193c6.929,10.376,17.335,17.655,26.653,25.716     c2.696,2.462,5.183,4.93,7.103,7.421c-2.565-2.67-5.26-5.22-8.107-7.586c-5.492-4.346-11.97-7.202-18.438-9.769     c-13.372-4.881-27.265-8.813-41.514-9.849c-8.589-0.477-17.458-0.216-25.615,2.767c-8.271,2.78-18.043,8.818-17.792,18.638     c0.036,3.74,1.937,7.172,4.211,10.036c4.265,5.436,10.767,8.353,16.425,12.076c5.929,3.767,12.046,7.505,18.981,9.052     c13.565,2.941,27.667,2.077,41.156-1.071c-0.888,0.333-1.777,0.666-2.666,0.998c-12.919,5.054-25.917,10.55-37.049,18.967     c-11.87,8.612-20.651,20.542-29.135,32.329c-5.621,8.029-14.156,20.558-2.139,27.216c11.73,5.335,27.733,3.002,40.061,0.697     c8.964-1.68,18.013-3.576,26.325-7.441c4.746-2.263,9.035-5.32,13.069-8.671c3.615-2.85,6.624-6.338,9.434-9.962     c7.244-8.571,12.934-18.282,18.264-28.119c2.518-4.412,4.596-10.244,6.097-13.636c0.983-2.206,1.913-4.434,2.842-6.663     c-0.01,0.245-0.015,0.491-0.028,0.736c-0.34,5.834-0.877,9.254-1.78,14.596c-1.044,5.519-2.763,10.877-4.017,16.348     c-2.123,8.729-3.797,17.598-3.843,26.612c-0.015,5.077-0.241,10.19,0.614,15.218c0.655,3.98,2.017,7.811,3.485,11.556     c1.257,3.115,2.922,6.06,4.889,8.782c1.309,1.778,2.731,3.685,4.911,4.406c3.91,1.445,7.722-1.258,10.591-3.683     c5.146-4.592,8.11-10.932,10.703-17.194c0.847-1.948,1.562-3.949,2.25-5.957c0.798,0.745,1.909,1.215,3.428,1.012     c1.604-0.051,3.212-0.313,4.677-0.95c-3.037,3.477-6.121,6.915-8.988,10.532c-4.007,5.626-7.939,11.363-11.103,17.513     c-1.938,3.985-3.294,8.22-4.71,12.411c-4.015,12.647-4.677,26.303-2.284,39.335c1.035,5.563,3.099,10.888,5.366,16.053     c2.831,6.209,5.665,12.482,9.573,18.103c0.273,0.378,0.549,0.753,0.821,1.131c0.074,0.159,0.297,0.437,0.431,0.593     c0.268,0.384,0.508,0.826,0.971,0.985c0.785,0.359,1.722-0.19,1.909-1.014c0.814-3.438,0.637-6.491,1.201-9.097     c1.577-9.109,5.37-15.743,10.544-23.548c4.722-7.345,9.836-14.508,14.688-20.378c3.162-3.901,6.62-7.584,9.637-11.599     c3.099,2.348,6.565,4.176,10.029,5.927c1.383,0.699,8,3.5,8.134,3.49c2.299,0.807,4.644,1.485,7.018,2.039     c0.475,2.034,0.655,4.121,1.03,6.173c0.701,3.864,1.207,6.109,1.489,9.438c0.401,4.857,0.419,7.975-1.013,12.23     c-0.958,3.027-3.627,7.632-5.622,9.86c-2.319,2.647-5.122,4.819-7.538,7.375c-3.149,3.055-6.168,6.853-6.051,11.468     c-0.576,5.51,4.848,9.494,9.912,7.163c4.394-1.701,7.621-5.262,10.521-8.841c5.203-6.341,9.546-13.641,11.71-21.592     c0.927-4.068,0.607-8.314-0.625-12.283c-1.104-3.869-2.41-7.682-3.754-11.474c-0.89-2.799-2.317-6.065-3.039-7.754     c-0.072-0.178-0.137-0.359-0.205-0.539c1.888,0.245,3.786,0.421,5.688,0.51c23.734,1.255,48.028-6.374,68.317-18.757     c1.496,1.411,3.581,3.275,3.889,3.85c2.447,3.543,3.54,5.766,4.226,9.627c0.358,1.956,0.701,5.022,0.684,9.014     c0.085,9.331-3.278,18.397-3.677,28.591c-0.174,3.568,0.875,7.15,3.168,9.916c4.983,6.23,12.092,0.995,14.888-4.547     c4.774-9.047,5.033-19.801,3.974-29.774c-0.103-1.065-0.88-6.192-2.177-9.593c-1.369-3.546-3.188-6.971-5.631-9.897     c-2.018-2.491-4.628-4.38-6.813-6.707c-1.515-1.595-3.142-3.095-4.514-4.818c-0.161-0.216-0.309-0.444-0.452-0.676     c3.996-2.906,7.844-6.039,11.177-9.693c0.523-0.609,0.837-0.924,1.058-1.168c1.047,1.257,2.102,2.508,3.212,3.711     c1.549,1.586,3.109,3.371,5.227,4.175c5.001,1.408,6.294-4.92,6.561-8.6c0.064-1.711,0.023-3.465-0.51-5.107     c-0.492-1.386-1.378-2.576-2.2-3.779c-0.575-0.816-1.134-1.645-1.708-2.464c0.267-0.123,0.506-0.307,0.688-0.555     c0.182-0.176,0.364-0.351,0.547-0.526c1.204-0.976,2.314-2.061,3.295-3.263c5.11-6.379,11.439-14.057,16.043-22.324     c2.567-4.598,4.349-9.578,6.223-14.485c2.672-6.927,4.468-14.136,5.662-21.453c0.341,0.041,0.703-0.02,1.057-0.236     c0.046-0.028,0.081-0.051,0.118-0.075c1.505-0.615,2.902-1.469,4.383-2.139c1.229-0.46,5.478-2.877,7.674-4.695     c6.605-4.454,12.039-10.484,16.031-17.364c3.151-5.992,5.44-12.482,5.908-19.271C438.803,231.957,435.455,212.568,427,200.787z      M371.596,175.276c4.614,2.608,7.691,6.053,10.412,10.044c0.36,0.606,0.747,1.198,1.061,1.83     c0.008,0.023,0.017,0.045,0.023,0.068c0.02,0.059,0.037,0.106,0.052,0.148c0.013,0.037,0.026,0.075,0.042,0.111     c0.001,0.002,0.002,0.005,0.003,0.007c-4.037,1.267-7.928,3.029-11.576,5.135c-2.488,1.609-4.75,3.518-6.958,5.491     C367.785,190.774,370.1,183.108,371.596,175.276z M273.332,58.97c-1.376-2.987-1.186-6.644,1.834-9.354     c4.573-4.188,11.288-5.564,18.762-4.561c-0.784-0.136,3.165,0.507,3.97,0.713c1.678,0.379,3.317,0.925,4.911,1.568     c2.468,1.114,7.314,4.536,8.787,7.292c2.841,4.407,3.149,8.022,2.882,13.688c-0.746,10.697-1.341,21.403-1.925,32.111     c-0.146,2.64-0.152,5.286-0.054,7.93c-1.684-6.476-3.284-13.438-4.891-19.565c-1.491-5.073-2.148-10.449-3.967-15.41     c0.894-0.108,1.9-0.397,1.969-1.441c0.215-1.054-0.924-2.017-1.937-1.703c-0.267,0.037-0.02,0.006,0.133-0.014     c-0.693,0.112-1.198,0.145-2.701,0.243c-2.579,0.129-5.167-0.028-7.733-0.289c-4.155-0.501-8.806-1.549-12.956-4.109     C277.551,64.18,274.921,62.119,273.332,58.97z M199.379,77.45c0.271-0.198,0.537-0.396,0.784-0.594     c0.799-0.911,0.015-2.444-1.179-2.41c-0.377-0.01-0.708,0.155-1.008,0.367c-0.762,0.481-1.539,0.939-2.303,1.418     c-2.874,1.77-5.954,3.176-9.045,4.521c-1.28,0.553-6.94,2.848-9.84,3.396c-4.608,0.826-8.645,1.389-12.904-0.05     c-2.355-0.844-5.636-3.69-6.212-6.805c-0.34-0.58,0.253-4.297,0.896-5.339c3.469-6.461,6.728-10.175,13.546-13.124     c2.042-1.013,10.008-2.882,12.458-3.009c6.927-0.837,12.572,0.39,15.103,6.136c2.564,5.644,5.284,14.221,8.352,21.023     c1.429,3.335,3.427,6.381,4.992,9.649c1.62,3.352,2.984,6.835,4.927,10.022c1.151,1.739,2.158,3.518,3.124,5.304     c-1.822-2.381-3.475-4.706-5.574-7.74c-3.279-4.274-5.54-7.011-8.66-11.685C204.334,84.843,201.467,81.401,199.379,77.45z      M162.167,156.755c1.447-8.274,4.027-16.542,7.05-23.183c3.072-6.251,6.492-12.386,10.511-18.081     c4.518-5.985,9.138-11.93,14.962-18.383c1.661-1.91,3.404-3.746,5.228-5.501c1.145-1.103,2.965-3.001,3.109-3.063     c3.612,5.359,6.622,9.366,8.988,12.379c2.988,4.337,6.034,8.626,9.534,12.573c1.245,1.566,2.4,3.243,4.141,4.304     c0.768,0.685,2.074,0.306,2.334-0.7c0.047-0.141,0.06-0.276,0.055-0.407c0.317-0.401,0.422-0.968,0.114-1.457     c-1.834-2.544-3.057-5.463-4.564-8.202c-1.397-2.62-3.075-5.078-4.478-7.695c-1.548-2.957-2.764-6.071-4.256-9.055     c-1.165-2.304-2.487-4.528-3.625-6.845c0.05-0.023,0.101-0.046,0.15-0.077c5.507-3.864,10.327-5.149,16.633-7.531     c12.786-4.918,25.103-7.444,38.048-7.942c3.233-0.062,6.467-0.001,9.695,0.177c0.586,0.019,1.977,0.158,2.356,0.193     c0.058,0.013,0.115,0.027,0.174,0.036c2.169,1.405,4.492,2.507,6.656,3.224c4.794,1.566,9.871,2.121,14.897,2.167     c0.234-0.003,0.468-0.024,0.702-0.034c1.695,4.847,2.452,9.949,3.776,14.898c1.361,5.072,2.486,10.2,3.721,15.301     c1.482,5.831,4.211,14.769,5.577,18.052c0.968,1.487,2.686,0.447,2.637-0.742c0.01-0.133,0.005-0.267-0.036-0.4     c-1.479-8.086-1.168-18.094-0.364-27.261c0.724-8.254,1.326-19.352,1.351-19.703c1.843,0.488,5.256,2.266,7.694,3.67     c9.372,5.396,16.4,10.412,23.826,17.898c5.588,5.979,9.989,13.486,13.931,21.813c4.996,10.388,7.728,23.502,7.213,36.131     c-0.021,13.244-3.037,28.717-7.436,39.79c-1.748,4.404-4.069,9.143-6.569,13.551c-0.5-2.171-1.421-4.296-2.969-6.732     c-5.068-7.845-13.986-13.32-23.361-13.819c-5.068-0.292-10.253,0.674-14.916,2.669c-4.074,1.794-7.533,4.813-10.144,8.395     c-6.879,9.316-7.494,21.85-4.147,32.646c1.48,4.752,3.442,9.743,7.383,12.99c0.993,0.773,2.075,1.486,3.228,2.02     c-1.188,0.519-2.346,1.01-3.453,1.466c-5.434,2.233-10.917,4.355-16.597,5.882c-5.991,1.614-13.788,2.797-18.204,3.321     c-11.422,1.551-24.761,2.227-34.465,0.57c-9.232-1.22-18.406-3.235-26.984-6.931c-6.336-2.63-13.206-6.908-19.501-12.005     c0.839-0.482,1.653-1.007,2.404-1.619c2.295-1.789,4.202-4.032,5.82-6.441c4.467-6.62,6.264-14.91,4.542-22.742     c-1.655-7.32-6.243-14.334-13.041-17.78c-5.808-2.946-12.634-2.624-18.441,0.159c-3.608,1.567-7.026,4.213-8.78,7.758     C160.296,183.088,159.84,169.631,162.167,156.755z M365.628,302.785c-1.681,4.66-4.417,9.776-7.297,14.975     c-2.398,4.275-4.653,8.653-7.637,12.56c-0.906,1.237-1.733,2.531-2.667,3.748c-0.15,0.202,0.102-0.131,0.155-0.197     c-0.121,0.153-0.238,0.309-0.355,0.465c-1.298-0.768-2.614-1.492-3.929-2.137c-5.778-2.535-11.757-4.596-17.684-6.753     c-0.411-0.153-0.897-0.336-1.429-0.54c0.013-0.367-0.021-0.745,0.012-1.104c0.045-2.169,0.007-4.34-0.021-6.509     c-0.056-3.127-0.051-6.266,0.195-9.385c0.371-3.985,0.948-7.954,0.967-11.964c0.003-0.956,0-1.862-0.012-2.734     c0.483,0.133,1.024,0.044,1.442-0.393c5.003-4.259,9.71-8.963,13.623-14.256c3.381-4.387,6.194-9.153,8.88-13.986     c0.102-0.2,0.4-0.691,0.62-1.057c0.145,0.156,0.284,0.318,0.431,0.473c2.871,2.923,8.108,8.161,9.616,10.196     c3.457,4.286,7.234,11.204,9.423,17.181C369.123,295.643,367.256,298.37,365.628,302.785z M371.428,296.331     c1.018,4.507,1.221,8.16,1.448,13.454c0.097,9.714-0.905,17.173-2.988,26.384c-0.866,4.226-2.185,8.693-3.563,12.068     c-2.247-2.185-4.654-4.207-7.166-6.078c-2.474-1.88-5.613-4.217-8.991-6.379c0.009-0.015,0.022-0.026,0.031-0.042     c0.399-0.448,1.966-2.496,2.167-2.762c4.619-5.546,9.439-14.804,13.256-22.379c1.46-2.977,2.56-6.106,3.725-9.205     C369.767,300.322,370.679,298.359,371.428,296.331z M347.708,261.748c-3.878,7.168-8.279,14.26-12.972,19.546     c-2.486,2.769-5.18,5.344-7.864,7.918c-0.291,0.339-0.676,0.604-1.041,0.883c-0.084-1.637-0.227-3.165-0.467-4.653     c-0.159-0.906-0.312-1.781-0.537-2.599c4.612-2.681,8.963-5.824,12.616-9.731c3.652-3.633,6.96-8.042,8.655-12.944     c0.119-0.389,0.227-0.782,0.328-1.178c0.575,0.637,1.141,1.283,1.709,1.926C347.855,261.288,347.904,261.495,347.708,261.748z      M343.694,253.589c-0.152,2.646-0.162,3.095-0.919,5.81c-0.575,2.104-2.271,4.805-4.088,7.523     c-1.796,2.426-6.17,7.151-9.73,9.814c-0.3,0.225-2.961,2.134-4.364,2.989c-0.282,0.222-0.626,0.396-0.953,0.587     c-0.58-0.75-1.379-1.378-2.536-1.835c-4.226-1.373-7.331,2.316-9.402,6.388c-0.1-0.022-0.204-0.037-0.316-0.036     c-0.951,0.085-1.671,0.884-2.557,1.197c-3.757,1.552-11.153,4.161-16.56,4.947c-4.88,1.024-10.313,1.257-16.234,1.763     c-6.547,0.099-11.811,0.246-17.488-1.512c-0.54-0.204-1.126-0.496-1.686-0.33c-1.103-0.946-2.178-1.923-3.175-2.988     c-1.98-1.994-3.966-3.982-5.917-6.005c-0.576-0.578-1.147-1.177-1.734-1.758c2.797,0.312,5.602,0.565,8.401,0.824     c3.646,0.347,7.276,0.907,10.947,0.901c11.449,0.211,22.871-1.222,34.085-3.452c4.014-0.872,8.057-1.612,12.057-2.549     c3.337-0.938,9.222-2.101,9.957-6.078c0.399-2.534-1.452-4.679-2.846-6.596c-3.51-4.669-8.438-8.133-13.669-10.636     c-0.264-0.081-0.602-0.228-0.982-0.404c1.711-0.662,3.413-1.346,5.109-2.044c7.743-3.166,15.315-6.836,22.337-11.38     c2.569,0.762,2.884,0.777,5.047,2.06c4.365,2.909,5.657,3.543,6.772,8.288C343.757,251.282,343.739,251.22,343.694,253.589z      M321.474,323.622c-3.091-1.208-6.228-2.449-6.407-2.489c-1.835-0.932-5.003-2.071-6.889-2.688     c0.529-3.199,0.577-6.453,0.858-9.679c0.466-5.134,0.915-8.824,2.471-14.217c1.441-5.347,3.866-10.948,6.9-13.112     c0.884-0.56,2.248-0.244,2.831,0.81c0.902,1.807,1.237,6.4,1.208,10.427c0.132,5.441-0.689,10.83-1.115,16.241     C321.039,313.818,321.459,318.718,321.474,323.622z M268.456,316.045c-1.215-2.431-2.261-4.586-2.37-6.791     c0.411-0.179,2.352-0.962,3.727-1.112c1.781-0.206,5.324-0.168,7.738,0.521c3.625,0.877,9.803,2.85,11.987,3.803     c4.298,1.92,8.38,4.285,12.449,6.642c3.75,2.281,7.677,4.287,11.273,6.816c-0.436-0.314-0.104-0.097,0.107,0.084     c0.868,0.743,7.717,5.954,6.418,8.213c-0.075,0.156-0.237,0.488-0.36,0.667c-0.076,0.079-0.146,0.164-0.225,0.239     c-0.09,0.084-0.57,0.68-3.124,0.938c-4.195,0.424-11.786-0.151-14.3-0.483c-5.361-0.819-10.776-1.736-15.849-3.713     C279.208,328.835,272.077,323.733,268.456,316.045z M273.301,327.237c-1.129,0.498-2.35,1.013-3.829,1.473     c-4.204,1.268-8.491,2.24-12.853,2.768c-1.276,0.176-1.234,0.195-2.482,0.301c0.237-1.053,0.476-2.105,0.719-3.156     c0.957-4.704,1.094-9.027,3.732-11.232c0.47-0.344,0.98-0.627,1.482-0.919c1.413-0.839,2.856-1.628,4.259-2.484     c0.226,0.57,0.47,1.134,0.724,1.69C266.957,320.097,269.806,324.002,273.301,327.237z M304.306,309.384     c-1.403,1.274-2.148,1.839-4.222,3.063c-0.687,0.477-1.624,0.661-2.301,1.139c-4.673-2.336-10.075-4.913-13.65-5.952     c-2.48-0.779-5.077-1.538-7.698-1.998c-0.282-0.651-4.836-3.388-5.592-3.866c-3.446-2.179-5.633-3.995-8.823-6.587     c2.794,0.55,5.672,0.738,8.502,0.758c3.743,0.27,7.446-0.201,11.169-0.486c7.532-0.574,14.392-1.691,22.201-4.43     c2.073-0.787,4.212-1.472,6.2-2.456c-0.332,0.887-0.612,1.721-0.839,2.442c-1.798,5.479-2.794,11.169-3.248,16.909     C305.39,308.252,304.801,308.915,304.306,309.384z M305.739,311.972c-0.129,1.945-0.269,3.728-0.439,5.388     c-1.075-0.515-2.556-1.267-4.263-2.133c1.665-0.884,3.202-1.999,4.653-3.208C305.706,312.003,305.723,311.987,305.739,311.972z      M231.332,274.28c-0.379-0.114-0.797-0.067-1.19-0.105c-1.099-0.052-2.193-0.14-3.281-0.302c-1.612-0.267-5.332-0.666-8.019-1.32     c-3.955-1.104-5.991-1.978-9.457-3.826c-4.718-2.576-9.36-5.306-13.777-8.374c-0.501-0.274-0.975-0.75-1.507-0.991     c-4.68-5.092-10.936-8.637-17.583-10.527c0.186-2.12,2.268-5.485,4.185-7.396c2.501-2.518,3.718-3.328,5.93-3.711     c2.109,1.824,4.292,3.565,6.512,5.249c0.723,0.556,1.457,1.096,2.198,1.628c-3.563-0.235-7.153-0.019-10.718-0.248     c-1.574,0.024-1.583,2.377,0,2.408c3.556,0.259,7.128,0.139,10.684,0.382c2.058,0.141,3.176,0.383,4.753,0.59     c3.062,1.878,6.251,3.544,9.573,4.935c11.666,5.15,24.427,7.287,37.071,8.281c8.272,0.492,16.53-0.278,24.745-1.224     c0.122,0.097,0.26,0.176,0.419,0.216c9.068,1.347,16.827,4.976,24.515,8.264c-0.231-0.09,0.17,0.128,0.401,0.12     c1.403,0.255,2.099-1.775,0.853-2.467c-5.776-2.764-11.783-5.061-17.941-6.815c-0.339-0.089-0.679-0.178-1.019-0.267     c4.496-0.673,8.971-1.483,13.371-2.637c2.598-0.695,5.156-1.517,7.688-2.413c2.508,1.18,5.011,2.372,7.367,3.842     c2.591,1.678,3.33,2.184,5.666,4.286c2.261,2.075,4.707,5.383,5.184,6.286c0.575,1.527,0.172,1.434-0.611,2.151     c-3.813,2.351-10.332,3.37-15.836,4.642c-10.133,2.179-18.41,3.448-28.583,3.919c-9.456,0.694-18.883-0.693-28.284-1.554     c-3.209-0.256-4.753-0.669-7.777-1.07C235.52,274.223,233.538,273.796,231.332,274.28z M242.796,301.858     c-2.155,0.377-4.229,1.126-6.251,1.958c-1.324,0.529-2.651,1.061-3.901,1.746c0.228-0.396,0.459-0.789,0.682-1.188     c1.161-2.187,2.282-4.468,3.228-6.809C238.578,299.078,240.668,300.497,242.796,301.858z M216.461,281.006     c-4.555-3.234-9.565-5.746-14.404-8.515c-0.16-0.09-0.317-0.141-0.471-0.172c-0.809-2.283-1.722-4.536-2.889-6.651     c2.29,1.484,4.615,2.914,6.984,4.27c5.148,3.029,10.736,5.593,16.751,6.133c0.164,0.052,2.085,0.296,3.832,0.498     c-2.779,1.769-5.439,4.147-7.27,5.987c-0.138-0.077-0.274-0.155-0.401-0.243C217.853,281.928,217.158,281.466,216.461,281.006z      M216.95,284.772c-4.212,4.83-7.815,10.135-10.942,15.721c-0.028-2.235-0.115-4.468-0.271-6.699     c-0.187-5.902-1.168-11.791-2.842-17.46c3.428,1.978,6.855,3.959,10.234,6.02C214.383,283.188,215.606,284.089,216.95,284.772z      M174.626,227.772c0.067,0.008,0.128,0.015,0.183,0.021c0.638,0.161,3.447,1.598,4.469,2.729c1.501,1.705,3.093,3.32,4.748,4.869     c-1.417,0.457-3.007,1.382-4.682,2.837c-2.839,2.339-4.987,5.637-5.836,9.224c-0.033,0.329-0.094,0.685-0.133,1.043     c-6.219,2.421-9.642-1.213-10.158-6.507c-0.082-5.012,2.533-10.802,6.058-13.025c1.533-0.84,1.46-0.928,2.972-1.303     c0.769-0.047,1.541,0.051,2.308,0.105C174.638,227.776,174.648,227.776,174.626,227.772z M165.664,200.814     c0.099-0.133,0.183-0.287,0.24-0.476c1.056-5.77,8.673-9.77,14.926-10.319c6.037-0.331,10.183,1.679,14.262,6.058     c5.356,6.111,7.83,15.755,4.931,24.134c-2.067,5.904-5.524,11.242-11.051,14.122c-0.108,0.051-0.207,0.109-0.298,0.173     c-5.048-4.445-9.572-9.358-12.932-14.267C171.272,213.567,167.933,207.703,165.664,200.814z M315.35,242.833     c-0.173-0.069-0.365-0.115-0.587-0.12c-7.216-0.64-11.393-10.987-12.745-20.72c-1.798-11.923,3.561-25.562,14.186-30.093     c6.201-2.402,11.989-2.892,17.438-1.565c9.407,2.316,17.148,10.15,19.065,17.71c0.165,0.593,0.306,1.193,0.424,1.797     c0.047,0.309,0.168,0.599,0.373,0.837c-1.852,2.973-3.734,5.671-5.501,7.832c-4.38,5.424-10.234,10.796-14.656,13.91     C327.804,236.482,321.352,239.999,315.35,242.833z M144.535,219.051c-7.851-6.692-16.21-13.433-21.016-21.436     c-7.981-13.077-11.285-28.334-11.403-43.61c0.151-5.123,0.78-10.028,1.34-14.049c0.701-5.346,1.705-10.667,3.483-15.77     c0.363-1.353,2.386-4.741,2.981-4.871c0.071-0.036,0.117-0.059,0.152-0.078c0.049-0.017,0.1-0.029,0.15-0.043     c4.526-0.31,9.563,5.033,13.863,9.663c2.568,2.966,6.122,6.733,7.643,8.768c3.785,4.7,6.581,10.037,8.932,15.571     c1.66,3.847,3.701,7.997,5.232,13.521c0.743,2.229,1.191,4.332,1.521,6.202c-0.016,7.131,0.803,14.254,2.617,21.184     c2.631,11.193,7.711,21.728,14.656,30.869c-0.132-0.021-0.263-0.041-0.389-0.062c-2.221-0.455-4.394,0.318-6.263,1.491     c-3.506,2.165-6.04,6.387-7.16,10.696C157.398,229.679,150.728,224.242,144.535,219.051z M169.673,256.063     c-0.722,0.421-0.836,1.269-1.174,1.965c-0.666,1.595-1.322,3.193-1.992,4.786c-1.891,4.383-4.358,10.313-6.348,14.902     c-5.384,10.708-12.289,22.311-19.024,30.439c-2.543,3.096-4.94,6.336-7.911,9.047c-5.239,4.628-9.616,7.977-16.467,11.059     c-5.468,2.442-16.435,5.172-24.073,6.462c-8.281,1.514-12.123,2.221-20.489,2.429c-5.828-0.07-9.462-0.066-14.953-1.892     c-13.499-4.516-2.167-18.211,6.247-29.69c10.965-15.017,22.34-26.382,40.101-35.036c12.108-6.097,23.634-10.119,36.791-15.039     c5.6-2.202,11.538-3.334,17.218-5.287c0.093-0.026,0.176-0.061,0.256-0.098c0.023-0.011,0.048-0.013,0.071-0.026     c1.078-0.372,1.365-1.934,0.537-2.707c-0.495-0.5-1.178-0.525-1.838-0.491c-5.384,0.551-10.304,1.567-16.36,2.837     c-3.738,0.743-7.353,1.942-10.999,3.028c-4.505,1.206-9.027,2.437-13.638,3.163c-11.246,1.542-25.904,2.446-37.591-2.322     c-3.598-1.46-11.223-6.329-15.958-9.283c-3.446-2.138-6.619-4-8.837-6.021c-2.807-2.599-4.722-5.512-5.589-8.552     c-1.805-7.964,6.273-14.227,14.951-17.178c7.569-2.76,13.719-2.975,21.988-2.885c10.458,0.39,19.792,2.436,30.465,5.593     c9.743,2.934,17.564,5.463,26.08,10.434c5.036,2.995,8.785,6.741,13.961,11.983c1.837,1.861,3.396,3.51,5.264,5.627     c0.902,5.641,4.65,9.028,9.548,8.791c-0.065,1.299-0.088,2.599-0.091,3.9C169.771,256.022,169.719,256.034,169.673,256.063z      M195.708,330.186c-0.049,0.209-0.046,0.444,0.03,0.701c0.005,0.064,0.004,0.129,0.009,0.193     c-0.319,0.374-0.513,0.893-0.649,1.371c-0.421,1.155-0.872,2.298-1.279,3.457c-1.471,3.937-3.039,7.606-5.373,12.073     c-3.053,5.547-7.988,10.663-12.148,11.033c-1.868,0.01-3.179-1.486-4.975-4.196c-3.719-5.634-5.53-10.602-7.137-17.586     c-0.696-3.226-0.692-8.092-0.631-12.636c-0.174-13.177,2.84-24.794,6.423-38.068c1.273-4.754,2.096-9.611,2.61-14.502     c0.57-4.374,0.795-8.779,0.585-13.186c-0.051-1.937-0.165-3.874-0.097-5.813c-0.024-0.503,0.066-1.05,0.04-1.563     c0.318-0.109,0.64-0.236,0.963-0.372c0.032,0.01,0.056,0.03,0.089,0.038c3.655,0.927,5.779,2.081,9.45,3.984     c1.408,0.821,2.744,1.768,4.058,2.732c0.038,0.03,0.075,0.058,0.11,0.085c6.106,4.99,9.044,10.071,11.388,17.09     c2.704,7.671,3.494,13.975,3.869,21.653c0.163,2.488,0.188,4.988,0.113,7.48c-0.056,0.154-0.082,0.255-0.079,0.306     c-0.088,0.205-0.137,0.428-0.126,0.66c-0.006,0.302,0.074,0.567,0.209,0.789c-1.562,3.157-3,6.375-4.328,9.625     c-1.668,4.471-2.997,9.159-3.154,13.953C195.678,329.721,195.699,329.953,195.708,330.186z M205.203,332.189     c-1.786,0.992-2.718,1.116-5.298,1.17c-0.389-0.02-0.869-0.252-1.31-1.474c-0.661-7.433,3.304-16.6,7.168-24.303     c4.53-8.993,9.334-16.705,15.932-23.37c3.852-3.829,9.092-7.584,12.04-7.042c0.061,0.033,0.117,0.065,0.16,0.092     c0.598,0.528,0.716,1.064,0.848,1.239c0.628,1.54,0.98,3.173,1.211,4.816c1.714,12.587-12.745,32.758-22.479,41.992     C210.646,327.948,207.646,330.626,205.203,332.189z M233.681,380.306c-3.379,5.468-7.091,9.151-11.505,14.525     c-4.831,5.967-9.372,12.183-13.503,18.655c-3.103,4.828-6.328,9.623-8.733,14.85c-2.374,5.302-3.832,11.027-4.27,16.82     c-0.067,0.707-0.111,1.393-0.158,2.038c-3.065-4.858-5.558-10.069-7.941-15.29c-2.058-4.402-3.779-8.655-5.287-14.036     c-1.007-3.859-1.466-7.64-1.779-10.579c-1.014-12.62,0.402-23.411,4.671-35.322c2.192-7.178,5.803-13.107,10.341-19.812     c3.54-5.557,7.62-9.643,12.254-15.042c1.8-2.105,3.599-4.214,5.285-6.412c0.427-0.675,1.241-1.19,1.248-2.049     c0.001-0.015-0.002-0.028-0.002-0.043c5.467-4.902,10.251-10.563,14.365-16.663c0.216-0.057,0.424-0.171,0.606-0.361     c2.756-2.81,5.81-4.036,9.53-5.464c1.912-0.746,3.898-1.295,5.928-1.605c0.543-0.096,1.093-0.157,1.634-0.258     c0.02-0.003,0.041-0.006,0.061-0.01c0.01-0.002,0.019-0.003,0.029-0.005c0.032-0.008,0.032-0.01,0.016-0.009     c0.037-0.009,0.073-0.02,0.109-0.032c2.307,1.391,4.637,2.743,6.962,4.096c1.003,0.634,2.361-0.409,2.009-1.545     c-0.146-0.536-0.594-0.828-1.06-1.069c-0.766-0.444-1.512-0.92-2.261-1.391c-4.434-2.812-9.096-5.274-13.35-8.364     c-0.45-0.332-0.902-0.662-1.354-0.993c1.737-5.188,2.406-10.601,0.603-15.896c1.076,0.19,2.155,0.356,3.236,0.512     c0.052,0.246,0.176,0.485,0.392,0.692c4.504,3.844,8.152,8.598,12.585,12.53c2.616,2.233,7.585,6.175,9.187,7.369     c1.468,1.186,3.01,2.271,4.603,3.28c0.152,0.251,2.818,1.697,2.983,1.788c-2.059,0.083-4.095,0.488-6.062,1.378     c-1.278,0.471-2.031,1.417-1.875,2.825c0.044,0.601,0.139,1.192,0.268,1.776c-0.021,0.015-0.04,0.03-0.054,0.041     c-0.258,0.181-0.528,0.346-0.788,0.524c-1.231,0.781-2.539,1.43-3.822,2.121c-3.368,1.416-5.023,4.462-5.773,7.885     c-2.243,10.804-4.618,21.595-7.496,32.251C242.499,363.677,239.151,371.418,233.681,380.306z M252.147,392.455     c-5.314-1.896-10.293-4.475-15.449-7.833c-0.727-0.51-0.98-0.692-1.266-0.921c0.377-0.559,0.751-1.119,1.105-1.695     c4.96-7.954,8.73-16.614,11.62-25.519c2.087-7.111,3.671-14.355,5.281-21.588c0.054,0.005,0.108,0.01,0.165,0.008     c6.496-0.458,15.88-2.522,20.415-4.674c1.082-0.405,0.864-0.45,1.944-0.764c1.368,1.046,2.806,2.006,4.309,2.86     c4.594,2.915,9.872,4.368,15.166,5.397c7.212,1.431,14.669,2.413,22.01,1.522c1.488-0.002,4.156-1.401,5.143-3.887     c1.496,1.39,3.011,2.689,3.673,3.135c3.944,2.869,8.341,5.006,12.564,7.43c-10.703,10.668-22.199,18.583-35.867,26.242     c-9.916,5.872-20.144,11.938-29.937,15.377C265.73,390.194,259.13,391.76,252.147,392.455z M270.48,422.045     c0.617,2.823,0.567,6.548-0.561,9.943c-1.636,5.207-6.758,14.018-11.358,19.099c-2.559,3.014-4.265,4.955-7.198,6.549     c-2.138,0.98-1.968,1.161-4.064,1.098c-0.712-0.088-2.639-1.021-2.976-2.576c-0.521-2.703-0.169-5.649,2.287-8.68     c1.385-1.805,5.928-6.09,8.614-8.524c1.913-1.798,3.446-3.947,4.872-6.139c5.106-8.135,5.146-15.226,3.699-24.417     c-0.431-2.568-0.95-5.121-1.395-7.687c-0.177-0.793-0.267-1.643-0.424-2.466c0.161,0.03,0.322,0.055,0.483,0.084     c0.076,0.149,0.167,0.359,0.29,0.774c1.129,3.01,1.779,4.114,2.769,7.078C267.232,411.449,269.191,416.653,270.48,422.045z      M349.55,382.777c2.361,2.685,5.18,4.92,7.38,7.753c0.917,0.851,4.008,6.357,4.391,7.564c1.424,3.695,2.258,8.039,2.504,10.76     c1.028,10.938,0.21,24.245-6.821,30.896c-1.509,1.339-3.993,2.222-5.18,1.273c-1.927-0.939-3.941-5.002-3.942-7.139     c-0.386-8.609,2.645-16.893,3.585-26.24c0.467-5.802,0.436-11.791-1.266-17.404c-0.973-2.646-2.421-5.128-4.15-7.35     c-1.059-1.446-2.49-2.544-3.813-3.734c-0.039-0.028-0.074-0.062-0.112-0.092c0.899-0.575,1.792-1.157,2.674-1.75     C346.197,379.289,347.945,380.975,349.55,382.777z M357.004,362.133c-0.02,0.039-0.038,0.079-0.06,0.117     c-0.008,0.017-0.014,0.034-0.022,0.051c-0.259,0.253-0.519,0.505-0.779,0.758c-4.872,4.633-8.227,7.534-13.343,11.043     c-22.808,15.658-51.52,24.734-77.569,21.557c-1.972-0.289-3.867-0.643-5.705-1.062c13.686-2.544,26.52-8.371,38.442-15.465     c6.603-3.939,13.409-7.545,19.825-11.79c7.975-5.213,15.502-11.099,22.134-17.953c0.497-0.605,1.255-1.103,1.75-1.734     c0.376,0.238,0.755,0.471,1.125,0.719c4.338,2.949,8.195,6.629,12.246,11.108c0.7,0.771,1.38,1.559,2.051,2.354     c-0.037,0.09-0.071,0.182-0.091,0.28c0.051-0.124,0.083-0.203,0.107-0.262c0,0.001,0.001,0.001,0.001,0.001     C357.086,361.93,357.044,362.034,357.004,362.133z M371.257,363.84c-0.054,0.921-0.156,2.201-0.978,4.732     c0.03-0.074,0.022-0.044-0.011,0.035c-0.001,0.002-0.001,0.004-0.002,0.006c-0.029,0.076-0.059,0.151-0.091,0.226     c0.02-0.054,0.037-0.098,0.052-0.137c-0.053,0.12-0.13,0.278-0.209,0.396c-0.018,0.023-0.038,0.047-0.075,0.094     c-0.039,0.045-0.079,0.089-0.121,0.132c-0.094,0.083-0.158,0.142-0.204,0.186c-0.025,0.016-0.056,0.037-0.09,0.061     c-0.085,0.023-0.172,0.043-0.257,0.067c-0.045,0.007-0.077,0.013-0.104,0.018c-0.031-0.002-0.056-0.004-0.076-0.005     c-1.043-0.26-1.674-0.924-3.26-2.38c-4.075-4.054-7.462-8.729-11.5-12.82c-3.668-3.859-7.19-6.699-10.938-9.247     c-4.401-2.862-9.083-5.245-13.538-8.015c-3.21-2.106-5.745-4.269-8.832-7.598c-1.878-2.025-4.618-4.267-4.704-4.341     c7.872,3.288,18.47,6.73,25.465,9.659c4.916,2.377,9.459,5.455,13.829,8.713c3.686,2.67,6.526,4.792,10.123,8.499     c0.989,1.057,1.908,2.628,3.275,4.575C371.199,359.857,371.354,360.263,371.257,363.84z M398.289,292.811     c-1.326,6.898-3.509,13.585-6.021,20.134c-1.906,4.951-2.867,7.585-5.353,12.071c-3.326,5.881-7.131,11.139-10.622,15.543     c-2.286,2.945-4.368,6.002-6.483,7.799c0.846-1.944,2.438-7.399,3.082-10.442c2.209-9.49,3.69-19.419,3.391-29.231     c4.462-2.315,8.07-5.998,11.653-9.466c3.874-3.819,7.707-7.693,11.14-11.92c0.134-0.166,0.254-0.316,0.376-0.47     C399.178,288.549,398.807,290.528,398.289,292.811z M374.806,296.083c3.503,0.37,8.548,0.333,12.54-0.727     c-1.629,1.633-3.277,3.247-4.936,4.846c-2.484,2.192-4.026,3.709-6.309,5.104C375.872,302.208,375.45,299.128,374.806,296.083z      M433.718,242.811c-0.161,11.682-5.121,22.305-12.855,30.568c-2.779,2.911-4.692,4.379-7.22,6.286     c0.048-0.036,0.087-0.065,0.122-0.091c-0.269,0.203-0.794,0.605-0.977,0.774c-1.65,1.49-2.47,1.815-4.879,3.404     c-1.738,1.05-4.099,2.18-4.798,2.493c-0.007,0.003-0.014,0.005-0.021,0.009c0.096-0.909,0.16-1.821,0.209-2.734     c0.03-0.915,0.17-1.887-0.261-2.731c-0.517-0.937-1.893-1.175-2.648-0.386c-1.959,2.441-3.194,4.345-6.216,7.735     c-0.645,0.733-1.309,1.449-1.971,2.167c-0.372-0.037-0.752,0.04-1.112,0.17c-0.867,0.304-1.738,0.603-2.612,0.889     c-4.848,1.638-5.982,1.509-11.396,1.777c-0.982,0.002-1.959-0.091-2.934-0.2c-0.031-0.001-0.062-0.004-0.093-0.006     c-0.09-0.339-0.178-0.677-0.275-1.015c-2.386-6.67-5.577-13.091-9.911-18.718c-1.622-2.116-3.449-4.052-5.334-5.932     c6.991-1.373,14.026-2.533,20.956-4.197c1.109-0.345,2.377-0.441,3.37-1.048c0.949-0.631,0.816-2.202-0.168-2.736     c-0.583-0.346-1.227-0.202-1.848-0.059c-1.197,0.277-2.398,0.537-3.596,0.812c-6.857,1.481-13.773,2.674-20.644,4.087     c-0.34,0.1-0.598,0.269-0.795,0.473c-0.532-0.516-1.064-1.033-1.592-1.551c-1.101-1.065-2.157-2.173-3.199-3.294     c0.049-0.024,0.099-0.046,0.147-0.076c9.545-6.888,19.577-13.045,29.73-18.986c1.169-0.611,0.932-2.497-0.351-2.807     c-0.708-0.202-1.31,0.226-1.921,0.517c-9.849,5.122-19.169,11.214-28.234,17.606c-0.544,0.427-1.266,0.74-1.612,1.345     c-0.553-0.608-1.078-1.264-1.725-1.74c0.476-4.048-0.029-8.214-1.827-11.893c-1.943-3.073-5.12-5.114-8.25-6.827     c-0.564-0.288-1.148-0.531-1.74-0.753c0.697-0.5,1.39-1.006,2.074-1.526c4.622-3.555,8.853-7.653,12.667-12.06     c3.984-4.791,7.311-10.074,10.365-15.494c0.376-0.693,0.737-1.394,1.097-2.095c4.931-4.358,8.426-8.005,13.898-10.813     c19.581-9.757,40.989-6.99,51.435,13.591C431.764,217.969,433.983,230.235,433.718,242.811z"/>
			<path d="M201.932,157.727c0.543,0.411,1.169,0.697,1.819,0.895c1.496,0.335,2.991,0.226,4.472-0.057     c-2.763,3.644-4.157,8.382-4.028,12.904c0.002,2.896,0.525,5.845,2.173,8.28c3.974,6.304,13.111,8.325,18.974,3.432     c3.53-2.708,5.439-7.195,5.7-11.565c0.131-5.167-1.185-8.873-3.589-12.568c-2.271-3.37-6.3-5.129-10.253-5.501     c-4.264-0.393-8.66,2.021-11.607,1.996c-2.139,0.051-1.462-0.267-2.909-0.637c-0.991-0.208-1.898,0.871-1.602,1.822     C201.537,157.719,201.564,157.396,201.932,157.727z"/>
			<path d="M306.683,178.055c4.108-4.533,5.952-14.987,0.831-22.269c-0.654-0.93-1.45-1.808-2.345-2.563     c0.129-0.007,0.259-0.012,0.388-0.02c1.199-0.182,3.512-0.187,5.367-1.382c0.897-0.581,1.91-1.331,2.204-2.397     c0.227-1.185-1.534-1.795-2.108-0.728c-2.327,3.332-11.044,0.75-16.94,3.216c-10.711,4.163-15.714,17.603-7.738,26.823     C290.491,183.77,300.569,184.802,306.683,178.055z"/>
			<path d="M250.502,206.937c1.583,1.45,3.039,3.256,5.003,4.171c1.672,0.304,3.031-1.065,4.364-1.862     c2.739-1.84,6.513-5.319,7.984-6.42c0.282-0.232,1.341-1.089,1.521-1.245c0.284-0.218,0.504-0.516,0.598-0.865     c0.299-1.004-0.527-2.073-1.571-2.062c-0.606-0.016-1.078,0.383-1.534,0.736c0.408-0.316-1.477,1.089-1.814,1.378     c-4.112,3.308-5.226,4.743-8.981,7.008c-0.086-0.069-0.173-0.138-0.259-0.207c-2.248-1.972-4.341-4.12-6.504-6.185     c-0.726-0.751-1.48-1.475-2.198-2.234c-0.301-0.3-0.538-0.71-0.964-0.839c-1.472-0.699-2.838,1.34-1.662,2.466     C246.388,202.928,248.454,204.926,250.502,206.937z"/>
			<path d="M161.668,225.137c0.018-0.465-0.246-0.841-0.513-1.195c-0.435-0.629-0.858-1.265-1.274-1.907     c-2.988-4.574-5.776-9.265-8.221-14.153c-2.703-4.938-4.226-8.299-6.077-13.259c-2.234-5.569-4.037-13.253-4.683-17.964     c-0.238-0.978,0.003-2.238-0.642-3.04c-0.75-0.798-2.225-0.203-2.186,0.906c1.128,11.828,4.66,23.4,10.343,33.836     c3.229,6.189,6.58,12.424,10.835,17.959C160.16,227.117,161.704,226.339,161.668,225.137z"/>
			<path d="M151.089,241.184c-6.65-3.503-13.921-5.671-21.37-6.608c-5.703-0.644-11.452-0.936-17.182-1.263     c-3.714-0.151-7.42,0.325-11.132,0.234c-1.804,0.025-1.836,2.739,0,2.776c3.345,0.178,6.696-0.142,10.043,0.002     c4.329,0.169,8.623,0.8,12.943,1.089c4.715,0.337,8.279,0.894,13.498,2.16c3.157,0.741,9.688,3.391,10.075,3.571     c0.559,0.232,1.111,0.479,1.671,0.706c0.091,0.048,0.186,0.088,0.285,0.118c0.004,0.002,0.008,0.003,0.012,0.005     c-0.004-0.002-0.008-0.003-0.012-0.005c0.275,0.084,0.57,0.098,0.851,0.02C152.052,243.68,152.282,241.774,151.089,241.184z"/>
			<path d="M159.603,254.717c-5.079,2.599-10.432,4.634-15.429,7.398c-7.87,4.216-15.312,9.328-21.821,15.451     c-3.627,3.23-6.791,6.905-9.972,10.562c-2.891,3.265-5.874,6.447-8.733,9.741c-0.73,0.931-1.655,1.751-2.266,2.754     c-0.434,0.856,0.323,1.964,1.273,1.93c0.546,0.001,0.974-0.339,1.304-0.744c0.515-0.542,1.03-1.084,1.545-1.625     c1.792-1.914,3.565-3.846,5.357-5.761c3.612-3.798,6.932-7.868,10.629-11.583c5.398-5.217,9.665-8.699,15.575-12.63     c6.586-4.468,13.655-8.122,20.849-11.496c1.041-0.513,2.065-1.058,3.091-1.601c0.312-0.182,0.541-0.483,0.638-0.83     C161.992,255.141,160.629,254.073,159.603,254.717z"/>
			<path d="M179.52,257.181c-0.534-0.84-0.834-2.197-1.834-2.551c-1.055-0.322-2.03,0.932-1.441,1.874     c2.65,4.603,3.855,9.657,5.001,15.493c1.753,9.167,2.586,17.813,1.739,27.746c-0.294,2.891-0.353,3.731-0.885,6.448     c-0.12,0.94-0.539,1.876-0.489,2.82c0.046,0.763,0.781,1.341,1.524,1.346c1.587-0.011,1.616-1.801,1.855-2.972     c0.483-2.481,0.752-4.997,0.982-7.512c0.818-9.604-0.14-19.27-2.038-28.695C182.955,266.372,181.853,261.536,179.52,257.181z"/>
			<path d="M251.602,312.025c0.595-0.276,1.363-0.337,1.715-0.956c0.599-0.955-0.389-2.28-1.487-1.934     c-2.688,0.939-5.241,2.215-7.793,3.467c-2.625,1.284-5.282,2.524-7.737,4.121c-7.837,5.19-14.985,11.643-19.737,19.838     c-2.802,4.507-4.63,9.529-6.591,14.438c-3.286,8.7-5.591,17.74-8.794,26.475c-2.075,5.769-4.475,11.422-6.345,17.264     c-0.404,1.249-0.776,2.509-1.083,3.785c-0.072,0.391-0.262,0.779-0.173,1.178c0.03,0.551,0.489,1.028,1.009,1.171     c0.49,0.124,1.008-0.008,1.37-0.362c0.342-0.325,0.402-0.8,0.544-1.228c0.353-1.132,0.715-2.262,1.085-3.388     c1.869-5.577,4.14-11.004,6.204-16.509c5.023-13.44,8.514-28.14,14.772-39.738c3.8-6.503,7.314-11.023,13.33-15.917     c2.493-2.037,4.135-3.369,7.303-5.357c2.687-1.646,5.538-3.005,8.334-4.454C248.992,313.191,251.011,312.238,251.602,312.025z"/>
			<path style="fill:none;" d="M218.419,163.925c0,1.871-1.517,3.388-3.388,3.388c-1.871,0-3.388-1.517-3.388-3.388     c0-1.871,1.517-3.388,3.388-3.388C216.902,160.537,218.419,162.054,218.419,163.925z"/>
			<path style="fill:none;" d="M295.501,162.795c0,1.871-1.517,3.388-3.388,3.388c-1.871,0-3.388-1.517-3.388-3.388     c0-1.871,1.517-3.388,3.388-3.388C293.984,159.407,295.501,160.924,295.501,162.795z"/>
		</g>
		<g>
			<path d="M87.585,127.325c-11.04-5.265-15.353,17.799-14.445,19.788c-1.217-1.908-2.569-3.725-4.131-5.383     c-1.619-1.961-3.546-3.707-5.861-4.803c-5.409-2.977-13.293-2.467-13.816,5.042c-1.003,9.718,7.002,17.439,13.95,23.054     c4.401,3.61,8.963,7.034,13.752,10.113c1.491,0.934,2.994,1.851,4.491,2.775c0.659,0.34,1.26,0.916,2.017,0.989     c2.228,0.063,2.848-3.117,3.032-3.738c0.449-1.946,1.024-3.859,1.676-5.747c3.024-8.462,5.039-17.352,5.32-26.354     C93.584,137.672,92.601,130.362,87.585,127.325z M86.545,163.419c-1.094,3.628-2.435,7.202-3.295,10.894     c-0.143-0.084-0.282-0.172-0.413-0.266c-6.247-3.634-12.105-7.926-16.661-11.673c-7.342-5.909-13.913-12.337-13.098-20.105     c0.27-1.463,0.211-1.445,0.732-2.219c0.023-0.025,0.044-0.047,0.074-0.077c0.183-0.172,0.255-0.236,0.248-0.233     c0.31-0.198,0.738-0.414,0.935-0.513c0.034-0.012,0.067-0.027,0.101-0.038c3.288-0.822,7.808,0.745,11.007,4.184     c2.923,3.036,4.303,4.901,6.408,8.698c0.495,0.736,0.793,1.446,1.676,2.107c0.021,0.007,2.35,1.79,2.442-1.7     c0.609-23.091,8.954-25.442,11.554-19.333c2.591,6.09,1.715,12.506,0.98,18.11C88.588,155.363,87.709,159.429,86.545,163.419z"/>
			<path d="M53.906,139.909c-0.004,0.006-0.008,0.012-0.012,0.018c0,0,0,0,0,0C53.898,139.92,53.902,139.915,53.906,139.909z"/>
		</g>
		<g>
			<path d="M451.74,129.805c-3.119-11.827-23.505-0.21-24.436,1.769c0.669-2.162,1.182-4.368,1.437-6.631     c0.449-2.503,0.537-5.102-0.124-7.576c-1.224-6.051-6.71-11.738-12.778-7.283c-8.063,5.516-8.78,16.615-8.574,25.546     c0.09,5.691,0.426,11.385,1.172,17.03c0.251,1.742,0.523,3.48,0.786,5.22c0.167,0.723,0.116,1.554,0.549,2.178     c1.392,1.741,4.219,0.158,4.812-0.103c1.775-0.915,3.607-1.713,5.468-2.436c8.411-3.163,16.497-7.371,23.547-12.976     C447.723,141.07,452.665,135.594,451.74,129.805z M423.527,152.342c-3.475,1.51-7.069,2.797-10.442,4.528     c-0.028-0.164-0.051-0.327-0.064-0.487c-1.265-7.116-1.777-14.359-1.863-20.258c-0.238-9.421,0.421-18.59,6.874-22.989     c1.29-0.74,1.238-0.773,2.166-0.875c0.034,0.002,0.064,0.003,0.107,0.006c0.249,0.028,0.345,0.041,0.338,0.038     c0.352,0.109,0.793,0.296,0.996,0.382c0.031,0.018,0.063,0.034,0.094,0.053c2.753,1.977,4.478,6.439,3.922,11.103     c-0.427,4.192-0.958,6.451-2.495,10.512c-0.242,0.853-0.591,1.54-0.525,2.641c0.009,0.021,0.153,2.951,2.876,0.765     c18.013-14.461,25.201-9.613,22.219-3.681c-2.972,5.914-8.433,9.392-13.184,12.454     C430.995,148.693,427.324,150.65,423.527,152.342z"/>
			<path d="M420.369,112.241c-0.008,0.001-0.014,0.002-0.022,0.002l0,0C420.355,112.242,420.361,112.242,420.369,112.241z"/>
		</g>
	</g>
</g>
</svg>
