<?xml version="1.0" encoding="UTF-8"?>
<svg xmlns="http://www.w3.org/2000/svg" xmlns:xlink="http://www.w3.org/1999/xlink" width="2250" height="2250" viewBox="0 0 2250 2250">
<rect x="-225" y="-225" width="2700" height="2700" fill="rgb(100%, 100%, 100%)" fill-opacity="1"/>
<path fill-rule="nonzero" fill="rgb(0%, 0%, 0%)" fill-opacity="1" d="M 1766.519531 252.320312 C 1756.378906 252.488281 1746.390625 253.578125 1736.71875 255.441406 C 1716 259.429688 1696.628906 266.621094 1679.019531 275.25 C 1638.789062 294.96875 1604.71875 322.390625 1576.828125 348.160156 C 1547.050781 375.628906 1520.738281 404.898438 1499.550781 429.628906 C 1481.871094 449.988281 1463.890625 463.878906 1444.300781 470.199219 C 1427.480469 475.78125 1410.878906 474.851562 1398.019531 471.480469 C 1389.269531 469.21875 1381.539062 465.800781 1375.179688 462.410156 C 1356.53125 443.078125 1329.960938 419.539062 1294.960938 396.160156 C 1266.929688 377.429688 1232.320312 359.410156 1192.671875 348.78125 C 1193.941406 345.300781 1195.28125 341.109375 1196.601562 336.421875 C 1197.199219 332.988281 1197.609375 329.261719 1197.679688 325.328125 C 1197.871094 314.730469 1195.578125 306 1192.398438 299.808594 C 1189.289062 293.769531 1185.941406 291.191406 1184.910156 291.828125 C 1183.769531 292.550781 1185.058594 296.289062 1186.28125 301.980469 C 1187.609375 308.199219 1188.480469 315.121094 1188.320312 324.789062 C 1188.269531 328.269531 1188.078125 331.679688 1187.859375 334.839844 C 1186.988281 339.371094 1186.351562 343.53125 1185.949219 347.070312 C 1184.988281 346.839844 1184.039062 346.589844 1183.078125 346.359375 C 1172.769531 343.980469 1162.171875 342.171875 1151.359375 340.941406 C 1151.550781 335.890625 1151.359375 329.890625 1150.480469 323.320312 C 1149.910156 318.941406 1149.03125 314.308594 1147.71875 309.589844 C 1146.140625 303.898438 1144.109375 298.679688 1141.699219 293.960938 C 1132.609375 276.050781 1119.828125 270.308594 1118.761719 271.75 C 1117.558594 273.371094 1127.050781 282.011719 1133.75 297.679688 C 1135.621094 302.089844 1137.269531 306.839844 1138.710938 312.078125 C 1139.910156 316.410156 1140.859375 320.691406 1141.648438 324.761719 C 1142.761719 330.441406 1143.53125 335.679688 1144.160156 340.238281 C 1134.398438 339.390625 1124.5 339.019531 1114.480469 339.21875 C 1110.878906 339.289062 1107.300781 339.460938 1103.738281 339.679688 C 1103.101562 337.128906 1102.25 334.398438 1101.148438 331.570312 C 1100.011719 328.601562 1098.578125 325.511719 1096.808594 322.441406 C 1094.601562 318.609375 1092.101562 315.21875 1089.371094 312.308594 C 1079.03125 301.21875 1068.519531 300.871094 1067.96875 302.460938 C 1067.328125 304.371094 1075.421875 308.589844 1082.710938 318.019531 C 1084.800781 320.71875 1086.769531 323.710938 1088.710938 327.101562 C 1090.261719 329.789062 1091.660156 332.519531 1092.921875 335.121094 C 1093.789062 336.910156 1094.578125 338.640625 1095.328125 340.308594 C 1090.519531 340.738281 1085.75 341.28125 1081.019531 341.960938 C 1048.941406 346.628906 1019.261719 356.691406 993.121094 369.339844 C 965.792969 382.550781 942.0625 398.53125 922.191406 414.398438 C 900.980469 431.339844 883.640625 448.519531 870.144531 463.519531 C 867.941406 465.96875 865.867188 468.351562 863.855469 470.691406 C 855.746094 469.988281 844.539062 468.640625 830.714844 465.089844 C 803.445312 458.089844 765.972656 441.710938 731.730469 405.5 C 715.148438 387.949219 697.542969 368.089844 677.285156 347.570312 C 659.90625 329.941406 639.585938 310.949219 616.152344 295 C 595.367188 280.828125 570.753906 268.660156 543.296875 263.140625 C 514.925781 257.578125 484.585938 259.679688 455.316406 268.769531 C 424.804688 278.128906 393.175781 291.410156 364.894531 311.648438 C 336.839844 331.789062 312.78125 359.769531 298.398438 393.570312 C 281.003906 435.128906 278.183594 481.53125 283.84375 527.121094 C 285.832031 543.441406 288.726562 559.660156 292.402344 575.808594 C 304.285156 628.019531 323.976562 677.671875 345.035156 723.390625 C 377.746094 794.609375 407.351562 864.640625 433.59375 928.988281 C 458.359375 989.738281 473.929688 1030.351562 496.453125 1083.019531 C 512.351562 1120.351562 525.78125 1151.488281 546.152344 1180.570312 C 553.113281 1190.601562 560.933594 1199.800781 570.765625 1206.878906 C 578.945312 1212.800781 588.652344 1216.238281 598.542969 1216.199219 C 617.65625 1215.800781 634.691406 1208.910156 647.839844 1200.980469 C 663.871094 1191.359375 676.585938 1179.359375 685.808594 1169.378906 C 697.105469 1157.160156 705.179688 1145.761719 710.082031 1138.089844 C 711.492188 1135.878906 712.691406 1133.898438 713.695312 1132.160156 C 732.714844 1147.011719 752.984375 1158.488281 772.199219 1167.121094 C 800.785156 1179.988281 829.234375 1188.429688 854.4375 1194.070312 C 846.753906 1199.75 838.261719 1208.011719 829.121094 1219.871094 C 815.523438 1237.488281 802.503906 1259.339844 791.164062 1286.023438 C 777.019531 1319.300781 768.851562 1352.292969 764.519531 1375.316406 C 762.128906 1388.035156 760.765625 1398.148438 760.378906 1404.84375 C 736.542969 1387.523438 713.210938 1368.800781 691.835938 1354.550781 C 671.5 1340.996094 652.238281 1335.238281 634.945312 1334.296875 C 617.652344 1333.355469 602.324219 1337.234375 589.851562 1342.9375 C 569.394531 1352.296875 558.304688 1364.167969 554.132812 1368.925781 C 551.714844 1368.148438 548.816406 1367.335938 544.605469 1366.871094 C 535.011719 1365.820312 520.542969 1366.371094 499.808594 1371.988281 C 488.816406 1374.964844 481.136719 1379.449219 478.6875 1387.316406 C 476.242188 1395.179688 480.132812 1402.222656 484.714844 1408.328125 C 493.878906 1420.546875 509.398438 1433.054688 518.609375 1444.957031 C 526.242188 1454.8125 524.242188 1471.066406 523.914062 1488.199219 C 523.75 1496.765625 524.101562 1505.570312 528.074219 1513.640625 C 532.050781 1521.707031 540.058594 1528.15625 551.753906 1531.019531 C 563.914062 1533.996094 575.546875 1531.257812 585.308594 1525.910156 C 595.074219 1520.5625 603.273438 1512.714844 610.046875 1504.71875 C 621.042969 1491.734375 628.109375 1478.523438 630.472656 1473.835938 C 636.691406 1475.496094 643.1875 1478.398438 649.855469 1482.75 C 659.351562 1488.964844 667.605469 1496.707031 677.65625 1506.617188 C 685.257812 1514.148438 695.90625 1525.105469 705.648438 1534.445312 C 684.601562 1542.984375 647.171875 1564.703125 634.089844 1614.105469 C 625.410156 1604.003906 615.195312 1594.011719 603.15625 1585.007812 C 577.414062 1566.019531 543.414062 1552.484375 503.875 1549.246094 C 485.90625 1547.695312 466.304688 1549.238281 447.414062 1556.195312 C 432.042969 1561.953125 417.730469 1571.316406 405.832031 1583.664062 C 383.617188 1607.027344 370.414062 1637.808594 364.105469 1670.453125 C 360.714844 1688.050781 361.722656 1705.8125 364.949219 1722.800781 C 367.683594 1737.550781 371.894531 1751.960938 377.121094 1766.058594 C 378.9375 1770.960938 380.867188 1775.789062 382.875 1780.535156 C 401.136719 1823.828125 426.035156 1862.34375 452.992188 1895.628906 C 467.179688 1913.175781 482.050781 1929.246094 497.765625 1943.730469 C 512.535156 1957.371094 527.851562 1969.390625 544.324219 1979.164062 C 558.515625 1987.691406 573.636719 1994.273438 589.824219 1996.828125 C 596.949219 1997.9375 604.25 1998.035156 611.445312 1996.859375 C 618.550781 1995.679688 625.273438 1993.136719 631.21875 1989.453125 C 652.464844 1976.167969 668.242188 1958.878906 678.867188 1941.40625 C 683.636719 1933.480469 687.433594 1925.523438 690.464844 1917.808594 C 690.972656 1918.320312 691.496094 1918.835938 692.046875 1919.371094 C 697.179688 1921.917969 703.488281 1923.558594 710.667969 1923.777344 C 720.054688 1924.066406 728.402344 1921.890625 734.140625 1919.566406 C 735.292969 1923.734375 736.621094 1927.957031 738.265625 1932.1875 C 740.097656 1937.128906 742.722656 1942.558594 746.816406 1947.828125 C 754.527344 1957.035156 764.152344 1963.074219 773.554688 1967.25 C 785.632812 1972.871094 798.199219 1976.679688 810.804688 1979.597656 C 824.851562 1982.871094 839.164062 1985.222656 853.695312 1986.804688 C 869.636719 1988.535156 885.484375 1989.300781 901.019531 1989.40625 C 915.9375 1989.527344 930.6875 1988.980469 945.265625 1987.601562 C 957.976562 1986.410156 970.617188 1984.589844 983.109375 1981.476562 C 992.171875 1979.363281 1001.921875 1976.222656 1011.089844 1970.226562 C 1014.371094 1968.171875 1017.75 1965.0625 1020.640625 1960.695312 C 1023.179688 1956.644531 1024.328125 1951.769531 1023.820312 1946.578125 C 1022.820312 1938.589844 1022.089844 1930.402344 1021.390625 1922.335938 C 1020.398438 1910.992188 1019.578125 1899.835938 1018.839844 1888.867188 C 1056.890625 1902.207031 1140.511719 1923.699219 1227.640625 1894.957031 C 1227.359375 1899.21875 1227.109375 1903.503906 1226.941406 1907.820312 C 1226.761719 1912.421875 1226.660156 1917.242188 1226.839844 1922.230469 C 1226.921875 1925.667969 1227.230469 1929.648438 1228.171875 1934.054688 C 1230.210938 1942.152344 1234.261719 1948.902344 1239.199219 1954.046875 C 1245.109375 1960.390625 1251.839844 1965.339844 1258.710938 1969.296875 C 1263.519531 1972.089844 1268.46875 1974.5625 1273.511719 1976.792969 C 1273.628906 1976.878906 1273.75 1976.941406 1273.878906 1976.972656 C 1273.910156 1976.980469 1273.941406 1976.980469 1273.96875 1976.988281 C 1287.269531 1982.820312 1301.261719 1986.878906 1315.511719 1989.816406 C 1362.46875 1999.777344 1414.71875 1999.539062 1465.800781 1984.8125 C 1477.371094 1981.546875 1489.199219 1976.71875 1500.21875 1969.402344 C 1509.660156 1963.050781 1517.921875 1954.796875 1524.300781 1945.015625 C 1530.839844 1934.789062 1535.179688 1923.746094 1537.960938 1912.703125 C 1541.339844 1899.503906 1543.011719 1886.28125 1543.941406 1873.300781 C 1544.078125 1871.425781 1544.210938 1869.546875 1544.328125 1867.671875 C 1546.429688 1833.710938 1545.078125 1799.515625 1544.359375 1767.886719 C 1543.191406 1714.769531 1542.570312 1666.046875 1543.648438 1617.511719 C 1544.160156 1594.460938 1543.171875 1571.984375 1541.019531 1550.265625 C 1546.671875 1551.5625 1553.179688 1553.601562 1560.121094 1556.8125 C 1580.941406 1566.453125 1604.890625 1586.023438 1618.480469 1630.1875 C 1601.238281 1651.511719 1590.101562 1672.09375 1583.53125 1686.496094 C 1579.449219 1695.421875 1576.828125 1702.597656 1575.328125 1707.664062 C 1574.550781 1710.3125 1574.078125 1712.363281 1573.871094 1713.8125 C 1573.769531 1714.550781 1573.730469 1715.121094 1573.769531 1715.53125 C 1573.789062 1715.734375 1573.820312 1715.898438 1573.871094 1716.015625 C 1573.890625 1716.078125 1573.921875 1716.125 1573.960938 1716.164062 C 1573.988281 1716.203125 1574.03125 1716.230469 1574.078125 1716.25 L 1574.078125 1716.246094 C 1574.121094 1716.265625 1574.171875 1716.269531 1574.21875 1716.261719 C 1574.269531 1716.253906 1574.328125 1716.234375 1574.378906 1716.207031 C 1574.5 1716.148438 1574.628906 1716.050781 1574.78125 1715.910156 C 1575.070312 1715.628906 1575.421875 1715.1875 1575.839844 1714.589844 C 1576.660156 1713.425781 1577.761719 1711.625 1579.121094 1709.300781 C 1581.800781 1704.734375 1585.351562 1698.402344 1590.410156 1690.160156 C 1599.148438 1675.941406 1613.171875 1654.65625 1633.28125 1633.820312 C 1635.078125 1631.953125 1636.980469 1630.066406 1638.921875 1628.179688 L 1639.949219 1627.882812 C 1639.898438 1627.695312 1639.839844 1627.511719 1639.789062 1627.324219 C 1656.648438 1611.09375 1678.609375 1594.496094 1705.171875 1583.855469 C 1717.800781 1578.730469 1731.570312 1575.082031 1746.101562 1573.0625 C 1726.070312 1585.324219 1706.511719 1603.410156 1688.109375 1625.53125 C 1649.921875 1671.441406 1616.171875 1735.746094 1594.011719 1807.023438 C 1571.46875 1879.496094 1588.648438 1927.015625 1612.410156 1954.910156 C 1616.71875 1959.972656 1621.230469 1964.40625 1625.730469 1968.277344 C 1621.75 1966.671875 1617.960938 1964.796875 1614.441406 1962.707031 C 1596.679688 1952.273438 1584.261719 1936.324219 1576.421875 1922.289062 C 1555.941406 1885.605469 1557.78125 1858.199219 1555.699219 1858.234375 C 1553.621094 1858.269531 1547.109375 1885.753906 1566.199219 1927.449219 C 1573.53125 1943.472656 1586.21875 1962.0625 1606.378906 1975.511719 C 1622.320312 1986.0625 1643.089844 1992.863281 1665.75 1991.757812 C 1665.839844 1991.757812 1665.921875 1991.746094 1666 1991.738281 C 1666 1991.738281 1666.050781 1991.757812 1666.050781 1991.757812 L 1666.058594 1991.738281 C 1689.378906 1990.378906 1712.691406 1981.371094 1733.558594 1966.460938 C 1747.390625 1956.621094 1759.300781 1944.714844 1770.710938 1931.851562 C 1784.628906 1916.226562 1797.578125 1899.261719 1810 1881.023438 C 1835.71875 1843.3125 1859.371094 1800.421875 1876.621094 1753.066406 C 1878.058594 1749.128906 1879.460938 1745.152344 1880.789062 1741.132812 C 1886.679688 1723.4375 1891.289062 1705.496094 1894.039062 1687.246094 C 1897.089844 1667.457031 1897.699219 1647.144531 1893.621094 1627.230469 C 1889.949219 1609.140625 1881.378906 1592.097656 1868.058594 1579.167969 C 1852.101562 1564.296875 1832 1556.789062 1813.039062 1553.910156 C 1771.011719 1547.097656 1731.050781 1552.8125 1698.160156 1567.359375 C 1672.050781 1579.027344 1650.949219 1595.53125 1634.671875 1612.035156 C 1618.699219 1570.46875 1592.371094 1548.347656 1569.039062 1537.546875 C 1557.691406 1532.289062 1546.941406 1529.597656 1538.398438 1528.230469 C 1534.519531 1500.074219 1528.78125 1473.367188 1521.941406 1448.550781 C 1507.339844 1395.542969 1487.601562 1349.84375 1468.761719 1313.410156 C 1448.441406 1274.105469 1428.621094 1244.359375 1413.800781 1224.53125 C 1405.96875 1214.058594 1399.550781 1206.390625 1394.789062 1201.289062 C 1394.410156 1200.890625 1394.121094 1200.609375 1393.769531 1200.238281 C 1417.25 1195.828125 1443.210938 1189.140625 1469.398438 1178.839844 C 1492.539062 1169.75 1517.359375 1156.710938 1539.898438 1138.558594 C 1545.929688 1147.230469 1556.339844 1161.058594 1571.03125 1179.898438 C 1581.910156 1190.289062 1597.398438 1202.441406 1617.101562 1209.671875 C 1634.410156 1215.871094 1655.980469 1217.429688 1677.289062 1209.988281 C 1689.871094 1205.371094 1700.449219 1196.988281 1709.328125 1187.089844 C 1719.960938 1175.480469 1728.75 1162.269531 1736.851562 1147.898438 C 1755.070312 1115.679688 1768.808594 1081.011719 1782.5 1041.25 C 1794.789062 1005.671875 1805.359375 969.96875 1816.800781 930.351562 C 1820.960938 915.960938 1825.261719 900.898438 1829.71875 886.28125 C 1832.789062 876.289062 1835.761719 866.398438 1839.558594 857.398438 C 1841.171875 853.53125 1843.21875 849.558594 1845.441406 845.300781 C 1848.460938 839.53125 1851.640625 833.769531 1854.910156 827.859375 C 1863.410156 812.5 1872.460938 796.351562 1881.050781 780.230469 C 1902.960938 739.179688 1924.109375 694.839844 1940.441406 647.769531 C 1950.679688 618.378906 1959.199219 587.351562 1964.140625 555.359375 C 1967.550781 533.351562 1969.199219 511.25 1968.710938 489.160156 C 1968.070312 461.691406 1963.800781 434.539062 1955.398438 408.808594 C 1946.320312 381.121094 1932.441406 355.609375 1915.101562 333.488281 C 1898.738281 312.511719 1879.808594 293.769531 1857.789062 279.300781 C 1839.210938 267.121094 1818.601562 258.628906 1797.25 254.738281 C 1786.96875 252.910156 1776.671875 252.148438 1766.519531 252.320312 Z M 1766.78125 276.519531 C 1775.460938 276.480469 1784.171875 277.238281 1792.738281 278.921875 C 1810.519531 282.339844 1827.941406 289.839844 1843.820312 300.441406 C 1862.859375 313.089844 1879.519531 330.101562 1894.550781 349.46875 C 1909.910156 369.390625 1922.179688 392.300781 1930.140625 417.019531 C 1937.578125 440.019531 1941.308594 464.628906 1941.890625 489.78125 C 1942.378906 510.101562 1940.808594 530.601562 1937.578125 551.230469 C 1932.890625 581.199219 1924.800781 610.710938 1915.148438 639.050781 C 1899.640625 684.328125 1879.28125 727.578125 1858.121094 768.121094 C 1849.839844 783.980469 1840.980469 800.160156 1832.601562 815.660156 C 1829.378906 821.628906 1826.171875 827.609375 1823.050781 833.730469 C 1820.789062 838.140625 1818.480469 842.800781 1816.410156 847.871094 C 1812.109375 858.550781 1809.011719 869.238281 1806.121094 879.238281 C 1801.75 894.238281 1797.648438 909.449219 1793.730469 923.878906 C 1782.878906 963.730469 1773.160156 998.988281 1761.800781 1034.351562 C 1749.039062 1073.96875 1736.820312 1107.609375 1720.320312 1138.859375 C 1712.96875 1152.75 1705.460938 1165.050781 1696.398438 1175.589844 C 1688.640625 1184.421875 1680.761719 1191.609375 1671.71875 1195.058594 C 1654.628906 1201.949219 1636.261719 1201.539062 1621.269531 1197.050781 C 1604.03125 1192.058594 1589.109375 1181.839844 1578.148438 1172.949219 C 1562.480469 1155.710938 1550.730469 1143.191406 1543.230469 1135.789062 C 1555.898438 1125.191406 1567.769531 1112.949219 1578.101562 1098.789062 C 1578.25 1098.578125 1578.390625 1098.351562 1578.539062 1098.140625 C 1579.640625 1099.761719 1580.828125 1101.488281 1582.210938 1103.421875 C 1587.941406 1110.550781 1597.949219 1121.421875 1612.011719 1129.761719 C 1617.679688 1133.121094 1624.53125 1136.199219 1632.410156 1137.789062 C 1639.511719 1139.199219 1647.5 1139.101562 1655.46875 1136.578125 C 1664.039062 1133.699219 1671.679688 1128.480469 1677.828125 1121.730469 C 1685.859375 1112.988281 1691.800781 1102.691406 1696.46875 1091.671875 C 1705.289062 1071.25 1713.238281 1049.710938 1720.871094 1026.441406 C 1730.980469 995.609375 1740.261719 962.371094 1747.578125 936.359375 C 1755.941406 906.699219 1760.648438 889.699219 1767.679688 867.941406 C 1778.078125 836.171875 1787.601562 818.988281 1785.539062 817.460938 C 1783.480469 815.921875 1768.828125 832.179688 1755.148438 863.128906 C 1746.480469 882.601562 1738.921875 903.558594 1729.890625 930.949219 C 1720.949219 958.03125 1711.789062 988.460938 1701.441406 1020.070312 C 1693.890625 1043.121094 1686.550781 1064.039062 1678.53125 1084.230469 C 1674.511719 1094.160156 1670.171875 1102.800781 1664.289062 1109.660156 C 1659.898438 1114.730469 1655.078125 1118.691406 1649.878906 1120.660156 C 1645.199219 1122.589844 1639.851562 1123.019531 1634.851562 1122.5 C 1629.140625 1121.910156 1623.460938 1119.910156 1618.371094 1117.628906 C 1605.949219 1112.070312 1594.871094 1103.171875 1588.210938 1097.789062 C 1586.050781 1095.820312 1584.101562 1094.101562 1582.359375 1092.640625 C 1591.808594 1078.460938 1599.589844 1062.789062 1605.359375 1046.03125 C 1611.691406 1027.570312 1615.589844 1008.101562 1617.28125 988.140625 C 1617.859375 981.28125 1618.199219 974.390625 1618.300781 967.460938 C 1618.851562 931.988281 1613.371094 897.398438 1605.460938 865.558594 C 1595.300781 824.480469 1580.820312 786.390625 1565.769531 752.710938 C 1568.058594 753.171875 1570.550781 753.769531 1573.269531 754.601562 C 1579.191406 756.359375 1585.25 758.96875 1591.621094 762.820312 C 1601.769531 768.941406 1610.289062 776.789062 1616.269531 782.371094 C 1622.351562 788.039062 1626.21875 791.628906 1627.261719 790.878906 C 1628.308594 790.128906 1626.359375 785.089844 1621.308594 777.988281 C 1616.269531 770.910156 1607.941406 761.761719 1596.390625 754.878906 C 1589.25 750.621094 1582.070312 747.949219 1575.230469 746.578125 C 1570.511719 745.671875 1566.261719 745.46875 1562.628906 745.699219 C 1557.378906 734.210938 1552.019531 723.179688 1546.628906 712.539062 C 1555.800781 712.078125 1570.050781 710.570312 1586.75 708.238281 C 1592.308594 708.03125 1598.160156 707.941406 1604.140625 708.101562 C 1613.160156 708.351562 1621.359375 709.148438 1629.070312 710.511719 C 1641.578125 712.738281 1650.511719 715.988281 1657.550781 719.300781 C 1664.199219 722.421875 1667.949219 724.871094 1668.601562 724.140625 C 1669.25 723.410156 1666.609375 719.5 1660.261719 714.800781 C 1653.691406 709.941406 1643.941406 705.011719 1630.789062 702.03125 C 1622.578125 700.148438 1613.691406 699.050781 1604.121094 698.800781 C 1597.75 698.628906 1591.589844 698.839844 1585.789062 699.289062 C 1567.941406 702.429688 1553.121094 705.578125 1544.339844 708.050781 C 1539.378906 698.378906 1534.421875 689.078125 1529.511719 680.210938 C 1538.320312 675.839844 1551.238281 668.621094 1565.980469 659.769531 C 1570.171875 657.539062 1574.570312 655.230469 1579.070312 652.949219 C 1588.871094 647.988281 1597.578125 643.941406 1606.121094 640.410156 C 1617.839844 635.640625 1624.539062 633.320312 1632.148438 631.460938 C 1638.609375 629.890625 1642.578125 629.390625 1642.621094 628.46875 C 1642.648438 627.550781 1638.621094 626.320312 1631.511719 626.511719 C 1623.828125 626.710938 1614.828125 628.519531 1603.160156 632.550781 C 1594.148438 635.609375 1584.710938 639.628906 1574.710938 644.699219 C 1570.058594 647.050781 1565.589844 649.480469 1561.371094 651.898438 C 1546.921875 661.171875 1534.75 669.53125 1526.890625 675.511719 C 1520.449219 664.039062 1514.128906 653.261719 1508.089844 643.339844 C 1496.429688 626.148438 1486.121094 611.160156 1477.070312 598.160156 C 1486.410156 595.910156 1505.011719 589.980469 1531.519531 580.851562 C 1547.421875 572.929688 1566.089844 561.339844 1583.859375 544.738281 C 1600.578125 529.050781 1616.601562 508.449219 1628.058594 483.058594 C 1646.960938 441.570312 1674.308594 392.460938 1716.25 358.03125 C 1731.71875 345.480469 1749.578125 334.511719 1768.671875 331.960938 C 1771.769531 331.5 1774.910156 331.261719 1778.058594 331.25 C 1783.640625 331.210938 1789.179688 331.878906 1794.480469 333.238281 C 1803.878906 335.601562 1812.808594 340.28125 1820.890625 346.089844 C 1867.191406 379.691406 1894.890625 429.238281 1905.191406 475.53125 C 1912.679688 509.089844 1911.160156 541.378906 1905.890625 568.25 C 1892.210938 638.378906 1861.269531 675.328125 1863.5 676.898438 C 1865.71875 678.460938 1901.28125 644.730469 1919.621094 571.308594 C 1926.640625 543.101562 1929.589844 508.628906 1922.5 471.941406 C 1912.699219 421.371094 1883.640625 367.101562 1832.871094 329.710938 C 1823.179688 322.53125 1811.960938 316.710938 1799.570312 313.460938 C 1792.519531 311.648438 1785.25 310.761719 1777.949219 310.789062 C 1773.828125 310.808594 1769.730469 311.128906 1765.679688 311.730469 C 1741.238281 315.601562 1720.171875 328.179688 1703.351562 342.570312 C 1657.988281 380.949219 1630.230469 432.769531 1612.289062 476.21875 C 1602.578125 499.640625 1588.578125 519.191406 1573.78125 534.488281 C 1558.328125 550.558594 1541.519531 562.519531 1527.039062 571.210938 C 1501 582.46875 1483.101562 590.730469 1475.050781 595.269531 C 1453.109375 563.859375 1439.699219 546.039062 1438.269531 546.96875 C 1436.21875 548.289062 1458.730469 587.230469 1497.261719 649.960938 C 1512.921875 678.558594 1530.921875 713.570312 1547.660156 752.660156 C 1562.648438 787.660156 1577.421875 827.488281 1587.480469 869.921875 C 1594.761719 900.789062 1599.898438 933.859375 1599.371094 967.171875 C 1599.269531 973.671875 1598.949219 980.128906 1598.410156 986.539062 C 1596.828125 1005.140625 1593.351562 1023.121094 1587.660156 1040 C 1581.738281 1057.558594 1573.480469 1073.839844 1563.328125 1088.238281 C 1537.511719 1125.171875 1498.601562 1149.359375 1463.511719 1164.519531 C 1412.699219 1186.421875 1360.179688 1194.859375 1329.058594 1199.230469 C 1296.929688 1203.738281 1278 1205.511719 1276.589844 1207.050781 C 1280.078125 1191.53125 1282.910156 1177.238281 1285.050781 1164.871094 C 1288.800781 1143.261719 1290.851562 1126.199219 1291.828125 1114.230469 C 1292.339844 1108.070312 1292.550781 1103.371094 1292.53125 1100.109375 C 1292.519531 1098.46875 1292.449219 1097.21875 1292.328125 1096.371094 C 1292.261719 1095.941406 1292.191406 1095.609375 1292.109375 1095.390625 C 1292.058594 1095.28125 1292.019531 1095.191406 1291.96875 1095.128906 C 1291.921875 1095.089844 1291.859375 1095.058594 1291.800781 1095.058594 C 1291.75 1095.050781 1291.691406 1095.058594 1291.628906 1095.101562 C 1291.570312 1095.140625 1291.511719 1095.21875 1291.441406 1095.320312 C 1291.308594 1095.519531 1291.171875 1095.820312 1291.011719 1096.21875 C 1290.699219 1097.011719 1290.351562 1098.210938 1289.941406 1099.789062 C 1289.140625 1102.859375 1288.101562 1107.550781 1286.828125 1113.488281 C 1284.269531 1125.359375 1280.898438 1141.621094 1275.808594 1162.980469 C 1266.738281 1200.960938 1251.960938 1256.699219 1227.191406 1316.898438 C 1215.921875 1344.296875 1202.238281 1373.414062 1185.421875 1402.257812 C 1169.890625 1428.886719 1151.441406 1455.78125 1129.339844 1480.554688 C 1108.671875 1503.722656 1084.578125 1525.300781 1057.050781 1542.574219 C 1056.601562 1542.855469 1056.148438 1543.136719 1055.699219 1543.417969 C 1027.460938 1560.9375 996.953125 1573.039062 966.234375 1579.65625 C 935.265625 1586.308594 905.449219 1590.042969 876.429688 1589.667969 C 852.464844 1589.355469 829.785156 1586.242188 808.828125 1580.0625 C 790.183594 1574.585938 773.070312 1566.707031 757.894531 1557.476562 C 744.183594 1549.152344 731.710938 1539.457031 720.542969 1529.894531 L 720.484375 1529.585938 C 720.484375 1529.585938 720.289062 1529.632812 720.242188 1529.644531 C 719.636719 1529.121094 718.984375 1528.597656 718.386719 1528.078125 C 706.601562 1517.84375 695.929688 1507.484375 685.628906 1498.183594 C 675.066406 1488.601562 665.613281 1480.757812 654.878906 1474.5625 C 643.238281 1467.816406 631.675781 1464.925781 621.390625 1465.023438 C 594.148438 1465.558594 583.039062 1478.007812 583.648438 1479.128906 C 584.203125 1480.15625 595.351562 1471.980469 615.378906 1472.019531 C 612.089844 1477.902344 606.539062 1486.964844 599.246094 1495.574219 C 593.203125 1502.710938 586.027344 1509.371094 578.507812 1513.492188 C 570.984375 1517.613281 563.421875 1519.300781 555.121094 1517.269531 C 546.351562 1515.121094 542.984375 1511.867188 540.773438 1507.382812 C 538.5625 1502.894531 537.921875 1496.292969 538.074219 1488.46875 C 538.371094 1472.816406 542.21875 1452.324219 529.804688 1436.285156 C 518.972656 1422.296875 503.164062 1409.332031 496.039062 1399.832031 C 492.476562 1395.085938 491.992188 1392.214844 492.210938 1391.519531 C 492.425781 1390.824219 494.453125 1388.101562 503.507812 1385.648438 C 522.863281 1380.40625 535.535156 1380.121094 543.0625 1380.945312 C 546.828125 1381.359375 549.3125 1382.050781 550.746094 1382.558594 C 552.175781 1383.0625 552.097656 1383.089844 552.097656 1383.089844 L 557.496094 1386.582031 L 561.496094 1381.542969 C 561.496094 1381.542969 574.121094 1365.699219 595.742188 1355.808594 C 617.359375 1345.921875 646.976562 1341.660156 683.980469 1366.332031 C 722.035156 1391.703125 768.625 1434.1875 815.816406 1455.375 C 839.414062 1465.96875 863.613281 1471.324219 886.960938 1465.398438 C 897.613281 1462.691406 907.886719 1457.597656 917.640625 1449.890625 C 918.574219 1449.804688 920.285156 1448.316406 922.640625 1445.65625 C 932.390625 1436.867188 941.574219 1425.316406 950.023438 1410.632812 L 948.351562 1409.671875 C 951.675781 1404.613281 955.128906 1399.300781 958.847656 1393.464844 C 967.519531 1375.277344 975.628906 1352.640625 979.777344 1326.777344 C 982.460938 1309.730469 983.257812 1291.457031 981.429688 1272.625 C 980.492188 1263 978.90625 1253.621094 976.730469 1244.558594 C 962.316406 1184.738281 959.113281 1176.421875 950.222656 1133.058594 C 944.6875 1105.261719 945.980469 1088.738281 943.484375 1088.160156 C 940.289062 1087.421875 934.429688 1104.820312 936.957031 1134.921875 C 938.574219 1155.589844 941.769531 1176.238281 946.597656 1200.628906 C 937.871094 1198.941406 926.414062 1196.828125 911.648438 1193.890625 C 880.78125 1187.75 828.929688 1176.398438 779.320312 1151.980469 C 744.804688 1134.960938 706.917969 1108.871094 682.25 1070.820312 C 672.570312 1056.019531 664.78125 1039.449219 659.347656 1021.671875 C 654.144531 1004.679688 651.121094 986.660156 650.019531 968.078125 C 649.714844 963 649.554688 957.898438 649.53125 952.769531 C 649.378906 918.460938 655.40625 884.5 663.71875 852.96875 C 686.421875 766.949219 728.84375 689.859375 758.53125 639.300781 C 798.300781 578.910156 821.484375 541.371094 819.335938 539.878906 C 818.027344 538.96875 807.378906 551.660156 789.664062 574.800781 C 782.214844 573.988281 769.21875 573.339844 751.457031 572.851562 C 740.195312 570.851562 726.503906 567.148438 713.378906 560.011719 C 700.988281 553.378906 688.503906 543.289062 678.84375 529.550781 C 672.4375 520.488281 666.855469 511.308594 660.234375 500.691406 C 652.695312 488.570312 644.199219 474.898438 635.550781 461.699219 C 617.851562 434.660156 596.359375 404.261719 569.855469 377.289062 C 557.957031 365.179688 544.558594 353.410156 529.34375 343.460938 C 515.835938 334.601562 500.464844 327.210938 483.582031 323.351562 C 476.878906 321.839844 470.003906 320.988281 463.070312 320.808594 C 452.988281 320.550781 442.945312 321.730469 433.300781 324.320312 C 413.476562 329.789062 396.164062 340.371094 381.757812 352.628906 C 365.304688 366.5 351.976562 383.089844 342.421875 401.148438 C 333 419.050781 327.363281 437.988281 324.546875 456.339844 C 318.285156 497.578125 324.722656 537.171875 332.90625 568.121094 C 342.789062 605.660156 356.71875 636.550781 367.027344 656.488281 C 380.113281 679.410156 388.011719 691.769531 389.378906 691.070312 C 389.382812 691.070312 389.382812 691.070312 389.382812 691.070312 L 389.390625 691.070312 C 390.714844 690.289062 385.375 676.539062 374.785156 652.761719 C 366.71875 632.398438 354.996094 600.988281 347.210938 564.699219 C 340.78125 534.539062 335.84375 496.679688 342.609375 459.339844 C 345.582031 442.761719 350.941406 425.871094 359.492188 410.328125 C 368.074219 394.640625 380.03125 380.171875 394.648438 368.050781 C 407.675781 357.359375 422.507812 348.230469 438.59375 344.039062 C 446.292969 341.96875 454.390625 341.03125 462.535156 341.25 C 468.140625 341.398438 473.703125 342.089844 479.117188 343.289062 C 492.984375 346.320312 506.207031 352.710938 518.351562 360.449219 C 532.050781 369.210938 544.480469 379.96875 555.882812 391.230469 C 581.246094 416.289062 602.714844 445.46875 620.894531 471.589844 C 629.640625 484.171875 638.722656 497.808594 646.597656 509.519531 C 653.507812 519.789062 659.722656 529.121094 666.890625 538.398438 C 678.777344 553.769531 693.550781 564.429688 707.929688 571.03125 C 723.472656 578.058594 738.722656 580.910156 750.96875 581.898438 C 766.824219 580.871094 778.757812 579.859375 786.535156 578.890625 C 775.660156 593.179688 762.464844 610.898438 747.148438 631.808594 C 738.53125 644.910156 729.050781 659.921875 719.320312 676.488281 C 718.886719 675.691406 718.417969 674.851562 717.90625 673.980469 C 713.6875 666.738281 706.78125 657.171875 696.730469 647.898438 C 691.203125 642.800781 684.738281 637.851562 677.371094 633.628906 C 671.375 630.191406 665.285156 627.511719 659.21875 625.558594 C 629.875 616.210938 607.289062 625.03125 607.726562 627.121094 C 608.164062 629.210938 630.246094 624.570312 656.320312 634.070312 C 661.757812 636.03125 667.230469 638.570312 672.71875 641.71875 C 679.453125 645.601562 685.53125 650.019531 690.90625 654.511719 C 700.6875 662.699219 708.097656 671.050781 713.359375 677.199219 C 714.554688 678.589844 715.640625 679.890625 716.648438 681.078125 C 711.882812 689.300781 707.082031 697.890625 702.289062 706.828125 C 700.449219 706.039062 698.300781 705.210938 695.828125 704.359375 C 687.066406 701.359375 674.503906 698.210938 659.503906 697.03125 C 651.8125 696.421875 643.515625 696.359375 634.910156 697.171875 C 626.734375 697.941406 619.03125 699.441406 611.859375 701.558594 C 596.414062 706.128906 584.871094 713.449219 577.441406 719.730469 C 570.085938 725.960938 566.910156 730.78125 567.636719 731.53125 C 568.363281 732.269531 572.832031 728.921875 580.683594 724.261719 C 588.65625 719.519531 599.8125 713.820312 614.230469 710.140625 C 620.957031 708.429688 628.121094 707.179688 635.785156 706.46875 C 643.835938 705.710938 651.664062 705.621094 658.988281 705.878906 C 673.296875 706.398438 685.546875 708.308594 694.445312 709.800781 C 696.523438 710.148438 698.425781 710.480469 700.160156 710.769531 C 694.496094 721.46875 688.890625 732.691406 683.425781 744.300781 C 677.222656 745.359375 668.855469 747.238281 659.292969 749.78125 C 655.183594 751.421875 650.902344 753.429688 646.652344 755.878906 C 641.140625 759.050781 636.292969 762.628906 632.128906 766.511719 C 616.792969 780.859375 616.25 795.398438 617.746094 795.839844 C 619.671875 796.398438 624.539062 784.039062 637.910156 773.078125 C 641.765625 769.898438 646.085938 766.929688 651.023438 764.070312 C 654.816406 761.878906 658.652344 759.941406 662.339844 758.199219 C 668.933594 756.070312 674.859375 753.96875 679.804688 752.039062 C 666.296875 781.589844 653.921875 813.75 644.484375 847.769531 C 635.429688 880.398438 628.972656 916.070312 629.105469 952.851562 C 629.128906 958.351562 629.292969 963.828125 629.613281 969.289062 C 630.808594 989.339844 634.214844 1008.960938 640.054688 1027.640625 C 646.183594 1047.210938 654.980469 1065.421875 665.90625 1081.671875 C 668.464844 1085.449219 671.132812 1089.101562 673.890625 1092.640625 C 671.476562 1096.660156 668.199219 1101.25 663.84375 1105.210938 C 658.613281 1110.011719 651.191406 1114.160156 642.414062 1115.53125 C 631.566406 1117.410156 619.6875 1115.109375 605.96875 1110.28125 C 598.929688 1107.828125 592.546875 1102.429688 586.117188 1095.609375 C 578.742188 1087.578125 572.539062 1078.039062 566.375 1067.21875 C 560.089844 1056.140625 554.386719 1044.421875 548.929688 1031.941406 C 542.09375 1016.289062 535.925781 1000.03125 530.277344 984.929688 C 517.890625 951.71875 507.523438 921.21875 498.117188 896.871094 C 492.476562 882.269531 487.730469 871.011719 482.839844 861.078125 C 474.746094 844.570312 467.980469 836.410156 466.160156 837.539062 C 464.585938 838.511719 468.210938 847.730469 473.367188 864.808594 C 477.335938 878.089844 478.890625 883.699219 483.996094 901.601562 C 490.382812 924 500.675781 960.039062 511.597656 991.640625 C 516.925781 1007.121094 522.996094 1023.71875 530.195312 1040.140625 C 535.90625 1053.160156 542.082031 1065.519531 548.992188 1077.269531 C 555.730469 1088.769531 563.21875 1099.429688 572.320312 1108.730469 C 580.109375 1116.871094 589.496094 1123.511719 600.382812 1127.039062 C 616.070312 1132.011719 631.457031 1133.261719 645.476562 1129.800781 C 657.320312 1126.738281 666.320312 1120.03125 672.144531 1112.910156 C 675.675781 1108.550781 678.128906 1104.089844 679.859375 1099.980469 C 689.523438 1111.308594 700.128906 1121.320312 711.191406 1130.179688 C 709.777344 1131.898438 708.652344 1133.269531 706.695312 1135.621094 C 701.042969 1142.421875 692.003906 1153.050781 680.398438 1164.050781 C 670.847656 1173.078125 658.027344 1183.929688 642.78125 1192.109375 C 630.316406 1198.761719 614.734375 1204.410156 598.539062 1204 C 591.761719 1203.96875 584.746094 1201 578.496094 1196.328125 C 570.59375 1190.410156 564.195312 1182.148438 557.800781 1172.609375 C 539.152344 1144.519531 527.195312 1114.371094 511.867188 1076.601562 C 492.835938 1029.5 473.394531 977.328125 451.535156 921.800781 C 425.976562 856.878906 396.875 786.441406 364.277344 714.601562 C 343.859375 669.460938 324.722656 621.089844 313.308594 571.050781 C 309.777344 555.558594 307.015625 540.058594 305.144531 524.539062 C 300.050781 481.390625 302.15625 438.679688 317.785156 401.71875 C 330.191406 371.820312 351.710938 346.550781 376.835938 328.128906 C 402.390625 309.339844 432.027344 296.648438 461.128906 287.230469 C 487.578125 278.761719 514.769531 276.371094 539.882812 281.011719 C 564.328125 285.390625 587.082031 296.238281 606.820312 309.019531 C 629.140625 323.511719 649.171875 341.460938 666.6875 358.300781 C 687.070312 377.910156 705.253906 397.261719 722.597656 414.429688 C 759.957031 451.488281 800.476562 466.789062 829.171875 472.089844 C 841.867188 474.429688 852.308594 474.949219 860.359375 474.800781 C 850.933594 486.058594 843.785156 495.851562 838.765625 503.449219 C 835.308594 508.691406 832.886719 512.851562 831.402344 515.859375 C 830.648438 517.378906 830.152344 518.589844 829.898438 519.460938 C 829.773438 519.898438 829.710938 520.25 829.707031 520.519531 C 829.707031 520.648438 829.714844 520.761719 829.753906 520.851562 C 829.789062 520.929688 829.839844 520.988281 829.90625 521.03125 C 829.96875 521.070312 830.042969 521.101562 830.128906 521.109375 C 830.222656 521.109375 830.332031 521.078125 830.453125 521.03125 C 830.699219 520.941406 831.007812 520.75 831.371094 520.488281 C 832.09375 519.960938 833.058594 519.089844 834.253906 517.921875 C 836.558594 515.671875 839.921875 512.089844 844.082031 507.640625 C 852.148438 499.019531 863.488281 486.871094 878.589844 472.488281 C 878.640625 472.460938 878.726562 472.429688 878.765625 472.410156 C 878.839844 472.351562 878.894531 472.300781 878.929688 472.261719 C 878.96875 472.210938 878.984375 472.160156 878.976562 472.121094 C 893.246094 458.558594 911.066406 442.878906 932.179688 427.488281 C 951.96875 413.078125 975.15625 398.539062 1001.25 386.660156 C 1026.21875 375.300781 1054.128906 366.25 1083.878906 362.121094 C 1094.03125 360.710938 1104.390625 359.878906 1114.890625 359.671875 C 1136.859375 359.21875 1158.328125 361.488281 1178.660156 365.941406 C 1219.421875 374.820312 1255.898438 392.410156 1285.691406 410.640625 C 1365.039062 459.21875 1406.019531 509.261719 1408.699219 506.851562 C 1409.871094 505.800781 1403.648438 494.78125 1389.558594 478.230469 C 1391.390625 479.011719 1393.289062 479.75 1395.25 480.449219 C 1409.449219 485.421875 1427.960938 487.75 1447.921875 482.410156 C 1470.609375 476.171875 1492.089844 461.738281 1511.628906 440.421875 C 1533.550781 416.851562 1560.539062 388.75 1590.109375 362.980469 C 1617.988281 338.738281 1651.179688 313.171875 1688.800781 295.78125 C 1705.210938 288.191406 1722.789062 281.960938 1741 278.820312 C 1749.441406 277.359375 1758.089844 276.550781 1766.78125 276.519531 Z M 901.949219 725.128906 C 899.964844 725.140625 897.953125 725.238281 895.925781 725.441406 C 888.488281 726.171875 881.644531 728.078125 875.667969 730.640625 C 865.304688 735.070312 857.757812 741.101562 853.207031 746.191406 C 850.804688 748.878906 849.191406 751.328125 848.363281 753.328125 C 847.9375 754.351562 847.714844 755.25 847.695312 756 C 847.691406 756.371094 847.730469 756.710938 847.824219 757.011719 C 847.871094 757.160156 847.933594 757.300781 848.003906 757.429688 C 848.082031 757.570312 848.171875 757.691406 848.273438 757.808594 C 848.378906 757.921875 848.496094 758.019531 848.625 758.109375 C 848.746094 758.191406 848.878906 758.261719 849.023438 758.328125 C 849.304688 758.449219 849.632812 758.53125 849.996094 758.578125 C 850.710938 758.671875 851.589844 758.609375 852.601562 758.441406 C 854.570312 758.089844 857.144531 757.28125 860.148438 756.210938 C 865.84375 754.179688 873.496094 751.078125 882.105469 748.761719 C 887.050781 747.449219 892.40625 746.339844 897.945312 745.78125 C 901.984375 745.371094 905.84375 745.28125 909.539062 745.480469 C 919.21875 745.851562 928.226562 748.511719 934.753906 750.308594 C 941.402344 752.148438 946.03125 753.191406 947.492188 751.308594 C 949.316406 748.96875 940.484375 730.328125 911.648438 725.800781 C 908.5 725.339844 905.257812 725.109375 901.949219 725.128906 Z M 1333.441406 725.320312 C 1325.300781 725.410156 1317.679688 726.980469 1311.019531 729.410156 C 1300.449219 733.230469 1292.558594 738.800781 1287.710938 743.648438 C 1285.160156 746.191406 1283.410156 748.550781 1282.460938 750.5 C 1281.980469 751.5 1281.710938 752.378906 1281.648438 753.128906 C 1281.621094 753.511719 1281.648438 753.851562 1281.71875 754.160156 C 1281.75 754.261719 1281.78125 754.359375 1281.820312 754.460938 C 1281.839844 754.5 1281.859375 754.539062 1281.878906 754.578125 C 1282.019531 754.871094 1282.210938 755.101562 1282.460938 755.289062 C 1282.570312 755.378906 1282.699219 755.460938 1282.839844 755.53125 C 1283.109375 755.671875 1283.441406 755.769531 1283.800781 755.828125 C 1284.5 755.960938 1285.378906 755.960938 1286.398438 755.839844 C 1288.390625 755.609375 1291 754.941406 1294.070312 754.039062 C 1299.800781 752.359375 1307.691406 749.691406 1316.410156 747.859375 C 1320.609375 747 1325.109375 746.289062 1329.75 745.949219 C 1334.75 745.570312 1339.488281 745.640625 1343.988281 746.140625 C 1353.199219 747.019531 1361.621094 749.941406 1367.988281 752.101562 C 1374.429688 754.289062 1379.089844 755.769531 1381.101562 754.511719 C 1383.160156 753.210938 1382.070312 748.601562 1376.550781 742.621094 C 1371.171875 736.800781 1361.25 729.648438 1347.21875 726.609375 C 1343.339844 725.820312 1339.269531 725.371094 1335.078125 725.320312 C 1334.53125 725.308594 1333.988281 725.308594 1333.441406 725.320312 Z M 925.050781 835.171875 C 909.859375 835.171875 895.285156 843.140625 884.542969 857.320312 C 873.800781 871.488281 867.765625 890.71875 867.765625 910.769531 C 867.765625 930.820312 873.800781 950.050781 884.542969 964.21875 C 895.285156 978.398438 909.859375 986.371094 925.050781 986.371094 C 956.691406 986.359375 982.339844 952.519531 982.339844 910.769531 C 982.339844 869.019531 956.691406 835.171875 925.050781 835.171875 Z M 1342.011719 835.171875 C 1310.371094 835.171875 1284.71875 869.019531 1284.71875 910.769531 C 1284.71875 952.519531 1310.371094 986.359375 1342.011719 986.371094 C 1357.199219 986.371094 1371.769531 978.398438 1382.511719 964.21875 C 1393.261719 950.050781 1399.289062 930.820312 1399.289062 910.769531 C 1399.289062 890.71875 1393.261719 871.488281 1382.511719 857.320312 C 1371.769531 843.140625 1357.199219 835.171875 1342.011719 835.171875 Z M 864.652344 1196.25 C 882.144531 1199.78125 897.734375 1201.96875 910.175781 1203.371094 C 926.128906 1205.171875 938.710938 1206.011719 947.746094 1206.25 C 950.402344 1219.308594 953.457031 1233.359375 957.015625 1249.148438 C 958.867188 1257.367188 960.234375 1265.863281 961.078125 1274.597656 C 962.730469 1291.675781 962.265625 1308.339844 960.304688 1324.015625 C 957.460938 1347.46875 951.269531 1368.71875 944.710938 1386.421875 C 938.945312 1397.523438 933.941406 1407.488281 929.804688 1416.082031 C 915.167969 1436.992188 899.613281 1447.578125 883.476562 1451.675781 C 864.386719 1456.523438 843.535156 1452.300781 821.617188 1442.460938 C 803.074219 1434.136719 784.09375 1421.839844 765.355469 1408.4375 C 768.050781 1402.496094 771.714844 1392.035156 776.214844 1378.320312 C 783.199219 1357.046875 793.566406 1323.878906 806.761719 1292.632812 C 817.722656 1266.683594 828.847656 1245.988281 840.445312 1227.851562 C 850.339844 1212.398438 857.386719 1203.871094 864.652344 1196.25 Z M 1389.050781 1201.101562 C 1389.589844 1202.070312 1390.140625 1203.058594 1390.820312 1204.230469 C 1394.238281 1210.160156 1399.410156 1218.679688 1405.898438 1229.769531 C 1418.230469 1250.863281 1435.480469 1281.425781 1453.308594 1320.890625 C 1469.828125 1357.441406 1487.269531 1402.707031 1499.839844 1454.289062 C 1511.648438 1502.808594 1519.398438 1558.195312 1517.160156 1616.71875 C 1515.320312 1665.75 1515.421875 1715.25 1516.300781 1768.429688 C 1516.808594 1800.390625 1518.078125 1833.925781 1516.050781 1865.894531 C 1515.941406 1867.664062 1515.820312 1869.433594 1515.679688 1871.195312 C 1514.75 1883.277344 1513.378906 1894.835938 1510.570312 1905.65625 C 1508.21875 1914.566406 1505.140625 1922.847656 1500.628906 1929.707031 C 1496.488281 1936.1875 1490.890625 1941.816406 1484.5 1946.183594 C 1483.480469 1946.890625 1482.441406 1947.5625 1481.371094 1948.214844 C 1479.03125 1944.117188 1475.800781 1939.867188 1471.390625 1936.101562 C 1465.21875 1930.953125 1457.039062 1927.464844 1447.890625 1927.09375 C 1447.691406 1927.089844 1447.488281 1927.078125 1447.289062 1927.074219 C 1438.320312 1926.886719 1430.078125 1930.3125 1424.121094 1935.90625 C 1419.121094 1940.867188 1416.128906 1946.488281 1414.351562 1951.542969 C 1412.140625 1947.425781 1409.199219 1943.191406 1405.28125 1939.296875 C 1400.140625 1934.253906 1393.171875 1930.382812 1385.050781 1929.121094 C 1383.738281 1928.914062 1382.421875 1928.785156 1381.089844 1928.726562 C 1371.871094 1928.421875 1363.421875 1931.828125 1357.289062 1937.347656 C 1351.140625 1943.164062 1347.800781 1949.980469 1346.011719 1955.660156 C 1345.960938 1955.816406 1345.910156 1955.972656 1345.859375 1956.132812 C 1345.859375 1956.128906 1345.859375 1956.128906 1345.859375 1956.125 C 1343.570312 1949.859375 1339.71875 1942.394531 1333.21875 1935.820312 C 1328.070312 1930.777344 1321.109375 1926.90625 1312.988281 1925.644531 C 1311.679688 1925.441406 1310.359375 1925.308594 1309.03125 1925.25 C 1299.800781 1924.945312 1291.359375 1928.351562 1285.230469 1933.871094 C 1280.03125 1938.902344 1276.820312 1944.597656 1274.839844 1949.699219 C 1273.578125 1949.054688 1272.308594 1948.417969 1271.089844 1947.726562 C 1265.558594 1944.5625 1260.671875 1941.289062 1257.03125 1937.40625 C 1254.230469 1934.261719 1252.011719 1931.289062 1251.5 1928.5625 C 1250.949219 1926.625 1250.761719 1924.070312 1250.53125 1921.074219 C 1250.269531 1916.988281 1250.238281 1912.734375 1250.289062 1908.398438 C 1250.410156 1896.40625 1251.121094 1884.058594 1251.789062 1872.316406 C 1253.871094 1835.710938 1255.679688 1806.933594 1255.910156 1775.671875 C 1256.25 1735.089844 1254.050781 1704.578125 1247.730469 1676.351562 C 1244.078125 1659.949219 1239.390625 1647.261719 1233.648438 1636.820312 C 1222.121094 1615.703125 1209.578125 1611.753906 1209.121094 1612.386719 C 1208.238281 1613.613281 1217.929688 1621.082031 1225.800781 1640.554688 C 1229.949219 1650.890625 1232.960938 1662.679688 1235.261719 1678.648438 C 1239.230469 1706.410156 1239.449219 1734.800781 1237.339844 1775.109375 C 1235.671875 1806.496094 1232.890625 1833.269531 1229.578125 1870.699219 C 1229.550781 1871.058594 1229.519531 1871.445312 1229.488281 1871.804688 C 1138.351562 1905.558594 1047.949219 1877.371094 1017.390625 1865.671875 C 1015.578125 1833.597656 1014.671875 1804.339844 1014.550781 1776.707031 C 1014.390625 1732.765625 1015.730469 1702.734375 1019.96875 1673.136719 C 1022.328125 1656.839844 1024.789062 1645.78125 1028.480469 1635.453125 C 1030.488281 1629.828125 1032.390625 1625.777344 1034.480469 1622.28125 C 1038.429688 1615.707031 1041.839844 1613.132812 1041.398438 1612.386719 C 1041.070312 1611.84375 1036.390625 1612.660156 1030.449219 1619.269531 C 1027.46875 1622.566406 1024.53125 1626.824219 1021.648438 1632.492188 C 1016.441406 1642.722656 1012.410156 1654.75 1008.78125 1671.085938 C 1002.199219 1700.546875 998.902344 1732.65625 997.375 1776.4375 C 996.253906 1807.980469 996.371094 1841.964844 997.824219 1879.457031 L 997.398438 1880.355469 C 997.398438 1880.355469 997.757812 1880.519531 997.863281 1880.570312 C 997.902344 1881.5 997.929688 1882.40625 997.96875 1883.339844 C 998.507812 1896.539062 999.222656 1910.140625 1000.171875 1923.984375 C 1000.660156 1931.160156 1001.210938 1938.617188 1001.980469 1946.152344 C 1001.890625 1945.824219 1001.820312 1945.511719 1001.730469 1945.179688 C 999.367188 1939.632812 995.417969 1933.171875 989.089844 1927.640625 C 982.917969 1922.492188 974.734375 1919.003906 965.59375 1918.632812 C 965.394531 1918.628906 965.191406 1918.617188 964.992188 1918.613281 C 956.023438 1918.425781 947.78125 1921.851562 941.820312 1927.445312 C 936.894531 1932.453125 933.886719 1938.0625 932.066406 1943.121094 C 929.851562 1938.992188 926.910156 1934.742188 922.976562 1930.835938 C 917.835938 1925.792969 910.871094 1921.921875 902.753906 1920.660156 C 901.441406 1920.457031 900.117188 1920.324219 898.789062 1920.261719 C 889.566406 1919.960938 881.121094 1923.367188 874.992188 1928.886719 C 868.835938 1934.703125 865.496094 1941.519531 863.707031 1947.199219 C 863.65625 1947.355469 863.609375 1947.511719 863.5625 1947.671875 C 863.5625 1947.667969 863.558594 1947.667969 863.558594 1947.664062 C 861.269531 1941.398438 857.414062 1933.933594 850.914062 1927.363281 C 845.769531 1922.316406 838.804688 1918.445312 830.6875 1917.183594 C 829.375 1916.980469 828.054688 1916.851562 826.726562 1916.789062 C 817.503906 1916.488281 809.054688 1919.890625 802.925781 1925.410156 C 796.703125 1931.433594 793.3125 1938.421875 791.492188 1944.191406 C 791.191406 1946.179688 790.933594 1948.058594 790.710938 1949.84375 C 788.128906 1948.855469 785.597656 1947.800781 783.128906 1946.652344 C 775.273438 1942.808594 768.316406 1938.980469 764.285156 1933.683594 C 762.277344 1931.410156 760.726562 1927.9375 759.019531 1923.957031 C 756.824219 1918.558594 755.15625 1912.707031 753.648438 1906.679688 C 749.507812 1890.042969 747.109375 1872.707031 745.125 1855.953125 C 739.558594 1808.722656 737.636719 1760.183594 736.285156 1721.378906 C 735.691406 1643.566406 734.367188 1585.644531 732.417969 1557.734375 C 737.964844 1562.03125 743.78125 1566.226562 749.90625 1570.191406 C 765.859375 1580.515625 784.019531 1589.421875 804.027344 1595.761719 C 826.488281 1602.855469 850.699219 1606.664062 876.085938 1607.3125 C 906.757812 1608.101562 938.050781 1604.566406 970.09375 1597.871094 C 1002.96875 1591.015625 1035.558594 1578.230469 1065.691406 1559.527344 C 1066.179688 1559.230469 1066.660156 1558.929688 1067.140625 1558.628906 C 1096.449219 1540.179688 1121.808594 1517.347656 1143.289062 1492.890625 C 1166.230469 1466.773438 1185.078125 1438.683594 1200.671875 1410.992188 C 1217.558594 1381 1231 1350.925781 1241.808594 1322.699219 C 1258.03125 1280.351562 1268.988281 1240.730469 1276.519531 1207.328125 C 1277.320312 1208.890625 1296.460938 1210.121094 1329.949219 1208.050781 C 1345.460938 1207.089844 1365.949219 1205.191406 1389.050781 1201.089844 Z M 1093.699219 1213.339844 C 1092.789062 1213.339844 1091.871094 1213.339844 1090.949219 1213.351562 C 1079.429688 1213.5 1068.601562 1215.289062 1058.890625 1218 C 1043.148438 1222.398438 1030.75 1228.949219 1022.460938 1234.441406 C 1018.140625 1237.289062 1014.949219 1239.851562 1012.851562 1241.828125 C 1011.789062 1242.828125 1011.03125 1243.671875 1010.570312 1244.320312 C 1010.328125 1244.648438 1010.179688 1244.921875 1010.101562 1245.140625 C 1010.058594 1245.25 1010.039062 1245.351562 1010.039062 1245.429688 C 1010.039062 1245.511719 1010.058594 1245.578125 1010.101562 1245.628906 C 1010.140625 1245.691406 1010.199219 1245.71875 1010.28125 1245.738281 C 1010.359375 1245.769531 1010.460938 1245.769531 1010.570312 1245.761719 C 1010.800781 1245.738281 1011.101562 1245.671875 1011.46875 1245.550781 C 1012.210938 1245.308594 1013.238281 1244.871094 1014.519531 1244.269531 C 1017.929688 1242.679688 1021.710938 1240.78125 1025.121094 1239.191406 C 1033.839844 1235.140625 1046.140625 1229.941406 1061.070312 1226.441406 C 1070.269531 1224.28125 1080.390625 1222.828125 1091.070312 1222.691406 C 1097.929688 1222.589844 1104.519531 1223.039062 1110.820312 1223.960938 C 1128.839844 1226.550781 1143.910156 1233.070312 1154.21875 1238.191406 C 1164.609375 1243.351562 1170.660156 1247.101562 1171.328125 1246.230469 C 1172.671875 1244.488281 1151.171875 1221.769531 1112.25 1215 C 1106.308594 1213.980469 1100.109375 1213.410156 1093.699219 1213.351562 Z M 1084.371094 1271.195312 C 1074.070312 1271.140625 1064.269531 1272.390625 1055.320312 1274.46875 C 1039.441406 1278.148438 1026.761719 1284.128906 1018.191406 1289.257812 C 1013.75 1291.914062 1010.441406 1294.328125 1008.261719 1296.210938 C 1007.160156 1297.167969 1006.359375 1297.972656 1005.871094 1298.597656 C 1005.621094 1298.914062 1005.449219 1299.179688 1005.359375 1299.394531 C 1005.320312 1299.496094 1005.300781 1299.585938 1005.289062 1299.664062 C 1005.289062 1299.671875 1005.289062 1299.675781 1005.289062 1299.6875 C 1005.28125 1299.859375 1005.359375 1299.964844 1005.519531 1300.011719 C 1005.589844 1300.039062 1005.691406 1300.046875 1005.808594 1300.039062 C 1006.03125 1300.035156 1006.339844 1299.976562 1006.71875 1299.867188 C 1007.460938 1299.660156 1008.511719 1299.261719 1009.808594 1298.722656 C 1012.390625 1297.65625 1016.019531 1296.023438 1020.628906 1294.125 C 1029.480469 1290.488281 1041.980469 1285.835938 1057.109375 1282.992188 C 1065.28125 1281.460938 1074.179688 1280.5 1083.519531 1280.523438 C 1091.691406 1280.546875 1099.519531 1281.320312 1106.929688 1282.746094 C 1124.160156 1286.011719 1138.488281 1292.792969 1148.558594 1298.300781 C 1158.691406 1303.832031 1164.820312 1308.039062 1166.179688 1307.796875 C 1169.078125 1307.28125 1148.871094 1282.699219 1108.761719 1273.855469 C 1103.28125 1272.660156 1097.53125 1271.839844 1091.570312 1271.449219 C 1089.148438 1271.292969 1086.738281 1271.210938 1084.371094 1271.199219 Z M 720.28125 1547.804688 C 722.382812 1549.617188 724.53125 1551.421875 726.734375 1553.214844 C 724.015625 1579.015625 721.207031 1639.054688 718.714844 1721.421875 C 718.585938 1760.753906 719.160156 1809.355469 723.980469 1858.242188 C 725.65625 1875.386719 727.925781 1893.628906 732.167969 1911.847656 C 732.175781 1911.890625 732.191406 1911.9375 732.199219 1911.980469 C 727.011719 1912.476562 718.429688 1913.632812 711.65625 1913.667969 C 705.75 1913.699219 700.992188 1913.007812 696.488281 1911.699219 C 695.398438 1911.011719 694.351562 1910.382812 693.34375 1909.804688 C 695.824219 1902.382812 697.664062 1895.277344 698.953125 1888.800781 C 700.664062 1851.816406 700.722656 1831.074219 698.855469 1830.910156 C 696.988281 1830.742188 693.410156 1851.152344 688.691406 1887.109375 C 684.59375 1901.148438 677.960938 1917.949219 666.980469 1933.742188 C 660.570312 1943.078125 652.476562 1952.25 642.726562 1960.492188 C 643.964844 1958.085938 645.199219 1955.496094 646.394531 1952.667969 C 653.101562 1936.988281 658.058594 1917.390625 659.839844 1892.484375 C 663.53125 1840.78125 654.117188 1783.191406 629.066406 1716.171875 C 626.148438 1708.375 623.125 1700.71875 620.039062 1693.234375 C 605.125 1656.484375 584.671875 1626.011719 557.679688 1604.910156 C 535.378906 1587.609375 510.371094 1579.398438 488.882812 1577.394531 C 471.296875 1575.777344 455.890625 1577.851562 444.132812 1580.671875 C 447.617188 1578.714844 451.183594 1576.972656 454.832031 1575.527344 C 469.949219 1569.433594 486.6875 1567.804688 502.515625 1568.621094 C 538.734375 1570.699219 570.027344 1581.636719 594.0625 1597.855469 C 627.96875 1620.402344 649.675781 1653.527344 661.28125 1672.835938 C 673.90625 1693.839844 679.722656 1706.265625 681.136719 1705.703125 C 682.550781 1705.140625 679.53125 1691.636719 668.941406 1668.78125 C 664.433594 1659.058594 657.753906 1646.273438 648.398438 1632.691406 C 657.1875 1569.007812 706.507812 1551.488281 720.277344 1547.804688 Z M 1800.949219 1573.222656 C 1803.789062 1573.617188 1806.648438 1574.050781 1809.519531 1574.566406 C 1825.53125 1577.648438 1841.800781 1583.695312 1852.859375 1594.914062 C 1862.441406 1604.09375 1868.628906 1617.371094 1871.609375 1631.742188 C 1874.96875 1648.078125 1874.140625 1665.675781 1871.441406 1683.816406 C 1868.890625 1700.484375 1864.53125 1717.136719 1858.96875 1733.878906 C 1857.710938 1737.679688 1856.390625 1741.460938 1855.03125 1745.21875 C 1838.640625 1790.445312 1816.148438 1831.90625 1791.769531 1868.78125 C 1779.988281 1886.578125 1767.898438 1903.015625 1754.980469 1918.101562 C 1744.210938 1930.613281 1733.761719 1941.703125 1721.960938 1950.464844 C 1704.800781 1963.128906 1686.519531 1971.488281 1668.339844 1973.789062 C 1661.441406 1971.164062 1642.21875 1962.628906 1625.878906 1943.4375 C 1605.628906 1919.660156 1589.730469 1880.359375 1610.898438 1812.273438 C 1632.441406 1742.992188 1665.449219 1680.4375 1701.710938 1636.851562 C 1734.871094 1597.003906 1770.300781 1573.933594 1800.949219 1573.222656 Z M 465.570312 1586.710938 C 472.441406 1586.6875 479.839844 1587.140625 487.542969 1588.339844 C 507.039062 1591.347656 529.300781 1599.871094 548.816406 1615.996094 C 572.878906 1635.710938 590.898438 1664.214844 605.21875 1699.269531 C 608.183594 1706.648438 611.109375 1714.175781 613.953125 1721.8125 C 638.484375 1787.753906 648.820312 1841.78125 647.511719 1891.878906 C 646.886719 1915.914062 643.621094 1934.285156 638.660156 1949.773438 C 635.960938 1958.074219 632.941406 1964.710938 630.21875 1969.890625 C 627.691406 1971.570312 625.089844 1973.199219 622.390625 1974.742188 C 618.328125 1977.0625 613.65625 1978.601562 608.769531 1979.242188 C 603.746094 1979.925781 598.371094 1979.609375 592.847656 1978.617188 C 579.996094 1976.351562 567.480469 1970.210938 554.609375 1962.265625 C 539.855469 1953.039062 525.980469 1941.570312 512.167969 1928.382812 C 497.542969 1914.390625 483.640625 1898.855469 470.238281 1881.859375 C 444.753906 1849.484375 421.199219 1812.550781 404.046875 1771.632812 C 402.171875 1767.148438 400.375 1762.621094 398.683594 1758.0625 C 393.8125 1744.941406 389.925781 1731.816406 387.472656 1718.621094 C 384.714844 1703.359375 383.578125 1688.492188 386.320312 1674.808594 C 392.242188 1645.070312 403.019531 1617.929688 421.460938 1598.515625 C 424.066406 1595.726562 426.828125 1593.128906 429.707031 1590.699219 C 431.796875 1590.265625 434.023438 1589.824219 436.539062 1589.382812 C 444.101562 1588.0625 454.109375 1586.738281 465.570312 1586.710938 Z M 825.179688 1932.808594 C 825.492188 1932.808594 825.804688 1932.8125 826.121094 1932.832031 C 826.835938 1932.851562 827.554688 1932.910156 828.28125 1933.015625 C 832.742188 1933.667969 837.070312 1935.914062 840.488281 1938.726562 C 845.097656 1942.355469 848.777344 1947.671875 851.699219 1952.359375 C 853.617188 1956.820312 855.46875 1960.765625 857.1875 1964.054688 C 856.847656 1964.019531 856.507812 1963.988281 856.167969 1963.953125 C 842.449219 1962.476562 829.042969 1960.304688 815.984375 1957.285156 C 810.878906 1956.097656 805.898438 1954.800781 801.0625 1953.339844 C 801.722656 1951.714844 802.390625 1949.992188 803.070312 1948.160156 C 805.519531 1944.09375 808.667969 1939.53125 812.660156 1936.835938 C 815.921875 1934.332031 820.472656 1932.796875 825.179688 1932.808594 Z M 964.664062 1934.679688 C 964.773438 1934.683594 964.878906 1934.6875 964.988281 1934.6875 C 970.503906 1934.871094 975.773438 1936.765625 979.851562 1939.5625 C 984.195312 1942.308594 987.8125 1946.488281 990.660156 1950.28125 C 991.519531 1951.972656 992.363281 1953.554688 993.183594 1955.050781 C 988.714844 1956.972656 983.484375 1958.367188 977.804688 1959.835938 C 966.789062 1962.480469 955.25 1963.996094 943.214844 1965.058594 C 941.859375 1965.175781 940.488281 1965.253906 939.128906 1965.359375 C 938.996094 1964.3125 938.828125 1963.207031 938.617188 1962.050781 C 940.007812 1958.808594 941.476562 1954.832031 942.96875 1950.265625 C 945.261719 1946.128906 948.191406 1941.488281 952.003906 1938.777344 C 955.1875 1936.148438 959.859375 1934.582031 964.664062 1934.675781 Z M 897.242188 1936.28125 C 897.554688 1936.28125 897.871094 1936.289062 898.1875 1936.308594 C 898.898438 1936.328125 899.617188 1936.386719 900.34375 1936.492188 C 904.808594 1937.144531 909.136719 1939.386719 912.554688 1942.199219 C 917.222656 1946.007812 920.964844 1951.480469 923.914062 1956.246094 C 925.921875 1959.535156 927.746094 1962.960938 929.320312 1965.984375 C 920.074219 1966.453125 910.726562 1966.632812 901.246094 1966.523438 C 890.414062 1966.382812 879.484375 1965.933594 868.550781 1965.085938 C 870.082031 1961.800781 872.292969 1956.738281 874.988281 1952.101562 C 877.460938 1947.949219 880.667969 1943.210938 884.722656 1940.3125 C 887.984375 1937.808594 892.535156 1936.273438 897.242188 1936.285156 Z M 1307.480469 1941.265625 C 1307.789062 1941.265625 1308.109375 1941.273438 1308.421875 1941.289062 C 1309.140625 1941.308594 1309.859375 1941.371094 1310.578125 1941.476562 C 1315.050781 1942.128906 1319.371094 1944.371094 1322.789062 1947.183594 C 1327.398438 1950.816406 1331.078125 1956.132812 1334 1960.820312 C 1334.941406 1963.007812 1335.871094 1965.058594 1336.769531 1966.984375 C 1331.339844 1966.246094 1325.96875 1965.367188 1320.671875 1964.34375 C 1308.53125 1961.929688 1297.039062 1958.96875 1286.449219 1954.882812 C 1288.71875 1951.308594 1291.53125 1947.609375 1294.960938 1945.296875 C 1298.21875 1942.789062 1302.769531 1941.253906 1307.480469 1941.265625 Z M 1446.96875 1943.140625 C 1447.070312 1943.144531 1447.179688 1943.144531 1447.289062 1943.148438 C 1452.808594 1943.332031 1458.078125 1945.226562 1462.160156 1948.019531 C 1464.738281 1949.738281 1467.070312 1951.933594 1469.128906 1954.230469 C 1465.539062 1955.675781 1461.800781 1956.960938 1457.988281 1958.121094 C 1446.011719 1961.6875 1433.898438 1964.363281 1421.800781 1966.257812 C 1422.789062 1963.96875 1423.910156 1961.527344 1425.140625 1959.214844 C 1427.449219 1954.984375 1430.441406 1950.15625 1434.308594 1947.238281 C 1437.488281 1944.609375 1442.160156 1943.046875 1446.96875 1943.140625 Z M 1379.539062 1944.742188 C 1379.859375 1944.742188 1380.171875 1944.746094 1380.488281 1944.765625 C 1381.199219 1944.785156 1381.921875 1944.84375 1382.648438 1944.949219 C 1387.109375 1945.601562 1391.441406 1947.847656 1394.859375 1950.65625 C 1399.53125 1954.464844 1403.269531 1959.9375 1406.21875 1964.703125 C 1406.890625 1965.800781 1407.539062 1966.921875 1408.171875 1968.039062 C 1389.578125 1970.03125 1371.089844 1970.199219 1353.078125 1968.746094 C 1354.289062 1966.160156 1355.710938 1963.28125 1357.289062 1960.5625 C 1359.761719 1956.40625 1362.96875 1951.667969 1367.03125 1948.769531 C 1370.289062 1946.265625 1374.839844 1944.730469 1379.539062 1944.742188 "/>
<path fill-rule="nonzero" fill="rgb(100%, 100%, 100%)" fill-opacity="1" d="M 935.097656 905 C 935.097656 914.96875 929.109375 923.058594 921.722656 923.058594 C 914.332031 923.058594 908.34375 914.96875 908.34375 905 C 908.34375 895.019531 914.332031 886.941406 921.722656 886.941406 C 929.109375 886.941406 935.097656 895.019531 935.097656 905 "/>
<path fill-rule="nonzero" fill="rgb(100%, 100%, 100%)" fill-opacity="1" d="M 1347.128906 903.660156 C 1347.128906 908.449219 1345.71875 913.039062 1343.210938 916.429688 C 1340.699219 919.820312 1337.300781 921.71875 1333.75 921.71875 C 1330.210938 921.71875 1326.800781 919.820312 1324.289062 916.429688 C 1321.78125 913.039062 1320.378906 908.449219 1320.378906 903.660156 C 1320.378906 893.691406 1326.359375 885.601562 1333.75 885.601562 C 1341.140625 885.601562 1347.128906 893.691406 1347.128906 903.660156 "/>
<path fill-rule="nonzero" fill="rgb(100%, 100%, 100%)" fill-opacity="1" d="M 1343.121094 867.539062 C 1343.121094 864.21875 1345.109375 861.519531 1347.578125 861.519531 C 1350.039062 861.519531 1352.039062 864.21875 1352.039062 867.539062 C 1352.039062 870.871094 1350.039062 873.558594 1347.578125 873.558594 C 1345.109375 873.558594 1343.121094 870.871094 1343.121094 867.539062 "/>
<path fill-rule="nonzero" fill="rgb(100%, 100%, 100%)" fill-opacity="1" d="M 1352.039062 867.539062 C 1352.039062 870.871094 1350.039062 873.558594 1347.578125 873.558594 C 1345.109375 873.558594 1343.121094 870.871094 1343.121094 867.539062 C 1343.121094 865.941406 1343.589844 864.410156 1344.421875 863.28125 C 1345.261719 862.160156 1346.390625 861.519531 1347.578125 861.519531 C 1348.761719 861.519531 1349.890625 862.160156 1350.730469 863.28125 C 1351.570312 864.410156 1352.039062 865.941406 1352.039062 867.539062 "/>
<path fill-rule="nonzero" fill="rgb(100%, 100%, 100%)" fill-opacity="1" d="M 913.246094 876.910156 C 913.246094 878.5 912.777344 880.03125 911.941406 881.160156 C 911.105469 882.289062 909.972656 882.929688 908.789062 882.929688 C 907.605469 882.929688 906.472656 882.289062 905.636719 881.160156 C 904.800781 880.03125 904.328125 878.5 904.328125 876.910156 C 904.328125 875.308594 904.800781 873.78125 905.636719 872.648438 C 906.472656 871.519531 907.605469 870.890625 908.789062 870.890625 C 911.253906 870.890625 913.246094 873.578125 913.246094 876.910156 "/>
</svg>
